<svg xmlns="http://www.w3.org/2000/svg" viewBox="0 0 280 210.43"><defs><style>.cls-1{fill:#302a40;}.cls-2{fill:#d20330;}.cls-3{fill:#403851;}.cls-4{fill:#f39748;}.cls-5{fill:none;}</style></defs><title>background_image_34</title><g id="Layer_2" data-name="Layer 2"><g id="Layer_1-2" data-name="Layer 1"><rect class="cls-1" width="280" height="210"/><path class="cls-2" d="M280,0V10l-8.28,5.15a8.35,8.35,0,0,1-8.81,0L254.59,10l-8.31,5.17a8.35,8.35,0,0,1-8.81,0L229.15,10l-8.31,5.17a8.35,8.35,0,0,1-8.81,0L203.71,10l-8.31,5.17a8.35,8.35,0,0,1-8.81,0L178.27,10l-7.75,4.82a9.25,9.25,0,0,1-9.69,0l-8-4.87L145,14.83a9.25,9.25,0,0,1-9.78,0L127.39,10l-7.86,4.87a9.25,9.25,0,0,1-9.76,0L101.94,10l-8.31,5.17a8.35,8.35,0,0,1-8.81,0L76.5,10l-8.31,5.17a8.35,8.35,0,0,1-8.81,0L51.06,10l-8.31,5.17a8.35,8.35,0,0,1-8.81,0L25.62,10l-8.31,5.17a8.35,8.35,0,0,1-8.81,0L.18,10,0,10.06V0Z"/><path class="cls-2" d="M0,210.43v-10l8.28-5.15a8.35,8.35,0,0,1,8.81,0l8.31,5.17,8.31-5.17a8.35,8.35,0,0,1,8.81,0l8.31,5.17,8.31-5.17a8.35,8.35,0,0,1,8.81,0l8.31,5.17,8.31-5.17a8.35,8.35,0,0,1,8.81,0l8.31,5.17,7.75-4.82a9.25,9.25,0,0,1,9.69,0l8,4.87L135,195.6a9.25,9.25,0,0,1,9.78,0l7.82,4.87,7.86-4.87a9.25,9.25,0,0,1,9.76,0l7.83,4.87,8.31-5.17a8.35,8.35,0,0,1,8.81,0l8.31,5.17,8.31-5.17a8.35,8.35,0,0,1,8.81,0l8.31,5.17,8.31-5.17a8.35,8.35,0,0,1,8.81,0l8.31,5.17,8.31-5.17a8.35,8.35,0,0,1,8.81,0l8.31,5.17.18-.11v10.06Z"/><path class="cls-3" d="M21.16,39.19v.06l4.75,1.86v3.15l-7.6-3.7V37.83l7.6-3.7v3.14Z"/><path class="cls-3" d="M29.43,47.59H27.37l4.28-16.23h2.06Z"/><path class="cls-3" d="M35.52,37.28V34.13l7.6,3.7v2.73l-7.6,3.7V41.11l4.75-1.86v-.06Z"/><path class="cls-3" d="M62.89,64.93V65l4.75,1.86V70L60,66.31V63.57l7.6-3.7V63Z"/><path class="cls-3" d="M71.16,73.33H69.1L73.37,57.1h2.06Z"/><path class="cls-3" d="M77.25,63V59.88l7.6,3.7v2.73L77.25,70V66.85L82,65v-.06Z"/><path class="cls-3" d="M110.57,39.19v.06l4.75,1.86v3.15l-7.6-3.7V37.83l7.6-3.7v3.14Z"/><path class="cls-3" d="M118.84,47.59h-2.06l4.28-16.23h2.06Z"/><path class="cls-3" d="M124.93,37.28V34.13l7.6,3.7v2.73l-7.6,3.7V41.11l4.75-1.86v-.06Z"/><path class="cls-3" d="M152.29,64.93V65L157,66.85V70l-7.6-3.7V63.57l7.6-3.7V63Z"/><path class="cls-3" d="M160.56,73.33h-2.06l4.28-16.23h2.06Z"/><path class="cls-3" d="M166.66,63V59.88l7.6,3.7v2.73l-7.6,3.7V66.85L171.41,65v-.06Z"/><path class="cls-3" d="M200,39.19v.06l4.75,1.86v3.15l-7.6-3.7V37.83l7.6-3.7v3.14Z"/><path class="cls-3" d="M208.25,47.59h-2.06l4.28-16.23h2.06Z"/><path class="cls-3" d="M214.34,37.28V34.13l7.6,3.7v2.73l-7.6,3.7V41.11l4.75-1.86v-.06Z"/><path class="cls-3" d="M241.7,64.93V65l4.75,1.86V70l-7.6-3.7V63.57l7.6-3.7V63Z"/><path class="cls-3" d="M250,73.33h-2.06l4.28-16.23h2.06Z"/><path class="cls-3" d="M256.07,63V59.88l7.6,3.7v2.73l-7.6,3.7V66.85L260.82,65v-.06Z"/><path class="cls-3" d="M21.16,91.19v.06l4.75,1.86v3.15l-7.6-3.7V89.83l7.6-3.7v3.14Z"/><path class="cls-3" d="M29.43,99.59H27.37l4.28-16.23h2.06Z"/><path class="cls-3" d="M35.52,89.28V86.13l7.6,3.7v2.73l-7.6,3.7V93.11l4.75-1.86v-.06Z"/><path class="cls-3" d="M62.89,116.93V117l4.75,1.86V122l-7.6-3.7v-2.73l7.6-3.7V115Z"/><path class="cls-3" d="M71.16,125.33H69.1l4.28-16.23h2.06Z"/><path class="cls-3" d="M77.25,115v-3.14l7.6,3.7v2.73l-7.6,3.7v-3.15L82,117v-.06Z"/><path class="cls-3" d="M110.57,91.19v.06l4.75,1.86v3.15l-7.6-3.7V89.83l7.6-3.7v3.14Z"/><path class="cls-3" d="M118.84,99.59h-2.06l4.28-16.23h2.06Z"/><path class="cls-3" d="M124.93,89.28V86.13l7.6,3.7v2.73l-7.6,3.7V93.11l4.75-1.86v-.06Z"/><path class="cls-3" d="M152.29,116.93V117l4.75,1.86V122l-7.6-3.7v-2.73l7.6-3.7V115Z"/><path class="cls-3" d="M160.56,125.33h-2.06l4.28-16.23h2.06Z"/><path class="cls-3" d="M166.66,115v-3.14l7.6,3.7v2.73l-7.6,3.7v-3.15l4.75-1.86v-.06Z"/><path class="cls-3" d="M200,91.19v.06l4.75,1.86v3.15l-7.6-3.7V89.83l7.6-3.7v3.14Z"/><path class="cls-3" d="M208.25,99.59h-2.06l4.28-16.23h2.06Z"/><path class="cls-3" d="M214.34,89.28V86.13l7.6,3.7v2.73l-7.6,3.7V93.11l4.75-1.86v-.06Z"/><path class="cls-3" d="M241.7,116.93V117l4.75,1.86V122l-7.6-3.7v-2.73l7.6-3.7V115Z"/><path class="cls-3" d="M250,125.33h-2.06l4.28-16.23h2.06Z"/><path class="cls-3" d="M256.07,115v-3.14l7.6,3.7v2.73l-7.6,3.7v-3.15l4.75-1.86v-.06Z"/><path class="cls-3" d="M21.16,143.19v.06l4.75,1.86v3.15l-7.6-3.7v-2.73l7.6-3.7v3.14Z"/><path class="cls-3" d="M29.43,151.59H27.37l4.28-16.23h2.06Z"/><path class="cls-3" d="M35.52,141.28v-3.14l7.6,3.7v2.73l-7.6,3.7v-3.15l4.75-1.86v-.06Z"/><path class="cls-3" d="M62.89,168.93V169l4.75,1.86V174l-7.6-3.7v-2.73l7.6-3.7V167Z"/><path class="cls-3" d="M71.16,177.33H69.1l4.28-16.23h2.06Z"/><path class="cls-3" d="M77.25,167v-3.14l7.6,3.7v2.73l-7.6,3.7v-3.15L82,169v-.06Z"/><path class="cls-3" d="M110.57,143.19v.06l4.75,1.86v3.15l-7.6-3.7v-2.73l7.6-3.7v3.14Z"/><path class="cls-3" d="M118.84,151.59h-2.06l4.28-16.23h2.06Z"/><path class="cls-3" d="M124.93,141.28v-3.14l7.6,3.7v2.73l-7.6,3.7v-3.15l4.75-1.86v-.06Z"/><path class="cls-3" d="M152.29,168.93V169l4.75,1.86V174l-7.6-3.7v-2.73l7.6-3.7V167Z"/><path class="cls-3" d="M160.56,177.33h-2.06l4.28-16.23h2.06Z"/><path class="cls-3" d="M166.66,167v-3.14l7.6,3.7v2.73l-7.6,3.7v-3.15l4.75-1.86v-.06Z"/><path class="cls-3" d="M200,143.19v.06l4.75,1.86v3.15l-7.6-3.7v-2.73l7.6-3.7v3.14Z"/><path class="cls-3" d="M208.25,151.59h-2.06l4.28-16.23h2.06Z"/><path class="cls-3" d="M214.34,141.28v-3.14l7.6,3.7v2.73l-7.6,3.7v-3.15l4.75-1.86v-.06Z"/><path class="cls-3" d="M241.7,168.93V169l4.75,1.86V174l-7.6-3.7v-2.73l7.6-3.7V167Z"/><path class="cls-3" d="M250,177.33h-2.06l4.28-16.23h2.06Z"/><path class="cls-3" d="M256.07,167v-3.14l7.6,3.7v2.73l-7.6,3.7v-3.15l4.75-1.86v-.06Z"/><rect class="cls-4" x="121.7" y="32.31" width="22.5" height="8.75"/><rect class="cls-4" x="121.7" y="53.94" width="22.5" height="19"/><rect class="cls-4" x="200.23" y="53.94" width="22.5" height="19"/><rect class="cls-4" x="150.72" y="32.31" width="22.5" height="8.75"/><rect class="cls-4" x="150.72" y="53.94" width="22.5" height="8.75"/><rect class="cls-4" x="200.23" y="86.44" width="22.5" height="8.75"/><rect class="cls-4" x="185.42" y="32.31" width="52.13" height="8.75"/><rect class="cls-4" x="131.89" y="38.94" width="2.13" height="19.38"/><rect class="cls-4" x="146.91" y="49.69" width="2.13" height="19.38" transform="translate(207.35 -88.6) rotate(90)"/><rect class="cls-4" x="177.79" y="27" width="2.13" height="19.38" transform="translate(215.54 -142.16) rotate(90)"/><rect class="cls-4" x="160.91" y="38.94" width="2.13" height="19.38"/><rect class="cls-4" x="210.42" y="38.94" width="2.13" height="19.38"/><rect class="cls-4" x="210.42" y="69.31" width="2.13" height="19.38"/><rect class="cls-4" x="42.82" y="86" width="22.5" height="8.75"/><rect class="cls-4" x="42.82" y="107.63" width="22.5" height="19"/><rect class="cls-4" x="121.35" y="107.63" width="22.5" height="19"/><rect class="cls-4" x="71.84" y="86" width="22.5" height="8.75"/><rect class="cls-4" x="71.84" y="107.63" width="22.5" height="8.75"/><rect class="cls-4" x="151.79" y="158.06" width="22.5" height="8.75"/><rect class="cls-4" x="121.35" y="158.06" width="22.5" height="20.05"/><rect class="cls-4" x="121.35" y="140.13" width="22.5" height="8.75"/><rect class="cls-4" x="106.54" y="86" width="52.13" height="8.75"/><rect class="cls-4" x="53.01" y="92.63" width="2.13" height="19.38"/><rect class="cls-4" x="68.03" y="103.38" width="2.13" height="19.38" transform="translate(182.16 43.97) rotate(90)"/><rect class="cls-4" x="98.91" y="78.69" width="2.13" height="19.38" transform="translate(188.34 -11.59) rotate(90)"/><rect class="cls-4" x="149.66" y="153.4" width="2.13" height="19.38" transform="translate(313.81 12.36) rotate(90)"/><rect class="cls-4" x="82.03" y="92.63" width="2.13" height="19.38"/><rect class="cls-4" x="131.54" y="92.63" width="2.13" height="19.38"/><rect class="cls-4" x="131.54" y="67.94" width="2.13" height="19.38"/><rect class="cls-4" x="131.54" y="123" width="2.13" height="19.38"/><rect class="cls-4" x="131.54" y="146.82" width="2.13" height="19.38"/><rect class="cls-5" x="34.95" y="49.58" width="210.47" height="111.27"/></g></g></svg>