<svg xmlns="http://www.w3.org/2000/svg" viewBox="0 0 280 210"><defs><style>.cls-1{fill:#2f84bb;}.cls-2{fill:#2494dd;}.cls-3{fill:#38aeff;}.cls-4{fill:#38bdff;}.cls-5{fill:#fff;}</style></defs><title>background_image_11</title><g id="Layer_2" data-name="Layer 2"><g id="Layer_1-2" data-name="Layer 1"><polygon class="cls-1" points="187.42 64.68 137.41 14.68 107.43 194.24 187.42 64.68"/><polygon class="cls-2" points="113.59 180.17 113.37 181.47 113.99 183.25 199.41 90.74 180.49 71.82 113.59 180.17"/><polygon class="cls-2" points="113.16 180.86 113.59 180.17 138.67 30 112.35 3.68 108.86 168.43 113.16 180.86"/><polygon class="cls-3" points="111.68 183.25 127.1 210 280 210 280 173.92 200.58 86.96 111.68 183.25"/><polygon class="cls-3" points="116.16 7.49 106.08 0 54.37 0 111.09 171.32 116.16 7.49"/><polygon class="cls-4" points="224.13 0 145.09 0 114.78 0 106.08 0 114.6 8.53 139.5 33.43 179.06 72.99 196.96 90.88 280 173.92 280 0.94 280 0 224.13 0"/><polygon class="cls-4" points="116.16 178.4 115.57 176.71 115.38 176.14 111.3 164.38 54.37 0 0 0 0 210 86.98 210 97.33 210 110.02 210 110.34 210 127.1 210 116.16 178.4"/><polygon class="cls-5" points="215.78 94.26 226.09 83.68 228.21 98.3 241.46 104.83 228.21 111.37 226.09 125.98 215.78 115.41 201.22 117.9 208.1 104.83 201.22 91.76 215.78 94.26"/><polygon class="cls-5" points="198.85 84.8 203.09 76.72 198.85 68.64 207.84 70.18 214.22 63.64 215.53 72.68 223.72 76.72 215.53 80.76 214.22 89.79 207.84 83.26 198.85 84.8"/><polygon class="cls-5" points="203.09 133.28 198.85 125.2 207.84 126.75 214.22 120.21 215.53 129.25 223.72 133.28 215.53 137.32 214.22 146.36 207.84 139.82 198.85 141.36 203.09 133.28"/><polygon class="cls-5" points="64.22 94.26 53.91 83.68 51.79 98.3 38.54 104.83 51.79 111.37 53.91 125.98 64.22 115.41 78.78 117.9 71.9 104.83 78.78 91.76 64.22 94.26"/><polygon class="cls-5" points="81.15 84.8 76.91 76.72 81.15 68.64 72.16 70.18 65.78 63.64 64.47 72.68 56.28 76.72 64.47 80.76 65.78 89.79 72.16 83.26 81.15 84.8"/><polygon class="cls-5" points="76.91 133.28 81.15 125.2 72.16 126.75 65.78 120.21 64.47 129.25 56.28 133.28 64.47 137.32 65.78 146.36 72.16 139.82 81.15 141.36 76.91 133.28"/></g></g></svg>