<svg xmlns="http://www.w3.org/2000/svg" viewBox="0 0 280 210.18"><defs><style>.cls-1{fill:#9145d2;}.cls-2{fill:#283655;opacity:0.21;}.cls-3{fill:#fff;}.cls-4{fill:#784e98;}</style></defs><title>background_image_57</title><g id="Layer_2" data-name="Layer 2"><g id="Layer_1-2" data-name="Layer 1"><rect class="cls-1" width="280" height="210"/><path class="cls-2" d="M0,210.18v-52l8.28-5.15a8.35,8.35,0,0,1,8.81,0l8.31,5.17,8.31-5.17a8.35,8.35,0,0,1,8.81,0l8.31,5.17,8.31-5.17a8.35,8.35,0,0,1,8.81,0l8.31,5.17,8.31-5.17a8.35,8.35,0,0,1,8.81,0l8.31,5.17,7.75-4.82a9.25,9.25,0,0,1,9.69,0l8,4.87,7.83-4.87a9.25,9.25,0,0,1,9.78,0l7.82,4.87,7.86-4.87a9.25,9.25,0,0,1,9.76,0l7.83,4.87,8.31-5.17a8.35,8.35,0,0,1,8.81,0l8.31,5.17,8.31-5.17a8.35,8.35,0,0,1,8.81,0l8.31,5.17,8.31-5.17a8.35,8.35,0,0,1,8.81,0l8.31,5.17,8.31-5.17a8.35,8.35,0,0,1,8.81,0l8.31,5.17.18-.11v52.06Z"/><path class="cls-2" d="M0,210V95.5L8.29,84.16c2.7-3.69,6.12-3.69,8.81,0l8.31,11.39,8.31-11.39c2.7-3.69,6.12-3.69,8.81,0l8.31,11.39,8.31-11.39c2.7-3.69,6.12-3.69,8.81,0l8.31,11.39L84.6,84.16c2.7-3.69,6.12-3.69,8.81,0l8.31,11.39,7.75-10.62c3-4.06,6.71-4.1,9.69-.11l8,10.73L135,84.82c3-4.1,6.78-4.1,9.78,0l7.82,10.72,7.86-10.73c3-4.08,6.77-4.08,9.76,0l7.83,10.72,8.31-11.39c2.7-3.69,6.12-3.69,8.81,0l8.31,11.39,8.31-11.39c2.7-3.69,6.12-3.69,8.81,0l8.31,11.39,8.31-11.39c2.7-3.69,6.12-3.69,8.81,0l8.31,11.39,8.31-11.39c2.7-3.69,6.12-3.69,8.81,0l8.31,11.39c.07-.07.12-.17.18-.24V210Z"/><path class="cls-2" d="M0,210.18v-32l8.28-5.15a8.35,8.35,0,0,1,8.81,0l8.31,5.17,8.31-5.17a8.35,8.35,0,0,1,8.81,0l8.31,5.17,8.31-5.17a8.35,8.35,0,0,1,8.81,0l8.31,5.17,8.31-5.17a8.35,8.35,0,0,1,8.81,0l8.31,5.17,7.75-4.82a9.25,9.25,0,0,1,9.69,0l8,4.87,7.83-4.87a9.25,9.25,0,0,1,9.78,0l7.82,4.87,7.86-4.87a9.25,9.25,0,0,1,9.76,0l7.83,4.87,8.31-5.17a8.35,8.35,0,0,1,8.81,0l8.31,5.17,8.31-5.17a8.35,8.35,0,0,1,8.81,0l8.31,5.17,8.31-5.17a8.35,8.35,0,0,1,8.81,0l8.31,5.17,8.31-5.17a8.35,8.35,0,0,1,8.81,0l8.31,5.17.18-.11v32.06Z"/><path class="cls-2" d="M0,210.18v-10l8.28-5.15a8.35,8.35,0,0,1,8.81,0l8.31,5.17,8.31-5.17a8.35,8.35,0,0,1,8.81,0l8.31,5.17,8.31-5.17a8.35,8.35,0,0,1,8.81,0l8.31,5.17,8.31-5.17a8.35,8.35,0,0,1,8.81,0l8.31,5.17,7.75-4.82a9.25,9.25,0,0,1,9.69,0l8,4.87,7.83-4.87a9.25,9.25,0,0,1,9.78,0l7.82,4.87,7.86-4.87a9.25,9.25,0,0,1,9.76,0l7.83,4.87,8.31-5.17a8.35,8.35,0,0,1,8.81,0l8.31,5.17,8.31-5.17a8.35,8.35,0,0,1,8.81,0l8.31,5.17,8.31-5.17a8.35,8.35,0,0,1,8.81,0l8.31,5.17,8.31-5.17a8.35,8.35,0,0,1,8.81,0l8.31,5.17.18-.11v10.06Z"/><path class="cls-3" d="M143.91,38.15a19.12,19.12,0,1,0-27.11,0,18.94,18.94,0,0,0,10.11,5.32,18.91,18.91,0,0,1,8,4.38,19.31,19.31,0,0,1,3.86-5.46C139.35,41.81,142.87,39.18,143.91,38.15Z"/><path class="cls-3" d="M195.53,58.31A34.85,34.85,0,1,1,232.84,90.7a34.51,34.51,0,0,1-20.27-4.78,34.49,34.49,0,0,0-16.25-3.55,35.22,35.22,0,0,0,1.21-12.12C197.42,68.8,195.72,61,195.53,58.31Z"/><path class="cls-3" d="M70.91,99.77a30.54,30.54,0,1,0,5,27.75,30.35,30.35,0,0,1,8.45-11.81,30.24,30.24,0,0,1-7.8-7.08C75.76,107.63,72.32,101.59,70.91,99.77Z"/><path class="cls-3" d="M205.62,142.87a21.51,21.51,0,0,1,25.33,17.19,22,22,0,0,1-17.31,25.59,21.51,21.51,0,0,1-25.33-17.19,21.85,21.85,0,0,1,1.52-12.94,21.82,21.82,0,0,0,1-10.36,21.56,21.56,0,0,0,7.54-.15C199.3,144.83,204,143.19,205.62,142.87Z"/><path class="cls-4" d="M121.72,23.11l-.42.12-.4.16-.47.23.95,2.71-1.81.63-.95-2.71-.52.11-.42.12-.39.16-.48.24,2.55,7.3a5.78,5.78,0,0,0,.94-.23,5.89,5.89,0,0,0,.87-.41l-1-3,1.81-.63,1,3a5.78,5.78,0,0,0,.94-.23,5.89,5.89,0,0,0,.87-.41L122.23,23Z"/><path class="cls-4" d="M128.52,21.25q-.09-.19-.21-.4l-5.23,1.83a3.72,3.72,0,0,0,.56,1.6l1.71-.6,2,5.73a5.78,5.78,0,0,0,.94-.23,5.89,5.89,0,0,0,.87-.41l-2-5.73,1.71-.6a5.12,5.12,0,0,0-.2-.84A3.75,3.75,0,0,0,128.52,21.25Z"/><path class="cls-4" d="M135.41,18.33l-.45.13-.41.17-.39.2L134,23.16l-2.78-3.3-.46.1-.45.13-.46.19-.45.22,2.26,7.41a4.64,4.64,0,0,0,.86-.2,4.13,4.13,0,0,0,.79-.38l-1.35-4.23,2,2.4.36-.06.32-.1.33-.14.35-.18.15-3.19L137,26a5,5,0,0,0,.88-.2,3.84,3.84,0,0,0,.52-.21l.34-.19-2.9-7.18Z"/><path class="cls-4" d="M143.9,22.74q-.05-.15-.14-.34a4.23,4.23,0,0,0-.22-.42l-2.36.83-2-5.73-.52.11-.42.12-.39.16-.48.24L139.93,25l4.17-1.46a4.6,4.6,0,0,0-.09-.48Q144,22.91,143.9,22.74Z"/><path class="cls-4" d="M225,51.1a6,6,0,0,0,.52-2.87,4.48,4.48,0,0,0-.8-2.16A6,6,0,0,0,223,44.51a12.9,12.9,0,0,0-2.1-1.08,23.56,23.56,0,0,0-2.48-.87l-1.5-.41-5.87,14.53a11.57,11.57,0,0,0,1.7.9q.37.15.81.28t1,.24l1.91-4.74a4.14,4.14,0,0,0,.53.3q.38.19.77.35a8,8,0,0,0,2,.52,4.82,4.82,0,0,0,2-.15,4.36,4.36,0,0,0,1.78-1.06A6.22,6.22,0,0,0,225,51.1Zm-3.66-1.48a2,2,0,0,1-2.8,1.26l-.5-.23a1.43,1.43,0,0,1-.32-.2l1.66-4.11.33.11.29.12a3.76,3.76,0,0,1,.81.45,1.9,1.9,0,0,1,.57.64,1.85,1.85,0,0,1,.21.86A2.9,2.9,0,0,1,221.32,49.62Z"/><path class="cls-4" d="M238.73,50.8c-.29-.15-.56-.28-.81-.37s-.52-.19-.82-.28l-1-.28-2.18,5.39-3.6-1.45,2.18-5.39q-.5-.29-.94-.52t-.81-.37q-.35-.14-.81-.28t-1-.28L223,61.49a11.73,11.73,0,0,0,1.74.91,12,12,0,0,0,1.87.54L229,57l3.6,1.46-2.4,5.94a11.73,11.73,0,0,0,1.74.91,11.89,11.89,0,0,0,1.87.54l5.87-14.53C239.33,51.12,239,51,238.73,50.8Z"/><path class="cls-4" d="M250.66,58.39a4.48,4.48,0,0,0-.8-2.16,6,6,0,0,0-1.68-1.56,12.91,12.91,0,0,0-2.1-1.08,23.51,23.51,0,0,0-2.48-.87,8,8,0,0,1-2.47-.41l-4.9,14.53a11.49,11.49,0,0,0,1.7.9q.37.15.81.28t1,.24l1.91-4.74a4.11,4.11,0,0,0,.53.3q.38.19.77.35a8,8,0,0,0,2,.52,4.83,4.83,0,0,0,2-.15,4.36,4.36,0,0,0,1.78-1.06,6.23,6.23,0,0,0,1.41-2.23A6,6,0,0,0,250.66,58.39Zm-4.18,1.39a2,2,0,0,1-2.8,1.26l-.5-.23a1.42,1.42,0,0,1-.32-.2l1.66-4.11.33.11.28.12a3.76,3.76,0,0,1,.81.45,1.9,1.9,0,0,1,.57.64,1.85,1.85,0,0,1,.21.86A2.9,2.9,0,0,1,246.48,59.78Z"/><path class="cls-4" d="M37.63,124.28a11.08,11.08,0,0,1-1.12.71,5.38,5.38,0,0,1-1,.41q-3.12.91-4.2-2.81a4.61,4.61,0,0,1-.05-3.08,2.79,2.79,0,0,1,1.92-1.6,5.81,5.81,0,0,1,.57-.14l.55-.07.59,0,.7,0a10.79,10.79,0,0,0,.13-1.32,5.34,5.34,0,0,0-.14-1.47,8.56,8.56,0,0,0-1.83,0,10.43,10.43,0,0,0-1.63.34,6.55,6.55,0,0,0-2.4,1.23,5.47,5.47,0,0,0-1.49,1.92,6.32,6.32,0,0,0-.56,2.42,8.46,8.46,0,0,0,.36,2.72A8.72,8.72,0,0,0,29.15,126a5.9,5.9,0,0,0,1.75,1.72,5.45,5.45,0,0,0,2.28.79,6.93,6.93,0,0,0,2.76-.28l.81-.26q.39-.14.77-.32a7.48,7.48,0,0,0,.79-.43q.4-.25.85-.59A9.85,9.85,0,0,0,37.63,124.28Z"/><path class="cls-4" d="M47.88,110.82a7.11,7.11,0,0,0-.77.18,6.17,6.17,0,0,0-.7.25l-.68.3-.68,7.27L40.67,113l-.79.13a7.45,7.45,0,0,0-.78.18,8.14,8.14,0,0,0-.78.28l-.77.33,3.14,12.67a7.84,7.84,0,0,0,1.47-.26,7,7,0,0,0,1.36-.57l-1.9-7.25,3.09,4.22a4.37,4.37,0,0,0,.61-.07l.55-.13a5.35,5.35,0,0,0,.57-.2l.61-.27.53-5.35,2.36,7.19a8.42,8.42,0,0,0,1.5-.27,6.43,6.43,0,0,0,.89-.32l.59-.29L48.66,110.7Z"/><path class="cls-4" d="M62,118.07a4.82,4.82,0,0,0-.82-3.17,3.07,3.07,0,0,0-1-.85,4.15,4.15,0,0,0-1.22-.44q-.68-.13-1.5-.22l-.94-.09a3.47,3.47,0,0,1-.91-.19.91.91,0,0,1-.55-.66,1,1,0,0,1,0-.54.92.92,0,0,1,.23-.41,1.6,1.6,0,0,1,.41-.3,2.74,2.74,0,0,1,.52-.21,5,5,0,0,1,1.59-.23q.68,0,1.19.09a8.14,8.14,0,0,0,.09-1.41,9.32,9.32,0,0,0-.11-1.31,15,15,0,0,0-1.93,0,8.73,8.73,0,0,0-1.78.33,6.26,6.26,0,0,0-1.73.78,4,4,0,0,0-1.16,1.16,3.58,3.58,0,0,0-.53,1.48,4.24,4.24,0,0,0,.16,1.74,4.06,4.06,0,0,0,.59,1.26,3.27,3.27,0,0,0,.86.82,3.81,3.81,0,0,0,1.1.49,6.59,6.59,0,0,0,1.31.21l1.09.08.5.05a1.83,1.83,0,0,1,.46.12,1.1,1.1,0,0,1,.38.26,1.07,1.07,0,0,1,.25.45,1,1,0,0,1-.23,1.08,3.07,3.07,0,0,1-1.32.68,7.53,7.53,0,0,1-3,.12q0,.79,0,1.53a10.28,10.28,0,0,0,.14,1.38,12.43,12.43,0,0,0,2,0,9.8,9.8,0,0,0,2-.38,7.34,7.34,0,0,0,2-.91,4.59,4.59,0,0,0,1.31-1.28A3.62,3.62,0,0,0,62,118.07Z"/><path class="cls-4" d="M202.63,158a2.17,2.17,0,0,1,1.92.24l.38.25.33.27q.16.14.33.32l.36.41a8.26,8.26,0,0,0,.81-.63,4.13,4.13,0,0,0,.75-.86,6.68,6.68,0,0,0-1-1,8,8,0,0,0-1.06-.74,5.07,5.07,0,0,0-2-.7,4.24,4.24,0,0,0-1.87.18,4.91,4.91,0,0,0-1.66,1,6.57,6.57,0,0,0-1.35,1.65,6.77,6.77,0,0,0-.79,2,4.58,4.58,0,0,0,0,1.9,4.24,4.24,0,0,0,.77,1.71,5.36,5.36,0,0,0,1.63,1.41l.58.32c.19.1.39.18.59.27a5.78,5.78,0,0,0,.66.22q.36.09.79.17a7.65,7.65,0,0,0,.53-2.12,8.68,8.68,0,0,1-1-.25,4.18,4.18,0,0,1-.78-.36q-2.17-1.28-.65-3.87A3.58,3.58,0,0,1,202.63,158Z"/><path class="cls-4" d="M209.84,161.72a.72.72,0,0,1,.36-.09,1.27,1.27,0,0,1,.39.07,2.16,2.16,0,0,1,.39.18,3.83,3.83,0,0,1,1,.77q.34.4.58.72a6.31,6.31,0,0,0,.84-.69,7.2,7.2,0,0,0,.68-.76,11.63,11.63,0,0,0-1-1.08,6.79,6.79,0,0,0-1.13-.83,4.85,4.85,0,0,0-1.36-.56,3.06,3.06,0,0,0-1.27,0,2.77,2.77,0,0,0-1.12.49,3.28,3.28,0,0,0-.89,1,3.12,3.12,0,0,0-.4,1,2.52,2.52,0,0,0,0,.92,3,3,0,0,0,.31.88,5.11,5.11,0,0,0,.58.85l.53.66.24.31a1.45,1.45,0,0,1,.18.33.87.87,0,0,1,.06.35.84.84,0,0,1-.12.38.79.79,0,0,1-.73.45,2.38,2.38,0,0,1-1.08-.38,5.83,5.83,0,0,1-1.67-1.64q-.47.4-.87.81a7.93,7.93,0,0,0-.71.81,9.67,9.67,0,0,0,1,1.11,7.57,7.57,0,0,0,1.26.91,5.67,5.67,0,0,0,1.59.66,3.55,3.55,0,0,0,1.42.06,2.81,2.81,0,0,0,1.19-.5,3.74,3.74,0,0,0,1.35-2.15,2.38,2.38,0,0,0,0-1,3.21,3.21,0,0,0-.4-.93q-.28-.45-.67-1l-.45-.58a2.69,2.69,0,0,1-.38-.62.71.71,0,0,1,.08-.66A.76.76,0,0,1,209.84,161.72Z"/><path class="cls-4" d="M216.48,165.63a.71.71,0,0,1,.36-.09,1.26,1.26,0,0,1,.39.07,2.13,2.13,0,0,1,.39.18,3.83,3.83,0,0,1,1,.77q.34.4.58.72a6.27,6.27,0,0,0,.84-.69,7.18,7.18,0,0,0,.68-.76,11.57,11.57,0,0,0-1-1.08,6.77,6.77,0,0,0-1.13-.83,4.85,4.85,0,0,0-1.36-.56,3.06,3.06,0,0,0-1.27,0,2.77,2.77,0,0,0-1.12.49,3.28,3.28,0,0,0-.89,1,3.14,3.14,0,0,0-.4,1,2.53,2.53,0,0,0,0,.92,3,3,0,0,0,.31.88,5.12,5.12,0,0,0,.58.85l.53.66.24.31a1.46,1.46,0,0,1,.18.33.86.86,0,0,1,.06.35.83.83,0,0,1-.12.38.79.79,0,0,1-.73.45,2.38,2.38,0,0,1-1.08-.38,5.84,5.84,0,0,1-1.67-1.64q-.47.4-.87.81a8,8,0,0,0-.71.81,9.67,9.67,0,0,0,1,1.11,7.58,7.58,0,0,0,1.26.91,5.68,5.68,0,0,0,1.59.66,3.56,3.56,0,0,0,1.42.06,2.81,2.81,0,0,0,1.19-.5,3.74,3.74,0,0,0,1.35-2.15,2.36,2.36,0,0,0,0-1,3.2,3.2,0,0,0-.4-.93q-.28-.45-.67-1l-.45-.58a2.69,2.69,0,0,1-.38-.62.71.71,0,0,1,.08-.66A.76.76,0,0,1,216.48,165.63Z"/></g></g></svg>