<svg xmlns="http://www.w3.org/2000/svg" viewBox="0 0 280 210"><defs><style>.cls-1{fill:#3e6d2a;}.cls-2{fill:#639b33;}.cls-3{fill:#80c529;}.cls-4{fill:#47783a;}</style></defs><title>background_image_20</title><g id="Layer_2" data-name="Layer 2"><g id="Layer_1-2" data-name="Layer 1"><rect class="cls-1" width="280" height="210"/><polygon class="cls-2" points="87.5 0 0 80.06 0 61.68 67.42 0 87.5 0"/><polygon class="cls-2" points="87.5 210 0 129.94 0 148.32 67.42 210 87.5 210"/><polygon class="cls-2" points="192.5 0 280 80.06 280 61.68 212.58 0 192.5 0"/><polygon class="cls-2" points="192.5 210 280 129.94 280 148.32 212.58 210 192.5 210"/><polygon class="cls-3" points="67.42 0 0 0 0 61.68 67.42 0"/><polygon class="cls-3" points="67.42 210 0 210 0 148.32 67.42 210"/><polygon class="cls-3" points="212.58 0 280 0 280 61.68 212.58 0"/><polygon class="cls-3" points="212.58 210 280 210 280 148.32 212.58 210"/><path class="cls-4" d="M65.14,59.76l-.63,2.4a13.82,13.82,0,0,0-2.45.77l-1.88-1.61a2.15,2.15,0,0,0-2.79,0l-2.35,2a2.14,2.14,0,0,0-.76,1.46A2.12,2.12,0,0,0,54.57,66l1.26,2.14a13.68,13.68,0,0,0-1.22,2.36l-2.45.2a2.15,2.15,0,0,0-2,2l-.27,3.06A2.15,2.15,0,0,0,51.52,78l2.43.64a13.48,13.48,0,0,0,.79,2.45L53.13,83a2.15,2.15,0,0,0,0,2.79l2,2.36a2.16,2.16,0,0,0,2.74.47L60,87.32a13.5,13.5,0,0,0,2.29,1.17l.2,2.45a2.15,2.15,0,0,0,2,2l3.06.27a2.15,2.15,0,0,0,2.28-1.61l.64-2.43a13.48,13.48,0,0,0,2.45-.79L74.73,90a2.15,2.15,0,0,0,2.79,0l2.35-2a2.14,2.14,0,0,0,.76-1.46,2.12,2.12,0,0,0-.29-1.28L79.06,83.1a13.78,13.78,0,0,0,1.14-2.21l2.47-.19a2.15,2.15,0,0,0,2-2l.27-3.06a2.15,2.15,0,0,0-1.61-2.28l-2.4-.63a13.82,13.82,0,0,0-.77-2.45l1.61-1.88a2.14,2.14,0,0,0,.51-1.21h0a2.14,2.14,0,0,0-.5-1.57l-2-2.35a2.16,2.16,0,0,0-2.74-.47l-2.14,1.26a13.72,13.72,0,0,0-2.28-1.19l-.19-2.47a2.15,2.15,0,0,0-2-2l-3.06-.27A2.13,2.13,0,0,0,65.14,59.76Zm5.16.62a.19.19,0,0,1,.17.18l.24,3.09a1,1,0,0,0,.65.85A11.66,11.66,0,0,1,74.3,66a1,1,0,0,0,1.07,0l2.68-1.57a.2.2,0,0,1,.24,0l2,2.35a.19.19,0,0,1,0,.14.18.18,0,0,1,0,.11l-2,2.36a1,1,0,0,0-.14,1.06,11.66,11.66,0,0,1,1,3.15,1,1,0,0,0,.72.79l3,.78a.19.19,0,0,1,.14.2l-.27,3.06a.19.19,0,0,1-.18.17L79.45,79a1,1,0,0,0-.85.65,12.11,12.11,0,0,1-1.48,2.87,1,1,0,0,0-.17.48,1,1,0,0,0,.13.58l1.59,2.7a.22.22,0,0,1,0,.11.2.2,0,0,1-.07.13l-2.35,2a.2.2,0,0,1-.25,0l-2.35-2a1,1,0,0,0-1.07-.14,11.55,11.55,0,0,1-3.15,1,1,1,0,0,0-.79.72l-.79,3a.19.19,0,0,1-.2.14L64.62,91a.19.19,0,0,1-.17-.18l-.24-3.07a1,1,0,0,0-.66-.85,11.65,11.65,0,0,1-2.94-1.51,1,1,0,0,0-1.06,0l-2.7,1.59a.2.2,0,0,1-.24,0l-2-2.35a.19.19,0,0,1,0-.14.18.18,0,0,1,0-.11l2-2.35a1,1,0,0,0,.14-1.07,11.55,11.55,0,0,1-1-3.15A1,1,0,0,0,55,76.9l-3-.79a.19.19,0,0,1-.14-.2l.27-3.06a.19.19,0,0,1,.18-.17l3.07-.24a1,1,0,0,0,.85-.66,11.83,11.83,0,0,1,1.55-3,1,1,0,0,0,0-1.07L56.25,65a.22.22,0,0,1,0-.11.2.2,0,0,1,.07-.13l2.35-2a.2.2,0,0,1,.25,0l2.36,2a1,1,0,0,0,1.06.14,11.66,11.66,0,0,1,3.15-1,1,1,0,0,0,.79-.72l.78-3a.19.19,0,0,1,.2-.14l3.06.27Z"/><path class="cls-4" d="M59.92,75a7.53,7.53,0,1,0,8.15-6.84A7.53,7.53,0,0,0,59.92,75Zm13,1.14a5.56,5.56,0,1,1-5.05-6A5.56,5.56,0,0,1,73,76.16Z"/><path class="cls-4" d="M157.36,126.28l-1,3.74a21.53,21.53,0,0,0-3.82,1.2l-2.94-2.51a3.35,3.35,0,0,0-4.34,0l-3.66,3.07a3.33,3.33,0,0,0-1.19,2.28,3.3,3.3,0,0,0,.45,2l2,3.34a21.31,21.31,0,0,0-1.91,3.68l-3.81.3a3.35,3.35,0,0,0-3.08,3.06l-.42,4.76a3.35,3.35,0,0,0,2.5,3.55l3.79,1a21,21,0,0,0,1.23,3.81l-2.51,2.91a3.35,3.35,0,0,0,0,4.34l3.07,3.68a3.36,3.36,0,0,0,4.28.74l3.37-2a21,21,0,0,0,3.57,1.83l.3,3.81a3.35,3.35,0,0,0,3.06,3.08l4.76.42a3.35,3.35,0,0,0,3.55-2.5l1-3.79a21,21,0,0,0,3.81-1.23l2.9,2.5a3.35,3.35,0,0,0,4.34,0l3.66-3.07a3.33,3.33,0,0,0,1.19-2.28,3.3,3.3,0,0,0-.45-2l-2-3.37a21.47,21.47,0,0,0,1.78-3.44l3.85-.3a3.35,3.35,0,0,0,3.08-3.06l.42-4.77a3.35,3.35,0,0,0-2.5-3.55l-3.74-1a21.53,21.53,0,0,0-1.2-3.82l2.51-2.94a3.33,3.33,0,0,0,.79-1.89h0a3.33,3.33,0,0,0-.78-2.45l-3.07-3.66a3.36,3.36,0,0,0-4.28-.74l-3.34,2a21.38,21.38,0,0,0-3.55-1.85l-.3-3.85a3.35,3.35,0,0,0-3.06-3.08l-4.76-.42A3.31,3.31,0,0,0,157.36,126.28Zm8,1a.29.29,0,0,1,.27.27l.38,4.82a1.52,1.52,0,0,0,1,1.32,18.17,18.17,0,0,1,4.57,2.38,1.53,1.53,0,0,0,1.67.08l4.18-2.45a.31.31,0,0,1,.38.07l3.07,3.66a.29.29,0,0,1,.07.22.28.28,0,0,1-.07.16l-3.14,3.68a1.53,1.53,0,0,0-.21,1.66,18.17,18.17,0,0,1,1.55,4.91,1.51,1.51,0,0,0,1.12,1.23l4.68,1.22a.29.29,0,0,1,.22.32l-.42,4.76a.29.29,0,0,1-.27.27l-4.82.38a1.52,1.52,0,0,0-1.32,1,18.87,18.87,0,0,1-2.3,4.47,1.57,1.57,0,0,0-.27.75,1.49,1.49,0,0,0,.21.91l2.47,4.2a.34.34,0,0,1,0,.17.3.3,0,0,1-.11.21L174.69,171a.31.31,0,0,1-.39,0l-3.66-3.12a1.55,1.55,0,0,0-1.67-.21,18,18,0,0,1-4.9,1.58,1.55,1.55,0,0,0-1.23,1.12l-1.23,4.71a.29.29,0,0,1-.32.22l-4.76-.42a.29.29,0,0,1-.27-.27l-.38-4.78a1.53,1.53,0,0,0-1-1.33,18.15,18.15,0,0,1-4.58-2.35,1.52,1.52,0,0,0-1.66-.07l-4.2,2.47a.31.31,0,0,1-.38-.07L141,164.81a.29.29,0,0,1-.07-.22.28.28,0,0,1,.07-.16l3.12-3.66a1.55,1.55,0,0,0,.21-1.67,18,18,0,0,1-1.58-4.9,1.55,1.55,0,0,0-1.12-1.23l-4.71-1.23a.29.29,0,0,1-.22-.32l.42-4.76a.29.29,0,0,1,.27-.27l4.78-.38a1.53,1.53,0,0,0,1.33-1,18.42,18.42,0,0,1,2.41-4.68,1.53,1.53,0,0,0,.08-1.67l-2.46-4.15a.34.34,0,0,1,0-.17.3.3,0,0,1,.11-.21l3.66-3.07a.31.31,0,0,1,.39,0l3.68,3.14a1.53,1.53,0,0,0,1.66.21,18.17,18.17,0,0,1,4.91-1.55,1.51,1.51,0,0,0,1.23-1.12l1.22-4.68a.29.29,0,0,1,.32-.22l4.76.42Z"/><path class="cls-4" d="M149.23,150a11.72,11.72,0,1,0,12.7-10.66A11.73,11.73,0,0,0,149.23,150Zm20.31,1.78a8.66,8.66,0,1,1-7.87-9.38A8.67,8.67,0,0,1,169.53,151.82Z"/><path class="cls-4" d="M128,19.48l-.64,3a17.15,17.15,0,0,0-3,1.09l-2.43-1.89a2.66,2.66,0,0,0-3.45.14l-2.8,2.58a2.65,2.65,0,0,0-.87,1.85,2.63,2.63,0,0,0,.43,1.57l1.68,2.59a17,17,0,0,0-1.38,3l-3,.38a2.67,2.67,0,0,0-2.34,2.54l-.16,3.8a2.67,2.67,0,0,0,2.12,2.73l3,.65a16.72,16.72,0,0,0,1.11,3l-1.89,2.41a2.67,2.67,0,0,0,.14,3.45l2.58,2.81a2.68,2.68,0,0,0,3.43.43l2.61-1.7a16.75,16.75,0,0,0,2.9,1.33l.38,3A2.67,2.67,0,0,0,129,60.61l3.8.16a2.67,2.67,0,0,0,2.73-2.12l.65-3a16.72,16.72,0,0,0,3-1.11l2.4,1.88a2.66,2.66,0,0,0,3.45-.14l2.8-2.58a2.65,2.65,0,0,0,.87-1.85,2.63,2.63,0,0,0-.43-1.57l-1.7-2.61a17.1,17.1,0,0,0,1.29-2.8l3.06-.38a2.67,2.67,0,0,0,2.34-2.54l.16-3.81a2.67,2.67,0,0,0-2.12-2.73l-3-.64a17.15,17.15,0,0,0-1.09-3l1.89-2.43a2.65,2.65,0,0,0,.56-1.53h0a2.65,2.65,0,0,0-.71-1.92L146.37,23a2.68,2.68,0,0,0-3.43-.43l-2.59,1.68a17,17,0,0,0-2.89-1.34l-.38-3.06a2.67,2.67,0,0,0-2.54-2.34l-3.8-.16A2.64,2.64,0,0,0,128,19.48Zm6.43.48a.23.23,0,0,1,.23.21l.47,3.82a1.21,1.21,0,0,0,.85,1,14.47,14.47,0,0,1,3.72,1.73,1.22,1.22,0,0,0,1.33,0l3.24-2.1a.25.25,0,0,1,.31,0l2.58,2.8a.23.23,0,0,1,.06.17.22.22,0,0,1-.05.13l-2.36,3a1.22,1.22,0,0,0-.11,1.33A14.47,14.47,0,0,1,146.11,36a1.2,1.2,0,0,0,.94.94l3.77.8A.23.23,0,0,1,151,38l-.16,3.8a.23.23,0,0,1-.21.23l-3.82.47a1.21,1.21,0,0,0-1,.85A15,15,0,0,1,144.12,47a1.25,1.25,0,0,0-.19.61,1.19,1.19,0,0,0,.2.71l2.11,3.26a.27.27,0,0,1,0,.14.24.24,0,0,1-.08.17l-2.8,2.58a.25.25,0,0,1-.31,0l-3-2.35a1.24,1.24,0,0,0-1.33-.11,14.33,14.33,0,0,1-3.84,1.43,1.24,1.24,0,0,0-.94.94l-.81,3.79a.23.23,0,0,1-.24.19l-3.8-.16a.23.23,0,0,1-.23-.21l-.47-3.79a1.22,1.22,0,0,0-.86-1,14.45,14.45,0,0,1-3.73-1.7,1.21,1.21,0,0,0-1.32,0l-3.26,2.11a.25.25,0,0,1-.31,0l-2.58-2.8a.23.23,0,0,1-.06-.17.22.22,0,0,1,.05-.13l2.35-3a1.24,1.24,0,0,0,.11-1.33,14.33,14.33,0,0,1-1.43-3.84,1.24,1.24,0,0,0-.94-.94l-3.79-.81a.23.23,0,0,1-.19-.24l.16-3.8a.23.23,0,0,1,.21-.23l3.79-.47a1.22,1.22,0,0,0,1-.86,14.67,14.67,0,0,1,1.75-3.81,1.22,1.22,0,0,0,0-1.33l-2.11-3.21a.27.27,0,0,1,0-.14.24.24,0,0,1,.08-.17l2.8-2.58a.25.25,0,0,1,.31,0l3,2.36a1.22,1.22,0,0,0,1.33.11,14.47,14.47,0,0,1,3.85-1.41,1.2,1.2,0,0,0,.94-.94l.8-3.77a.23.23,0,0,1,.24-.19l3.8.16Z"/><path class="cls-4" d="M122.39,38.68a9.34,9.34,0,1,0,9.72-8.93A9.34,9.34,0,0,0,122.39,38.68Zm16.22.69a6.9,6.9,0,1,1-6.6-7.18A6.9,6.9,0,0,1,138.61,39.36Z"/><path class="cls-4" d="M208.87,77l-.64,3a17.15,17.15,0,0,0-3,1.09l-2.43-1.89a2.66,2.66,0,0,0-3.45.14l-2.8,2.58a2.65,2.65,0,0,0-.87,1.85,2.63,2.63,0,0,0,.43,1.57l1.68,2.59a17,17,0,0,0-1.38,3l-3,.38A2.67,2.67,0,0,0,191,93.85l-.16,3.8a2.67,2.67,0,0,0,2.12,2.73l3,.65a16.72,16.72,0,0,0,1.11,3l-1.89,2.41a2.67,2.67,0,0,0,.14,3.45L198,112.7a2.68,2.68,0,0,0,3.43.43l2.61-1.7a16.75,16.75,0,0,0,2.9,1.33l.38,3a2.67,2.67,0,0,0,2.54,2.34l3.8.16a2.67,2.67,0,0,0,2.73-2.12l.65-3a16.72,16.72,0,0,0,3-1.11l2.4,1.88a2.66,2.66,0,0,0,3.45-.14l2.8-2.58a2.65,2.65,0,0,0,.87-1.85,2.63,2.63,0,0,0-.43-1.57l-1.7-2.61a17.1,17.1,0,0,0,1.29-2.8l3.06-.38a2.67,2.67,0,0,0,2.34-2.54l.16-3.81a2.67,2.67,0,0,0-2.12-2.73l-3-.64a17.15,17.15,0,0,0-1.09-3l1.89-2.43a2.65,2.65,0,0,0,.56-1.53h0a2.65,2.65,0,0,0-.71-1.92l-2.58-2.8a2.68,2.68,0,0,0-3.43-.43l-2.59,1.68a17,17,0,0,0-2.89-1.34l-.38-3.06a2.67,2.67,0,0,0-2.54-2.34l-3.8-.16A2.64,2.64,0,0,0,208.87,77Zm6.43.48a.23.23,0,0,1,.23.21L216,81.5a1.21,1.21,0,0,0,.85,1,14.47,14.47,0,0,1,3.72,1.73,1.22,1.22,0,0,0,1.33,0l3.24-2.1a.25.25,0,0,1,.31,0L228,85a.23.23,0,0,1,.06.17.22.22,0,0,1-.05.13l-2.36,3a1.22,1.22,0,0,0-.11,1.33A14.47,14.47,0,0,1,227,93.52a1.2,1.2,0,0,0,.94.94l3.77.8a.23.23,0,0,1,.19.24l-.16,3.8a.23.23,0,0,1-.21.23l-3.82.47a1.21,1.21,0,0,0-1,.85,15,15,0,0,1-1.67,3.64,1.25,1.25,0,0,0-.19.61,1.19,1.19,0,0,0,.2.71l2.11,3.26a.27.27,0,0,1,0,.14.24.24,0,0,1-.08.17l-2.8,2.58a.25.25,0,0,1-.31,0l-3-2.35a1.24,1.24,0,0,0-1.33-.11,14.33,14.33,0,0,1-3.84,1.43,1.24,1.24,0,0,0-.94.94l-.81,3.79a.23.23,0,0,1-.24.19l-3.8-.16a.23.23,0,0,1-.23-.21l-.47-3.79a1.22,1.22,0,0,0-.86-1,14.45,14.45,0,0,1-3.73-1.7,1.21,1.21,0,0,0-1.32,0l-3.26,2.11a.25.25,0,0,1-.31,0l-2.58-2.8a.23.23,0,0,1-.06-.17.22.22,0,0,1,.05-.13l2.35-3a1.24,1.24,0,0,0,.11-1.33,14.33,14.33,0,0,1-1.43-3.84,1.24,1.24,0,0,0-.94-.94L193.51,98a.23.23,0,0,1-.19-.24l.16-3.8a.23.23,0,0,1,.21-.23l3.79-.47a1.22,1.22,0,0,0,1-.86,14.67,14.67,0,0,1,1.75-3.81,1.22,1.22,0,0,0,0-1.33L198.15,84a.27.27,0,0,1,0-.14.24.24,0,0,1,.08-.17l2.8-2.58a.25.25,0,0,1,.31,0l3,2.36a1.22,1.22,0,0,0,1.33.11,14.47,14.47,0,0,1,3.85-1.41,1.2,1.2,0,0,0,.94-.94l.8-3.77a.23.23,0,0,1,.24-.19l3.8.16Z"/><path class="cls-4" d="M203.25,96.19A9.34,9.34,0,1,0,213,87.25,9.34,9.34,0,0,0,203.25,96.19Zm16.22.69a6.9,6.9,0,1,1-6.6-7.18A6.9,6.9,0,0,1,219.47,96.87Z"/><path class="cls-4" d="M164.09,52.33l-.36,1.7a9.7,9.7,0,0,0-1.69.62l-1.37-1.07a1.51,1.51,0,0,0-2,.08l-1.59,1.46a1.5,1.5,0,0,0-.49,1,1.48,1.48,0,0,0,.24.89l1,1.46a9.6,9.6,0,0,0-.78,1.7l-1.71.21A1.51,1.51,0,0,0,154,61.86L153.92,64a1.51,1.51,0,0,0,1.2,1.54l1.72.37a9.46,9.46,0,0,0,.63,1.69L156.4,69a1.51,1.51,0,0,0,.08,2l1.46,1.59a1.51,1.51,0,0,0,1.94.25l1.48-1a9.47,9.47,0,0,0,1.64.75l.21,1.71a1.51,1.51,0,0,0,1.44,1.32l2.15.09a1.51,1.51,0,0,0,1.54-1.2l.37-1.72a9.46,9.46,0,0,0,1.69-.63l1.36,1.07a1.51,1.51,0,0,0,2-.08l1.59-1.46a1.5,1.5,0,0,0,.49-1,1.48,1.48,0,0,0-.24-.89l-1-1.48a9.67,9.67,0,0,0,.73-1.59l1.73-.21A1.51,1.51,0,0,0,178.36,65l.09-2.15a1.51,1.51,0,0,0-1.2-1.54l-1.7-.36a9.7,9.7,0,0,0-.62-1.69L176,57.88a1.5,1.5,0,0,0,.32-.87h0a1.5,1.5,0,0,0-.4-1.09l-1.46-1.59a1.51,1.51,0,0,0-1.94-.25l-1.46,1a9.63,9.63,0,0,0-1.64-.76l-.21-1.73a1.51,1.51,0,0,0-1.44-1.32l-2.15-.09A1.49,1.49,0,0,0,164.09,52.33Zm3.64.27a.13.13,0,0,1,.13.12l.27,2.16a.69.69,0,0,0,.48.57,8.18,8.18,0,0,1,2.1,1,.69.69,0,0,0,.75,0l1.83-1.19a.14.14,0,0,1,.17,0l1.46,1.59a.13.13,0,0,1,0,.1.13.13,0,0,1,0,.08l-1.34,1.72a.69.69,0,0,0-.06.75,8.18,8.18,0,0,1,.8,2.18.68.68,0,0,0,.53.53l2.13.45a.13.13,0,0,1,.11.14L177,64.94a.13.13,0,0,1-.12.13l-2.16.27a.69.69,0,0,0-.57.48,8.5,8.5,0,0,1-.95,2.06.71.71,0,0,0-.11.34.67.67,0,0,0,.11.4l1.2,1.84a.15.15,0,0,1,0,.08.14.14,0,0,1,0,.1l-1.59,1.46a.14.14,0,0,1-.17,0l-1.71-1.33a.7.7,0,0,0-.75-.06,8.1,8.1,0,0,1-2.17.81.7.7,0,0,0-.53.53L167,74.19a.13.13,0,0,1-.14.11l-2.15-.09a.13.13,0,0,1-.13-.12l-.27-2.14a.69.69,0,0,0-.49-.58,8.17,8.17,0,0,1-2.11-1,.68.68,0,0,0-.75,0l-1.84,1.2a.14.14,0,0,1-.17,0L157.5,70a.13.13,0,0,1,0-.1.13.13,0,0,1,0-.08l1.33-1.71a.7.7,0,0,0,.06-.75,8.1,8.1,0,0,1-.81-2.17.7.7,0,0,0-.53-.53l-2.14-.46a.13.13,0,0,1-.11-.14l.09-2.15a.13.13,0,0,1,.12-.13l2.14-.27a.69.69,0,0,0,.58-.49,8.3,8.3,0,0,1,1-2.15.69.69,0,0,0,0-.75L158,56.31a.15.15,0,0,1,0-.08.14.14,0,0,1,0-.1l1.59-1.46a.14.14,0,0,1,.17,0L161.53,56a.69.69,0,0,0,.75.06,8.18,8.18,0,0,1,2.18-.8.68.68,0,0,0,.53-.53l.45-2.13a.13.13,0,0,1,.14-.11l2.15.09Z"/><path class="cls-4" d="M160.91,63.18a5.28,5.28,0,1,0,5.5-5.05A5.28,5.28,0,0,0,160.91,63.18Zm9.17.39a3.9,3.9,0,1,1-3.73-4.06A3.9,3.9,0,0,1,170.08,63.57Z"/><path class="cls-4" d="M120.29,93.92l-.36,1.7a9.7,9.7,0,0,0-1.69.62l-1.37-1.07a1.51,1.51,0,0,0-2,.08l-1.59,1.46a1.5,1.5,0,0,0-.49,1,1.48,1.48,0,0,0,.24.89l1,1.46a9.6,9.6,0,0,0-.78,1.7l-1.71.21a1.51,1.51,0,0,0-1.32,1.44l-.09,2.15a1.51,1.51,0,0,0,1.2,1.54l1.72.37a9.46,9.46,0,0,0,.63,1.69l-1.07,1.36a1.51,1.51,0,0,0,.08,2l1.46,1.59a1.51,1.51,0,0,0,1.94.25l1.48-1a9.47,9.47,0,0,0,1.64.75l.21,1.71a1.51,1.51,0,0,0,1.44,1.32l2.15.09a1.51,1.51,0,0,0,1.54-1.2l.37-1.72a9.46,9.46,0,0,0,1.69-.63l1.36,1.07a1.51,1.51,0,0,0,2-.08l1.59-1.46a1.5,1.5,0,0,0,.49-1,1.48,1.48,0,0,0-.24-.89l-1-1.48a9.67,9.67,0,0,0,.73-1.59l1.73-.21a1.51,1.51,0,0,0,1.32-1.44l.09-2.15a1.51,1.51,0,0,0-1.2-1.54l-1.7-.36a9.7,9.7,0,0,0-.62-1.69l1.07-1.37a1.5,1.5,0,0,0,.32-.87h0a1.5,1.5,0,0,0-.4-1.09l-1.46-1.59a1.51,1.51,0,0,0-1.94-.25l-1.46,1a9.63,9.63,0,0,0-1.64-.76l-.21-1.73A1.51,1.51,0,0,0,124,92.82l-2.15-.09A1.49,1.49,0,0,0,120.29,93.92Zm3.64.27a.13.13,0,0,1,.13.12l.27,2.16a.69.69,0,0,0,.48.57,8.18,8.18,0,0,1,2.1,1,.69.69,0,0,0,.75,0l1.83-1.19a.14.14,0,0,1,.17,0l1.46,1.59a.13.13,0,0,1,0,.1.13.13,0,0,1,0,.08l-1.34,1.72a.69.69,0,0,0-.06.75,8.18,8.18,0,0,1,.8,2.18.68.68,0,0,0,.53.53l2.13.45a.13.13,0,0,1,.11.14l-.09,2.15a.13.13,0,0,1-.12.13l-2.16.27a.69.69,0,0,0-.57.48,8.5,8.5,0,0,1-.95,2.06.71.71,0,0,0-.11.34.67.67,0,0,0,.11.4l1.2,1.84a.15.15,0,0,1,0,.08.14.14,0,0,1,0,.1L129,113.69a.14.14,0,0,1-.17,0l-1.71-1.33a.7.7,0,0,0-.75-.06,8.1,8.1,0,0,1-2.17.81.7.7,0,0,0-.53.53l-.46,2.14a.13.13,0,0,1-.14.11l-2.15-.09a.13.13,0,0,1-.13-.12l-.27-2.14A.69.69,0,0,0,120,113a8.17,8.17,0,0,1-2.11-1,.68.68,0,0,0-.75,0l-1.84,1.2a.14.14,0,0,1-.17,0l-1.46-1.59a.13.13,0,0,1,0-.1.13.13,0,0,1,0-.08L115,109.7a.7.7,0,0,0,.06-.75,8.1,8.1,0,0,1-.81-2.17.7.7,0,0,0-.53-.53l-2.14-.46a.13.13,0,0,1-.11-.14l.09-2.15a.13.13,0,0,1,.12-.13l2.14-.27a.69.69,0,0,0,.58-.49,8.3,8.3,0,0,1,1-2.15.69.69,0,0,0,0-.75l-1.19-1.82a.15.15,0,0,1,0-.08.14.14,0,0,1,0-.1l1.59-1.46a.14.14,0,0,1,.17,0l1.72,1.34a.69.69,0,0,0,.75.06,8.18,8.18,0,0,1,2.18-.8.68.68,0,0,0,.53-.53l.45-2.13a.13.13,0,0,1,.14-.11l2.15.09Z"/><path class="cls-4" d="M117.11,104.77a5.28,5.28,0,1,0,5.5-5.05A5.28,5.28,0,0,0,117.11,104.77Zm9.17.39a3.9,3.9,0,1,1-3.73-4.06A3.9,3.9,0,0,1,126.28,105.16Z"/><path class="cls-4" d="M53.92,125l-.36,1.7a9.7,9.7,0,0,0-1.69.62l-1.37-1.07a1.51,1.51,0,0,0-2,.08L47,127.76a1.5,1.5,0,0,0-.49,1,1.48,1.48,0,0,0,.24.89l1,1.46a9.6,9.6,0,0,0-.78,1.7l-1.71.21a1.51,1.51,0,0,0-1.32,1.44l-.09,2.15A1.51,1.51,0,0,0,45,138.2l1.72.37a9.46,9.46,0,0,0,.63,1.69l-1.07,1.36a1.51,1.51,0,0,0,.08,2l1.46,1.59a1.51,1.51,0,0,0,1.94.25l1.48-1a9.47,9.47,0,0,0,1.64.75L53,146.9a1.51,1.51,0,0,0,1.44,1.32l2.15.09a1.51,1.51,0,0,0,1.54-1.2l.37-1.72a9.46,9.46,0,0,0,1.69-.63l1.36,1.07a1.51,1.51,0,0,0,2-.08l1.59-1.46a1.5,1.5,0,0,0,.49-1,1.48,1.48,0,0,0-.24-.89l-1-1.48a9.67,9.67,0,0,0,.73-1.59l1.73-.21a1.51,1.51,0,0,0,1.32-1.44l.09-2.15a1.51,1.51,0,0,0-1.2-1.54l-1.7-.36a9.7,9.7,0,0,0-.62-1.69l1.07-1.37a1.5,1.5,0,0,0,.32-.87h0a1.5,1.5,0,0,0-.4-1.09L64.3,127a1.51,1.51,0,0,0-1.94-.25l-1.46,1a9.63,9.63,0,0,0-1.64-.76l-.21-1.73a1.51,1.51,0,0,0-1.44-1.32l-2.15-.09A1.49,1.49,0,0,0,53.92,125Zm3.64.27a.13.13,0,0,1,.13.12l.27,2.16a.69.69,0,0,0,.48.57,8.18,8.18,0,0,1,2.1,1,.69.69,0,0,0,.75,0l1.83-1.19a.14.14,0,0,1,.17,0l1.46,1.59a.13.13,0,0,1,0,.1.13.13,0,0,1,0,.08l-1.34,1.72a.69.69,0,0,0-.06.75,8.18,8.18,0,0,1,.8,2.18.68.68,0,0,0,.53.53l2.13.45a.13.13,0,0,1,.11.14l-.09,2.15a.13.13,0,0,1-.12.13l-2.16.27a.69.69,0,0,0-.57.48,8.5,8.5,0,0,1-.95,2.06.71.71,0,0,0-.11.34.67.67,0,0,0,.11.4l1.2,1.84a.15.15,0,0,1,0,.08.14.14,0,0,1,0,.1l-1.59,1.46a.14.14,0,0,1-.17,0l-1.71-1.33a.7.7,0,0,0-.75-.06,8.1,8.1,0,0,1-2.17.81.7.7,0,0,0-.53.53l-.46,2.14a.13.13,0,0,1-.14.11l-2.15-.09a.13.13,0,0,1-.13-.12l-.27-2.14a.69.69,0,0,0-.49-.58,8.17,8.17,0,0,1-2.11-1,.68.68,0,0,0-.75,0L49,144.24a.14.14,0,0,1-.17,0l-1.46-1.59a.13.13,0,0,1,0-.1.13.13,0,0,1,0-.08l1.33-1.71a.7.7,0,0,0,.06-.75,8.1,8.1,0,0,1-.81-2.17.7.7,0,0,0-.53-.53l-2.14-.46a.13.13,0,0,1-.11-.14l.09-2.15a.13.13,0,0,1,.12-.13l2.14-.27a.69.69,0,0,0,.58-.49,8.3,8.3,0,0,1,1-2.15.69.69,0,0,0,0-.75l-1.19-1.82a.15.15,0,0,1,0-.08.14.14,0,0,1,0-.1l1.59-1.46a.14.14,0,0,1,.17,0l1.72,1.34a.69.69,0,0,0,.75.06,8.18,8.18,0,0,1,2.18-.8.68.68,0,0,0,.53-.53l.45-2.13a.13.13,0,0,1,.14-.11l2.15.09Z"/><path class="cls-4" d="M50.75,135.82a5.28,5.28,0,1,0,5.5-5.05A5.28,5.28,0,0,0,50.75,135.82Zm9.17.39a3.9,3.9,0,1,1-3.73-4.06A3.9,3.9,0,0,1,59.92,136.21Z"/><rect class="cls-3" x="121.52" y="32.1" width="22.5" height="8.75"/><rect class="cls-3" x="121.52" y="53.72" width="22.5" height="19"/><rect class="cls-3" x="200.05" y="53.72" width="22.5" height="19"/><rect class="cls-3" x="150.54" y="32.1" width="22.5" height="8.75"/><rect class="cls-3" x="150.54" y="53.72" width="22.5" height="8.75"/><rect class="cls-3" x="200.05" y="86.22" width="22.5" height="8.75"/><rect class="cls-3" x="185.24" y="32.1" width="52.13" height="8.75"/><rect class="cls-3" x="131.71" y="38.72" width="2.13" height="19.38"/><rect class="cls-3" x="146.73" y="49.47" width="2.13" height="19.38" transform="translate(206.95 -88.63) rotate(90)"/><rect class="cls-3" x="177.6" y="26.79" width="2.13" height="19.38" transform="translate(215.14 -142.19) rotate(90)"/><rect class="cls-3" x="160.73" y="38.72" width="2.13" height="19.38"/><rect class="cls-3" x="210.24" y="38.72" width="2.13" height="19.38"/><rect class="cls-3" x="210.24" y="69.1" width="2.13" height="19.38"/><rect class="cls-3" x="42.64" y="85.79" width="22.5" height="8.75"/><rect class="cls-3" x="42.64" y="107.41" width="22.5" height="19"/><rect class="cls-3" x="121.17" y="107.41" width="22.5" height="19"/><rect class="cls-3" x="71.66" y="85.79" width="22.5" height="8.75"/><rect class="cls-3" x="71.66" y="107.41" width="22.5" height="8.75"/><rect class="cls-3" x="151.6" y="157.85" width="22.5" height="8.75"/><rect class="cls-3" x="121.17" y="157.85" width="22.5" height="20.05"/><rect class="cls-3" x="121.17" y="139.91" width="22.5" height="8.75"/><rect class="cls-3" x="106.35" y="85.79" width="52.13" height="8.75"/><rect class="cls-3" x="52.83" y="92.41" width="2.13" height="19.38"/><rect class="cls-3" x="67.85" y="103.16" width="2.13" height="19.38" transform="translate(181.76 43.94) rotate(90)"/><rect class="cls-3" x="98.72" y="78.47" width="2.13" height="19.38" transform="translate(187.95 -11.62) rotate(90)"/><rect class="cls-3" x="149.48" y="153.19" width="2.13" height="19.38" transform="translate(313.42 12.33) rotate(90)"/><rect class="cls-3" x="81.85" y="92.41" width="2.13" height="19.38"/><rect class="cls-3" x="131.35" y="92.41" width="2.13" height="19.38"/><rect class="cls-3" x="131.35" y="67.72" width="2.13" height="19.38"/><rect class="cls-3" x="131.35" y="122.79" width="2.13" height="19.38"/><rect class="cls-3" x="131.35" y="146.61" width="2.13" height="19.38"/></g></g></svg>