<svg xmlns="http://www.w3.org/2000/svg" viewBox="0 0 280 210"><defs><style>.cls-1{fill:#9145d2;}.cls-2{fill:#283655;opacity:0.21;}.cls-3{fill:#4c3d6c;}.cls-4{fill:#dbdee3;}.cls-5{fill:#3082b6;}.cls-6{fill:#f04e50;}.cls-7{fill:#ffde33;}.cls-8{fill:#3ed426;}</style></defs><title>background_image_60</title><g id="Layer_2" data-name="Layer 2"><g id="Layer_1-2" data-name="Layer 1"><rect class="cls-1" width="280" height="210"/><path class="cls-2" d="M0,0V210H280V0ZM140,169a64,64,0,1,1,64-64A64,64,0,0,1,140,169Z"/><path class="cls-2" d="M0,0V210H280V0ZM140,199.89A94.88,94.88,0,1,1,234.89,105,94.88,94.88,0,0,1,140,199.89Z"/><circle class="cls-1" cx="40.47" cy="29.23" r="12.01"/><circle class="cls-1" cx="225.69" cy="157.31" r="12.01"/><circle class="cls-1" cx="245.02" cy="35.97" r="7.48"/><circle class="cls-1" cx="20.98" cy="185.31" r="7.48"/><path class="cls-3" d="M245.23,107.5V210H34.77V107.5c0-4.1,3.48-5.44,7.19-6.63.45-.14.13-2.39.61-2.46A9.22,9.22,0,0,1,44,98.3H236a9.22,9.22,0,0,1,1.4.11c.48.07-.18,3.44.27,3.58C241.41,103.18,245.23,103.4,245.23,107.5Z"/><path class="cls-4" d="M245.23,116.27V108a9.46,9.46,0,0,0-9.2-9.7H44a9.46,9.46,0,0,0-9.2,9.7v8.26Z"/><rect class="cls-5" x="50.7" y="123.31" width="22.36" height="3.11"/><rect class="cls-5" x="50.7" y="129.52" width="12.42" height="3.11"/><rect class="cls-5" x="65.61" y="129.52" width="3.11" height="3.11"/><rect class="cls-5" x="71.82" y="129.52" width="3.11" height="3.11"/><rect class="cls-5" x="50.7" y="191.63" width="22.36" height="3.11"/><rect class="cls-5" x="50.7" y="197.84" width="12.42" height="3.11"/><rect class="cls-5" x="65.61" y="197.84" width="3.11" height="3.11"/><rect class="cls-5" x="71.82" y="197.84" width="3.11" height="3.11"/><rect class="cls-5" x="56.91" y="135.73" width="8.7" height="3.11"/><rect class="cls-5" x="63.13" y="141.94" width="18.63" height="3.11"/><rect class="cls-5" x="84.86" y="141.94" width="7.45" height="3.11"/><rect class="cls-5" x="95.42" y="141.94" width="2.48" height="3.11"/><rect class="cls-5" x="80.52" y="179.21" width="18.63" height="3.11"/><rect class="cls-5" x="102.26" y="179.21" width="7.45" height="3.11"/><rect class="cls-5" x="112.81" y="179.21" width="2.48" height="3.11"/><rect class="cls-5" x="76.79" y="191.63" width="7.45" height="3.11"/><rect class="cls-5" x="87.35" y="191.63" width="2.48" height="3.11"/><rect class="cls-5" x="80.52" y="166.78" width="7.45" height="3.11"/><rect class="cls-5" x="91.08" y="166.78" width="2.48" height="3.11"/><rect class="cls-5" x="96.04" y="166.78" width="7.45" height="3.11"/><rect class="cls-5" x="106.6" y="166.78" width="2.48" height="3.11"/><rect class="cls-5" x="128.96" y="148.15" width="2.48" height="3.11"/><rect class="cls-5" x="164.99" y="154.36" width="2.48" height="3.11"/><rect class="cls-5" x="63.13" y="148.15" width="14.29" height="3.11"/><rect class="cls-5" x="80.52" y="148.15" width="9.32" height="3.11"/><rect class="cls-5" x="105.36" y="148.15" width="20.5" height="3.11"/><rect class="cls-5" x="92.32" y="148.15" width="9.32" height="3.11"/><rect class="cls-5" x="128.96" y="172.99" width="2.48" height="3.11"/><rect class="cls-5" x="80.52" y="172.99" width="9.32" height="3.11"/><rect class="cls-5" x="105.36" y="172.99" width="20.5" height="3.11"/><rect class="cls-5" x="92.32" y="172.99" width="9.32" height="3.11"/><rect class="cls-5" x="128.96" y="160.57" width="2.48" height="3.11"/><rect class="cls-5" x="80.52" y="160.57" width="9.32" height="3.11"/><rect class="cls-5" x="105.36" y="160.57" width="20.5" height="3.11"/><rect class="cls-5" x="92.32" y="160.57" width="9.32" height="3.11"/><rect class="cls-5" x="63.13" y="154.36" width="14.29" height="3.11"/><rect class="cls-5" x="80.52" y="154.36" width="11.18" height="3.11"/><rect class="cls-5" x="95.42" y="154.36" width="11.18" height="3.11"/><rect class="cls-5" x="108.47" y="154.36" width="54.04" height="3.11"/><rect class="cls-5" x="63.13" y="160.57" width="14.29" height="3.11"/><rect class="cls-5" x="63.13" y="166.78" width="14.29" height="3.11"/><rect class="cls-5" x="63.13" y="172.99" width="14.29" height="3.11"/><rect class="cls-5" x="63.13" y="179.21" width="14.29" height="3.11"/><rect class="cls-5" x="50.7" y="185.42" width="22.36" height="3.11"/><rect class="cls-5" x="56.91" y="204.08" width="8.7" height="3.11"/><circle class="cls-6" cx="48.88" cy="107.29" r="4.01"/><circle class="cls-7" cx="61.26" cy="107.29" r="4.01"/><circle class="cls-8" cx="73.65" cy="107.29" r="4.01"/></g></g></svg>