<svg xmlns="http://www.w3.org/2000/svg" viewBox="0 0 280 210"><defs><style>.cls-1{fill:#4b9e00;}.cls-2{fill:#52ac00;}.cls-3{fill:#58ba00;}.cls-4{fill:#fff;}</style></defs><title>background_image_67</title><g id="Layer_2" data-name="Layer 2"><g id="Layer_1-2" data-name="Layer 1"><rect class="cls-1" width="280" height="210"/><circle class="cls-2" cx="140" cy="105" r="94.89"/><circle class="cls-3" cx="140" cy="105" r="64.04"/><circle class="cls-3" cx="140" cy="105" r="39.38"/><circle class="cls-3" cx="37.65" cy="28.95" r="12.01"/><circle class="cls-3" cx="222.87" cy="157.03" r="12.01"/><circle class="cls-3" cx="242.21" cy="35.69" r="7.48"/><circle class="cls-3" cx="18.16" cy="185.03" r="7.48"/><polygon class="cls-4" points="215.78 94.26 226.09 83.68 228.21 98.3 241.46 104.83 228.21 111.37 226.09 125.98 215.78 115.41 201.22 117.9 208.1 104.83 201.22 91.76 215.78 94.26"/><polygon class="cls-4" points="198.85 84.8 203.09 76.72 198.85 68.64 207.84 70.18 214.22 63.64 215.53 72.68 223.72 76.72 215.53 80.76 214.22 89.79 207.84 83.26 198.85 84.8"/><polygon class="cls-4" points="203.09 133.28 198.85 125.2 207.84 126.75 214.22 120.21 215.53 129.25 223.72 133.28 215.53 137.32 214.22 146.36 207.84 139.82 198.85 141.36 203.09 133.28"/><polygon class="cls-4" points="64.22 94.26 53.91 83.68 51.79 98.3 38.54 104.83 51.79 111.37 53.91 125.98 64.22 115.41 78.78 117.9 71.9 104.83 78.78 91.76 64.22 94.26"/><polygon class="cls-4" points="81.15 84.8 76.91 76.72 81.15 68.64 72.16 70.18 65.78 63.64 64.47 72.68 56.28 76.72 64.47 80.76 65.78 89.79 72.16 83.26 81.15 84.8"/><polygon class="cls-4" points="76.91 133.28 81.15 125.2 72.16 126.75 65.78 120.21 64.47 129.25 56.28 133.28 64.47 137.32 65.78 146.36 72.16 139.82 81.15 141.36 76.91 133.28"/></g></g></svg>