<svg xmlns="http://www.w3.org/2000/svg" viewBox="0 0 86.6 95.98"><defs><style>.cls-1{fill:#007496;}.cls-2{fill:#fff;}</style></defs><title>WordPress</title><g id="Layer_2" data-name="Layer 2"><g id="Layer_1-2" data-name="Layer 1"><path class="cls-1" d="M0,30.49v35A13,13,0,0,0,6.5,76.74l30.31,17.5a13,13,0,0,0,13,0l30.31-17.5a13,13,0,0,0,6.5-11.25v-35a13,13,0,0,0-6.5-11.25L49.8,1.74a13,13,0,0,0-13,0L6.5,19.24A13,13,0,0,0,0,30.49Z"/><path class="cls-2" d="M73.53,46.86s0-.08,0-.12c-.07-.74-.09-1.49-.18-2.23q-.08-.68-.19-1.37t-.26-1.46c0-.15-.08-.29-.11-.44l-.07-.32,0-.22c0-.15-.08-.31-.11-.46a2.54,2.54,0,0,1-.13-.45,29.53,29.53,0,0,0-1.69-4.47l0-.09,0,0a9.13,9.13,0,0,0-.75-1.44c0-.08-.11-.15-.15-.23a30.24,30.24,0,0,0-25-15.68,29.26,29.26,0,0,0-11.54,1.72,30.16,30.16,0,0,0-11.58,7.5,33.56,33.56,0,0,0-3.49,4.34,18.52,18.52,0,0,0-1.7,2.82,29.6,29.6,0,0,0-2.21,5.51l0,.11c-.17.64-.32,1.28-.46,1.92-.2.93-.31,1.88-.46,2.82,0,.4-.05.8-.09,1.2,0,.1,0,.2,0,.3l0,.29h0c0,.15,0,.3,0,.45h0V47c0,.05,0,.11,0,.16a35.64,35.64,0,0,0,.24,4.75v0l0,.18c.07.4.14.8.21,1.2h0c.17.91.36,1.82.61,2.71a30.74,30.74,0,0,0,2.2,5.65,32.1,32.1,0,0,0,2.37,3.89l.13.15.22.29v0a30.44,30.44,0,0,0,3.65,4q.54.49,1.09,1a32,32,0,0,0,2.73,2.07l.1.07.48.31q1,.64,2.06,1.2h0l.2.11a31.25,31.25,0,0,0,3.91,1.69A30,30,0,0,0,42,78.15,29,29,0,0,0,46.26,78a30.3,30.3,0,0,0,6.14-1.25,29.6,29.6,0,0,0,3.48-1.34l.06,0A29.41,29.41,0,0,0,58.58,74a30.26,30.26,0,0,0,4.48-3.22,11,11,0,0,1,1.11-1l.1-.06c.41-.39.79-.83,1.18-1.24a30,30,0,0,0,7.37-14q.22-1,.38-2.05h0a29.35,29.35,0,0,0,.33-4.07c0-.36,0-.72,0-1.08C73.53,47.15,73.53,47,73.53,46.86ZM43.48,19.2A28.72,28.72,0,1,1,14.59,47.77,28.79,28.79,0,0,1,43.48,19.2Z"/><path class="cls-2" d="M60.34,50.06a29.72,29.72,0,0,1-1.05,3.58c-.92,2.47-1.57,5-2.35,7.55-.24.78-.47,1.56-.73,2.43L46.86,35.83c1-.09,1.92-.17,2.86-.27a1,1,0,0,0,1.05-1.18c-.06-.64-.56-1-1.3-.92a71.89,71.89,0,0,1-8.65.27c-1.56-.06-3.12-.17-4.67-.28-.91-.06-1.49.59-1.25,1.4a.9.9,0,0,0,.81.69c.83.09,1.66.17,2.49.23a.43.43,0,0,1,.45.32q1.9,5.25,3.83,10.5a.63.63,0,0,1,0,.45L36.93,63.7l0,0c-.14-.06-.13-.21-.17-.32L29.27,41.18c-.56-1.67-1.12-3.35-1.7-5-.11-.33,0-.38.28-.39.83-.05,1.66-.13,2.49-.22a1,1,0,0,0,1.05-1.15,1.06,1.06,0,0,0-1.27-1c-2.45.2-4.9.34-7.36.31H21.67A25.38,25.38,0,0,1,37.8,22.7c8.61-1.8,16.26.36,22.9,6.12-.37.06-.74,0-1.1.13a4.61,4.61,0,0,0-3.49,5,9.44,9.44,0,0,0,1.35,3.62c.69,1.19,1.46,2.34,2.05,3.58A13.16,13.16,0,0,1,60.34,50.06Z"/><path class="cls-2" d="M51.2,72.55a25.92,25.92,0,0,1-14.88.27c-.24-.06-.33-.12-.24-.4q3.78-10.95,7.55-21.91c0-.08.07-.17.13-.32l3,8.22,4.85,13.28C51.86,72.34,51.86,72.34,51.2,72.55Z"/><path class="cls-2" d="M32,71.11c-2.06-.33-7.54-5-10-8.46a25.37,25.37,0,0,1-4.48-12.27,25.08,25.08,0,0,1,2.15-12.94Z"/><path class="cls-2" d="M69.13,48.36A25.18,25.18,0,0,1,65.62,61a25.5,25.5,0,0,1-9.32,9.25l1-2.86c2.26-6.54,4.51-13.08,6.79-19.61a40,40,0,0,0,1.63-5.28A20.57,20.57,0,0,0,66,35.93c0-.08,0-.15,0-.24C67.47,37.16,69.16,43.9,69.13,48.36Z"/></g></g></svg>