<svg xmlns="http://www.w3.org/2000/svg" viewBox="0 0 86.6 95.98"><defs><style>.cls-1{fill:#1477bb;}.cls-2{fill:#fff;}</style></defs><title>c_plus_plus</title><g id="Layer_2" data-name="Layer 2"><g id="Layer_1-2" data-name="Layer 1"><path class="cls-1" d="M0,30.49v35A13,13,0,0,0,6.5,76.74l30.31,17.5a13,13,0,0,0,13,0l30.31-17.5a13,13,0,0,0,6.5-11.25v-35a13,13,0,0,0-6.5-11.25L49.8,1.74a13,13,0,0,0-13,0L6.5,19.24A13,13,0,0,0,0,30.49Z"/><path class="cls-2" d="M84.35,49.63H81V53H77.65V49.63H74.3V46.28h3.35V42.93H81v3.35h3.35v3.35m-12.22,0H68.78V53H65.43V49.63H62.08V46.28h3.35V42.93h3.35v3.35h3.35v3.35"/><path class="cls-2" d="M55.37,55.13a14.56,14.56,0,1,1-.09-14.44L68,33.36a29.24,29.24,0,1,0,.08,29.13L55.37,55.13"/></g></g></svg>