<svg xmlns="http://www.w3.org/2000/svg" viewBox="0 0 86.6 95.98"><defs><style>.cls-1{fill:#fff;}.cls-2{fill:#1f62ae;}.cls-3{fill:#1c579a;}</style></defs><title>light</title><g id="Layer_2" data-name="Layer 2"><g id="Layer_1-2" data-name="Layer 1"><path class="cls-1" d="M0,30.49v35A13,13,0,0,0,6.5,76.74l30.31,17.5a13,13,0,0,0,13,0l30.31-17.5a13,13,0,0,0,6.5-11.25v-35a13,13,0,0,0-6.5-11.25L49.8,1.74a13,13,0,0,0-13,0L6.5,19.24A13,13,0,0,0,0,30.49Z"/><polygon class="cls-2" points="65.58 34.08 66.49 25.07 20.32 25.07 21.43 34.08 44.85 34.08 43.6 34.6 22.24 43.5 22.95 52.31 22.98 52.29 22.98 52.31 54.67 52.41 53.97 64.15 43.54 67.09 33.51 64.56 32.91 57.27 23.59 57.27 24.81 71.34 43.64 76.91 62.37 71.44 64.8 43.5 43.55 43.5 43.6 43.48 65.58 34.08"/><polygon class="cls-3" points="43.4 34.77 22.04 43.5 22.75 52.31 43.4 52.37 43.4 34.77"/><polygon class="cls-3" points="43.4 67.06 43.3 67.09 33.28 64.56 32.67 57.27 23.36 57.27 24.57 71.34 43.4 76.91 43.4 67.06"/><polygon class="cls-3" points="43.4 25.07 20.12 25.07 21.23 34.08 43.4 34.08 43.4 25.07"/></g></g></svg>