<svg xmlns="http://www.w3.org/2000/svg" viewBox="0 0 86.6 95.98"><defs><style>.cls-1{fill:#0868a6;}.cls-2{fill:#f7f7f7;}</style></defs><title>jQuery</title><g id="Layer_2" data-name="Layer 2"><g id="Layer_1-2" data-name="Layer 1"><path class="cls-1" d="M0,30.49v35A13,13,0,0,0,6.5,76.74l30.31,17.5a13,13,0,0,0,13,0l30.31-17.5a13,13,0,0,0,6.5-11.25v-35a13,13,0,0,0-6.5-11.25L49.8,1.74a13,13,0,0,0-13,0L6.5,19.24A13,13,0,0,0,0,30.49Z"/><path class="cls-2" d="M53.05,66.82a21.84,21.84,0,0,0,7.56-1.59,22.53,22.53,0,0,0,6.49-4.07,16.76,16.76,0,0,0,1.47-1.62c-.14,1.64-3.56,6.57-7.49,9.36A24.42,24.42,0,0,1,50,73.25c-.25.12-.54,0-.78.11l-.71,0c-.41.13-.85,0-1.26.11H45c-.46-.15-.94,0-1.4-.11l-.85,0c-.25-.13-.54,0-.8-.11-12.3-1.4-23.81-12.63-25.12-25.42-.13-.3,0-.64-.11-.93V43.41c.13-.25,0-.54.11-.8.66-6.07,3.42-9.28,6.58-12.78a20.19,20.19,0,0,0-1.79,7.79,9.11,9.11,0,0,0,0,2.35l0,1c.12.25,0,.54.11.79a22.4,22.4,0,0,0,2.06,7.49,28.46,28.46,0,0,0,6.86,9.49,30.4,30.4,0,0,0,15.11,7.75,6.06,6.06,0,0,0,1.91.19c.26.12.55,0,.81.11l.85,0A22.43,22.43,0,0,0,53.05,66.82Z"/><path class="cls-2" d="M35.79,33.86a15.89,15.89,0,0,0,2.47,7.36,22.07,22.07,0,0,0,12.53,9.93,15.18,15.18,0,0,0,4.84.88,12.5,12.5,0,0,0,2.78,0,15.67,15.67,0,0,0,11.31-5.68c.13.06.24.12.15.3a16.07,16.07,0,0,1-5.34,6.68,17.59,17.59,0,0,1-9.31,3.34c-.56.14-1.14-.05-1.69.11a1,1,0,0,0-.63,0c-.51-.16-1,0-1.55-.11a16.59,16.59,0,0,1-7.22-2,21.76,21.76,0,0,1-9-8.16,20.88,20.88,0,0,1-2.72-7.1c-.05-.27,0-.59-.06-.88s0-.64-.11-.95V35.94c.15-.35,0-.74.11-1.09A15.8,15.8,0,0,1,36,26.39c.17-.23.24-.55.55-.67.15,0,.23,0,.17.18a13.59,13.59,0,0,0-.92,4c-.14.25,0,.53-.11.78a12.43,12.43,0,0,0,0,2.4C35.79,33.31,35.67,33.6,35.79,33.86Z"/><path class="cls-2" d="M61.2,39.15h1.05c.3-.12.64,0,.94-.11a7.21,7.21,0,0,0,4.18-1.78l.56-.47c.13.06.24.13.15.3a10,10,0,0,1-7.92,5,13.64,13.64,0,0,1-11.09-4.2,11.8,11.8,0,0,1-3.53-9,10.37,10.37,0,0,1,2.7-6.39c-.09,1-.58,1.77-.48,2.61a9,9,0,0,0,0,2.34,11.27,11.27,0,0,0,2.4,6A14,14,0,0,0,59.23,39a5.24,5.24,0,0,0,.89,0C60.47,39.2,60.85,39,61.2,39.15Z"/></g></g></svg>