<svg xmlns="http://www.w3.org/2000/svg" viewBox="0 0 280 210"><defs><style>.cls-1{fill:#702aac;}.cls-2{fill:#7f30c3;}.cls-3{fill:#8532cd;}.cls-4{fill:#9145d2;}.cls-5{fill:#fff;}.cls-6{fill:#784e98;}</style></defs><title>background_image_15</title><g id="Layer_2" data-name="Layer 2"><g id="Layer_1-2" data-name="Layer 1"><polygon class="cls-1" points="187.34 64.76 137.43 14.85 107.5 194.06 187.34 64.76"/><polygon class="cls-2" points="113.22 180.97 113 182.28 113.62 184.08 199.82 90.71 180.73 71.62 113.22 180.97"/><polygon class="cls-2" points="112.79 181.66 113.22 180.97 138.53 29.42 111.96 2.85 108.44 169.12 112.79 181.66"/><polygon class="cls-3" points="113.62 184.08 127.1 210 280 210 280 173.92 199.34 88.31 113.62 184.08"/><polygon class="cls-3" points="116.26 7.52 106.08 0 54.37 0 111.14 172.31 116.26 7.52"/><polygon class="cls-4" points="224.13 0 145.09 0 114.78 0 106.08 0 114.6 8.53 139.5 33.43 179.06 72.99 196.96 90.88 280 173.92 280 0.94 280 0 224.13 0"/><polygon class="cls-4" points="116.16 178.4 115.57 176.71 115.38 176.14 111.3 164.38 54.37 0 0 0 0 210 86.98 210 97.33 210 110.02 210 110.34 210 127.1 210 116.16 178.4"/><path class="cls-5" d="M145.53,38.06a19.12,19.12,0,1,0-27.11,0,18.94,18.94,0,0,0,10.11,5.32,18.91,18.91,0,0,1,8,4.38,19.31,19.31,0,0,1,3.86-5.46C141,41.72,144.49,39.09,145.53,38.06Z"/><path class="cls-5" d="M197.14,58.22a34.85,34.85,0,1,1,37.32,32.39,34.51,34.51,0,0,1-20.27-4.78,34.49,34.49,0,0,0-16.25-3.55,35.22,35.22,0,0,0,1.21-12.12C199,68.71,197.34,60.87,197.14,58.22Z"/><path class="cls-5" d="M72.53,99.68a30.54,30.54,0,1,0,5,27.75A30.35,30.35,0,0,1,86,115.63a30.24,30.24,0,0,1-7.8-7.08C77.38,107.54,73.94,101.5,72.53,99.68Z"/><path class="cls-5" d="M207.24,142.78A21.51,21.51,0,0,1,232.57,160a22,22,0,0,1-17.31,25.59,21.51,21.51,0,0,1-25.33-17.19,21.85,21.85,0,0,1,1.52-12.94,21.82,21.82,0,0,0,1-10.36,21.56,21.56,0,0,0,7.54-.15C200.92,144.74,205.62,143.1,207.24,142.78Z"/><path class="cls-6" d="M123.33,23l-.42.12-.4.16-.47.23.95,2.71-1.81.63-.95-2.71-.52.11-.42.12-.39.16-.48.24,2.55,7.3a5.78,5.78,0,0,0,.94-.23,5.89,5.89,0,0,0,.87-.41l-1-3,1.81-.63,1,3a5.78,5.78,0,0,0,.94-.23,5.89,5.89,0,0,0,.87-.41l-2.55-7.3Z"/><path class="cls-6" d="M130.14,21.16q-.09-.19-.21-.4l-5.23,1.83a3.72,3.72,0,0,0,.56,1.6l1.71-.6,2,5.73a5.78,5.78,0,0,0,.94-.23,5.89,5.89,0,0,0,.87-.41l-2-5.73,1.71-.6a5.12,5.12,0,0,0-.2-.84A3.75,3.75,0,0,0,130.14,21.16Z"/><path class="cls-6" d="M137,18.24l-.45.13-.41.17-.39.2-.17,4.33-2.78-3.3-.46.1-.45.13-.46.19-.45.22,2.26,7.41a4.64,4.64,0,0,0,.86-.2,4.13,4.13,0,0,0,.79-.38L133.55,23l2,2.4.36-.06.32-.1.33-.14.35-.18.15-3.19,1.62,4.19a5,5,0,0,0,.88-.2,3.84,3.84,0,0,0,.52-.21l.34-.19-2.9-7.18Z"/><path class="cls-6" d="M145.51,22.65q-.05-.15-.14-.34a4.23,4.23,0,0,0-.22-.42l-2.36.83-2-5.73-.52.11-.42.12-.39.16-.48.24L141.55,25l4.17-1.46a4.6,4.6,0,0,0-.09-.48Q145.58,22.82,145.51,22.65Z"/><path class="cls-6" d="M226.6,51a6,6,0,0,0,.52-2.87,4.48,4.48,0,0,0-.8-2.16,6,6,0,0,0-1.68-1.56,12.9,12.9,0,0,0-2.1-1.08,23.56,23.56,0,0,0-2.48-.87l-1.5-.41L212.7,56.59a11.57,11.57,0,0,0,1.7.9q.37.15.81.28t1,.24l1.91-4.74a4.14,4.14,0,0,0,.53.3q.38.19.77.35a8,8,0,0,0,2,.52,4.82,4.82,0,0,0,2-.15,4.36,4.36,0,0,0,1.78-1.06A6.22,6.22,0,0,0,226.6,51Zm-3.66-1.48a2,2,0,0,1-2.8,1.26l-.5-.23a1.43,1.43,0,0,1-.32-.2L221,46.25l.33.11.29.12a3.76,3.76,0,0,1,.81.45,1.9,1.9,0,0,1,.57.64,1.85,1.85,0,0,1,.21.86A2.9,2.9,0,0,1,222.94,49.53Z"/><path class="cls-6" d="M240.35,50.71c-.29-.15-.56-.28-.81-.37s-.52-.19-.82-.28l-1-.28-2.18,5.39-3.6-1.45,2.18-5.39q-.5-.29-.94-.52t-.81-.37q-.35-.14-.81-.28t-1-.28L224.61,61.4a11.73,11.73,0,0,0,1.74.91,12,12,0,0,0,1.87.54l2.4-5.94,3.6,1.46-2.4,5.94a11.73,11.73,0,0,0,1.74.91,11.89,11.89,0,0,0,1.87.54l5.87-14.53C241,51,240.64,50.86,240.35,50.71Z"/><path class="cls-6" d="M252.28,58.3a4.48,4.48,0,0,0-.8-2.16,6,6,0,0,0-1.68-1.56,12.91,12.91,0,0,0-2.1-1.08,23.51,23.51,0,0,0-2.48-.87,8,8,0,0,1-2.47-.41l-4.9,14.53a11.49,11.49,0,0,0,1.7.9q.37.15.81.28t1,.24l1.91-4.74a4.11,4.11,0,0,0,.53.3q.38.19.77.35a8,8,0,0,0,2,.52,4.83,4.83,0,0,0,2-.15,4.36,4.36,0,0,0,1.78-1.06,6.23,6.23,0,0,0,1.41-2.23A6,6,0,0,0,252.28,58.3Zm-4.18,1.39a2,2,0,0,1-2.8,1.26l-.5-.23a1.42,1.42,0,0,1-.32-.2l1.66-4.11.33.11.28.12a3.76,3.76,0,0,1,.81.45,1.9,1.9,0,0,1,.57.64,1.85,1.85,0,0,1,.21.86A2.9,2.9,0,0,1,248.1,59.69Z"/><path class="cls-6" d="M39.25,124.19a11.08,11.08,0,0,1-1.12.71,5.38,5.38,0,0,1-1,.41q-3.12.91-4.2-2.81a4.61,4.61,0,0,1-.05-3.08,2.79,2.79,0,0,1,1.92-1.6,5.81,5.81,0,0,1,.57-.14l.55-.07.59,0,.7,0a10.79,10.79,0,0,0,.13-1.32,5.34,5.34,0,0,0-.14-1.47,8.56,8.56,0,0,0-1.83,0,10.43,10.43,0,0,0-1.63.34,6.55,6.55,0,0,0-2.4,1.23,5.47,5.47,0,0,0-1.49,1.92,6.32,6.32,0,0,0-.56,2.42,8.46,8.46,0,0,0,.36,2.72,8.72,8.72,0,0,0,1.14,2.48,5.9,5.9,0,0,0,1.75,1.72,5.45,5.45,0,0,0,2.28.79,6.93,6.93,0,0,0,2.76-.28l.81-.26q.39-.14.77-.32a7.48,7.48,0,0,0,.79-.43q.4-.25.85-.59A9.85,9.85,0,0,0,39.25,124.19Z"/><path class="cls-6" d="M49.5,110.73a7.11,7.11,0,0,0-.77.18,6.17,6.17,0,0,0-.7.25l-.68.3-.68,7.27-4.39-5.8-.79.13a7.45,7.45,0,0,0-.78.18,8.14,8.14,0,0,0-.78.28l-.77.33,3.14,12.67a7.84,7.84,0,0,0,1.47-.26,7,7,0,0,0,1.36-.57l-1.9-7.25,3.09,4.22a4.37,4.37,0,0,0,.61-.07l.55-.13a5.35,5.35,0,0,0,.57-.2l.61-.27.53-5.35,2.36,7.19a8.42,8.42,0,0,0,1.5-.27,6.43,6.43,0,0,0,.89-.32l.59-.29-4.25-12.35Z"/><path class="cls-6" d="M63.66,118a4.82,4.82,0,0,0-.82-3.17,3.07,3.07,0,0,0-1-.85,4.15,4.15,0,0,0-1.22-.44q-.68-.13-1.5-.22l-.94-.09a3.47,3.47,0,0,1-.91-.19.91.91,0,0,1-.55-.66,1,1,0,0,1,0-.54.92.92,0,0,1,.23-.41,1.6,1.6,0,0,1,.41-.3,2.74,2.74,0,0,1,.52-.21,5,5,0,0,1,1.59-.23q.68,0,1.19.09a8.14,8.14,0,0,0,.09-1.41,9.32,9.32,0,0,0-.11-1.31,15,15,0,0,0-1.93,0,8.73,8.73,0,0,0-1.78.33,6.26,6.26,0,0,0-1.73.78,4,4,0,0,0-1.16,1.16,3.58,3.58,0,0,0-.53,1.48,4.24,4.24,0,0,0,.16,1.74,4.06,4.06,0,0,0,.59,1.26,3.27,3.27,0,0,0,.86.82,3.81,3.81,0,0,0,1.1.49,6.59,6.59,0,0,0,1.31.21l1.09.08.5.05a1.83,1.83,0,0,1,.46.12,1.1,1.1,0,0,1,.38.26,1.07,1.07,0,0,1,.25.45,1,1,0,0,1-.23,1.08,3.07,3.07,0,0,1-1.32.68,7.53,7.53,0,0,1-3,.12q0,.79,0,1.53a10.28,10.28,0,0,0,.14,1.38,12.43,12.43,0,0,0,2,0,9.8,9.8,0,0,0,2-.38,7.34,7.34,0,0,0,2-.91,4.59,4.59,0,0,0,1.31-1.28A3.62,3.62,0,0,0,63.66,118Z"/><path class="cls-6" d="M204.24,157.93a2.17,2.17,0,0,1,1.92.24l.38.25.33.27q.16.14.33.32l.36.41a8.26,8.26,0,0,0,.81-.63,4.13,4.13,0,0,0,.75-.86,6.68,6.68,0,0,0-1-1,8,8,0,0,0-1.06-.74,5.07,5.07,0,0,0-2-.7,4.24,4.24,0,0,0-1.87.18,4.91,4.91,0,0,0-1.66,1,6.57,6.57,0,0,0-1.35,1.65,6.77,6.77,0,0,0-.79,2,4.58,4.58,0,0,0,0,1.9,4.24,4.24,0,0,0,.77,1.71,5.36,5.36,0,0,0,1.63,1.41l.58.32c.19.1.39.18.59.27a5.78,5.78,0,0,0,.66.22q.36.09.79.17a7.65,7.65,0,0,0,.53-2.12,8.68,8.68,0,0,1-1-.25,4.18,4.18,0,0,1-.78-.36q-2.17-1.28-.65-3.87A3.58,3.58,0,0,1,204.24,157.93Z"/><path class="cls-6" d="M211.46,161.63a.72.72,0,0,1,.36-.09,1.27,1.27,0,0,1,.39.07,2.16,2.16,0,0,1,.39.18,3.83,3.83,0,0,1,1,.77q.34.4.58.72a6.31,6.31,0,0,0,.84-.69,7.2,7.2,0,0,0,.68-.76,11.63,11.63,0,0,0-1-1.08,6.79,6.79,0,0,0-1.13-.83,4.85,4.85,0,0,0-1.36-.56,3.06,3.06,0,0,0-1.27,0,2.77,2.77,0,0,0-1.12.49,3.28,3.28,0,0,0-.89,1,3.12,3.12,0,0,0-.4,1,2.52,2.52,0,0,0,0,.92,3,3,0,0,0,.31.88,5.11,5.11,0,0,0,.58.85l.53.66.24.31a1.45,1.45,0,0,1,.18.33.87.87,0,0,1,.06.35.84.84,0,0,1-.12.38.79.79,0,0,1-.73.45,2.38,2.38,0,0,1-1.08-.38,5.83,5.83,0,0,1-1.67-1.64q-.47.4-.87.81a7.93,7.93,0,0,0-.71.81,9.67,9.67,0,0,0,1,1.11,7.57,7.57,0,0,0,1.26.91,5.67,5.67,0,0,0,1.59.66,3.55,3.55,0,0,0,1.42.06,2.81,2.81,0,0,0,1.19-.5,3.74,3.74,0,0,0,1.35-2.15,2.38,2.38,0,0,0,0-1,3.21,3.21,0,0,0-.4-.93q-.28-.45-.67-1l-.45-.58a2.69,2.69,0,0,1-.38-.62.71.71,0,0,1,.08-.66A.76.76,0,0,1,211.46,161.63Z"/><path class="cls-6" d="M218.1,165.54a.71.71,0,0,1,.36-.09,1.26,1.26,0,0,1,.39.07,2.13,2.13,0,0,1,.39.18,3.83,3.83,0,0,1,1,.77q.34.4.58.72a6.27,6.27,0,0,0,.84-.69,7.18,7.18,0,0,0,.68-.76,11.57,11.57,0,0,0-1-1.08,6.77,6.77,0,0,0-1.13-.83,4.85,4.85,0,0,0-1.36-.56,3.06,3.06,0,0,0-1.27,0,2.77,2.77,0,0,0-1.12.49,3.28,3.28,0,0,0-.89,1,3.14,3.14,0,0,0-.4,1,2.53,2.53,0,0,0,0,.92,3,3,0,0,0,.31.88,5.12,5.12,0,0,0,.58.85l.53.66.24.31a1.46,1.46,0,0,1,.18.33.86.86,0,0,1,.06.35.83.83,0,0,1-.12.38.79.79,0,0,1-.73.45,2.38,2.38,0,0,1-1.08-.38,5.84,5.84,0,0,1-1.67-1.64q-.47.4-.87.81a8,8,0,0,0-.71.81,9.67,9.67,0,0,0,1,1.11,7.58,7.58,0,0,0,1.26.91,5.68,5.68,0,0,0,1.59.66,3.56,3.56,0,0,0,1.42.06,2.81,2.81,0,0,0,1.19-.5,3.74,3.74,0,0,0,1.35-2.15,2.36,2.36,0,0,0,0-1,3.2,3.2,0,0,0-.4-.93q-.28-.45-.67-1l-.45-.58a2.69,2.69,0,0,1-.38-.62.71.71,0,0,1,.08-.66A.76.76,0,0,1,218.1,165.54Z"/></g></g></svg>