<svg xmlns="http://www.w3.org/2000/svg" viewBox="0 0 280 210.43"><defs><style>.cls-1{fill:#302a40;}.cls-2{fill:#d20330;}.cls-3{fill:#403851;}</style></defs><title>background_image_37</title><g id="Layer_2" data-name="Layer 2"><g id="Layer_1-2" data-name="Layer 1"><rect class="cls-1" width="280" height="210"/><path class="cls-2" d="M280,0V10l-8.28,5.15a8.35,8.35,0,0,1-8.81,0L254.59,10l-8.31,5.17a8.35,8.35,0,0,1-8.81,0L229.15,10l-8.31,5.17a8.35,8.35,0,0,1-8.81,0L203.71,10l-8.31,5.17a8.35,8.35,0,0,1-8.81,0L178.27,10l-7.75,4.82a9.25,9.25,0,0,1-9.69,0l-8-4.87L145,14.83a9.25,9.25,0,0,1-9.78,0L127.39,10l-7.86,4.87a9.25,9.25,0,0,1-9.76,0L101.94,10l-8.31,5.17a8.35,8.35,0,0,1-8.81,0L76.5,10l-8.31,5.17a8.35,8.35,0,0,1-8.81,0L51.06,10l-8.31,5.17a8.35,8.35,0,0,1-8.81,0L25.62,10l-8.31,5.17a8.35,8.35,0,0,1-8.81,0L.18,10,0,10.06V0Z"/><path class="cls-2" d="M0,210.43v-10l8.28-5.15a8.35,8.35,0,0,1,8.81,0l8.31,5.17,8.31-5.17a8.35,8.35,0,0,1,8.81,0l8.31,5.17,8.31-5.17a8.35,8.35,0,0,1,8.81,0l8.31,5.17,8.31-5.17a8.35,8.35,0,0,1,8.81,0l8.31,5.17,7.75-4.82a9.25,9.25,0,0,1,9.69,0l8,4.87L135,195.6a9.25,9.25,0,0,1,9.78,0l7.82,4.87,7.86-4.87a9.25,9.25,0,0,1,9.76,0l7.83,4.87,8.31-5.17a8.35,8.35,0,0,1,8.81,0l8.31,5.17,8.31-5.17a8.35,8.35,0,0,1,8.81,0l8.31,5.17,8.31-5.17a8.35,8.35,0,0,1,8.81,0l8.31,5.17,8.31-5.17a8.35,8.35,0,0,1,8.81,0l8.31,5.17.18-.11v10.06Z"/><path class="cls-3" d="M21.16,39.19v.06l4.75,1.86v3.15l-7.6-3.7V37.83l7.6-3.7v3.14Z"/><path class="cls-3" d="M29.43,47.59H27.37l4.28-16.23h2.06Z"/><path class="cls-3" d="M35.52,37.28V34.13l7.6,3.7v2.73l-7.6,3.7V41.11l4.75-1.86v-.06Z"/><path class="cls-3" d="M62.89,64.93V65l4.75,1.86V70L60,66.31V63.57l7.6-3.7V63Z"/><path class="cls-3" d="M71.16,73.33H69.1L73.37,57.1h2.06Z"/><path class="cls-3" d="M77.25,63V59.88l7.6,3.7v2.73L77.25,70V66.85L82,65v-.06Z"/><path class="cls-3" d="M110.57,39.19v.06l4.75,1.86v3.15l-7.6-3.7V37.83l7.6-3.7v3.14Z"/><path class="cls-3" d="M118.84,47.59h-2.06l4.28-16.23h2.06Z"/><path class="cls-3" d="M124.93,37.28V34.13l7.6,3.7v2.73l-7.6,3.7V41.11l4.75-1.86v-.06Z"/><path class="cls-3" d="M152.29,64.93V65L157,66.85V70l-7.6-3.7V63.57l7.6-3.7V63Z"/><path class="cls-3" d="M160.56,73.33h-2.06l4.28-16.23h2.06Z"/><path class="cls-3" d="M166.66,63V59.88l7.6,3.7v2.73l-7.6,3.7V66.85L171.41,65v-.06Z"/><path class="cls-3" d="M200,39.19v.06l4.75,1.86v3.15l-7.6-3.7V37.83l7.6-3.7v3.14Z"/><path class="cls-3" d="M208.25,47.59h-2.06l4.28-16.23h2.06Z"/><path class="cls-3" d="M214.34,37.28V34.13l7.6,3.7v2.73l-7.6,3.7V41.11l4.75-1.86v-.06Z"/><path class="cls-3" d="M241.7,64.93V65l4.75,1.86V70l-7.6-3.7V63.57l7.6-3.7V63Z"/><path class="cls-3" d="M250,73.33h-2.06l4.28-16.23h2.06Z"/><path class="cls-3" d="M256.07,63V59.88l7.6,3.7v2.73l-7.6,3.7V66.85L260.82,65v-.06Z"/><path class="cls-3" d="M21.16,91.19v.06l4.75,1.86v3.15l-7.6-3.7V89.83l7.6-3.7v3.14Z"/><path class="cls-3" d="M29.43,99.59H27.37l4.28-16.23h2.06Z"/><path class="cls-3" d="M35.52,89.28V86.13l7.6,3.7v2.73l-7.6,3.7V93.11l4.75-1.86v-.06Z"/><path class="cls-3" d="M62.89,116.93V117l4.75,1.86V122l-7.6-3.7v-2.73l7.6-3.7V115Z"/><path class="cls-3" d="M71.16,125.33H69.1l4.28-16.23h2.06Z"/><path class="cls-3" d="M77.25,115v-3.14l7.6,3.7v2.73l-7.6,3.7v-3.15L82,117v-.06Z"/><path class="cls-3" d="M110.57,91.19v.06l4.75,1.86v3.15l-7.6-3.7V89.83l7.6-3.7v3.14Z"/><path class="cls-3" d="M118.84,99.59h-2.06l4.28-16.23h2.06Z"/><path class="cls-3" d="M124.93,89.28V86.13l7.6,3.7v2.73l-7.6,3.7V93.11l4.75-1.86v-.06Z"/><path class="cls-3" d="M152.29,116.93V117l4.75,1.86V122l-7.6-3.7v-2.73l7.6-3.7V115Z"/><path class="cls-3" d="M160.56,125.33h-2.06l4.28-16.23h2.06Z"/><path class="cls-3" d="M166.66,115v-3.14l7.6,3.7v2.73l-7.6,3.7v-3.15l4.75-1.86v-.06Z"/><path class="cls-3" d="M200,91.19v.06l4.75,1.86v3.15l-7.6-3.7V89.83l7.6-3.7v3.14Z"/><path class="cls-3" d="M208.25,99.59h-2.06l4.28-16.23h2.06Z"/><path class="cls-3" d="M214.34,89.28V86.13l7.6,3.7v2.73l-7.6,3.7V93.11l4.75-1.86v-.06Z"/><path class="cls-3" d="M241.7,116.93V117l4.75,1.86V122l-7.6-3.7v-2.73l7.6-3.7V115Z"/><path class="cls-3" d="M250,125.33h-2.06l4.28-16.23h2.06Z"/><path class="cls-3" d="M256.07,115v-3.14l7.6,3.7v2.73l-7.6,3.7v-3.15l4.75-1.86v-.06Z"/><path class="cls-3" d="M21.16,143.19v.06l4.75,1.86v3.15l-7.6-3.7v-2.73l7.6-3.7v3.14Z"/><path class="cls-3" d="M29.43,151.59H27.37l4.28-16.23h2.06Z"/><path class="cls-3" d="M35.52,141.28v-3.14l7.6,3.7v2.73l-7.6,3.7v-3.15l4.75-1.86v-.06Z"/><path class="cls-3" d="M62.89,168.93V169l4.75,1.86V174l-7.6-3.7v-2.73l7.6-3.7V167Z"/><path class="cls-3" d="M71.16,177.33H69.1l4.28-16.23h2.06Z"/><path class="cls-3" d="M77.25,167v-3.14l7.6,3.7v2.73l-7.6,3.7v-3.15L82,169v-.06Z"/><path class="cls-3" d="M110.57,143.19v.06l4.75,1.86v3.15l-7.6-3.7v-2.73l7.6-3.7v3.14Z"/><path class="cls-3" d="M118.84,151.59h-2.06l4.28-16.23h2.06Z"/><path class="cls-3" d="M124.93,141.28v-3.14l7.6,3.7v2.73l-7.6,3.7v-3.15l4.75-1.86v-.06Z"/><path class="cls-3" d="M152.29,168.93V169l4.75,1.86V174l-7.6-3.7v-2.73l7.6-3.7V167Z"/><path class="cls-3" d="M160.56,177.33h-2.06l4.28-16.23h2.06Z"/><path class="cls-3" d="M166.66,167v-3.14l7.6,3.7v2.73l-7.6,3.7v-3.15l4.75-1.86v-.06Z"/><path class="cls-3" d="M200,143.19v.06l4.75,1.86v3.15l-7.6-3.7v-2.73l7.6-3.7v3.14Z"/><path class="cls-3" d="M208.25,151.59h-2.06l4.28-16.23h2.06Z"/><path class="cls-3" d="M214.34,141.28v-3.14l7.6,3.7v2.73l-7.6,3.7v-3.15l4.75-1.86v-.06Z"/><path class="cls-3" d="M241.7,168.93V169l4.75,1.86V174l-7.6-3.7v-2.73l7.6-3.7V167Z"/><path class="cls-3" d="M250,177.33h-2.06l4.28-16.23h2.06Z"/><path class="cls-3" d="M256.07,167v-3.14l7.6,3.7v2.73l-7.6,3.7v-3.15l4.75-1.86v-.06Z"/><polygon class="cls-2" points="215.97 94.47 226.28 83.89 228.4 98.51 241.64 105.05 228.4 111.58 226.28 126.2 215.97 115.62 201.41 118.12 208.28 105.05 201.41 91.97 215.97 94.47"/><polygon class="cls-2" points="199.03 85.01 203.28 76.93 199.03 68.85 208.03 70.39 214.4 63.86 215.71 72.89 223.9 76.93 215.71 80.97 214.4 90.01 208.03 83.47 199.03 85.01"/><polygon class="cls-2" points="203.28 133.5 199.03 125.42 208.03 126.96 214.4 120.42 215.71 129.46 223.9 133.5 215.71 137.54 214.4 146.57 208.03 140.04 199.03 141.58 203.28 133.5"/><polygon class="cls-2" points="64.4 94.47 54.09 83.89 51.97 98.51 38.73 105.05 51.97 111.58 54.09 126.2 64.4 115.62 78.96 118.12 72.09 105.05 78.96 91.97 64.4 94.47"/><polygon class="cls-2" points="81.34 85.01 77.09 76.93 81.34 68.85 72.34 70.39 65.97 63.86 64.66 72.89 56.47 76.93 64.66 80.97 65.97 90.01 72.34 83.47 81.34 85.01"/><polygon class="cls-2" points="77.09 133.5 81.34 125.42 72.34 126.96 65.97 120.42 64.66 129.46 56.47 133.5 64.66 137.54 65.97 146.57 72.34 140.04 81.34 141.58 77.09 133.5"/></g></g></svg>