<svg xmlns="http://www.w3.org/2000/svg" viewBox="0 0 280 210"><defs><style>.cls-1{fill:#4b9e00;}.cls-2{fill:#52ac00;}.cls-3{fill:#58ba00;}.cls-4{fill:#367e35;}</style></defs><title>background_image_64</title><g id="Layer_2" data-name="Layer 2"><g id="Layer_1-2" data-name="Layer 1"><rect class="cls-1" width="280" height="210"/><circle class="cls-2" cx="140" cy="105" r="94.89"/><circle class="cls-3" cx="140" cy="105" r="64.04"/><circle class="cls-3" cx="140" cy="105" r="39.38"/><circle class="cls-3" cx="37.65" cy="28.95" r="12.01"/><circle class="cls-3" cx="222.87" cy="157.03" r="12.01"/><circle class="cls-3" cx="242.21" cy="35.69" r="7.48"/><circle class="cls-3" cx="18.16" cy="185.03" r="7.48"/><rect class="cls-4" x="121.52" y="32.1" width="22.5" height="8.75"/><rect class="cls-4" x="121.52" y="53.72" width="22.5" height="19"/><rect class="cls-4" x="200.05" y="53.72" width="22.5" height="19"/><rect class="cls-4" x="150.54" y="32.1" width="22.5" height="8.75"/><rect class="cls-4" x="150.54" y="53.72" width="22.5" height="8.75"/><rect class="cls-4" x="200.05" y="86.22" width="22.5" height="8.75"/><rect class="cls-4" x="185.24" y="32.1" width="52.13" height="8.75"/><rect class="cls-4" x="131.71" y="38.72" width="2.13" height="19.38"/><rect class="cls-4" x="138.1" y="58.1" width="19.38" height="2.13"/><rect class="cls-4" x="168.98" y="35.41" width="19.38" height="2.13"/><rect class="cls-4" x="160.73" y="38.72" width="2.13" height="19.38"/><rect class="cls-4" x="210.24" y="38.72" width="2.13" height="19.38"/><rect class="cls-4" x="210.24" y="69.1" width="2.13" height="19.38"/><rect class="cls-4" x="42.64" y="85.79" width="22.5" height="8.75"/><rect class="cls-4" x="42.64" y="107.41" width="22.5" height="19"/><rect class="cls-4" x="121.17" y="107.41" width="22.5" height="19"/><rect class="cls-4" x="71.66" y="85.79" width="22.5" height="8.75"/><rect class="cls-4" x="71.66" y="107.41" width="22.5" height="8.75"/><rect class="cls-4" x="151.6" y="157.85" width="22.5" height="8.75"/><rect class="cls-4" x="121.17" y="157.85" width="22.5" height="20.05"/><rect class="cls-4" x="121.17" y="139.91" width="22.5" height="8.75"/><rect class="cls-4" x="106.35" y="85.79" width="52.13" height="8.75"/><rect class="cls-4" x="52.83" y="92.41" width="2.13" height="19.38"/><rect class="cls-4" x="59.22" y="111.79" width="19.38" height="2.13"/><rect class="cls-4" x="90.1" y="87.1" width="19.38" height="2.13"/><rect class="cls-4" x="140.85" y="161.81" width="19.38" height="2.13"/><rect class="cls-4" x="81.85" y="92.41" width="2.13" height="19.38"/><rect class="cls-4" x="131.35" y="92.41" width="2.13" height="19.38"/><rect class="cls-4" x="131.35" y="67.72" width="2.13" height="19.38"/><rect class="cls-4" x="131.35" y="122.79" width="2.13" height="19.38"/><rect class="cls-4" x="131.35" y="146.61" width="2.13" height="19.38"/></g></g></svg>