<svg xmlns="http://www.w3.org/2000/svg" viewBox="0 0 280 210"><defs><style>.cls-1{fill:#2f84bb;}.cls-2{fill:#2494dd;}.cls-3{fill:#38aeff;}.cls-4{fill:#38bdff;}.cls-5{fill:#006bb6;}</style></defs><title>background_image_08</title><g id="Layer_2" data-name="Layer 2"><g id="Layer_1-2" data-name="Layer 1"><polygon class="cls-1" points="181.48 70.59 138.9 28.01 113.36 180.91 181.48 70.59"/><polygon class="cls-2" points="113.59 180.17 113.37 181.47 113.99 183.25 199.41 90.74 180.49 71.82 113.59 180.17"/><polygon class="cls-2" points="113.16 180.86 113.59 180.17 138.67 30 112.35 3.68 108.86 168.43 113.16 180.86"/><polygon class="cls-3" points="111.57 183.25 127.1 210 280 210 280 173.92 201.46 88.34 111.57 183.25"/><polygon class="cls-3" points="117.13 5.68 106.08 0 54.37 0 111.02 177.9 117.13 5.68"/><polygon class="cls-4" points="224.13 0 145.09 0 114.78 0 106.08 0 114.6 8.53 139.5 33.43 179.06 72.99 196.96 90.88 280 173.92 280 0.94 280 0 224.13 0"/><polygon class="cls-4" points="116.16 178.4 115.57 176.71 115.38 176.14 111.3 164.38 54.37 0 0 0 0 210 86.98 210 97.33 210 110.02 210 110.34 210 127.1 210 116.16 178.4"/><rect class="cls-5" x="121.52" y="32.1" width="22.5" height="8.75"/><rect class="cls-5" x="121.52" y="53.72" width="22.5" height="19"/><rect class="cls-5" x="200.05" y="53.72" width="22.5" height="19"/><rect class="cls-5" x="150.54" y="32.1" width="22.5" height="8.75"/><rect class="cls-5" x="150.54" y="53.72" width="22.5" height="8.75"/><rect class="cls-5" x="200.05" y="86.22" width="22.5" height="8.75"/><rect class="cls-5" x="185.24" y="32.1" width="52.13" height="8.75"/><rect class="cls-5" x="131.71" y="38.72" width="2.13" height="19.38"/><rect class="cls-5" x="146.73" y="49.47" width="2.13" height="19.38" transform="translate(206.95 -88.63) rotate(90)"/><rect class="cls-5" x="177.6" y="26.79" width="2.13" height="19.38" transform="translate(215.14 -142.19) rotate(90)"/><rect class="cls-5" x="160.73" y="38.72" width="2.13" height="19.38"/><rect class="cls-5" x="210.24" y="38.72" width="2.13" height="19.38"/><rect class="cls-5" x="210.24" y="69.1" width="2.13" height="19.38"/><rect class="cls-5" x="42.64" y="85.79" width="22.5" height="8.75"/><rect class="cls-5" x="42.64" y="107.41" width="22.5" height="19"/><rect class="cls-5" x="121.17" y="107.41" width="22.5" height="19"/><rect class="cls-5" x="71.66" y="85.79" width="22.5" height="8.75"/><rect class="cls-5" x="71.66" y="107.41" width="22.5" height="8.75"/><rect class="cls-5" x="151.6" y="157.85" width="22.5" height="8.75"/><rect class="cls-5" x="121.17" y="157.85" width="22.5" height="20.05"/><rect class="cls-5" x="121.17" y="139.91" width="22.5" height="8.75"/><rect class="cls-5" x="106.35" y="85.79" width="52.13" height="8.75"/><rect class="cls-5" x="52.83" y="92.41" width="2.13" height="19.38"/><rect class="cls-5" x="67.85" y="103.16" width="2.13" height="19.38" transform="translate(181.76 43.94) rotate(90)"/><rect class="cls-5" x="98.72" y="78.47" width="2.13" height="19.38" transform="translate(187.95 -11.62) rotate(90)"/><rect class="cls-5" x="149.48" y="153.19" width="2.13" height="19.38" transform="translate(313.42 12.33) rotate(90)"/><rect class="cls-5" x="81.85" y="92.41" width="2.13" height="19.38"/><rect class="cls-5" x="131.35" y="92.41" width="2.13" height="19.38"/><rect class="cls-5" x="131.35" y="67.72" width="2.13" height="19.38"/><rect class="cls-5" x="131.35" y="122.79" width="2.13" height="19.38"/><rect class="cls-5" x="131.35" y="146.61" width="2.13" height="19.38"/></g></g></svg>