<svg xmlns="http://www.w3.org/2000/svg" viewBox="0 0 280 210"><defs><style>.cls-1{fill:#5e0330;}.cls-2{fill:#7a0d25;}.cls-3{fill:#970330;}.cls-4{fill:#b60330;}.cls-5{fill:#fff;}.cls-6{fill:#784e98;}</style></defs><title>background_image_13</title><g id="Layer_2" data-name="Layer 2"><g id="Layer_1-2" data-name="Layer 1"><polygon class="cls-1" points="183.61 68.46 138.37 23.22 111.23 185.7 183.61 68.46"/><polygon class="cls-2" points="114.13 179.01 113.92 180.28 114.53 182.04 198.8 90.77 180.13 72.11 114.13 179.01"/><polygon class="cls-2" points="113.71 179.69 114.13 179.01 138.88 30.85 112.91 4.88 109.47 167.43 113.71 179.69"/><polygon class="cls-3" points="112.8 182.04 127.1 210 280 210 280 173.92 198.8 88.89 112.8 182.04"/><polygon class="cls-3" points="115.91 4.88 106.08 0 54.37 0 111.19 169.95 115.91 4.88"/><polygon class="cls-4" points="224.13 0 145.09 0 114.78 0 106.08 0 114.6 8.53 139.5 33.43 179.06 72.99 196.96 90.88 280 173.92 280 0.94 280 0 224.13 0"/><polygon class="cls-4" points="116.16 178.4 115.57 176.71 115.38 176.14 111.3 164.38 54.37 0 0 0 0 210 86.98 210 97.33 210 110.02 210 110.34 210 127.1 210 116.16 178.4"/><path class="cls-5" d="M143,34.76a19.12,19.12,0,1,0-27.11,0A18.94,18.94,0,0,0,126,40.06a18.91,18.91,0,0,1,8,4.38A19.31,19.31,0,0,1,137.88,39C138.46,38.42,142,35.79,143,34.76Z"/><path class="cls-5" d="M194.63,54.92A34.85,34.85,0,1,1,232,87.31a34.51,34.51,0,0,1-20.27-4.78A34.49,34.49,0,0,0,195.43,79a35.22,35.22,0,0,0,1.21-12.12C196.53,65.41,194.83,57.57,194.63,54.92Z"/><path class="cls-5" d="M70,96.38a30.54,30.54,0,1,0,5,27.75,30.35,30.35,0,0,1,8.45-11.81,30.24,30.24,0,0,1-7.8-7.08C74.87,104.24,71.43,98.2,70,96.38Z"/><path class="cls-5" d="M204.73,139.48a21.51,21.51,0,0,1,25.33,17.19,22,22,0,0,1-17.31,25.59,21.51,21.51,0,0,1-25.33-17.19,21.85,21.85,0,0,1,1.52-12.94,21.82,21.82,0,0,0,1-10.36,21.56,21.56,0,0,0,7.54-.15C198.41,141.44,203.11,139.8,204.73,139.48Z"/><path class="cls-6" d="M120.82,19.72l-.42.12L120,20l-.47.23.95,2.71-1.81.63-.95-2.71-.52.11-.42.12-.39.16-.48.24,2.55,7.3a5.78,5.78,0,0,0,.94-.23,5.89,5.89,0,0,0,.87-.41l-1-3,1.81-.63,1,3a5.78,5.78,0,0,0,.94-.23,5.89,5.89,0,0,0,.87-.41l-2.55-7.3Z"/><path class="cls-6" d="M127.63,17.86q-.09-.19-.21-.4l-5.23,1.83a3.72,3.72,0,0,0,.56,1.6l1.71-.6,2,5.73a5.78,5.78,0,0,0,.94-.23,5.89,5.89,0,0,0,.87-.41l-2-5.73,1.71-.6a5.12,5.12,0,0,0-.2-.84A3.75,3.75,0,0,0,127.63,17.86Z"/><path class="cls-6" d="M134.52,14.94l-.45.13-.41.17-.39.2-.17,4.33-2.78-3.3-.46.1-.45.13-.46.19-.45.22,2.26,7.41a4.64,4.64,0,0,0,.86-.2,4.13,4.13,0,0,0,.79-.38L131,19.71l2,2.4.36-.06.32-.1.33-.14.35-.18.15-3.19,1.62,4.19a5,5,0,0,0,.88-.2,3.84,3.84,0,0,0,.52-.21l.34-.19L135,14.84Z"/><path class="cls-6" d="M143,19.35q-.05-.15-.14-.34a4.23,4.23,0,0,0-.22-.42l-2.36.83-2-5.73-.52.11-.42.12-.39.16-.48.24L139,21.65l4.17-1.46a4.6,4.6,0,0,0-.09-.48Q143.07,19.52,143,19.35Z"/><path class="cls-6" d="M224.09,47.71a6,6,0,0,0,.52-2.87,4.48,4.48,0,0,0-.8-2.16,6,6,0,0,0-1.68-1.56A12.9,12.9,0,0,0,220,40a23.56,23.56,0,0,0-2.48-.87l-1.5-.41-5.87,14.53a11.57,11.57,0,0,0,1.7.9q.37.15.81.28t1,.24L215.63,50a4.14,4.14,0,0,0,.53.3q.38.19.77.35a8,8,0,0,0,2,.52,4.82,4.82,0,0,0,2-.15,4.36,4.36,0,0,0,1.78-1.06A6.22,6.22,0,0,0,224.09,47.71Zm-3.66-1.48a2,2,0,0,1-2.8,1.26l-.5-.23a1.43,1.43,0,0,1-.32-.2l1.66-4.11.33.11.29.12a3.76,3.76,0,0,1,.81.45,1.9,1.9,0,0,1,.57.64,1.85,1.85,0,0,1,.21.86A2.9,2.9,0,0,1,220.43,46.23Z"/><path class="cls-6" d="M237.84,47.41c-.29-.15-.56-.28-.81-.37s-.52-.19-.82-.28l-1-.28L233,51.87l-3.6-1.45L231.57,45q-.5-.29-.94-.52t-.81-.37q-.35-.14-.81-.28t-1-.28L222.1,58.1a11.73,11.73,0,0,0,1.74.91,12,12,0,0,0,1.87.54l2.4-5.94,3.6,1.46L229.3,61a11.73,11.73,0,0,0,1.74.91,11.89,11.89,0,0,0,1.87.54l5.87-14.53C238.44,47.73,238.13,47.56,237.84,47.41Z"/><path class="cls-6" d="M249.77,55a4.48,4.48,0,0,0-.8-2.16,6,6,0,0,0-1.68-1.56,12.91,12.91,0,0,0-2.1-1.08,23.51,23.51,0,0,0-2.48-.87,8,8,0,0,1-2.47-.41l-4.9,14.53a11.49,11.49,0,0,0,1.7.9q.37.15.81.28t1,.24l1.91-4.74a4.11,4.11,0,0,0,.53.3q.38.19.77.35a8,8,0,0,0,2,.52,4.83,4.83,0,0,0,2-.15,4.36,4.36,0,0,0,1.78-1.06,6.23,6.23,0,0,0,1.41-2.23A6,6,0,0,0,249.77,55Zm-4.18,1.39a2,2,0,0,1-2.8,1.26l-.5-.23a1.42,1.42,0,0,1-.32-.2l1.66-4.11.33.11.28.12a3.76,3.76,0,0,1,.81.45,1.9,1.9,0,0,1,.57.64,1.85,1.85,0,0,1,.21.86A2.9,2.9,0,0,1,245.59,56.38Z"/><path class="cls-6" d="M36.74,120.89a11.08,11.08,0,0,1-1.12.71,5.38,5.38,0,0,1-1,.41q-3.12.91-4.2-2.81a4.61,4.61,0,0,1-.05-3.08,2.79,2.79,0,0,1,1.92-1.6,5.81,5.81,0,0,1,.57-.14l.55-.07.59,0,.7,0A10.79,10.79,0,0,0,34.8,113a5.34,5.34,0,0,0-.14-1.47,8.56,8.56,0,0,0-1.83,0,10.43,10.43,0,0,0-1.63.34,6.55,6.55,0,0,0-2.4,1.23A5.47,5.47,0,0,0,27.32,115a6.32,6.32,0,0,0-.56,2.42,8.46,8.46,0,0,0,.36,2.72,8.72,8.72,0,0,0,1.14,2.48A5.9,5.9,0,0,0,30,124.36a5.45,5.45,0,0,0,2.28.79,6.93,6.93,0,0,0,2.76-.28l.81-.26q.39-.14.77-.32a7.48,7.48,0,0,0,.79-.43q.4-.25.85-.59A9.85,9.85,0,0,0,36.74,120.89Z"/><path class="cls-6" d="M47,107.43a7.11,7.11,0,0,0-.77.18,6.17,6.17,0,0,0-.7.25l-.68.3-.68,7.27-4.39-5.8-.79.13a7.45,7.45,0,0,0-.78.18,8.14,8.14,0,0,0-.78.28l-.77.33,3.14,12.67a7.84,7.84,0,0,0,1.47-.26,7,7,0,0,0,1.36-.57l-1.9-7.25,3.09,4.22a4.37,4.37,0,0,0,.61-.07l.55-.13a5.35,5.35,0,0,0,.57-.2l.61-.27.53-5.35L49,120.52a8.42,8.42,0,0,0,1.5-.27,6.43,6.43,0,0,0,.89-.32l.59-.29-4.25-12.35Z"/><path class="cls-6" d="M61.15,114.68a4.82,4.82,0,0,0-.82-3.17,3.07,3.07,0,0,0-1-.85,4.15,4.15,0,0,0-1.22-.44q-.68-.13-1.5-.22l-.94-.09a3.47,3.47,0,0,1-.91-.19.91.91,0,0,1-.55-.66,1,1,0,0,1,0-.54.92.92,0,0,1,.23-.41,1.6,1.6,0,0,1,.41-.3,2.74,2.74,0,0,1,.52-.21,5,5,0,0,1,1.59-.23q.68,0,1.19.09a8.14,8.14,0,0,0,.09-1.41,9.32,9.32,0,0,0-.11-1.31,15,15,0,0,0-1.93,0,8.73,8.73,0,0,0-1.78.33,6.26,6.26,0,0,0-1.73.78A4,4,0,0,0,51.56,107a3.58,3.58,0,0,0-.53,1.48,4.24,4.24,0,0,0,.16,1.74,4.06,4.06,0,0,0,.59,1.26,3.27,3.27,0,0,0,.86.82,3.81,3.81,0,0,0,1.1.49A6.59,6.59,0,0,0,55,113l1.09.08.5.05a1.83,1.83,0,0,1,.46.12,1.1,1.1,0,0,1,.38.26,1.07,1.07,0,0,1,.25.45,1,1,0,0,1-.23,1.08,3.07,3.07,0,0,1-1.32.68,7.53,7.53,0,0,1-3,.12q0,.79,0,1.53a10.28,10.28,0,0,0,.14,1.38,12.43,12.43,0,0,0,2,0,9.8,9.8,0,0,0,2-.38,7.34,7.34,0,0,0,2-.91,4.59,4.59,0,0,0,1.31-1.28A3.62,3.62,0,0,0,61.15,114.68Z"/><path class="cls-6" d="M201.73,154.63a2.17,2.17,0,0,1,1.92.24l.38.25.33.27q.16.14.33.32l.36.41a8.26,8.26,0,0,0,.81-.63,4.13,4.13,0,0,0,.75-.86,6.68,6.68,0,0,0-1-1,8,8,0,0,0-1.06-.74,5.07,5.07,0,0,0-2-.7,4.24,4.24,0,0,0-1.87.18,4.91,4.91,0,0,0-1.66,1,6.57,6.57,0,0,0-1.35,1.65,6.77,6.77,0,0,0-.79,2,4.58,4.58,0,0,0,0,1.9,4.24,4.24,0,0,0,.77,1.71,5.36,5.36,0,0,0,1.63,1.41l.58.32c.19.1.39.18.59.27a5.78,5.78,0,0,0,.66.22q.36.09.79.17a7.65,7.65,0,0,0,.53-2.12,8.68,8.68,0,0,1-1-.25,4.18,4.18,0,0,1-.78-.36q-2.17-1.28-.65-3.87A3.58,3.58,0,0,1,201.73,154.63Z"/><path class="cls-6" d="M208.95,158.33a.72.72,0,0,1,.36-.09,1.27,1.27,0,0,1,.39.07,2.16,2.16,0,0,1,.39.18,3.83,3.83,0,0,1,1,.77q.34.4.58.72a6.31,6.31,0,0,0,.84-.69,7.2,7.2,0,0,0,.68-.76,11.63,11.63,0,0,0-1-1.08,6.79,6.79,0,0,0-1.13-.83,4.85,4.85,0,0,0-1.36-.56,3.06,3.06,0,0,0-1.27,0,2.77,2.77,0,0,0-1.12.49,3.28,3.28,0,0,0-.89,1,3.12,3.12,0,0,0-.4,1,2.52,2.52,0,0,0,0,.92,3,3,0,0,0,.31.88,5.11,5.11,0,0,0,.58.85l.53.66.24.31a1.45,1.45,0,0,1,.18.33.87.87,0,0,1,.06.35.84.84,0,0,1-.12.38.79.79,0,0,1-.73.45,2.38,2.38,0,0,1-1.08-.38,5.83,5.83,0,0,1-1.67-1.64q-.47.4-.87.81a7.93,7.93,0,0,0-.71.81,9.67,9.67,0,0,0,1,1.11,7.57,7.57,0,0,0,1.26.91,5.67,5.67,0,0,0,1.59.66A3.55,3.55,0,0,0,208,166a2.81,2.81,0,0,0,1.19-.5,3.74,3.74,0,0,0,1.35-2.15,2.38,2.38,0,0,0,0-1,3.21,3.21,0,0,0-.4-.93q-.28-.45-.67-1l-.45-.58a2.69,2.69,0,0,1-.38-.62.71.71,0,0,1,.08-.66A.76.76,0,0,1,208.95,158.33Z"/><path class="cls-6" d="M215.59,162.24a.71.71,0,0,1,.36-.09,1.26,1.26,0,0,1,.39.07,2.13,2.13,0,0,1,.39.18,3.83,3.83,0,0,1,1,.77q.34.4.58.72a6.27,6.27,0,0,0,.84-.69,7.18,7.18,0,0,0,.68-.76,11.57,11.57,0,0,0-1-1.08,6.77,6.77,0,0,0-1.13-.83,4.85,4.85,0,0,0-1.36-.56,3.06,3.06,0,0,0-1.27,0,2.77,2.77,0,0,0-1.12.49,3.28,3.28,0,0,0-.89,1,3.14,3.14,0,0,0-.4,1,2.53,2.53,0,0,0,0,.92,3,3,0,0,0,.31.88,5.12,5.12,0,0,0,.58.85l.53.66.24.31a1.46,1.46,0,0,1,.18.33.86.86,0,0,1,.06.35.83.83,0,0,1-.12.38.79.79,0,0,1-.73.45,2.38,2.38,0,0,1-1.08-.38,5.84,5.84,0,0,1-1.67-1.64q-.47.4-.87.81a8,8,0,0,0-.71.81,9.67,9.67,0,0,0,1,1.11,7.58,7.58,0,0,0,1.26.91,5.68,5.68,0,0,0,1.59.66,3.56,3.56,0,0,0,1.42.06,2.81,2.81,0,0,0,1.19-.5,3.74,3.74,0,0,0,1.35-2.15,2.36,2.36,0,0,0,0-1,3.2,3.2,0,0,0-.4-.93q-.28-.45-.67-1l-.45-.58a2.69,2.69,0,0,1-.38-.62.71.71,0,0,1,.08-.66A.76.76,0,0,1,215.59,162.24Z"/></g></g></svg>