<svg xmlns="http://www.w3.org/2000/svg" viewBox="0 0 280 210"><defs><style>.cls-1{fill:#702aac;}.cls-2{fill:#7f30c3;}.cls-3{fill:#8532cd;}.cls-4{fill:#9145d2;}.cls-5{fill:#e1ecf8;}</style></defs><title>background_image_09</title><g id="Layer_2" data-name="Layer 2"><g id="Layer_1-2" data-name="Layer 1"><polygon class="cls-1" points="187.57 64.53 137.38 14.34 107.28 194.57 187.57 64.53"/><polygon class="cls-2" points="111.93 183.72 111.7 185.07 112.35 186.93 201.26 90.63 181.57 70.93 111.93 183.72"/><polygon class="cls-2" points="111.49 184.44 111.93 183.72 138.04 27.4 110.64 0 107 171.5 111.49 184.44"/><polygon class="cls-3" points="113.3 181.49 127.1 210 280 210 280 173.92 199.15 88.51 113.3 181.49"/><polygon class="cls-3" points="116.12 5.49 106.08 0 54.37 0 111.1 173.92 116.12 5.49"/><polygon class="cls-4" points="224.13 0 145.09 0 114.78 0 106.08 0 114.6 8.53 139.5 33.43 179.06 72.99 196.96 90.88 280 173.92 280 0.94 280 0 224.13 0"/><polygon class="cls-4" points="116.16 178.4 115.57 176.71 115.38 176.14 111.3 164.38 54.37 0 0 0 0 210 86.98 210 97.33 210 110.02 210 110.34 210 127.1 210 116.16 178.4"/><rect class="cls-5" x="121.52" y="32.1" width="22.5" height="8.75"/><rect class="cls-5" x="121.52" y="53.72" width="22.5" height="19"/><rect class="cls-5" x="200.05" y="53.72" width="22.5" height="19"/><rect class="cls-5" x="150.54" y="32.1" width="22.5" height="8.75"/><rect class="cls-5" x="150.54" y="53.72" width="22.5" height="8.75"/><rect class="cls-5" x="200.05" y="86.22" width="22.5" height="8.75"/><rect class="cls-5" x="185.24" y="32.1" width="52.13" height="8.75"/><rect class="cls-5" x="131.71" y="38.72" width="2.13" height="19.38"/><rect class="cls-5" x="138.1" y="58.1" width="19.38" height="2.13"/><rect class="cls-5" x="168.98" y="35.41" width="19.38" height="2.13"/><rect class="cls-5" x="160.73" y="38.72" width="2.13" height="19.38"/><rect class="cls-5" x="210.24" y="38.72" width="2.13" height="19.38"/><rect class="cls-5" x="210.24" y="69.1" width="2.13" height="19.38"/><rect class="cls-5" x="42.64" y="85.79" width="22.5" height="8.75"/><rect class="cls-5" x="42.64" y="107.41" width="22.5" height="19"/><rect class="cls-5" x="121.17" y="107.41" width="22.5" height="19"/><rect class="cls-5" x="71.66" y="85.79" width="22.5" height="8.75"/><rect class="cls-5" x="71.66" y="107.41" width="22.5" height="8.75"/><rect class="cls-5" x="151.6" y="157.85" width="22.5" height="8.75"/><rect class="cls-5" x="121.17" y="157.85" width="22.5" height="20.05"/><rect class="cls-5" x="121.17" y="139.91" width="22.5" height="8.75"/><rect class="cls-5" x="106.35" y="85.79" width="52.13" height="8.75"/><rect class="cls-5" x="52.83" y="92.41" width="2.13" height="19.38"/><rect class="cls-5" x="59.22" y="111.79" width="19.37" height="2.13"/><rect class="cls-5" x="90.1" y="87.1" width="19.38" height="2.13"/><rect class="cls-5" x="140.85" y="161.81" width="19.38" height="2.13"/><rect class="cls-5" x="81.85" y="92.41" width="2.13" height="19.38"/><rect class="cls-5" x="131.35" y="92.41" width="2.13" height="19.38"/><rect class="cls-5" x="131.35" y="67.72" width="2.13" height="19.38"/><rect class="cls-5" x="131.35" y="122.79" width="2.13" height="19.38"/><rect class="cls-5" x="131.35" y="146.61" width="2.13" height="19.38"/></g></g></svg>