<svg xmlns="http://www.w3.org/2000/svg" viewBox="0 0 280 210"><defs><style>.cls-1{fill:#2595dd;}.cls-2{fill:#38afff;}.cls-3{fill:#38beff;}.cls-4{fill:#009de1;}.cls-5{fill:#fff;}.cls-6{fill:#784e98;}</style></defs><title>background_image_27</title><g id="Layer_2" data-name="Layer 2"><g id="Layer_1-2" data-name="Layer 1"><rect class="cls-1" width="280" height="210"/><polygon class="cls-2" points="87.5 0 0 80.06 0 61.68 67.42 0 87.5 0"/><polygon class="cls-2" points="87.5 210 0 129.94 0 148.32 67.42 210 87.5 210"/><polygon class="cls-2" points="192.5 0 280 80.06 280 61.68 212.58 0 192.5 0"/><polygon class="cls-2" points="192.5 210 280 129.94 280 148.32 212.58 210 192.5 210"/><polygon class="cls-3" points="67.42 0 0 0 0 61.68 67.42 0"/><polygon class="cls-3" points="67.42 210 0 210 0 148.32 67.42 210"/><polygon class="cls-3" points="212.58 0 280 0 280 61.68 212.58 0"/><polygon class="cls-3" points="212.58 210 280 210 280 148.32 212.58 210"/><path class="cls-4" d="M65.14,59.76l-.63,2.4a13.82,13.82,0,0,0-2.45.77l-1.88-1.61a2.15,2.15,0,0,0-2.79,0l-2.35,2a2.14,2.14,0,0,0-.76,1.46A2.12,2.12,0,0,0,54.57,66l1.26,2.14a13.68,13.68,0,0,0-1.22,2.36l-2.45.2a2.15,2.15,0,0,0-2,2l-.27,3.06A2.15,2.15,0,0,0,51.52,78l2.43.64a13.48,13.48,0,0,0,.79,2.45L53.13,83a2.15,2.15,0,0,0,0,2.79l2,2.36a2.16,2.16,0,0,0,2.74.47L60,87.32a13.5,13.5,0,0,0,2.29,1.17l.2,2.45a2.15,2.15,0,0,0,2,2l3.06.27a2.15,2.15,0,0,0,2.28-1.61l.64-2.43a13.48,13.48,0,0,0,2.45-.79L74.73,90a2.15,2.15,0,0,0,2.79,0l2.35-2a2.14,2.14,0,0,0,.76-1.46,2.12,2.12,0,0,0-.29-1.28L79.06,83.1a13.78,13.78,0,0,0,1.14-2.21l2.47-.19a2.15,2.15,0,0,0,2-2l.27-3.06a2.15,2.15,0,0,0-1.61-2.28l-2.4-.63a13.82,13.82,0,0,0-.77-2.45l1.61-1.88a2.14,2.14,0,0,0,.51-1.21h0a2.14,2.14,0,0,0-.5-1.57l-2-2.35a2.16,2.16,0,0,0-2.74-.47l-2.14,1.26a13.72,13.72,0,0,0-2.28-1.19l-.19-2.47a2.15,2.15,0,0,0-2-2l-3.06-.27A2.13,2.13,0,0,0,65.14,59.76Zm5.16.62a.19.19,0,0,1,.17.18l.24,3.09a1,1,0,0,0,.65.85A11.66,11.66,0,0,1,74.3,66a1,1,0,0,0,1.07,0l2.68-1.57a.2.2,0,0,1,.24,0l2,2.35a.19.19,0,0,1,0,.14.18.18,0,0,1,0,.11l-2,2.36a1,1,0,0,0-.14,1.06,11.66,11.66,0,0,1,1,3.15,1,1,0,0,0,.72.79l3,.78a.19.19,0,0,1,.14.2l-.27,3.06a.19.19,0,0,1-.18.17L79.45,79a1,1,0,0,0-.85.65,12.11,12.11,0,0,1-1.48,2.87,1,1,0,0,0-.17.48,1,1,0,0,0,.13.58l1.59,2.7a.22.22,0,0,1,0,.11.2.2,0,0,1-.07.13l-2.35,2a.2.2,0,0,1-.25,0l-2.35-2a1,1,0,0,0-1.07-.14,11.55,11.55,0,0,1-3.15,1,1,1,0,0,0-.79.72l-.79,3a.19.19,0,0,1-.2.14L64.62,91a.19.19,0,0,1-.17-.18l-.24-3.07a1,1,0,0,0-.66-.85,11.65,11.65,0,0,1-2.94-1.51,1,1,0,0,0-1.06,0l-2.7,1.59a.2.2,0,0,1-.24,0l-2-2.35a.19.19,0,0,1,0-.14.18.18,0,0,1,0-.11l2-2.35a1,1,0,0,0,.14-1.07,11.55,11.55,0,0,1-1-3.15A1,1,0,0,0,55,76.9l-3-.79a.19.19,0,0,1-.14-.2l.27-3.06a.19.19,0,0,1,.18-.17l3.07-.24a1,1,0,0,0,.85-.66,11.83,11.83,0,0,1,1.55-3,1,1,0,0,0,0-1.07L56.25,65a.22.22,0,0,1,0-.11.2.2,0,0,1,.07-.13l2.35-2a.2.2,0,0,1,.25,0l2.36,2a1,1,0,0,0,1.06.14,11.66,11.66,0,0,1,3.15-1,1,1,0,0,0,.79-.72l.78-3a.19.19,0,0,1,.2-.14l3.06.27Z"/><path class="cls-4" d="M59.92,75a7.53,7.53,0,1,0,8.15-6.84A7.53,7.53,0,0,0,59.92,75Zm13,1.14a5.56,5.56,0,1,1-5.05-6A5.56,5.56,0,0,1,73,76.16Z"/><path class="cls-4" d="M157.36,126.28l-1,3.74a21.53,21.53,0,0,0-3.82,1.2l-2.94-2.51a3.35,3.35,0,0,0-4.34,0l-3.66,3.07a3.33,3.33,0,0,0-1.19,2.28,3.3,3.3,0,0,0,.45,2l2,3.34a21.31,21.31,0,0,0-1.91,3.68l-3.81.3a3.35,3.35,0,0,0-3.08,3.06l-.42,4.76a3.35,3.35,0,0,0,2.5,3.55l3.79,1a21,21,0,0,0,1.23,3.81l-2.51,2.91a3.35,3.35,0,0,0,0,4.34l3.07,3.68a3.36,3.36,0,0,0,4.28.74l3.37-2a21,21,0,0,0,3.57,1.83l.3,3.81a3.35,3.35,0,0,0,3.06,3.08l4.76.42a3.35,3.35,0,0,0,3.55-2.5l1-3.79a21,21,0,0,0,3.81-1.23l2.9,2.5a3.35,3.35,0,0,0,4.34,0l3.66-3.07a3.33,3.33,0,0,0,1.19-2.28,3.3,3.3,0,0,0-.45-2l-2-3.37a21.47,21.47,0,0,0,1.78-3.44l3.85-.3a3.35,3.35,0,0,0,3.08-3.06l.42-4.77a3.35,3.35,0,0,0-2.5-3.55l-3.74-1a21.53,21.53,0,0,0-1.2-3.82l2.51-2.94a3.33,3.33,0,0,0,.79-1.89h0a3.33,3.33,0,0,0-.78-2.45l-3.07-3.66a3.36,3.36,0,0,0-4.28-.74l-3.34,2a21.38,21.38,0,0,0-3.55-1.85l-.3-3.85a3.35,3.35,0,0,0-3.06-3.08l-4.76-.42A3.31,3.31,0,0,0,157.36,126.28Zm8,1a.29.29,0,0,1,.27.27l.38,4.82a1.52,1.52,0,0,0,1,1.32,18.17,18.17,0,0,1,4.57,2.38,1.53,1.53,0,0,0,1.67.08l4.18-2.45a.31.31,0,0,1,.38.07l3.07,3.66a.29.29,0,0,1,.07.22.28.28,0,0,1-.07.16l-3.14,3.68a1.53,1.53,0,0,0-.21,1.66,18.17,18.17,0,0,1,1.55,4.91,1.51,1.51,0,0,0,1.12,1.23l4.68,1.22a.29.29,0,0,1,.22.32l-.42,4.76a.29.29,0,0,1-.27.27l-4.82.38a1.52,1.52,0,0,0-1.32,1,18.87,18.87,0,0,1-2.3,4.47,1.57,1.57,0,0,0-.27.75,1.49,1.49,0,0,0,.21.91l2.47,4.2a.34.34,0,0,1,0,.17.3.3,0,0,1-.11.21L174.69,171a.31.31,0,0,1-.39,0l-3.66-3.12a1.55,1.55,0,0,0-1.67-.21,18,18,0,0,1-4.9,1.58,1.55,1.55,0,0,0-1.23,1.12l-1.23,4.71a.29.29,0,0,1-.32.22l-4.76-.42a.29.29,0,0,1-.27-.27l-.38-4.78a1.53,1.53,0,0,0-1-1.33,18.15,18.15,0,0,1-4.58-2.35,1.52,1.52,0,0,0-1.66-.07l-4.2,2.47a.31.31,0,0,1-.38-.07L141,164.81a.29.29,0,0,1-.07-.22.28.28,0,0,1,.07-.16l3.12-3.66a1.55,1.55,0,0,0,.21-1.67,18,18,0,0,1-1.58-4.9,1.55,1.55,0,0,0-1.12-1.23l-4.71-1.23a.29.29,0,0,1-.22-.32l.42-4.76a.29.29,0,0,1,.27-.27l4.78-.38a1.53,1.53,0,0,0,1.33-1,18.42,18.42,0,0,1,2.41-4.68,1.53,1.53,0,0,0,.08-1.67l-2.46-4.15a.34.34,0,0,1,0-.17.3.3,0,0,1,.11-.21l3.66-3.07a.31.31,0,0,1,.39,0l3.68,3.14a1.53,1.53,0,0,0,1.66.21,18.17,18.17,0,0,1,4.91-1.55,1.51,1.51,0,0,0,1.23-1.12l1.22-4.68a.29.29,0,0,1,.32-.22l4.76.42Z"/><path class="cls-4" d="M149.23,150a11.72,11.72,0,1,0,12.7-10.66A11.73,11.73,0,0,0,149.23,150Zm20.31,1.78a8.66,8.66,0,1,1-7.87-9.38A8.67,8.67,0,0,1,169.53,151.82Z"/><path class="cls-4" d="M128,19.48l-.64,3a17.15,17.15,0,0,0-3,1.09l-2.43-1.89a2.66,2.66,0,0,0-3.45.14l-2.8,2.58a2.65,2.65,0,0,0-.87,1.85,2.63,2.63,0,0,0,.43,1.57l1.68,2.59a17,17,0,0,0-1.38,3l-3,.38a2.67,2.67,0,0,0-2.34,2.54l-.16,3.8a2.67,2.67,0,0,0,2.12,2.73l3,.65a16.72,16.72,0,0,0,1.11,3l-1.89,2.41a2.67,2.67,0,0,0,.14,3.45l2.58,2.81a2.68,2.68,0,0,0,3.43.43l2.61-1.7a16.75,16.75,0,0,0,2.9,1.33l.38,3A2.67,2.67,0,0,0,129,60.61l3.8.16a2.67,2.67,0,0,0,2.73-2.12l.65-3a16.72,16.72,0,0,0,3-1.11l2.4,1.88a2.66,2.66,0,0,0,3.45-.14l2.8-2.58a2.65,2.65,0,0,0,.87-1.85,2.63,2.63,0,0,0-.43-1.57l-1.7-2.61a17.1,17.1,0,0,0,1.29-2.8l3.06-.38a2.67,2.67,0,0,0,2.34-2.54l.16-3.81a2.67,2.67,0,0,0-2.12-2.73l-3-.64a17.15,17.15,0,0,0-1.09-3l1.89-2.43a2.65,2.65,0,0,0,.56-1.53h0a2.65,2.65,0,0,0-.71-1.92L146.37,23a2.68,2.68,0,0,0-3.43-.43l-2.59,1.68a17,17,0,0,0-2.89-1.34l-.38-3.06a2.67,2.67,0,0,0-2.54-2.34l-3.8-.16A2.64,2.64,0,0,0,128,19.48Zm6.43.48a.23.23,0,0,1,.23.21l.47,3.82a1.21,1.21,0,0,0,.85,1,14.47,14.47,0,0,1,3.72,1.73,1.22,1.22,0,0,0,1.33,0l3.24-2.1a.25.25,0,0,1,.31,0l2.58,2.8a.23.23,0,0,1,.06.17.22.22,0,0,1-.05.13l-2.36,3a1.22,1.22,0,0,0-.11,1.33A14.47,14.47,0,0,1,146.11,36a1.2,1.2,0,0,0,.94.94l3.77.8A.23.23,0,0,1,151,38l-.16,3.8a.23.23,0,0,1-.21.23l-3.82.47a1.21,1.21,0,0,0-1,.85A15,15,0,0,1,144.12,47a1.25,1.25,0,0,0-.19.61,1.19,1.19,0,0,0,.2.71l2.11,3.26a.27.27,0,0,1,0,.14.24.24,0,0,1-.08.17l-2.8,2.58a.25.25,0,0,1-.31,0l-3-2.35a1.24,1.24,0,0,0-1.33-.11,14.33,14.33,0,0,1-3.84,1.43,1.24,1.24,0,0,0-.94.94l-.81,3.79a.23.23,0,0,1-.24.19l-3.8-.16a.23.23,0,0,1-.23-.21l-.47-3.79a1.22,1.22,0,0,0-.86-1,14.45,14.45,0,0,1-3.73-1.7,1.21,1.21,0,0,0-1.32,0l-3.26,2.11a.25.25,0,0,1-.31,0l-2.58-2.8a.23.23,0,0,1-.06-.17.22.22,0,0,1,.05-.13l2.35-3a1.24,1.24,0,0,0,.11-1.33,14.33,14.33,0,0,1-1.43-3.84,1.24,1.24,0,0,0-.94-.94l-3.79-.81a.23.23,0,0,1-.19-.24l.16-3.8a.23.23,0,0,1,.21-.23l3.79-.47a1.22,1.22,0,0,0,1-.86,14.67,14.67,0,0,1,1.75-3.81,1.22,1.22,0,0,0,0-1.33l-2.11-3.21a.27.27,0,0,1,0-.14.24.24,0,0,1,.08-.17l2.8-2.58a.25.25,0,0,1,.31,0l3,2.36a1.22,1.22,0,0,0,1.33.11,14.47,14.47,0,0,1,3.85-1.41,1.2,1.2,0,0,0,.94-.94l.8-3.77a.23.23,0,0,1,.24-.19l3.8.16Z"/><path class="cls-4" d="M122.39,38.68a9.34,9.34,0,1,0,9.72-8.93A9.34,9.34,0,0,0,122.39,38.68Zm16.22.69a6.9,6.9,0,1,1-6.6-7.18A6.9,6.9,0,0,1,138.61,39.36Z"/><path class="cls-4" d="M208.87,77l-.64,3a17.15,17.15,0,0,0-3,1.09l-2.43-1.89a2.66,2.66,0,0,0-3.45.14l-2.8,2.58a2.65,2.65,0,0,0-.87,1.85,2.63,2.63,0,0,0,.43,1.57l1.68,2.59a17,17,0,0,0-1.38,3l-3,.38A2.67,2.67,0,0,0,191,93.85l-.16,3.8a2.67,2.67,0,0,0,2.12,2.73l3,.65a16.72,16.72,0,0,0,1.11,3l-1.89,2.41a2.67,2.67,0,0,0,.14,3.45L198,112.7a2.68,2.68,0,0,0,3.43.43l2.61-1.7a16.75,16.75,0,0,0,2.9,1.33l.38,3a2.67,2.67,0,0,0,2.54,2.34l3.8.16a2.67,2.67,0,0,0,2.73-2.12l.65-3a16.72,16.72,0,0,0,3-1.11l2.4,1.88a2.66,2.66,0,0,0,3.45-.14l2.8-2.58a2.65,2.65,0,0,0,.87-1.85,2.63,2.63,0,0,0-.43-1.57l-1.7-2.61a17.1,17.1,0,0,0,1.29-2.8l3.06-.38a2.67,2.67,0,0,0,2.34-2.54l.16-3.81a2.67,2.67,0,0,0-2.12-2.73l-3-.64a17.15,17.15,0,0,0-1.09-3l1.89-2.43a2.65,2.65,0,0,0,.56-1.53h0a2.65,2.65,0,0,0-.71-1.92l-2.58-2.8a2.68,2.68,0,0,0-3.43-.43l-2.59,1.68a17,17,0,0,0-2.89-1.34l-.38-3.06a2.67,2.67,0,0,0-2.54-2.34l-3.8-.16A2.64,2.64,0,0,0,208.87,77Zm6.43.48a.23.23,0,0,1,.23.21L216,81.5a1.21,1.21,0,0,0,.85,1,14.47,14.47,0,0,1,3.72,1.73,1.22,1.22,0,0,0,1.33,0l3.24-2.1a.25.25,0,0,1,.31,0L228,85a.23.23,0,0,1,.06.17.22.22,0,0,1-.05.13l-2.36,3a1.22,1.22,0,0,0-.11,1.33A14.47,14.47,0,0,1,227,93.52a1.2,1.2,0,0,0,.94.94l3.77.8a.23.23,0,0,1,.19.24l-.16,3.8a.23.23,0,0,1-.21.23l-3.82.47a1.21,1.21,0,0,0-1,.85,15,15,0,0,1-1.67,3.64,1.25,1.25,0,0,0-.19.61,1.19,1.19,0,0,0,.2.71l2.11,3.26a.27.27,0,0,1,0,.14.24.24,0,0,1-.08.17l-2.8,2.58a.25.25,0,0,1-.31,0l-3-2.35a1.24,1.24,0,0,0-1.33-.11,14.33,14.33,0,0,1-3.84,1.43,1.24,1.24,0,0,0-.94.94l-.81,3.79a.23.23,0,0,1-.24.19l-3.8-.16a.23.23,0,0,1-.23-.21l-.47-3.79a1.22,1.22,0,0,0-.86-1,14.45,14.45,0,0,1-3.73-1.7,1.21,1.21,0,0,0-1.32,0l-3.26,2.11a.25.25,0,0,1-.31,0l-2.58-2.8a.23.23,0,0,1-.06-.17.22.22,0,0,1,.05-.13l2.35-3a1.24,1.24,0,0,0,.11-1.33,14.33,14.33,0,0,1-1.43-3.84,1.24,1.24,0,0,0-.94-.94L193.51,98a.23.23,0,0,1-.19-.24l.16-3.8a.23.23,0,0,1,.21-.23l3.79-.47a1.22,1.22,0,0,0,1-.86,14.67,14.67,0,0,1,1.75-3.81,1.22,1.22,0,0,0,0-1.33L198.15,84a.27.27,0,0,1,0-.14.24.24,0,0,1,.08-.17l2.8-2.58a.25.25,0,0,1,.31,0l3,2.36a1.22,1.22,0,0,0,1.33.11,14.47,14.47,0,0,1,3.85-1.41,1.2,1.2,0,0,0,.94-.94l.8-3.77a.23.23,0,0,1,.24-.19l3.8.16Z"/><path class="cls-4" d="M203.25,96.19A9.34,9.34,0,1,0,213,87.25,9.34,9.34,0,0,0,203.25,96.19Zm16.22.69a6.9,6.9,0,1,1-6.6-7.18A6.9,6.9,0,0,1,219.47,96.87Z"/><path class="cls-4" d="M164.09,52.33l-.36,1.7a9.7,9.7,0,0,0-1.69.62l-1.37-1.07a1.51,1.51,0,0,0-2,.08l-1.59,1.46a1.5,1.5,0,0,0-.49,1,1.48,1.48,0,0,0,.24.89l1,1.46a9.6,9.6,0,0,0-.78,1.7l-1.71.21A1.51,1.51,0,0,0,154,61.86L153.92,64a1.51,1.51,0,0,0,1.2,1.54l1.72.37a9.46,9.46,0,0,0,.63,1.69L156.4,69a1.51,1.51,0,0,0,.08,2l1.46,1.59a1.51,1.51,0,0,0,1.94.25l1.48-1a9.47,9.47,0,0,0,1.64.75l.21,1.71a1.51,1.51,0,0,0,1.44,1.32l2.15.09a1.51,1.51,0,0,0,1.54-1.2l.37-1.72a9.46,9.46,0,0,0,1.69-.63l1.36,1.07a1.51,1.51,0,0,0,2-.08l1.59-1.46a1.5,1.5,0,0,0,.49-1,1.48,1.48,0,0,0-.24-.89l-1-1.48a9.67,9.67,0,0,0,.73-1.59l1.73-.21A1.51,1.51,0,0,0,178.36,65l.09-2.15a1.51,1.51,0,0,0-1.2-1.54l-1.7-.36a9.7,9.7,0,0,0-.62-1.69L176,57.88a1.5,1.5,0,0,0,.32-.87h0a1.5,1.5,0,0,0-.4-1.09l-1.46-1.59a1.51,1.51,0,0,0-1.94-.25l-1.46,1a9.63,9.63,0,0,0-1.64-.76l-.21-1.73a1.51,1.51,0,0,0-1.44-1.32l-2.15-.09A1.49,1.49,0,0,0,164.09,52.33Zm3.64.27a.13.13,0,0,1,.13.12l.27,2.16a.69.69,0,0,0,.48.57,8.18,8.18,0,0,1,2.1,1,.69.69,0,0,0,.75,0l1.83-1.19a.14.14,0,0,1,.17,0l1.46,1.59a.13.13,0,0,1,0,.1.13.13,0,0,1,0,.08l-1.34,1.72a.69.69,0,0,0-.06.75,8.18,8.18,0,0,1,.8,2.18.68.68,0,0,0,.53.53l2.13.45a.13.13,0,0,1,.11.14L177,64.94a.13.13,0,0,1-.12.13l-2.16.27a.69.69,0,0,0-.57.48,8.5,8.5,0,0,1-.95,2.06.71.71,0,0,0-.11.34.67.67,0,0,0,.11.4l1.2,1.84a.15.15,0,0,1,0,.08.14.14,0,0,1,0,.1l-1.59,1.46a.14.14,0,0,1-.17,0l-1.71-1.33a.7.7,0,0,0-.75-.06,8.1,8.1,0,0,1-2.17.81.7.7,0,0,0-.53.53L167,74.19a.13.13,0,0,1-.14.11l-2.15-.09a.13.13,0,0,1-.13-.12l-.27-2.14a.69.69,0,0,0-.49-.58,8.17,8.17,0,0,1-2.11-1,.68.68,0,0,0-.75,0l-1.84,1.2a.14.14,0,0,1-.17,0L157.5,70a.13.13,0,0,1,0-.1.13.13,0,0,1,0-.08l1.33-1.71a.7.7,0,0,0,.06-.75,8.1,8.1,0,0,1-.81-2.17.7.7,0,0,0-.53-.53l-2.14-.46a.13.13,0,0,1-.11-.14l.09-2.15a.13.13,0,0,1,.12-.13l2.14-.27a.69.69,0,0,0,.58-.49,8.3,8.3,0,0,1,1-2.15.69.69,0,0,0,0-.75L158,56.31a.15.15,0,0,1,0-.08.14.14,0,0,1,0-.1l1.59-1.46a.14.14,0,0,1,.17,0L161.53,56a.69.69,0,0,0,.75.06,8.18,8.18,0,0,1,2.18-.8.68.68,0,0,0,.53-.53l.45-2.13a.13.13,0,0,1,.14-.11l2.15.09Z"/><path class="cls-4" d="M160.91,63.18a5.28,5.28,0,1,0,5.5-5.05A5.28,5.28,0,0,0,160.91,63.18Zm9.17.39a3.9,3.9,0,1,1-3.73-4.06A3.9,3.9,0,0,1,170.08,63.57Z"/><path class="cls-4" d="M120.29,93.92l-.36,1.7a9.7,9.7,0,0,0-1.69.62l-1.37-1.07a1.51,1.51,0,0,0-2,.08l-1.59,1.46a1.5,1.5,0,0,0-.49,1,1.48,1.48,0,0,0,.24.89l1,1.46a9.6,9.6,0,0,0-.78,1.7l-1.71.21a1.51,1.51,0,0,0-1.32,1.44l-.09,2.15a1.51,1.51,0,0,0,1.2,1.54l1.72.37a9.46,9.46,0,0,0,.63,1.69l-1.07,1.36a1.51,1.51,0,0,0,.08,2l1.46,1.59a1.51,1.51,0,0,0,1.94.25l1.48-1a9.47,9.47,0,0,0,1.64.75l.21,1.71a1.51,1.51,0,0,0,1.44,1.32l2.15.09a1.51,1.51,0,0,0,1.54-1.2l.37-1.72a9.46,9.46,0,0,0,1.69-.63l1.36,1.07a1.51,1.51,0,0,0,2-.08l1.59-1.46a1.5,1.5,0,0,0,.49-1,1.48,1.48,0,0,0-.24-.89l-1-1.48a9.67,9.67,0,0,0,.73-1.59l1.73-.21a1.51,1.51,0,0,0,1.32-1.44l.09-2.15a1.51,1.51,0,0,0-1.2-1.54l-1.7-.36a9.7,9.7,0,0,0-.62-1.69l1.07-1.37a1.5,1.5,0,0,0,.32-.87h0a1.5,1.5,0,0,0-.4-1.09l-1.46-1.59a1.51,1.51,0,0,0-1.94-.25l-1.46,1a9.63,9.63,0,0,0-1.64-.76l-.21-1.73A1.51,1.51,0,0,0,124,92.82l-2.15-.09A1.49,1.49,0,0,0,120.29,93.92Zm3.64.27a.13.13,0,0,1,.13.12l.27,2.16a.69.69,0,0,0,.48.57,8.18,8.18,0,0,1,2.1,1,.69.69,0,0,0,.75,0l1.83-1.19a.14.14,0,0,1,.17,0l1.46,1.59a.13.13,0,0,1,0,.1.13.13,0,0,1,0,.08l-1.34,1.72a.69.69,0,0,0-.06.75,8.18,8.18,0,0,1,.8,2.18.68.68,0,0,0,.53.53l2.13.45a.13.13,0,0,1,.11.14l-.09,2.15a.13.13,0,0,1-.12.13l-2.16.27a.69.69,0,0,0-.57.48,8.5,8.5,0,0,1-.95,2.06.71.71,0,0,0-.11.34.67.67,0,0,0,.11.4l1.2,1.84a.15.15,0,0,1,0,.08.14.14,0,0,1,0,.1L129,113.69a.14.14,0,0,1-.17,0l-1.71-1.33a.7.7,0,0,0-.75-.06,8.1,8.1,0,0,1-2.17.81.7.7,0,0,0-.53.53l-.46,2.14a.13.13,0,0,1-.14.11l-2.15-.09a.13.13,0,0,1-.13-.12l-.27-2.14A.69.69,0,0,0,120,113a8.17,8.17,0,0,1-2.11-1,.68.68,0,0,0-.75,0l-1.84,1.2a.14.14,0,0,1-.17,0l-1.46-1.59a.13.13,0,0,1,0-.1.13.13,0,0,1,0-.08L115,109.7a.7.7,0,0,0,.06-.75,8.1,8.1,0,0,1-.81-2.17.7.7,0,0,0-.53-.53l-2.14-.46a.13.13,0,0,1-.11-.14l.09-2.15a.13.13,0,0,1,.12-.13l2.14-.27a.69.69,0,0,0,.58-.49,8.3,8.3,0,0,1,1-2.15.69.69,0,0,0,0-.75l-1.19-1.82a.15.15,0,0,1,0-.08.14.14,0,0,1,0-.1l1.59-1.46a.14.14,0,0,1,.17,0l1.72,1.34a.69.69,0,0,0,.75.06,8.18,8.18,0,0,1,2.18-.8.68.68,0,0,0,.53-.53l.45-2.13a.13.13,0,0,1,.14-.11l2.15.09Z"/><path class="cls-4" d="M117.11,104.77a5.28,5.28,0,1,0,5.5-5.05A5.28,5.28,0,0,0,117.11,104.77Zm9.17.39a3.9,3.9,0,1,1-3.73-4.06A3.9,3.9,0,0,1,126.28,105.16Z"/><path class="cls-4" d="M53.92,125l-.36,1.7a9.7,9.7,0,0,0-1.69.62l-1.37-1.07a1.51,1.51,0,0,0-2,.08L47,127.76a1.5,1.5,0,0,0-.49,1,1.48,1.48,0,0,0,.24.89l1,1.46a9.6,9.6,0,0,0-.78,1.7l-1.71.21a1.51,1.51,0,0,0-1.32,1.44l-.09,2.15A1.51,1.51,0,0,0,45,138.2l1.72.37a9.46,9.46,0,0,0,.63,1.69l-1.07,1.36a1.51,1.51,0,0,0,.08,2l1.46,1.59a1.51,1.51,0,0,0,1.94.25l1.48-1a9.47,9.47,0,0,0,1.64.75L53,146.9a1.51,1.51,0,0,0,1.44,1.32l2.15.09a1.51,1.51,0,0,0,1.54-1.2l.37-1.72a9.46,9.46,0,0,0,1.69-.63l1.36,1.07a1.51,1.51,0,0,0,2-.08l1.59-1.46a1.5,1.5,0,0,0,.49-1,1.48,1.48,0,0,0-.24-.89l-1-1.48a9.67,9.67,0,0,0,.73-1.59l1.73-.21a1.51,1.51,0,0,0,1.32-1.44l.09-2.15a1.51,1.51,0,0,0-1.2-1.54l-1.7-.36a9.7,9.7,0,0,0-.62-1.69l1.07-1.37a1.5,1.5,0,0,0,.32-.87h0a1.5,1.5,0,0,0-.4-1.09L64.3,127a1.51,1.51,0,0,0-1.94-.25l-1.46,1a9.63,9.63,0,0,0-1.64-.76l-.21-1.73a1.51,1.51,0,0,0-1.44-1.32l-2.15-.09A1.49,1.49,0,0,0,53.92,125Zm3.64.27a.13.13,0,0,1,.13.12l.27,2.16a.69.69,0,0,0,.48.57,8.18,8.18,0,0,1,2.1,1,.69.69,0,0,0,.75,0l1.83-1.19a.14.14,0,0,1,.17,0l1.46,1.59a.13.13,0,0,1,0,.1.13.13,0,0,1,0,.08l-1.34,1.72a.69.69,0,0,0-.06.75,8.18,8.18,0,0,1,.8,2.18.68.68,0,0,0,.53.53l2.13.45a.13.13,0,0,1,.11.14l-.09,2.15a.13.13,0,0,1-.12.13l-2.16.27a.69.69,0,0,0-.57.48,8.5,8.5,0,0,1-.95,2.06.71.71,0,0,0-.11.34.67.67,0,0,0,.11.4l1.2,1.84a.15.15,0,0,1,0,.08.14.14,0,0,1,0,.1l-1.59,1.46a.14.14,0,0,1-.17,0l-1.71-1.33a.7.7,0,0,0-.75-.06,8.1,8.1,0,0,1-2.17.81.7.7,0,0,0-.53.53l-.46,2.14a.13.13,0,0,1-.14.11l-2.15-.09a.13.13,0,0,1-.13-.12l-.27-2.14a.69.69,0,0,0-.49-.58,8.17,8.17,0,0,1-2.11-1,.68.68,0,0,0-.75,0L49,144.24a.14.14,0,0,1-.17,0l-1.46-1.59a.13.13,0,0,1,0-.1.13.13,0,0,1,0-.08l1.33-1.71a.7.7,0,0,0,.06-.75,8.1,8.1,0,0,1-.81-2.17.7.7,0,0,0-.53-.53l-2.14-.46a.13.13,0,0,1-.11-.14l.09-2.15a.13.13,0,0,1,.12-.13l2.14-.27a.69.69,0,0,0,.58-.49,8.3,8.3,0,0,1,1-2.15.69.69,0,0,0,0-.75l-1.19-1.82a.15.15,0,0,1,0-.08.14.14,0,0,1,0-.1l1.59-1.46a.14.14,0,0,1,.17,0l1.72,1.34a.69.69,0,0,0,.75.06,8.18,8.18,0,0,1,2.18-.8.68.68,0,0,0,.53-.53l.45-2.13a.13.13,0,0,1,.14-.11l2.15.09Z"/><path class="cls-4" d="M50.75,135.82a5.28,5.28,0,1,0,5.5-5.05A5.28,5.28,0,0,0,50.75,135.82Zm9.17.39a3.9,3.9,0,1,1-3.73-4.06A3.9,3.9,0,0,1,59.92,136.21Z"/><path class="cls-5" d="M144.07,38.06A19.12,19.12,0,1,0,117,38a18.94,18.94,0,0,0,10.11,5.32,18.91,18.91,0,0,1,8,4.38,19.31,19.31,0,0,1,3.86-5.46C139.51,41.72,143,39.09,144.07,38.06Z"/><path class="cls-5" d="M195.69,58.22A34.85,34.85,0,1,1,233,90.61a34.51,34.51,0,0,1-20.27-4.78,34.49,34.49,0,0,0-16.25-3.55,35.22,35.22,0,0,0,1.21-12.12C197.59,68.71,195.89,60.87,195.69,58.22Z"/><path class="cls-5" d="M71.08,99.68a30.54,30.54,0,1,0,5,27.75,30.35,30.35,0,0,1,8.45-11.81,30.24,30.24,0,0,1-7.8-7.08C75.92,107.54,72.49,101.5,71.08,99.68Z"/><path class="cls-5" d="M205.79,142.78A21.51,21.51,0,0,1,231.12,160a22,22,0,0,1-17.31,25.59,21.51,21.51,0,0,1-25.33-17.19A21.85,21.85,0,0,1,190,155.42a21.82,21.82,0,0,0,1-10.36,21.56,21.56,0,0,0,7.54-.15C199.47,144.74,204.17,143.1,205.79,142.78Z"/><path class="cls-6" d="M121.88,23l-.42.12-.4.16-.47.23.95,2.71-1.81.63-.95-2.71-.52.11-.42.12-.39.16-.48.24,2.55,7.3a5.78,5.78,0,0,0,.94-.23,5.89,5.89,0,0,0,.87-.41l-1-3,1.81-.63,1,3a5.78,5.78,0,0,0,.94-.23,5.89,5.89,0,0,0,.87-.41l-2.55-7.3Z"/><path class="cls-6" d="M128.69,21.16q-.09-.19-.21-.4l-5.23,1.83a3.72,3.72,0,0,0,.56,1.6l1.71-.6,2,5.73a5.78,5.78,0,0,0,.94-.23,5.89,5.89,0,0,0,.87-.41l-2-5.73,1.71-.6a5.12,5.12,0,0,0-.2-.84A3.75,3.75,0,0,0,128.69,21.16Z"/><path class="cls-6" d="M135.58,18.24l-.45.13-.41.17-.39.2-.17,4.33-2.78-3.3-.46.1-.45.13-.46.19-.45.22,2.26,7.41a4.64,4.64,0,0,0,.86-.2,4.13,4.13,0,0,0,.79-.38L132.1,23l2,2.4.36-.06.32-.1.33-.14.35-.18.15-3.19,1.62,4.19a5,5,0,0,0,.88-.2,3.84,3.84,0,0,0,.52-.21l.34-.19L136,18.14Z"/><path class="cls-6" d="M144.06,22.65q-.05-.15-.14-.34a4.23,4.23,0,0,0-.22-.42l-2.36.83-2-5.73-.52.11-.42.12-.39.16-.48.24L140.09,25l4.17-1.46a4.6,4.6,0,0,0-.09-.48Q144.12,22.82,144.06,22.65Z"/><path class="cls-6" d="M225.15,51a6,6,0,0,0,.52-2.87,4.48,4.48,0,0,0-.8-2.16,6,6,0,0,0-1.68-1.56,12.9,12.9,0,0,0-2.1-1.08,23.56,23.56,0,0,0-2.48-.87l-1.5-.41-5.87,14.53a11.57,11.57,0,0,0,1.7.9q.37.15.81.28t1,.24l1.91-4.74a4.14,4.14,0,0,0,.53.3q.38.19.77.35a8,8,0,0,0,2,.52,4.82,4.82,0,0,0,2-.15,4.36,4.36,0,0,0,1.78-1.06A6.22,6.22,0,0,0,225.15,51Zm-3.66-1.48a2,2,0,0,1-2.8,1.26l-.5-.23a1.43,1.43,0,0,1-.32-.2l1.66-4.11.33.11.29.12a3.76,3.76,0,0,1,.81.45,1.9,1.9,0,0,1,.57.64,1.85,1.85,0,0,1,.21.86A2.9,2.9,0,0,1,221.49,49.53Z"/><path class="cls-6" d="M238.89,50.71c-.29-.15-.56-.28-.81-.37s-.52-.19-.82-.28l-1-.28-2.18,5.39-3.6-1.45,2.18-5.39q-.5-.29-.94-.52t-.81-.37q-.35-.14-.81-.28t-1-.28L223.16,61.4a11.73,11.73,0,0,0,1.74.91,12,12,0,0,0,1.87.54l2.4-5.94,3.6,1.46-2.4,5.94a11.73,11.73,0,0,0,1.74.91,11.89,11.89,0,0,0,1.87.54l5.87-14.53C239.5,51,239.19,50.86,238.89,50.71Z"/><path class="cls-6" d="M250.83,58.3a4.48,4.48,0,0,0-.8-2.16,6,6,0,0,0-1.68-1.56,12.91,12.91,0,0,0-2.1-1.08,23.51,23.51,0,0,0-2.48-.87,8,8,0,0,1-2.47-.41l-4.9,14.53a11.49,11.49,0,0,0,1.7.9q.37.15.81.28t1,.24l1.91-4.74a4.11,4.11,0,0,0,.53.3q.38.19.77.35a8,8,0,0,0,2,.52,4.83,4.83,0,0,0,2-.15,4.36,4.36,0,0,0,1.78-1.06,6.23,6.23,0,0,0,1.41-2.23A6,6,0,0,0,250.83,58.3Zm-4.18,1.39a2,2,0,0,1-2.8,1.26l-.5-.23a1.42,1.42,0,0,1-.32-.2l1.66-4.11.33.11.28.12a3.76,3.76,0,0,1,.81.45,1.9,1.9,0,0,1,.57.64,1.85,1.85,0,0,1,.21.86A2.9,2.9,0,0,1,246.64,59.69Z"/><path class="cls-6" d="M37.8,124.19a11.08,11.08,0,0,1-1.12.71,5.38,5.38,0,0,1-1,.41q-3.12.91-4.2-2.81a4.61,4.61,0,0,1-.05-3.08,2.79,2.79,0,0,1,1.92-1.6,5.81,5.81,0,0,1,.57-.14l.55-.07.59,0,.7,0a10.79,10.79,0,0,0,.13-1.32,5.34,5.34,0,0,0-.14-1.47,8.56,8.56,0,0,0-1.83,0,10.43,10.43,0,0,0-1.63.34,6.55,6.55,0,0,0-2.4,1.23,5.47,5.47,0,0,0-1.49,1.92,6.32,6.32,0,0,0-.56,2.42,8.46,8.46,0,0,0,.36,2.72,8.72,8.72,0,0,0,1.14,2.48,5.9,5.9,0,0,0,1.75,1.72,5.45,5.45,0,0,0,2.28.79,6.93,6.93,0,0,0,2.76-.28l.81-.26q.39-.14.77-.32a7.48,7.48,0,0,0,.79-.43q.4-.25.85-.59A9.85,9.85,0,0,0,37.8,124.19Z"/><path class="cls-6" d="M48,110.73a7.11,7.11,0,0,0-.77.18,6.17,6.17,0,0,0-.7.25l-.68.3-.68,7.27-4.39-5.8-.79.13a7.45,7.45,0,0,0-.78.18,8.14,8.14,0,0,0-.78.28l-.77.33,3.14,12.67a7.84,7.84,0,0,0,1.47-.26,7,7,0,0,0,1.36-.57l-1.9-7.25,3.09,4.22a4.37,4.37,0,0,0,.61-.07l.55-.13a5.35,5.35,0,0,0,.57-.2l.61-.27.53-5.35,2.36,7.19a8.42,8.42,0,0,0,1.5-.27,6.43,6.43,0,0,0,.89-.32l.59-.29-4.25-12.35Z"/><path class="cls-6" d="M62.21,118a4.82,4.82,0,0,0-.82-3.17,3.07,3.07,0,0,0-1-.85,4.15,4.15,0,0,0-1.22-.44q-.68-.13-1.5-.22l-.94-.09a3.47,3.47,0,0,1-.91-.19.91.91,0,0,1-.55-.66,1,1,0,0,1,0-.54.92.92,0,0,1,.23-.41,1.6,1.6,0,0,1,.41-.3,2.74,2.74,0,0,1,.52-.21,5,5,0,0,1,1.59-.23q.68,0,1.19.09a8.14,8.14,0,0,0,.09-1.41,9.32,9.32,0,0,0-.11-1.31,15,15,0,0,0-1.93,0,8.73,8.73,0,0,0-1.78.33,6.26,6.26,0,0,0-1.73.78,4,4,0,0,0-1.16,1.16,3.58,3.58,0,0,0-.53,1.48,4.24,4.24,0,0,0,.16,1.74,4.06,4.06,0,0,0,.59,1.26,3.27,3.27,0,0,0,.86.82,3.81,3.81,0,0,0,1.1.49,6.59,6.59,0,0,0,1.31.21l1.09.08.5.05a1.83,1.83,0,0,1,.46.12,1.1,1.1,0,0,1,.38.26,1.07,1.07,0,0,1,.25.45,1,1,0,0,1-.23,1.08,3.07,3.07,0,0,1-1.32.68,7.53,7.53,0,0,1-3,.12q0,.79,0,1.53a10.28,10.28,0,0,0,.14,1.38,12.43,12.43,0,0,0,2,0,9.8,9.8,0,0,0,2-.38,7.34,7.34,0,0,0,2-.91,4.59,4.59,0,0,0,1.31-1.28A3.62,3.62,0,0,0,62.21,118Z"/><path class="cls-6" d="M202.79,157.93a2.17,2.17,0,0,1,1.92.24l.38.25.33.27q.16.14.33.32l.36.41a8.26,8.26,0,0,0,.81-.63,4.13,4.13,0,0,0,.75-.86,6.68,6.68,0,0,0-1-1,8,8,0,0,0-1.06-.74,5.07,5.07,0,0,0-2-.7,4.24,4.24,0,0,0-1.87.18,4.91,4.91,0,0,0-1.66,1,6.57,6.57,0,0,0-1.35,1.65,6.77,6.77,0,0,0-.79,2,4.58,4.58,0,0,0,0,1.9,4.24,4.24,0,0,0,.77,1.71,5.36,5.36,0,0,0,1.63,1.41l.58.32c.19.1.39.18.59.27a5.78,5.78,0,0,0,.66.22q.36.09.79.17a7.65,7.65,0,0,0,.53-2.12,8.68,8.68,0,0,1-1-.25,4.18,4.18,0,0,1-.78-.36q-2.17-1.28-.65-3.87A3.58,3.58,0,0,1,202.79,157.93Z"/><path class="cls-6" d="M210,161.63a.72.72,0,0,1,.36-.09,1.27,1.27,0,0,1,.39.07,2.16,2.16,0,0,1,.39.18,3.83,3.83,0,0,1,1,.77q.34.4.58.72a6.31,6.31,0,0,0,.84-.69,7.2,7.2,0,0,0,.68-.76,11.63,11.63,0,0,0-1-1.08,6.79,6.79,0,0,0-1.13-.83,4.85,4.85,0,0,0-1.36-.56,3.06,3.06,0,0,0-1.27,0,2.77,2.77,0,0,0-1.12.49,3.28,3.28,0,0,0-.89,1,3.12,3.12,0,0,0-.4,1,2.52,2.52,0,0,0,0,.92,3,3,0,0,0,.31.88,5.11,5.11,0,0,0,.58.85l.53.66.24.31a1.45,1.45,0,0,1,.18.33.87.87,0,0,1,.06.35.84.84,0,0,1-.12.38.79.79,0,0,1-.73.45,2.38,2.38,0,0,1-1.08-.38,5.83,5.83,0,0,1-1.67-1.64q-.47.4-.87.81a7.93,7.93,0,0,0-.71.81,9.67,9.67,0,0,0,1,1.11,7.57,7.57,0,0,0,1.26.91,5.67,5.67,0,0,0,1.59.66,3.55,3.55,0,0,0,1.42.06,2.81,2.81,0,0,0,1.19-.5,3.74,3.74,0,0,0,1.35-2.15,2.38,2.38,0,0,0,0-1,3.21,3.21,0,0,0-.4-.93q-.28-.45-.67-1l-.45-.58a2.69,2.69,0,0,1-.38-.62.71.71,0,0,1,.08-.66A.76.76,0,0,1,210,161.63Z"/><path class="cls-6" d="M216.65,165.54a.71.71,0,0,1,.36-.09,1.26,1.26,0,0,1,.39.07,2.13,2.13,0,0,1,.39.18,3.83,3.83,0,0,1,1,.77q.34.4.58.72a6.27,6.27,0,0,0,.84-.69,7.18,7.18,0,0,0,.68-.76,11.57,11.57,0,0,0-1-1.08,6.77,6.77,0,0,0-1.13-.83,4.85,4.85,0,0,0-1.36-.56,3.06,3.06,0,0,0-1.27,0,2.77,2.77,0,0,0-1.12.49,3.28,3.28,0,0,0-.89,1,3.14,3.14,0,0,0-.4,1,2.53,2.53,0,0,0,0,.92,3,3,0,0,0,.31.88,5.12,5.12,0,0,0,.58.85l.53.66.24.31a1.46,1.46,0,0,1,.18.33.86.86,0,0,1,.06.35.83.83,0,0,1-.12.38.79.79,0,0,1-.73.45,2.38,2.38,0,0,1-1.08-.38,5.84,5.84,0,0,1-1.67-1.64q-.47.4-.87.81a8,8,0,0,0-.71.81,9.67,9.67,0,0,0,1,1.11,7.58,7.58,0,0,0,1.26.91,5.68,5.68,0,0,0,1.59.66,3.56,3.56,0,0,0,1.42.06,2.81,2.81,0,0,0,1.19-.5,3.74,3.74,0,0,0,1.35-2.15,2.36,2.36,0,0,0,0-1,3.2,3.2,0,0,0-.4-.93q-.28-.45-.67-1l-.45-.58a2.69,2.69,0,0,1-.38-.62.71.71,0,0,1,.08-.66A.76.76,0,0,1,216.65,165.54Z"/></g></g></svg>