<svg xmlns="http://www.w3.org/2000/svg" viewBox="0 0 280 210"><defs><style>.cls-1{fill:#4b9e00;}.cls-2{fill:#52ac00;}.cls-3{fill:#58ba00;}.cls-4{fill:#e1ecf8;}.cls-5{fill:#006bb6;}.cls-6{fill:#accce3;}.cls-7{fill:#f04e50;}.cls-8{fill:#ffde33;}.cls-9{fill:#3ed426;}</style></defs><title>background_image_61</title><g id="Layer_2" data-name="Layer 2"><g id="Layer_1-2" data-name="Layer 1"><rect class="cls-1" width="280" height="210"/><circle class="cls-2" cx="140" cy="105" r="94.89"/><circle class="cls-3" cx="140" cy="105" r="64.04"/><circle class="cls-3" cx="140" cy="105" r="39.38"/><circle class="cls-3" cx="37.65" cy="28.95" r="12.01"/><circle class="cls-3" cx="222.87" cy="157.03" r="12.01"/><circle class="cls-3" cx="242.21" cy="35.69" r="7.48"/><circle class="cls-3" cx="18.16" cy="185.03" r="7.48"/><path class="cls-4" d="M245.23,107.5V210H34.77V107.5A9.22,9.22,0,0,1,44,98.3H236a9.18,9.18,0,0,1,9.2,9.2Z"/><path class="cls-5" d="M245.17,115.89v-8.26a9.46,9.46,0,0,0-9.2-9.7H43.91a9.46,9.46,0,0,0-9.2,9.7v8.26Z"/><rect class="cls-6" x="50.7" y="123.31" width="22.36" height="3.11"/><rect class="cls-6" x="50.7" y="129.52" width="12.42" height="3.11"/><rect class="cls-6" x="65.61" y="129.52" width="3.11" height="3.11"/><rect class="cls-6" x="71.82" y="129.52" width="3.11" height="3.11"/><rect class="cls-6" x="50.7" y="191.63" width="22.36" height="3.11"/><rect class="cls-6" x="50.7" y="197.84" width="12.42" height="3.11"/><rect class="cls-6" x="65.61" y="197.84" width="3.11" height="3.11"/><rect class="cls-6" x="71.82" y="197.84" width="3.11" height="3.11"/><rect class="cls-6" x="56.91" y="135.73" width="8.7" height="3.11"/><rect class="cls-6" x="63.13" y="141.94" width="18.63" height="3.11"/><rect class="cls-6" x="84.86" y="141.94" width="7.45" height="3.11"/><rect class="cls-6" x="95.42" y="141.94" width="2.48" height="3.11"/><rect class="cls-6" x="80.52" y="179.21" width="18.63" height="3.11"/><rect class="cls-6" x="102.26" y="179.21" width="7.45" height="3.11"/><rect class="cls-6" x="112.81" y="179.21" width="2.48" height="3.11"/><rect class="cls-6" x="76.79" y="191.63" width="7.45" height="3.11"/><rect class="cls-6" x="87.35" y="191.63" width="2.48" height="3.11"/><rect class="cls-6" x="80.52" y="166.78" width="7.45" height="3.11"/><rect class="cls-6" x="91.08" y="166.78" width="2.48" height="3.11"/><rect class="cls-6" x="96.04" y="166.78" width="7.45" height="3.11"/><rect class="cls-6" x="106.6" y="166.78" width="2.48" height="3.11"/><rect class="cls-6" x="128.96" y="148.15" width="2.48" height="3.11"/><rect class="cls-6" x="164.99" y="154.36" width="2.48" height="3.11"/><rect class="cls-6" x="63.13" y="148.15" width="14.29" height="3.11"/><rect class="cls-6" x="80.52" y="148.15" width="9.32" height="3.11"/><rect class="cls-6" x="105.36" y="148.15" width="20.5" height="3.11"/><rect class="cls-6" x="92.32" y="148.15" width="9.32" height="3.11"/><rect class="cls-6" x="128.96" y="172.99" width="2.48" height="3.11"/><rect class="cls-6" x="80.52" y="172.99" width="9.32" height="3.11"/><rect class="cls-6" x="105.36" y="172.99" width="20.5" height="3.11"/><rect class="cls-6" x="92.32" y="172.99" width="9.32" height="3.11"/><rect class="cls-6" x="128.96" y="160.57" width="2.48" height="3.11"/><rect class="cls-6" x="80.52" y="160.57" width="9.32" height="3.11"/><rect class="cls-6" x="105.36" y="160.57" width="20.5" height="3.11"/><rect class="cls-6" x="92.32" y="160.57" width="9.32" height="3.11"/><rect class="cls-6" x="63.13" y="154.36" width="14.29" height="3.11"/><rect class="cls-6" x="80.52" y="154.36" width="11.18" height="3.11"/><rect class="cls-6" x="95.42" y="154.36" width="11.18" height="3.11"/><rect class="cls-6" x="108.47" y="154.36" width="54.04" height="3.11"/><rect class="cls-6" x="63.13" y="160.57" width="14.29" height="3.11"/><rect class="cls-6" x="63.13" y="166.78" width="14.29" height="3.11"/><rect class="cls-6" x="63.13" y="172.99" width="14.29" height="3.11"/><rect class="cls-6" x="63.13" y="179.21" width="14.29" height="3.11"/><rect class="cls-6" x="50.7" y="185.42" width="22.36" height="3.11"/><rect class="cls-6" x="56.91" y="204.08" width="8.7" height="3.11"/><circle class="cls-7" cx="48.88" cy="107.29" r="4.01"/><circle class="cls-8" cx="61.26" cy="107.29" r="4.01"/><circle class="cls-9" cx="73.65" cy="107.29" r="4.01"/></g></g></svg>