<svg xmlns="http://www.w3.org/2000/svg" viewBox="0 0 280 210.18"><defs><style>.cls-1{fill:#80c529;}.cls-2{fill:#283655;opacity:0.21;}.cls-3{fill:#e1ecf8;}.cls-4{fill:#006bb6;}.cls-5{fill:#accce3;}.cls-6{fill:#f04e50;}.cls-7{fill:#ffde33;}.cls-8{fill:#3ed426;}</style></defs><title>background_image_46</title><g id="Layer_2" data-name="Layer 2"><g id="Layer_1-2" data-name="Layer 1"><rect class="cls-1" width="280" height="210"/><path class="cls-2" d="M0,210.18v-52l8.28-5.15a8.35,8.35,0,0,1,8.81,0l8.31,5.17,8.31-5.17a8.35,8.35,0,0,1,8.81,0l8.31,5.17,8.31-5.17a8.35,8.35,0,0,1,8.81,0l8.31,5.17,8.31-5.17a8.35,8.35,0,0,1,8.81,0l8.31,5.17,7.75-4.82a9.25,9.25,0,0,1,9.69,0l8,4.87,7.83-4.87a9.25,9.25,0,0,1,9.78,0l7.82,4.87,7.86-4.87a9.25,9.25,0,0,1,9.76,0l7.83,4.87,8.31-5.17a8.35,8.35,0,0,1,8.81,0l8.31,5.17,8.31-5.17a8.35,8.35,0,0,1,8.81,0l8.31,5.17,8.31-5.17a8.35,8.35,0,0,1,8.81,0l8.31,5.17,8.31-5.17a8.35,8.35,0,0,1,8.81,0l8.31,5.17.18-.11v52.06Z"/><path class="cls-2" d="M0,210V95.5L8.29,84.16c2.7-3.69,6.12-3.69,8.81,0l8.31,11.39,8.31-11.39c2.7-3.69,6.12-3.69,8.81,0l8.31,11.39,8.31-11.39c2.7-3.69,6.12-3.69,8.81,0l8.31,11.39L84.6,84.16c2.7-3.69,6.12-3.69,8.81,0l8.31,11.39,7.75-10.62c3-4.06,6.71-4.1,9.69-.11l8,10.73L135,84.82c3-4.1,6.78-4.1,9.78,0l7.82,10.72,7.86-10.73c3-4.08,6.77-4.08,9.76,0l7.83,10.72,8.31-11.39c2.7-3.69,6.12-3.69,8.81,0l8.31,11.39,8.31-11.39c2.7-3.69,6.12-3.69,8.81,0l8.31,11.39,8.31-11.39c2.7-3.69,6.12-3.69,8.81,0l8.31,11.39,8.31-11.39c2.7-3.69,6.12-3.69,8.81,0l8.31,11.39c.07-.07.12-.17.18-.24V210Z"/><path class="cls-2" d="M0,210.18v-32l8.28-5.15a8.35,8.35,0,0,1,8.81,0l8.31,5.17,8.31-5.17a8.35,8.35,0,0,1,8.81,0l8.31,5.17,8.31-5.17a8.35,8.35,0,0,1,8.81,0l8.31,5.17,8.31-5.17a8.35,8.35,0,0,1,8.81,0l8.31,5.17,7.75-4.82a9.25,9.25,0,0,1,9.69,0l8,4.87,7.83-4.87a9.25,9.25,0,0,1,9.78,0l7.82,4.87,7.86-4.87a9.25,9.25,0,0,1,9.76,0l7.83,4.87,8.31-5.17a8.35,8.35,0,0,1,8.81,0l8.31,5.17,8.31-5.17a8.35,8.35,0,0,1,8.81,0l8.31,5.17,8.31-5.17a8.35,8.35,0,0,1,8.81,0l8.31,5.17,8.31-5.17a8.35,8.35,0,0,1,8.81,0l8.31,5.17.18-.11v32.06Z"/><path class="cls-2" d="M0,210.18v-10l8.28-5.15a8.35,8.35,0,0,1,8.81,0l8.31,5.17,8.31-5.17a8.35,8.35,0,0,1,8.81,0l8.31,5.17,8.31-5.17a8.35,8.35,0,0,1,8.81,0l8.31,5.17,8.31-5.17a8.35,8.35,0,0,1,8.81,0l8.31,5.17,7.75-4.82a9.25,9.25,0,0,1,9.69,0l8,4.87,7.83-4.87a9.25,9.25,0,0,1,9.78,0l7.82,4.87,7.86-4.87a9.25,9.25,0,0,1,9.76,0l7.83,4.87,8.31-5.17a8.35,8.35,0,0,1,8.81,0l8.31,5.17,8.31-5.17a8.35,8.35,0,0,1,8.81,0l8.31,5.17,8.31-5.17a8.35,8.35,0,0,1,8.81,0l8.31,5.17,8.31-5.17a8.35,8.35,0,0,1,8.81,0l8.31,5.17.18-.11v10.06Z"/><path class="cls-3" d="M245.24,107.68v102.5H34.77V107.68a9.22,9.22,0,0,1,9.2-9.2H236a9.18,9.18,0,0,1,9.2,9.2Z"/><path class="cls-4" d="M245.24,115.78v-8.26a9.46,9.46,0,0,0-9.2-9.7H44a9.46,9.46,0,0,0-9.2,9.7v8.26Z"/><rect class="cls-5" x="50.71" y="123.49" width="22.36" height="3.11"/><rect class="cls-5" x="50.71" y="129.7" width="12.42" height="3.11"/><rect class="cls-5" x="65.61" y="129.7" width="3.11" height="3.11"/><rect class="cls-5" x="71.82" y="129.7" width="3.11" height="3.11"/><rect class="cls-5" x="50.71" y="191.81" width="22.36" height="3.11"/><rect class="cls-5" x="50.71" y="198.02" width="12.42" height="3.11"/><rect class="cls-5" x="65.61" y="198.02" width="3.11" height="3.11"/><rect class="cls-5" x="71.82" y="198.02" width="3.11" height="3.11"/><rect class="cls-5" x="56.92" y="135.91" width="8.7" height="3.11"/><rect class="cls-5" x="63.13" y="142.12" width="18.63" height="3.11"/><rect class="cls-5" x="84.87" y="142.12" width="7.45" height="3.11"/><rect class="cls-5" x="95.43" y="142.12" width="2.48" height="3.11"/><rect class="cls-5" x="80.52" y="179.39" width="18.63" height="3.11"/><rect class="cls-5" x="102.26" y="179.39" width="7.45" height="3.11"/><rect class="cls-5" x="112.82" y="179.39" width="2.48" height="3.11"/><rect class="cls-5" x="76.79" y="191.81" width="7.45" height="3.11"/><rect class="cls-5" x="87.35" y="191.81" width="2.48" height="3.11"/><rect class="cls-5" x="80.52" y="166.96" width="7.45" height="3.11"/><rect class="cls-5" x="91.08" y="166.96" width="2.48" height="3.11"/><rect class="cls-5" x="96.05" y="166.96" width="7.45" height="3.11"/><rect class="cls-5" x="106.61" y="166.96" width="2.48" height="3.11"/><rect class="cls-5" x="128.97" y="148.33" width="2.48" height="3.11"/><rect class="cls-5" x="164.99" y="154.54" width="2.48" height="3.11"/><rect class="cls-5" x="63.13" y="148.33" width="14.29" height="3.11"/><rect class="cls-5" x="80.52" y="148.33" width="9.32" height="3.11"/><rect class="cls-5" x="105.36" y="148.33" width="20.5" height="3.11"/><rect class="cls-5" x="92.32" y="148.33" width="9.32" height="3.11"/><rect class="cls-5" x="128.97" y="173.18" width="2.48" height="3.11"/><rect class="cls-5" x="80.52" y="173.18" width="9.32" height="3.11"/><rect class="cls-5" x="105.36" y="173.18" width="20.5" height="3.11"/><rect class="cls-5" x="92.32" y="173.18" width="9.32" height="3.11"/><rect class="cls-5" x="128.97" y="160.75" width="2.48" height="3.11"/><rect class="cls-5" x="80.52" y="160.75" width="9.32" height="3.11"/><rect class="cls-5" x="105.36" y="160.75" width="20.5" height="3.11"/><rect class="cls-5" x="92.32" y="160.75" width="9.32" height="3.11"/><rect class="cls-5" x="63.13" y="154.54" width="14.29" height="3.11"/><rect class="cls-5" x="80.52" y="154.54" width="11.18" height="3.11"/><rect class="cls-5" x="95.43" y="154.54" width="11.18" height="3.11"/><rect class="cls-5" x="108.47" y="154.54" width="54.04" height="3.11"/><rect class="cls-5" x="63.13" y="160.75" width="14.29" height="3.11"/><rect class="cls-5" x="63.13" y="166.96" width="14.29" height="3.11"/><rect class="cls-5" x="63.13" y="173.18" width="14.29" height="3.11"/><rect class="cls-5" x="63.13" y="179.39" width="14.29" height="3.11"/><rect class="cls-5" x="50.71" y="185.6" width="22.36" height="3.11"/><rect class="cls-5" x="56.92" y="204.26" width="8.7" height="3.11"/><circle class="cls-6" cx="48.88" cy="107.47" r="4.01"/><circle class="cls-7" cx="61.26" cy="107.47" r="4.01"/><circle class="cls-8" cx="73.65" cy="107.47" r="4.01"/></g></g></svg>