<svg xmlns="http://www.w3.org/2000/svg" viewBox="0 0 280 210"><defs><style>.cls-1{fill:#5e0330;}.cls-2{fill:#7a0d25;}.cls-3{fill:#970330;}.cls-4{fill:#b60330;}.cls-5{fill:#4c3d6c;}.cls-6{fill:#dbdee3;}.cls-7{fill:#3082b6;}.cls-8{fill:#f04e50;}.cls-9{fill:#ffde33;}.cls-10{fill:#3ed426;}</style></defs><title>background_image_01</title><g id="Layer_2" data-name="Layer 2"><g id="Layer_1-2" data-name="Layer 1"><polygon class="cls-1" points="195.51 59.63 139.16 3.28 105.36 205.64 195.51 59.63"/><polygon class="cls-2" points="115.95 179.3 115.73 180.57 116.34 182.31 199.92 91.78 181.41 73.27 115.95 179.3"/><polygon class="cls-2" points="115.24 182.31 115.67 181.62 140.82 31.02 114.42 4.62 110.92 169.85 115.24 182.31"/><polygon class="cls-3" points="112.81 180.76 127.1 210 280 210 280 173.92 200.58 86.96 112.81 180.76"/><polygon class="cls-3" points="114.6 8.53 106.08 0 54.37 0 86.11 116.27 110.92 169.85 114.6 8.53"/><polygon class="cls-4" points="224.13 0 145.09 0 114.78 0 106.08 0 114.6 8.53 139.5 33.43 179.06 72.99 196.96 90.88 280 173.92 280 0.94 280 0 224.13 0"/><polygon class="cls-4" points="116.16 178.4 115.57 176.71 115.38 176.14 111.3 164.38 54.37 0 0 0 0 210 86.98 210 97.33 210 110.02 210 110.34 210 127.1 210 116.16 178.4"/><path class="cls-5" d="M245.23,107.5V210H34.76V107.5c0-4.1,3.74-3,7.45-4.22.45-.14-.13-4.8.35-4.87A9.22,9.22,0,0,1,44,98.3H236a9.22,9.22,0,0,1,1.4.11c.48.07,1.16,3.57,1.61,3.71C242.76,103.31,245.23,103.4,245.23,107.5Z"/><path class="cls-6" d="M245.23,116.27V108a9.46,9.46,0,0,0-9.2-9.7H44a9.46,9.46,0,0,0-9.2,9.7v8.26Z"/><rect class="cls-7" x="50.7" y="123.31" width="22.36" height="3.11"/><rect class="cls-7" x="50.7" y="129.52" width="12.42" height="3.11"/><rect class="cls-7" x="65.61" y="129.52" width="3.11" height="3.11"/><rect class="cls-7" x="71.82" y="129.52" width="3.11" height="3.11"/><rect class="cls-7" x="50.7" y="191.63" width="22.36" height="3.11"/><rect class="cls-7" x="50.7" y="197.84" width="12.42" height="3.11"/><rect class="cls-7" x="65.61" y="197.84" width="3.11" height="3.11"/><rect class="cls-7" x="71.82" y="197.84" width="3.11" height="3.11"/><rect class="cls-7" x="56.91" y="135.73" width="8.7" height="3.11"/><rect class="cls-7" x="63.13" y="141.94" width="18.63" height="3.11"/><rect class="cls-7" x="84.86" y="141.94" width="7.45" height="3.11"/><rect class="cls-7" x="95.42" y="141.94" width="2.48" height="3.11"/><rect class="cls-7" x="80.52" y="179.21" width="18.63" height="3.11"/><rect class="cls-7" x="102.26" y="179.21" width="7.45" height="3.11"/><rect class="cls-7" x="112.81" y="179.21" width="2.48" height="3.11"/><rect class="cls-7" x="76.79" y="191.63" width="7.45" height="3.11"/><rect class="cls-7" x="87.35" y="191.63" width="2.48" height="3.11"/><rect class="cls-7" x="80.52" y="166.78" width="7.45" height="3.11"/><rect class="cls-7" x="91.08" y="166.78" width="2.48" height="3.11"/><rect class="cls-7" x="96.04" y="166.78" width="7.45" height="3.11"/><rect class="cls-7" x="106.6" y="166.78" width="2.48" height="3.11"/><rect class="cls-7" x="128.96" y="148.15" width="2.48" height="3.11"/><rect class="cls-7" x="164.99" y="154.36" width="2.48" height="3.11"/><rect class="cls-7" x="63.13" y="148.15" width="14.29" height="3.11"/><rect class="cls-7" x="80.52" y="148.15" width="9.32" height="3.11"/><rect class="cls-7" x="105.36" y="148.15" width="20.5" height="3.11"/><rect class="cls-7" x="92.32" y="148.15" width="9.32" height="3.11"/><rect class="cls-7" x="128.96" y="172.99" width="2.48" height="3.11"/><rect class="cls-7" x="80.52" y="172.99" width="9.32" height="3.11"/><rect class="cls-7" x="105.36" y="172.99" width="20.5" height="3.11"/><rect class="cls-7" x="92.32" y="172.99" width="9.32" height="3.11"/><rect class="cls-7" x="128.96" y="160.57" width="2.48" height="3.11"/><rect class="cls-7" x="80.52" y="160.57" width="9.32" height="3.11"/><rect class="cls-7" x="105.36" y="160.57" width="20.5" height="3.11"/><rect class="cls-7" x="92.32" y="160.57" width="9.32" height="3.11"/><rect class="cls-7" x="63.13" y="154.36" width="14.29" height="3.11"/><rect class="cls-7" x="80.52" y="154.36" width="11.18" height="3.11"/><rect class="cls-7" x="95.42" y="154.36" width="11.18" height="3.11"/><rect class="cls-7" x="108.47" y="154.36" width="54.04" height="3.11"/><rect class="cls-7" x="63.13" y="160.57" width="14.29" height="3.11"/><rect class="cls-7" x="63.13" y="166.78" width="14.29" height="3.11"/><rect class="cls-7" x="63.13" y="172.99" width="14.29" height="3.11"/><rect class="cls-7" x="63.13" y="179.21" width="14.29" height="3.11"/><rect class="cls-7" x="50.7" y="185.42" width="22.36" height="3.11"/><rect class="cls-7" x="56.91" y="204.08" width="8.7" height="3.11"/><circle class="cls-8" cx="48.88" cy="107.29" r="4.01"/><circle class="cls-9" cx="61.26" cy="107.29" r="4.01"/><circle class="cls-10" cx="73.65" cy="107.29" r="4.01"/></g></g></svg>