<svg xmlns="http://www.w3.org/2000/svg" viewBox="0 0 86.6 95.98"><defs><style>.cls-1{fill:#d20330;}.cls-2{fill:#fff;}</style></defs><title>angular</title><g id="Layer_2" data-name="Layer 2"><g id="Layer_1-2" data-name="Layer 1"><path class="cls-1" d="M0,30.49v35A13,13,0,0,0,6.5,76.74l30.31,17.5a13,13,0,0,0,13,0l30.31-17.5a13,13,0,0,0,6.5-11.25v-35a13,13,0,0,0-6.5-11.25L49.8,1.74a13,13,0,0,0-13,0L6.5,19.24A13,13,0,0,0,0,30.49Z"/><path class="cls-2" d="M43.3,14.41,17.23,71.57h9l5.8-14h22.5l5.8,14h9Zm-8.76,37.1L43.3,30.3l8.76,21.22Z"/></g></g></svg>