<svg xmlns="http://www.w3.org/2000/svg" viewBox="0 0 280 210"><defs><style>.cls-1{fill:#9145d2;}.cls-2{fill:#283655;opacity:0.21;}.cls-3{fill:#594082;}</style></defs><title>background_image_66</title><g id="Layer_2" data-name="Layer 2"><g id="Layer_1-2" data-name="Layer 1"><rect class="cls-1" width="280" height="210"/><path class="cls-2" d="M0,0V210H280V0ZM140,169a64,64,0,1,1,64-64A64,64,0,0,1,140,169Z"/><path class="cls-2" d="M0,0V210H280V0ZM140,199.89A94.88,94.88,0,1,1,234.89,105,94.88,94.88,0,0,1,140,199.89Z"/><circle class="cls-1" cx="40.47" cy="29.23" r="12.01"/><circle class="cls-1" cx="225.69" cy="157.31" r="12.01"/><circle class="cls-1" cx="245.02" cy="35.97" r="7.48"/><circle class="cls-1" cx="20.98" cy="185.31" r="7.48"/><rect class="cls-3" x="121.52" y="32.1" width="22.5" height="8.75"/><rect class="cls-3" x="121.52" y="53.72" width="22.5" height="19"/><rect class="cls-3" x="200.05" y="53.72" width="22.5" height="19"/><rect class="cls-3" x="150.54" y="32.1" width="22.5" height="8.75"/><rect class="cls-3" x="150.54" y="53.72" width="22.5" height="8.75"/><rect class="cls-3" x="200.05" y="86.22" width="22.5" height="8.75"/><rect class="cls-3" x="185.24" y="32.1" width="52.13" height="8.75"/><rect class="cls-3" x="131.71" y="38.72" width="2.13" height="19.38"/><rect class="cls-3" x="146.73" y="49.47" width="2.13" height="19.38" transform="translate(206.95 -88.63) rotate(90)"/><rect class="cls-3" x="177.6" y="26.79" width="2.13" height="19.38" transform="translate(215.14 -142.19) rotate(90)"/><rect class="cls-3" x="160.73" y="38.72" width="2.13" height="19.38"/><rect class="cls-3" x="210.24" y="38.72" width="2.13" height="19.38"/><rect class="cls-3" x="210.24" y="69.1" width="2.13" height="19.38"/><rect class="cls-3" x="42.64" y="85.79" width="22.5" height="8.75"/><rect class="cls-3" x="42.64" y="107.41" width="22.5" height="19"/><rect class="cls-3" x="121.17" y="107.41" width="22.5" height="19"/><rect class="cls-3" x="71.66" y="85.79" width="22.5" height="8.75"/><rect class="cls-3" x="71.66" y="107.41" width="22.5" height="8.75"/><rect class="cls-3" x="151.6" y="157.85" width="22.5" height="8.75"/><rect class="cls-3" x="121.17" y="157.85" width="22.5" height="20.05"/><rect class="cls-3" x="121.17" y="139.91" width="22.5" height="8.75"/><rect class="cls-3" x="106.35" y="85.79" width="52.13" height="8.75"/><rect class="cls-3" x="52.83" y="92.41" width="2.13" height="19.38"/><rect class="cls-3" x="67.85" y="103.16" width="2.13" height="19.38" transform="translate(181.76 43.94) rotate(90)"/><rect class="cls-3" x="98.72" y="78.47" width="2.13" height="19.38" transform="translate(187.95 -11.62) rotate(90)"/><rect class="cls-3" x="149.48" y="153.19" width="2.13" height="19.38" transform="translate(313.42 12.33) rotate(90)"/><rect class="cls-3" x="81.85" y="92.41" width="2.13" height="19.38"/><rect class="cls-3" x="131.35" y="92.41" width="2.13" height="19.38"/><rect class="cls-3" x="131.35" y="67.72" width="2.13" height="19.38"/><rect class="cls-3" x="131.35" y="122.79" width="2.13" height="19.38"/><rect class="cls-3" x="131.35" y="146.61" width="2.13" height="19.38"/></g></g></svg>