<svg xmlns="http://www.w3.org/2000/svg" viewBox="0 0 280 210.18"><defs><style>.cls-1{fill:#9145d2;}.cls-2{fill:#283655;opacity:0.21;}.cls-3{fill:#fff;}</style></defs><title>background_image_54</title><g id="Layer_2" data-name="Layer 2"><g id="Layer_1-2" data-name="Layer 1"><rect class="cls-1" width="280" height="210"/><path class="cls-2" d="M0,210.18v-52l8.28-5.15a8.35,8.35,0,0,1,8.81,0l8.31,5.17,8.31-5.17a8.35,8.35,0,0,1,8.81,0l8.31,5.17,8.31-5.17a8.35,8.35,0,0,1,8.81,0l8.31,5.17,8.31-5.17a8.35,8.35,0,0,1,8.81,0l8.31,5.17,7.75-4.82a9.25,9.25,0,0,1,9.69,0l8,4.87,7.83-4.87a9.25,9.25,0,0,1,9.78,0l7.82,4.87,7.86-4.87a9.25,9.25,0,0,1,9.76,0l7.83,4.87,8.31-5.17a8.35,8.35,0,0,1,8.81,0l8.31,5.17,8.31-5.17a8.35,8.35,0,0,1,8.81,0l8.31,5.17,8.31-5.17a8.35,8.35,0,0,1,8.81,0l8.31,5.17,8.31-5.17a8.35,8.35,0,0,1,8.81,0l8.31,5.17.18-.11v52.06Z"/><path class="cls-2" d="M0,210V95.5L8.29,84.16c2.7-3.69,6.12-3.69,8.81,0l8.31,11.39,8.31-11.39c2.7-3.69,6.12-3.69,8.81,0l8.31,11.39,8.31-11.39c2.7-3.69,6.12-3.69,8.81,0l8.31,11.39L84.6,84.16c2.7-3.69,6.12-3.69,8.81,0l8.31,11.39,7.75-10.62c3-4.06,6.71-4.1,9.69-.11l8,10.73L135,84.82c3-4.1,6.78-4.1,9.78,0l7.82,10.72,7.86-10.73c3-4.08,6.77-4.08,9.76,0l7.83,10.72,8.31-11.39c2.7-3.69,6.12-3.69,8.81,0l8.31,11.39,8.31-11.39c2.7-3.69,6.12-3.69,8.81,0l8.31,11.39,8.31-11.39c2.7-3.69,6.12-3.69,8.81,0l8.31,11.39,8.31-11.39c2.7-3.69,6.12-3.69,8.81,0l8.31,11.39c.07-.07.12-.17.18-.24V210Z"/><path class="cls-2" d="M0,210.18v-32l8.28-5.15a8.35,8.35,0,0,1,8.81,0l8.31,5.17,8.31-5.17a8.35,8.35,0,0,1,8.81,0l8.31,5.17,8.31-5.17a8.35,8.35,0,0,1,8.81,0l8.31,5.17,8.31-5.17a8.35,8.35,0,0,1,8.81,0l8.31,5.17,7.75-4.82a9.25,9.25,0,0,1,9.69,0l8,4.87,7.83-4.87a9.25,9.25,0,0,1,9.78,0l7.82,4.87,7.86-4.87a9.25,9.25,0,0,1,9.76,0l7.83,4.87,8.31-5.17a8.35,8.35,0,0,1,8.81,0l8.31,5.17,8.31-5.17a8.35,8.35,0,0,1,8.81,0l8.31,5.17,8.31-5.17a8.35,8.35,0,0,1,8.81,0l8.31,5.17,8.31-5.17a8.35,8.35,0,0,1,8.81,0l8.31,5.17.18-.11v32.06Z"/><path class="cls-2" d="M0,210.18v-10l8.28-5.15a8.35,8.35,0,0,1,8.81,0l8.31,5.17,8.31-5.17a8.35,8.35,0,0,1,8.81,0l8.31,5.17,8.31-5.17a8.35,8.35,0,0,1,8.81,0l8.31,5.17,8.31-5.17a8.35,8.35,0,0,1,8.81,0l8.31,5.17,7.75-4.82a9.25,9.25,0,0,1,9.69,0l8,4.87,7.83-4.87a9.25,9.25,0,0,1,9.78,0l7.82,4.87,7.86-4.87a9.25,9.25,0,0,1,9.76,0l7.83,4.87,8.31-5.17a8.35,8.35,0,0,1,8.81,0l8.31,5.17,8.31-5.17a8.35,8.35,0,0,1,8.81,0l8.31,5.17,8.31-5.17a8.35,8.35,0,0,1,8.81,0l8.31,5.17,8.31-5.17a8.35,8.35,0,0,1,8.81,0l8.31,5.17.18-.11v10.06Z"/><polygon class="cls-3" points="215.78 94.35 226.09 83.77 228.22 98.39 241.46 104.92 228.22 111.46 226.09 126.08 215.78 115.5 201.23 117.99 208.1 104.92 201.23 91.85 215.78 94.35"/><polygon class="cls-3" points="198.85 84.89 203.1 76.81 198.85 68.73 207.85 70.27 214.22 63.73 215.53 72.77 223.72 76.81 215.53 80.85 214.22 89.88 207.85 83.35 198.85 84.89"/><polygon class="cls-3" points="203.1 133.38 198.85 125.29 207.85 126.84 214.22 120.3 215.53 129.34 223.72 133.38 215.53 137.41 214.22 146.45 207.85 139.91 198.85 141.45 203.1 133.38"/><polygon class="cls-3" points="64.22 94.35 53.91 83.77 51.79 98.39 38.55 104.92 51.79 111.46 53.91 126.08 64.22 115.5 78.78 117.99 71.91 104.92 78.78 91.85 64.22 94.35"/><polygon class="cls-3" points="81.16 84.89 76.91 76.81 81.16 68.73 72.16 70.27 65.79 63.73 64.47 72.77 56.29 76.81 64.47 80.85 65.79 89.88 72.16 83.35 81.16 84.89"/><polygon class="cls-3" points="76.91 133.38 81.16 125.29 72.16 126.84 65.79 120.3 64.47 129.34 56.29 133.38 64.47 137.41 65.79 146.45 72.16 139.91 81.16 141.45 76.91 133.38"/></g></g></svg>