<svg xmlns="http://www.w3.org/2000/svg" viewBox="0 0 280 210"><defs><style>.cls-1{fill:#5e0330;}.cls-2{fill:#7a0d25;}.cls-3{fill:#970330;}.cls-4{fill:#b60330;}.cls-5{fill:#f39748;}</style></defs><title>background_image_07</title><g id="Layer_2" data-name="Layer 2"><g id="Layer_1-2" data-name="Layer 1"><polygon class="cls-1" points="185.63 66.45 137.86 18.68 109.21 190.24 185.63 66.45"/><polygon class="cls-2" points="112.84 181.78 112.62 183.1 113.25 184.92 200.25 90.69 180.98 71.42 112.84 181.78"/><polygon class="cls-2" points="112.4 182.48 112.84 181.78 138.38 28.82 111.57 2.01 108.02 169.82 112.4 182.48"/><polygon class="cls-3" points="109.47 182.48 127.1 210 280 210 280 173.92 200.25 83.68 109.47 182.48"/><polygon class="cls-3" points="117.05 5.68 106.08 0 54.37 0 111.21 169.03 117.05 5.68"/><polygon class="cls-4" points="224.13 0 145.09 0 114.78 0 106.08 0 114.6 8.53 139.5 33.43 179.06 72.99 196.96 90.88 280 173.92 280 0.94 280 0 224.13 0"/><polygon class="cls-4" points="116.16 178.4 115.57 176.71 115.38 176.14 111.3 164.38 54.37 0 0 0 0 210 86.98 210 97.33 210 110.02 210 110.34 210 127.1 210 116.16 178.4"/><rect class="cls-5" x="121.52" y="32.1" width="22.5" height="8.75"/><rect class="cls-5" x="121.52" y="53.72" width="22.5" height="19"/><rect class="cls-5" x="200.05" y="53.72" width="22.5" height="19"/><rect class="cls-5" x="150.54" y="32.1" width="22.5" height="8.75"/><rect class="cls-5" x="150.54" y="53.72" width="22.5" height="8.75"/><rect class="cls-5" x="200.05" y="86.22" width="22.5" height="8.75"/><rect class="cls-5" x="185.24" y="32.1" width="52.13" height="8.75"/><rect class="cls-5" x="131.71" y="38.72" width="2.13" height="19.38"/><rect class="cls-5" x="146.73" y="49.47" width="2.13" height="19.38" transform="translate(206.95 -88.63) rotate(90)"/><rect class="cls-5" x="177.6" y="26.79" width="2.13" height="19.38" transform="translate(215.14 -142.19) rotate(90)"/><rect class="cls-5" x="160.73" y="38.72" width="2.13" height="19.38"/><rect class="cls-5" x="210.24" y="38.72" width="2.13" height="19.38"/><rect class="cls-5" x="210.24" y="69.1" width="2.13" height="19.38"/><rect class="cls-5" x="42.64" y="85.79" width="22.5" height="8.75"/><rect class="cls-5" x="42.64" y="107.41" width="22.5" height="19"/><rect class="cls-5" x="121.17" y="107.41" width="22.5" height="19"/><rect class="cls-5" x="71.66" y="85.79" width="22.5" height="8.75"/><rect class="cls-5" x="71.66" y="107.41" width="22.5" height="8.75"/><rect class="cls-5" x="151.6" y="157.85" width="22.5" height="8.75"/><rect class="cls-5" x="121.17" y="157.85" width="22.5" height="20.05"/><rect class="cls-5" x="121.17" y="139.91" width="22.5" height="8.75"/><rect class="cls-5" x="106.35" y="85.79" width="52.13" height="8.75"/><rect class="cls-5" x="52.83" y="92.41" width="2.13" height="19.38"/><rect class="cls-5" x="67.85" y="103.16" width="2.13" height="19.38" transform="translate(181.76 43.94) rotate(90)"/><rect class="cls-5" x="98.72" y="78.47" width="2.13" height="19.38" transform="translate(187.95 -11.62) rotate(90)"/><rect class="cls-5" x="149.48" y="153.19" width="2.13" height="19.38" transform="translate(313.42 12.33) rotate(90)"/><rect class="cls-5" x="81.85" y="92.41" width="2.13" height="19.38"/><rect class="cls-5" x="131.35" y="92.41" width="2.13" height="19.38"/><rect class="cls-5" x="131.35" y="67.72" width="2.13" height="19.38"/><rect class="cls-5" x="131.35" y="122.79" width="2.13" height="19.38"/><rect class="cls-5" x="131.35" y="146.61" width="2.13" height="19.38"/></g></g></svg>