<svg xmlns="http://www.w3.org/2000/svg" viewBox="0 0 280 210"><defs><style>.cls-1{fill:#38aeff;}.cls-2{fill:#283655;opacity:0.21;}.cls-3{fill:#e1ecf8;}</style></defs><title>background_image_68</title><g id="Layer_2" data-name="Layer 2"><g id="Layer_1-2" data-name="Layer 1"><rect class="cls-1" width="280" height="210"/><path class="cls-2" d="M0,0V210H280V0ZM140,169a64,64,0,1,1,64-64A64,64,0,0,1,140,169Z"/><path class="cls-2" d="M0,0V210H280V0ZM140,199.89A94.88,94.88,0,1,1,234.89,105,94.88,94.88,0,0,1,140,199.89Z"/><circle class="cls-1" cx="40.47" cy="29.23" r="12.01"/><circle class="cls-1" cx="225.69" cy="157.31" r="12.01"/><circle class="cls-1" cx="245.02" cy="35.97" r="7.48"/><circle class="cls-1" cx="20.98" cy="185.31" r="7.48"/><polygon class="cls-3" points="215.78 94.26 226.09 83.68 228.21 98.3 241.46 104.83 228.21 111.37 226.09 125.98 215.78 115.41 201.22 117.9 208.1 104.83 201.22 91.76 215.78 94.26"/><polygon class="cls-3" points="198.85 84.8 203.09 76.72 198.85 68.64 207.84 70.18 214.22 63.64 215.53 72.68 223.72 76.72 215.53 80.76 214.22 89.79 207.84 83.26 198.85 84.8"/><polygon class="cls-3" points="203.09 133.28 198.85 125.2 207.84 126.75 214.22 120.21 215.53 129.25 223.72 133.28 215.53 137.32 214.22 146.36 207.84 139.82 198.85 141.36 203.09 133.28"/><polygon class="cls-3" points="64.22 94.26 53.91 83.68 51.79 98.3 38.54 104.83 51.79 111.37 53.91 125.98 64.22 115.41 78.78 117.9 71.9 104.83 78.78 91.76 64.22 94.26"/><polygon class="cls-3" points="81.15 84.8 76.91 76.72 81.15 68.64 72.16 70.18 65.78 63.64 64.47 72.68 56.28 76.72 64.47 80.76 65.78 89.79 72.16 83.26 81.15 84.8"/><polygon class="cls-3" points="76.91 133.28 81.15 125.2 72.16 126.75 65.78 120.21 64.47 129.25 56.28 133.28 64.47 137.32 65.78 146.36 72.16 139.82 81.15 141.36 76.91 133.28"/></g></g></svg>