<svg xmlns="http://www.w3.org/2000/svg" viewBox="0 0 280 210.18"><defs><style>.cls-1{fill:#9145d2;}.cls-2{fill:#283655;opacity:0.21;}.cls-3{fill:#594082;}</style></defs><title>background_image_51</title><g id="Layer_2" data-name="Layer 2"><g id="Layer_1-2" data-name="Layer 1"><rect class="cls-1" width="280" height="210"/><path class="cls-2" d="M0,210.18v-52l8.28-5.15a8.35,8.35,0,0,1,8.81,0l8.31,5.17,8.31-5.17a8.35,8.35,0,0,1,8.81,0l8.31,5.17,8.31-5.17a8.35,8.35,0,0,1,8.81,0l8.31,5.17,8.31-5.17a8.35,8.35,0,0,1,8.81,0l8.31,5.17,7.75-4.82a9.25,9.25,0,0,1,9.69,0l8,4.87,7.83-4.87a9.25,9.25,0,0,1,9.78,0l7.82,4.87,7.86-4.87a9.25,9.25,0,0,1,9.76,0l7.83,4.87,8.31-5.17a8.35,8.35,0,0,1,8.81,0l8.31,5.17,8.31-5.17a8.35,8.35,0,0,1,8.81,0l8.31,5.17,8.31-5.17a8.35,8.35,0,0,1,8.81,0l8.31,5.17,8.31-5.17a8.35,8.35,0,0,1,8.81,0l8.31,5.17.18-.11v52.06Z"/><path class="cls-2" d="M0,210V95.5L8.29,84.16c2.7-3.69,6.12-3.69,8.81,0l8.31,11.39,8.31-11.39c2.7-3.69,6.12-3.69,8.81,0l8.31,11.39,8.31-11.39c2.7-3.69,6.12-3.69,8.81,0l8.31,11.39L84.6,84.16c2.7-3.69,6.12-3.69,8.81,0l8.31,11.39,7.75-10.62c3-4.06,6.71-4.1,9.69-.11l8,10.73L135,84.82c3-4.1,6.78-4.1,9.78,0l7.82,10.72,7.86-10.73c3-4.08,6.77-4.08,9.76,0l7.83,10.72,8.31-11.39c2.7-3.69,6.12-3.69,8.81,0l8.31,11.39,8.31-11.39c2.7-3.69,6.12-3.69,8.81,0l8.31,11.39,8.31-11.39c2.7-3.69,6.12-3.69,8.81,0l8.31,11.39,8.31-11.39c2.7-3.69,6.12-3.69,8.81,0l8.31,11.39c.07-.07.12-.17.18-.24V210Z"/><path class="cls-2" d="M0,210.18v-32l8.28-5.15a8.35,8.35,0,0,1,8.81,0l8.31,5.17,8.31-5.17a8.35,8.35,0,0,1,8.81,0l8.31,5.17,8.31-5.17a8.35,8.35,0,0,1,8.81,0l8.31,5.17,8.31-5.17a8.35,8.35,0,0,1,8.81,0l8.31,5.17,7.75-4.82a9.25,9.25,0,0,1,9.69,0l8,4.87,7.83-4.87a9.25,9.25,0,0,1,9.78,0l7.82,4.87,7.86-4.87a9.25,9.25,0,0,1,9.76,0l7.83,4.87,8.31-5.17a8.35,8.35,0,0,1,8.81,0l8.31,5.17,8.31-5.17a8.35,8.35,0,0,1,8.81,0l8.31,5.17,8.31-5.17a8.35,8.35,0,0,1,8.81,0l8.31,5.17,8.31-5.17a8.35,8.35,0,0,1,8.81,0l8.31,5.17.18-.11v32.06Z"/><path class="cls-2" d="M0,210.18v-10l8.28-5.15a8.35,8.35,0,0,1,8.81,0l8.31,5.17,8.31-5.17a8.35,8.35,0,0,1,8.81,0l8.31,5.17,8.31-5.17a8.35,8.35,0,0,1,8.81,0l8.31,5.17,8.31-5.17a8.35,8.35,0,0,1,8.81,0l8.31,5.17,7.75-4.82a9.25,9.25,0,0,1,9.69,0l8,4.87,7.83-4.87a9.25,9.25,0,0,1,9.78,0l7.82,4.87,7.86-4.87a9.25,9.25,0,0,1,9.76,0l7.83,4.87,8.31-5.17a8.35,8.35,0,0,1,8.81,0l8.31,5.17,8.31-5.17a8.35,8.35,0,0,1,8.81,0l8.31,5.17,8.31-5.17a8.35,8.35,0,0,1,8.81,0l8.31,5.17,8.31-5.17a8.35,8.35,0,0,1,8.81,0l8.31,5.17.18-.11v10.06Z"/><rect class="cls-3" x="121.52" y="32.19" width="22.5" height="8.75"/><rect class="cls-3" x="121.52" y="53.81" width="22.5" height="19"/><rect class="cls-3" x="200.05" y="53.81" width="22.5" height="19"/><rect class="cls-3" x="150.54" y="32.19" width="22.5" height="8.75"/><rect class="cls-3" x="150.54" y="53.81" width="22.5" height="8.75"/><rect class="cls-3" x="200.05" y="86.31" width="22.5" height="8.75"/><rect class="cls-3" x="185.24" y="32.19" width="52.13" height="8.75"/><rect class="cls-3" x="131.71" y="38.81" width="2.13" height="19.38"/><rect class="cls-3" x="146.73" y="49.56" width="2.13" height="19.38" transform="translate(207.05 -88.54) rotate(90)"/><rect class="cls-3" x="177.61" y="26.88" width="2.13" height="19.38" transform="translate(215.23 -142.1) rotate(90)"/><rect class="cls-3" x="160.73" y="38.81" width="2.13" height="19.38"/><rect class="cls-3" x="210.24" y="38.81" width="2.13" height="19.38"/><rect class="cls-3" x="210.24" y="69.19" width="2.13" height="19.38"/><rect class="cls-3" x="42.64" y="85.88" width="22.5" height="8.75"/><rect class="cls-3" x="42.64" y="107.5" width="22.5" height="19"/><rect class="cls-3" x="121.17" y="107.5" width="22.5" height="19"/><rect class="cls-3" x="71.66" y="85.88" width="22.5" height="8.75"/><rect class="cls-3" x="71.66" y="107.5" width="22.5" height="8.75"/><rect class="cls-3" x="151.61" y="157.94" width="22.5" height="8.75"/><rect class="cls-3" x="121.17" y="157.94" width="22.5" height="20.05"/><rect class="cls-3" x="121.17" y="140" width="22.5" height="8.75"/><rect class="cls-3" x="106.36" y="85.88" width="52.13" height="8.75"/><rect class="cls-3" x="52.83" y="92.5" width="2.13" height="19.38"/><rect class="cls-3" x="67.85" y="103.25" width="2.13" height="19.38" transform="translate(181.85 44.03) rotate(90)"/><rect class="cls-3" x="98.72" y="78.56" width="2.13" height="19.38" transform="translate(188.04 -11.54) rotate(90)"/><rect class="cls-3" x="149.48" y="153.28" width="2.13" height="19.38" transform="translate(313.51 12.42) rotate(90)"/><rect class="cls-3" x="81.85" y="92.5" width="2.13" height="19.38"/><rect class="cls-3" x="131.36" y="92.5" width="2.13" height="19.38"/><rect class="cls-3" x="131.36" y="67.81" width="2.13" height="19.38"/><rect class="cls-3" x="131.36" y="122.88" width="2.13" height="19.38"/><rect class="cls-3" x="131.36" y="146.7" width="2.13" height="19.38"/></g></g></svg>