<svg xmlns="http://www.w3.org/2000/svg" viewBox="0 0 280 210.43"><defs><style>.cls-1{fill:#302a40;}.cls-2{fill:#6aa436;}.cls-3{fill:#403851;}.cls-4{fill:#fff;}.cls-5{fill:#784e98;}</style></defs><title>background_image_41</title><g id="Layer_2" data-name="Layer 2"><g id="Layer_1-2" data-name="Layer 1"><rect class="cls-1" width="280" height="210"/><path class="cls-2" d="M280,0V10l-8.28,5.15a8.35,8.35,0,0,1-8.81,0L254.59,10l-8.31,5.17a8.35,8.35,0,0,1-8.81,0L229.15,10l-8.31,5.17a8.35,8.35,0,0,1-8.81,0L203.71,10l-8.31,5.17a8.35,8.35,0,0,1-8.81,0L178.27,10l-7.75,4.82a9.25,9.25,0,0,1-9.69,0l-8-4.87L145,14.83a9.25,9.25,0,0,1-9.78,0L127.39,10l-7.86,4.87a9.25,9.25,0,0,1-9.76,0L101.94,10l-8.31,5.17a8.35,8.35,0,0,1-8.81,0L76.5,10l-8.31,5.17a8.35,8.35,0,0,1-8.81,0L51.06,10l-8.31,5.17a8.35,8.35,0,0,1-8.81,0L25.62,10l-8.31,5.17a8.35,8.35,0,0,1-8.81,0L.18,10,0,10.06V0Z"/><path class="cls-2" d="M0,210.43v-10l8.28-5.15a8.35,8.35,0,0,1,8.81,0l8.31,5.17,8.31-5.17a8.35,8.35,0,0,1,8.81,0l8.31,5.17,8.31-5.17a8.35,8.35,0,0,1,8.81,0l8.31,5.17,8.31-5.17a8.35,8.35,0,0,1,8.81,0l8.31,5.17,7.75-4.82a9.25,9.25,0,0,1,9.69,0l8,4.87L135,195.6a9.25,9.25,0,0,1,9.78,0l7.82,4.87,7.86-4.87a9.25,9.25,0,0,1,9.76,0l7.83,4.87,8.31-5.17a8.35,8.35,0,0,1,8.81,0l8.31,5.17,8.31-5.17a8.35,8.35,0,0,1,8.81,0l8.31,5.17,8.31-5.17a8.35,8.35,0,0,1,8.81,0l8.31,5.17,8.31-5.17a8.35,8.35,0,0,1,8.81,0l8.31,5.17.18-.11v10.06Z"/><path class="cls-3" d="M21.16,39.19v.06l4.75,1.86v3.15l-7.6-3.7V37.83l7.6-3.7v3.14Z"/><path class="cls-3" d="M29.43,47.59H27.37l4.28-16.23h2.06Z"/><path class="cls-3" d="M35.52,37.28V34.13l7.6,3.7v2.73l-7.6,3.7V41.11l4.75-1.86v-.06Z"/><path class="cls-3" d="M62.89,64.93V65l4.75,1.86V70L60,66.31V63.57l7.6-3.7V63Z"/><path class="cls-3" d="M71.16,73.33H69.1L73.37,57.1h2.06Z"/><path class="cls-3" d="M77.25,63V59.88l7.6,3.7v2.73L77.25,70V66.85L82,65v-.06Z"/><path class="cls-3" d="M110.57,39.19v.06l4.75,1.86v3.15l-7.6-3.7V37.83l7.6-3.7v3.14Z"/><path class="cls-3" d="M118.84,47.59h-2.06l4.28-16.23h2.06Z"/><path class="cls-3" d="M124.93,37.28V34.13l7.6,3.7v2.73l-7.6,3.7V41.11l4.75-1.86v-.06Z"/><path class="cls-3" d="M152.29,64.93V65L157,66.85V70l-7.6-3.7V63.57l7.6-3.7V63Z"/><path class="cls-3" d="M160.56,73.33h-2.06l4.28-16.23h2.06Z"/><path class="cls-3" d="M166.66,63V59.88l7.6,3.7v2.73l-7.6,3.7V66.85L171.41,65v-.06Z"/><path class="cls-3" d="M200,39.19v.06l4.75,1.86v3.15l-7.6-3.7V37.83l7.6-3.7v3.14Z"/><path class="cls-3" d="M208.25,47.59h-2.06l4.28-16.23h2.06Z"/><path class="cls-3" d="M214.34,37.28V34.13l7.6,3.7v2.73l-7.6,3.7V41.11l4.75-1.86v-.06Z"/><path class="cls-3" d="M241.7,64.93V65l4.75,1.86V70l-7.6-3.7V63.57l7.6-3.7V63Z"/><path class="cls-3" d="M250,73.33h-2.06l4.28-16.23h2.06Z"/><path class="cls-3" d="M256.07,63V59.88l7.6,3.7v2.73l-7.6,3.7V66.85L260.82,65v-.06Z"/><path class="cls-3" d="M21.16,91.19v.06l4.75,1.86v3.15l-7.6-3.7V89.83l7.6-3.7v3.14Z"/><path class="cls-3" d="M29.43,99.59H27.37l4.28-16.23h2.06Z"/><path class="cls-3" d="M35.52,89.28V86.13l7.6,3.7v2.73l-7.6,3.7V93.11l4.75-1.86v-.06Z"/><path class="cls-3" d="M62.89,116.93V117l4.75,1.86V122l-7.6-3.7v-2.73l7.6-3.7V115Z"/><path class="cls-3" d="M71.16,125.33H69.1l4.28-16.23h2.06Z"/><path class="cls-3" d="M77.25,115v-3.14l7.6,3.7v2.73l-7.6,3.7v-3.15L82,117v-.06Z"/><path class="cls-3" d="M110.57,91.19v.06l4.75,1.86v3.15l-7.6-3.7V89.83l7.6-3.7v3.14Z"/><path class="cls-3" d="M118.84,99.59h-2.06l4.28-16.23h2.06Z"/><path class="cls-3" d="M124.93,89.28V86.13l7.6,3.7v2.73l-7.6,3.7V93.11l4.75-1.86v-.06Z"/><path class="cls-3" d="M152.29,116.93V117l4.75,1.86V122l-7.6-3.7v-2.73l7.6-3.7V115Z"/><path class="cls-3" d="M160.56,125.33h-2.06l4.28-16.23h2.06Z"/><path class="cls-3" d="M166.66,115v-3.14l7.6,3.7v2.73l-7.6,3.7v-3.15l4.75-1.86v-.06Z"/><path class="cls-3" d="M200,91.19v.06l4.75,1.86v3.15l-7.6-3.7V89.83l7.6-3.7v3.14Z"/><path class="cls-3" d="M208.25,99.59h-2.06l4.28-16.23h2.06Z"/><path class="cls-3" d="M214.34,89.28V86.13l7.6,3.7v2.73l-7.6,3.7V93.11l4.75-1.86v-.06Z"/><path class="cls-3" d="M241.7,116.93V117l4.75,1.86V122l-7.6-3.7v-2.73l7.6-3.7V115Z"/><path class="cls-3" d="M250,125.33h-2.06l4.28-16.23h2.06Z"/><path class="cls-3" d="M256.07,115v-3.14l7.6,3.7v2.73l-7.6,3.7v-3.15l4.75-1.86v-.06Z"/><path class="cls-3" d="M21.16,143.19v.06l4.75,1.86v3.15l-7.6-3.7v-2.73l7.6-3.7v3.14Z"/><path class="cls-3" d="M29.43,151.59H27.37l4.28-16.23h2.06Z"/><path class="cls-3" d="M35.52,141.28v-3.14l7.6,3.7v2.73l-7.6,3.7v-3.15l4.75-1.86v-.06Z"/><path class="cls-3" d="M62.89,168.93V169l4.75,1.86V174l-7.6-3.7v-2.73l7.6-3.7V167Z"/><path class="cls-3" d="M71.16,177.33H69.1l4.28-16.23h2.06Z"/><path class="cls-3" d="M77.25,167v-3.14l7.6,3.7v2.73l-7.6,3.7v-3.15L82,169v-.06Z"/><path class="cls-3" d="M110.57,143.19v.06l4.75,1.86v3.15l-7.6-3.7v-2.73l7.6-3.7v3.14Z"/><path class="cls-3" d="M118.84,151.59h-2.06l4.28-16.23h2.06Z"/><path class="cls-3" d="M124.93,141.28v-3.14l7.6,3.7v2.73l-7.6,3.7v-3.15l4.75-1.86v-.06Z"/><path class="cls-3" d="M152.29,168.93V169l4.75,1.86V174l-7.6-3.7v-2.73l7.6-3.7V167Z"/><path class="cls-3" d="M160.56,177.33h-2.06l4.28-16.23h2.06Z"/><path class="cls-3" d="M166.66,167v-3.14l7.6,3.7v2.73l-7.6,3.7v-3.15l4.75-1.86v-.06Z"/><path class="cls-3" d="M200,143.19v.06l4.75,1.86v3.15l-7.6-3.7v-2.73l7.6-3.7v3.14Z"/><path class="cls-3" d="M208.25,151.59h-2.06l4.28-16.23h2.06Z"/><path class="cls-3" d="M214.34,141.28v-3.14l7.6,3.7v2.73l-7.6,3.7v-3.15l4.75-1.86v-.06Z"/><path class="cls-3" d="M241.7,168.93V169l4.75,1.86V174l-7.6-3.7v-2.73l7.6-3.7V167Z"/><path class="cls-3" d="M250,177.33h-2.06l4.28-16.23h2.06Z"/><path class="cls-3" d="M256.07,167v-3.14l7.6,3.7v2.73l-7.6,3.7v-3.15l4.75-1.86v-.06Z"/><path class="cls-4" d="M144,38.28a19.12,19.12,0,1,0-27.11,0A18.94,18.94,0,0,0,127,43.58,18.91,18.91,0,0,1,135,48a19.31,19.31,0,0,1,3.86-5.46C139.46,41.94,143,39.3,144,38.28Z"/><path class="cls-4" d="M195.63,58.44A34.85,34.85,0,1,1,233,90.83a34.51,34.51,0,0,1-20.27-4.78,34.49,34.49,0,0,0-16.25-3.55,35.22,35.22,0,0,0,1.21-12.12C197.53,68.92,195.83,61.09,195.63,58.44Z"/><path class="cls-4" d="M71,99.9a30.54,30.54,0,1,0,5,27.75,30.35,30.35,0,0,1,8.45-11.81,30.24,30.24,0,0,1-7.8-7.08C75.87,107.75,72.43,101.72,71,99.9Z"/><path class="cls-4" d="M205.73,143a21.51,21.51,0,0,1,25.33,17.19,22,22,0,0,1-17.31,25.59,21.51,21.51,0,0,1-25.33-17.19,21.85,21.85,0,0,1,1.52-12.94,21.82,21.82,0,0,0,1-10.36,21.56,21.56,0,0,0,7.54-.15C199.41,145,204.11,143.31,205.73,143Z"/><path class="cls-5" d="M121.82,23.24l-.42.12-.4.16-.47.23.95,2.71-1.81.63-.95-2.71-.52.11-.42.12-.39.16-.48.24,2.55,7.3a5.78,5.78,0,0,0,.94-.23,5.89,5.89,0,0,0,.87-.41l-1-3,1.81-.63,1,3a5.78,5.78,0,0,0,.94-.23,5.89,5.89,0,0,0,.87-.41l-2.55-7.3Z"/><path class="cls-5" d="M128.63,21.37q-.09-.19-.21-.4l-5.23,1.83a3.72,3.72,0,0,0,.56,1.6l1.71-.6,2,5.73a5.78,5.78,0,0,0,.94-.23,5.89,5.89,0,0,0,.87-.41l-2-5.73,1.71-.6a5.12,5.12,0,0,0-.2-.84A3.75,3.75,0,0,0,128.63,21.37Z"/><path class="cls-5" d="M135.52,18.45l-.45.13-.41.17-.39.2-.17,4.33L131.31,20l-.46.1-.45.13-.46.19-.45.22L131.75,28a4.64,4.64,0,0,0,.86-.2,4.13,4.13,0,0,0,.79-.38L132,23.22l2,2.4.36-.06.32-.1.33-.14.35-.18.15-3.19,1.62,4.19a5,5,0,0,0,.88-.2,3.84,3.84,0,0,0,.52-.21l.34-.19L136,18.36Z"/><path class="cls-5" d="M144,22.86q-.05-.15-.14-.34a4.23,4.23,0,0,0-.22-.42l-2.36.83-2-5.73-.52.11-.42.12-.39.16-.48.24L140,25.17l4.17-1.46a4.6,4.6,0,0,0-.09-.48Q144.07,23,144,22.86Z"/><path class="cls-5" d="M225.09,51.22a6,6,0,0,0,.52-2.87,4.48,4.48,0,0,0-.8-2.16,6,6,0,0,0-1.68-1.56,12.9,12.9,0,0,0-2.1-1.08,23.56,23.56,0,0,0-2.48-.87l-1.5-.41-5.87,14.53a11.57,11.57,0,0,0,1.7.9q.37.15.81.28t1,.24l1.91-4.74a4.14,4.14,0,0,0,.53.3q.38.19.77.35a8,8,0,0,0,2,.52,4.82,4.82,0,0,0,2-.15,4.36,4.36,0,0,0,1.78-1.06A6.22,6.22,0,0,0,225.09,51.22Zm-3.66-1.48a2,2,0,0,1-2.8,1.26l-.5-.23a1.43,1.43,0,0,1-.32-.2l1.66-4.11.33.11.29.12a3.76,3.76,0,0,1,.81.45,1.9,1.9,0,0,1,.57.64,1.85,1.85,0,0,1,.21.86A2.9,2.9,0,0,1,221.43,49.74Z"/><path class="cls-5" d="M238.84,50.92c-.29-.15-.56-.28-.81-.37s-.52-.19-.82-.28l-1-.28L234,55.39l-3.6-1.45,2.18-5.39q-.5-.29-.94-.52t-.81-.37q-.35-.14-.81-.28t-1-.28L223.1,61.61a11.73,11.73,0,0,0,1.74.91,12,12,0,0,0,1.87.54l2.4-5.94,3.6,1.46-2.4,5.94a11.73,11.73,0,0,0,1.74.91,11.89,11.89,0,0,0,1.87.54l5.87-14.53C239.44,51.25,239.13,51.08,238.84,50.92Z"/><path class="cls-5" d="M250.77,58.51a4.48,4.48,0,0,0-.8-2.16,6,6,0,0,0-1.68-1.56,12.91,12.91,0,0,0-2.1-1.08,23.51,23.51,0,0,0-2.48-.87,8,8,0,0,1-2.47-.41L236.35,67a11.49,11.49,0,0,0,1.7.9q.37.15.81.28t1,.24l1.91-4.74a4.11,4.11,0,0,0,.53.3q.38.19.77.35a8,8,0,0,0,2,.52,4.83,4.83,0,0,0,2-.15,4.36,4.36,0,0,0,1.78-1.06,6.23,6.23,0,0,0,1.41-2.23A6,6,0,0,0,250.77,58.51Zm-4.18,1.39a2,2,0,0,1-2.8,1.26l-.5-.23a1.42,1.42,0,0,1-.32-.2l1.66-4.11.33.11.28.12a3.76,3.76,0,0,1,.81.45,1.9,1.9,0,0,1,.57.64,1.85,1.85,0,0,1,.21.86A2.9,2.9,0,0,1,246.59,59.9Z"/><path class="cls-5" d="M37.74,124.41a11.08,11.08,0,0,1-1.12.71,5.38,5.38,0,0,1-1,.41q-3.12.91-4.2-2.81a4.61,4.61,0,0,1-.05-3.08,2.79,2.79,0,0,1,1.92-1.6,5.81,5.81,0,0,1,.57-.14l.55-.07.59,0,.7,0a10.79,10.79,0,0,0,.13-1.32,5.34,5.34,0,0,0-.14-1.47,8.56,8.56,0,0,0-1.83,0,10.43,10.43,0,0,0-1.63.34,6.55,6.55,0,0,0-2.4,1.23,5.47,5.47,0,0,0-1.49,1.92,6.32,6.32,0,0,0-.56,2.42,8.46,8.46,0,0,0,.36,2.72,8.72,8.72,0,0,0,1.14,2.48A5.9,5.9,0,0,0,31,127.88a5.45,5.45,0,0,0,2.28.79,6.93,6.93,0,0,0,2.76-.28l.81-.26q.39-.14.77-.32a7.48,7.48,0,0,0,.79-.43q.4-.25.85-.59A9.85,9.85,0,0,0,37.74,124.41Z"/><path class="cls-5" d="M48,110.95a7.11,7.11,0,0,0-.77.18,6.17,6.17,0,0,0-.7.25l-.68.3L45.17,119l-4.39-5.8-.79.13a7.45,7.45,0,0,0-.78.18,8.14,8.14,0,0,0-.78.28l-.77.33,3.14,12.67a7.84,7.84,0,0,0,1.47-.26,7,7,0,0,0,1.36-.57l-1.9-7.25,3.09,4.22a4.37,4.37,0,0,0,.61-.07l.55-.13a5.35,5.35,0,0,0,.57-.2l.61-.27.53-5.35L50,124a8.42,8.42,0,0,0,1.5-.27,6.43,6.43,0,0,0,.89-.32l.59-.29-4.25-12.35Z"/><path class="cls-5" d="M62.15,118.19a4.82,4.82,0,0,0-.82-3.17,3.07,3.07,0,0,0-1-.85,4.15,4.15,0,0,0-1.22-.44q-.68-.13-1.5-.22l-.94-.09a3.47,3.47,0,0,1-.91-.19.91.91,0,0,1-.55-.66,1,1,0,0,1,0-.54.92.92,0,0,1,.23-.41,1.6,1.6,0,0,1,.41-.3,2.74,2.74,0,0,1,.52-.21A5,5,0,0,1,58,110.9q.68,0,1.19.09a8.14,8.14,0,0,0,.09-1.41,9.32,9.32,0,0,0-.11-1.31,15,15,0,0,0-1.93,0,8.73,8.73,0,0,0-1.78.33,6.26,6.26,0,0,0-1.73.78,4,4,0,0,0-1.16,1.16A3.58,3.58,0,0,0,52,112a4.24,4.24,0,0,0,.16,1.74,4.06,4.06,0,0,0,.59,1.26,3.27,3.27,0,0,0,.86.82,3.81,3.81,0,0,0,1.1.49,6.59,6.59,0,0,0,1.31.21l1.09.08.5.05a1.83,1.83,0,0,1,.46.12,1.1,1.1,0,0,1,.38.26,1.07,1.07,0,0,1,.25.45,1,1,0,0,1-.23,1.08,3.07,3.07,0,0,1-1.32.68,7.53,7.53,0,0,1-3,.12q0,.79,0,1.53a10.28,10.28,0,0,0,.14,1.38,12.43,12.43,0,0,0,2,0,9.8,9.8,0,0,0,2-.38,7.34,7.34,0,0,0,2-.91,4.59,4.59,0,0,0,1.31-1.28A3.62,3.62,0,0,0,62.15,118.19Z"/><path class="cls-5" d="M202.73,158.15a2.17,2.17,0,0,1,1.92.24l.38.25.33.27q.16.14.33.32l.36.41a8.26,8.26,0,0,0,.81-.63,4.13,4.13,0,0,0,.75-.86,6.68,6.68,0,0,0-1-1,8,8,0,0,0-1.06-.74,5.07,5.07,0,0,0-2-.7,4.24,4.24,0,0,0-1.87.18,4.91,4.91,0,0,0-1.66,1,6.57,6.57,0,0,0-1.35,1.65,6.77,6.77,0,0,0-.79,2,4.58,4.58,0,0,0,0,1.9,4.24,4.24,0,0,0,.77,1.71,5.36,5.36,0,0,0,1.63,1.41l.58.32c.19.1.39.18.59.27a5.78,5.78,0,0,0,.66.22q.36.09.79.17a7.65,7.65,0,0,0,.53-2.12,8.68,8.68,0,0,1-1-.25,4.18,4.18,0,0,1-.78-.36q-2.17-1.28-.65-3.87A3.58,3.58,0,0,1,202.73,158.15Z"/><path class="cls-5" d="M209.95,161.85a.72.72,0,0,1,.36-.09,1.27,1.27,0,0,1,.39.07,2.16,2.16,0,0,1,.39.18,3.83,3.83,0,0,1,1,.77q.34.4.58.72a6.31,6.31,0,0,0,.84-.69,7.2,7.2,0,0,0,.68-.76,11.63,11.63,0,0,0-1-1.08,6.79,6.79,0,0,0-1.13-.83,4.85,4.85,0,0,0-1.36-.56,3.06,3.06,0,0,0-1.27,0,2.77,2.77,0,0,0-1.12.49,3.28,3.28,0,0,0-.89,1,3.12,3.12,0,0,0-.4,1,2.52,2.52,0,0,0,0,.92,3,3,0,0,0,.31.88,5.11,5.11,0,0,0,.58.85l.53.66.24.31a1.45,1.45,0,0,1,.18.33.87.87,0,0,1,.06.35.84.84,0,0,1-.12.38.79.79,0,0,1-.73.45,2.38,2.38,0,0,1-1.08-.38,5.83,5.83,0,0,1-1.67-1.64q-.47.4-.87.81a7.93,7.93,0,0,0-.71.81,9.67,9.67,0,0,0,1,1.11,7.57,7.57,0,0,0,1.26.91,5.67,5.67,0,0,0,1.59.66,3.55,3.55,0,0,0,1.42.06,2.81,2.81,0,0,0,1.19-.5,3.74,3.74,0,0,0,1.35-2.15,2.38,2.38,0,0,0,0-1,3.21,3.21,0,0,0-.4-.93q-.28-.45-.67-1l-.45-.58a2.69,2.69,0,0,1-.38-.62.71.71,0,0,1,.08-.66A.76.76,0,0,1,209.95,161.85Z"/><path class="cls-5" d="M216.59,165.75a.71.71,0,0,1,.36-.09,1.26,1.26,0,0,1,.39.07,2.13,2.13,0,0,1,.39.18,3.83,3.83,0,0,1,1,.77q.34.4.58.72a6.27,6.27,0,0,0,.84-.69,7.18,7.18,0,0,0,.68-.76,11.57,11.57,0,0,0-1-1.08,6.77,6.77,0,0,0-1.13-.83,4.85,4.85,0,0,0-1.36-.56,3.06,3.06,0,0,0-1.27,0,2.77,2.77,0,0,0-1.12.49,3.28,3.28,0,0,0-.89,1,3.14,3.14,0,0,0-.4,1,2.53,2.53,0,0,0,0,.92,3,3,0,0,0,.31.88,5.12,5.12,0,0,0,.58.85l.53.66.24.31a1.46,1.46,0,0,1,.18.33.86.86,0,0,1,.06.35.83.83,0,0,1-.12.38.79.79,0,0,1-.73.45,2.38,2.38,0,0,1-1.08-.38,5.84,5.84,0,0,1-1.67-1.64q-.47.4-.87.81a8,8,0,0,0-.71.81,9.67,9.67,0,0,0,1,1.11,7.58,7.58,0,0,0,1.26.91,5.68,5.68,0,0,0,1.59.66,3.56,3.56,0,0,0,1.42.06,2.81,2.81,0,0,0,1.19-.5,3.74,3.74,0,0,0,1.35-2.15,2.36,2.36,0,0,0,0-1,3.2,3.2,0,0,0-.4-.93q-.28-.45-.67-1l-.45-.58a2.69,2.69,0,0,1-.38-.62.71.71,0,0,1,.08-.66A.76.76,0,0,1,216.59,165.75Z"/></g></g></svg>