<svg xmlns="http://www.w3.org/2000/svg" viewBox="0 0 280 210.43"><defs><style>.cls-1{fill:#302a40;}.cls-2{fill:#6aa436;}.cls-3{fill:#403851;}.cls-4{fill:#4c3d6c;}.cls-5{fill:#dbdee3;}.cls-6{fill:#3082b6;}.cls-7{fill:#f04e50;}.cls-8{fill:#ffde33;}.cls-9{fill:#3ed426;}</style></defs><title>background_image_29</title><g id="Layer_2" data-name="Layer 2"><g id="Layer_1-2" data-name="Layer 1"><rect class="cls-1" width="280" height="210"/><path class="cls-2" d="M280,0V10l-8.28,5.15a8.35,8.35,0,0,1-8.81,0L254.59,10l-8.31,5.17a8.35,8.35,0,0,1-8.81,0L229.15,10l-8.31,5.17a8.35,8.35,0,0,1-8.81,0L203.71,10l-8.31,5.17a8.35,8.35,0,0,1-8.81,0L178.27,10l-7.75,4.82a9.25,9.25,0,0,1-9.69,0l-8-4.87L145,14.83a9.25,9.25,0,0,1-9.78,0L127.39,10l-7.86,4.87a9.25,9.25,0,0,1-9.76,0L101.94,10l-8.31,5.17a8.35,8.35,0,0,1-8.81,0L76.5,10l-8.31,5.17a8.35,8.35,0,0,1-8.81,0L51.06,10l-8.31,5.17a8.35,8.35,0,0,1-8.81,0L25.62,10l-8.31,5.17a8.35,8.35,0,0,1-8.81,0L.18,10,0,10.06V0Z"/><path class="cls-2" d="M0,210.43v-10l8.28-5.15a8.35,8.35,0,0,1,8.81,0l8.31,5.17,8.31-5.17a8.35,8.35,0,0,1,8.81,0l8.31,5.17,8.31-5.17a8.35,8.35,0,0,1,8.81,0l8.31,5.17,8.31-5.17a8.35,8.35,0,0,1,8.81,0l8.31,5.17,7.75-4.82a9.25,9.25,0,0,1,9.69,0l8,4.87L135,195.6a9.25,9.25,0,0,1,9.78,0l7.82,4.87,7.86-4.87a9.25,9.25,0,0,1,9.76,0l7.83,4.87,8.31-5.17a8.35,8.35,0,0,1,8.81,0l8.31,5.17,8.31-5.17a8.35,8.35,0,0,1,8.81,0l8.31,5.17,8.31-5.17a8.35,8.35,0,0,1,8.81,0l8.31,5.17,8.31-5.17a8.35,8.35,0,0,1,8.81,0l8.31,5.17.18-.11v10.06Z"/><path class="cls-3" d="M21.16,39.19v.06l4.75,1.86v3.15l-7.6-3.7V37.83l7.6-3.7v3.14Z"/><path class="cls-3" d="M29.43,47.59H27.37l4.28-16.23h2.06Z"/><path class="cls-3" d="M35.52,37.28V34.13l7.6,3.7v2.73l-7.6,3.7V41.11l4.75-1.86v-.06Z"/><path class="cls-3" d="M62.89,64.93V65l4.75,1.86V70L60,66.31V63.57l7.6-3.7V63Z"/><path class="cls-3" d="M71.16,73.33H69.1L73.37,57.1h2.06Z"/><path class="cls-3" d="M77.25,63V59.88l7.6,3.7v2.73L77.25,70V66.85L82,65v-.06Z"/><path class="cls-3" d="M110.57,39.19v.06l4.75,1.86v3.15l-7.6-3.7V37.83l7.6-3.7v3.14Z"/><path class="cls-3" d="M118.84,47.59h-2.06l4.28-16.23h2.06Z"/><path class="cls-3" d="M124.93,37.28V34.13l7.6,3.7v2.73l-7.6,3.7V41.11l4.75-1.86v-.06Z"/><path class="cls-3" d="M152.29,64.93V65L157,66.85V70l-7.6-3.7V63.57l7.6-3.7V63Z"/><path class="cls-3" d="M160.56,73.33h-2.06l4.28-16.23h2.06Z"/><path class="cls-3" d="M166.66,63V59.88l7.6,3.7v2.73l-7.6,3.7V66.85L171.41,65v-.06Z"/><path class="cls-3" d="M200,39.19v.06l4.75,1.86v3.15l-7.6-3.7V37.83l7.6-3.7v3.14Z"/><path class="cls-3" d="M208.25,47.59h-2.06l4.28-16.23h2.06Z"/><path class="cls-3" d="M214.34,37.28V34.13l7.6,3.7v2.73l-7.6,3.7V41.11l4.75-1.86v-.06Z"/><path class="cls-3" d="M241.7,64.93V65l4.75,1.86V70l-7.6-3.7V63.57l7.6-3.7V63Z"/><path class="cls-3" d="M250,73.33h-2.06l4.28-16.23h2.06Z"/><path class="cls-3" d="M256.07,63V59.88l7.6,3.7v2.73l-7.6,3.7V66.85L260.82,65v-.06Z"/><path class="cls-3" d="M21.16,91.19v.06l4.75,1.86v3.15l-7.6-3.7V89.83l7.6-3.7v3.14Z"/><path class="cls-3" d="M29.43,99.59H27.37l4.28-16.23h2.06Z"/><path class="cls-3" d="M35.52,89.28V86.13l7.6,3.7v2.73l-7.6,3.7V93.11l4.75-1.86v-.06Z"/><path class="cls-3" d="M62.89,116.93V117l4.75,1.86V122l-7.6-3.7v-2.73l7.6-3.7V115Z"/><path class="cls-3" d="M71.16,125.33H69.1l4.28-16.23h2.06Z"/><path class="cls-3" d="M77.25,115v-3.14l7.6,3.7v2.73l-7.6,3.7v-3.15L82,117v-.06Z"/><path class="cls-3" d="M110.57,91.19v.06l4.75,1.86v3.15l-7.6-3.7V89.83l7.6-3.7v3.14Z"/><path class="cls-3" d="M118.84,99.59h-2.06l4.28-16.23h2.06Z"/><path class="cls-3" d="M124.93,89.28V86.13l7.6,3.7v2.73l-7.6,3.7V93.11l4.75-1.86v-.06Z"/><path class="cls-3" d="M152.29,116.93V117l4.75,1.86V122l-7.6-3.7v-2.73l7.6-3.7V115Z"/><path class="cls-3" d="M160.56,125.33h-2.06l4.28-16.23h2.06Z"/><path class="cls-3" d="M166.66,115v-3.14l7.6,3.7v2.73l-7.6,3.7v-3.15l4.75-1.86v-.06Z"/><path class="cls-3" d="M200,91.19v.06l4.75,1.86v3.15l-7.6-3.7V89.83l7.6-3.7v3.14Z"/><path class="cls-3" d="M208.25,99.59h-2.06l4.28-16.23h2.06Z"/><path class="cls-3" d="M214.34,89.28V86.13l7.6,3.7v2.73l-7.6,3.7V93.11l4.75-1.86v-.06Z"/><path class="cls-3" d="M241.7,116.93V117l4.75,1.86V122l-7.6-3.7v-2.73l7.6-3.7V115Z"/><path class="cls-3" d="M250,125.33h-2.06l4.28-16.23h2.06Z"/><path class="cls-3" d="M256.07,115v-3.14l7.6,3.7v2.73l-7.6,3.7v-3.15l4.75-1.86v-.06Z"/><path class="cls-3" d="M21.16,143.19v.06l4.75,1.86v3.15l-7.6-3.7v-2.73l7.6-3.7v3.14Z"/><path class="cls-3" d="M29.43,151.59H27.37l4.28-16.23h2.06Z"/><path class="cls-3" d="M35.52,141.28v-3.14l7.6,3.7v2.73l-7.6,3.7v-3.15l4.75-1.86v-.06Z"/><path class="cls-3" d="M62.89,168.93V169l4.75,1.86V174l-7.6-3.7v-2.73l7.6-3.7V167Z"/><path class="cls-3" d="M71.16,177.33H69.1l4.28-16.23h2.06Z"/><path class="cls-3" d="M77.25,167v-3.14l7.6,3.7v2.73l-7.6,3.7v-3.15L82,169v-.06Z"/><path class="cls-3" d="M110.57,143.19v.06l4.75,1.86v3.15l-7.6-3.7v-2.73l7.6-3.7v3.14Z"/><path class="cls-3" d="M118.84,151.59h-2.06l4.28-16.23h2.06Z"/><path class="cls-3" d="M124.93,141.28v-3.14l7.6,3.7v2.73l-7.6,3.7v-3.15l4.75-1.86v-.06Z"/><path class="cls-3" d="M152.29,168.93V169l4.75,1.86V174l-7.6-3.7v-2.73l7.6-3.7V167Z"/><path class="cls-3" d="M160.56,177.33h-2.06l4.28-16.23h2.06Z"/><path class="cls-3" d="M166.66,167v-3.14l7.6,3.7v2.73l-7.6,3.7v-3.15l4.75-1.86v-.06Z"/><path class="cls-3" d="M200,143.19v.06l4.75,1.86v3.15l-7.6-3.7v-2.73l7.6-3.7v3.14Z"/><path class="cls-3" d="M208.25,151.59h-2.06l4.28-16.23h2.06Z"/><path class="cls-3" d="M214.34,141.28v-3.14l7.6,3.7v2.73l-7.6,3.7v-3.15l4.75-1.86v-.06Z"/><path class="cls-3" d="M241.7,168.93V169l4.75,1.86V174l-7.6-3.7v-2.73l7.6-3.7V167Z"/><path class="cls-3" d="M250,177.33h-2.06l4.28-16.23h2.06Z"/><path class="cls-3" d="M256.07,167v-3.14l7.6,3.7v2.73l-7.6,3.7v-3.15l4.75-1.86v-.06Z"/><path class="cls-4" d="M245.42,107.93v102.5H34.95V107.93c0-4.1,3-5,6.68-6.22.45-.14.64-2.8,1.12-2.87a9.22,9.22,0,0,1,1.4-.11H236.22a9.22,9.22,0,0,1,1.4.11c.48.07-.28,3.9.17,4C241.5,104.07,245.42,103.83,245.42,107.93Z"/><path class="cls-5" d="M245.42,116.7v-8.26a9.46,9.46,0,0,0-9.2-9.7H44.15a9.46,9.46,0,0,0-9.2,9.7v8.26Z"/><rect class="cls-6" x="50.89" y="123.73" width="22.36" height="3.11"/><rect class="cls-6" x="50.89" y="129.95" width="12.42" height="3.11"/><rect class="cls-6" x="65.79" y="129.95" width="3.11" height="3.11"/><rect class="cls-6" x="72" y="129.95" width="3.11" height="3.11"/><rect class="cls-6" x="50.89" y="192.06" width="22.36" height="3.11"/><rect class="cls-6" x="50.89" y="198.27" width="12.42" height="3.11"/><rect class="cls-6" x="65.79" y="198.27" width="3.11" height="3.11"/><rect class="cls-6" x="72" y="198.27" width="3.11" height="3.11"/><rect class="cls-6" x="57.1" y="136.16" width="8.7" height="3.11"/><rect class="cls-6" x="63.31" y="142.37" width="18.63" height="3.11"/><rect class="cls-6" x="85.05" y="142.37" width="7.45" height="3.11"/><rect class="cls-6" x="95.61" y="142.37" width="2.48" height="3.11"/><rect class="cls-6" x="80.7" y="179.63" width="18.63" height="3.11"/><rect class="cls-6" x="102.44" y="179.63" width="7.45" height="3.11"/><rect class="cls-6" x="113" y="179.63" width="2.48" height="3.11"/><rect class="cls-6" x="76.97" y="192.06" width="7.45" height="3.11"/><rect class="cls-6" x="87.53" y="192.06" width="2.48" height="3.11"/><rect class="cls-6" x="80.7" y="167.21" width="7.45" height="3.11"/><rect class="cls-6" x="91.26" y="167.21" width="2.48" height="3.11"/><rect class="cls-6" x="96.23" y="167.21" width="7.45" height="3.11"/><rect class="cls-6" x="106.79" y="167.21" width="2.48" height="3.11"/><rect class="cls-6" x="129.15" y="148.58" width="2.48" height="3.11"/><rect class="cls-6" x="165.17" y="154.79" width="2.48" height="3.11"/><rect class="cls-6" x="63.31" y="148.58" width="14.29" height="3.11"/><rect class="cls-6" x="80.7" y="148.58" width="9.32" height="3.11"/><rect class="cls-6" x="105.54" y="148.58" width="20.5" height="3.11"/><rect class="cls-6" x="92.5" y="148.58" width="9.32" height="3.11"/><rect class="cls-6" x="129.15" y="173.42" width="2.48" height="3.11"/><rect class="cls-6" x="80.7" y="173.42" width="9.32" height="3.11"/><rect class="cls-6" x="105.54" y="173.42" width="20.5" height="3.11"/><rect class="cls-6" x="92.5" y="173.42" width="9.32" height="3.11"/><rect class="cls-6" x="129.15" y="161" width="2.48" height="3.11"/><rect class="cls-6" x="80.7" y="161" width="9.32" height="3.11"/><rect class="cls-6" x="105.54" y="161" width="20.5" height="3.11"/><rect class="cls-6" x="92.5" y="161" width="9.32" height="3.11"/><rect class="cls-6" x="63.31" y="154.79" width="14.29" height="3.11"/><rect class="cls-6" x="80.7" y="154.79" width="11.18" height="3.11"/><rect class="cls-6" x="95.61" y="154.79" width="11.18" height="3.11"/><rect class="cls-6" x="108.65" y="154.79" width="54.04" height="3.11"/><rect class="cls-6" x="63.31" y="161" width="14.29" height="3.11"/><rect class="cls-6" x="63.31" y="167.21" width="14.29" height="3.11"/><rect class="cls-6" x="63.31" y="173.42" width="14.29" height="3.11"/><rect class="cls-6" x="63.31" y="179.63" width="14.29" height="3.11"/><rect class="cls-6" x="50.89" y="185.85" width="22.36" height="3.11"/><rect class="cls-6" x="57.1" y="204.51" width="8.7" height="3.11"/><circle class="cls-7" cx="49.06" cy="107.71" r="4.01"/><circle class="cls-8" cx="61.45" cy="107.71" r="4.01"/><circle class="cls-9" cx="73.83" cy="107.71" r="4.01"/></g></g></svg>