<svg xmlns="http://www.w3.org/2000/svg" xmlns:xlink="http://www.w3.org/1999/xlink" viewBox="0 0 86.6 95.98"><defs><style>.cls-1{fill:#007acc;}.cls-2{fill:#fff;}.cls-3{fill:url(#linear-gradient);}.cls-4{fill:url(#linear-gradient-2);}.cls-5{fill:url(#linear-gradient-3);}.cls-6,.cls-9{opacity:0.05;}.cls-7,.cls-9{fill:#231f20;}.cls-8{fill:url(#linear-gradient-4);}</style><linearGradient id="linear-gradient" x1="32.82" y1="52.31" x2="32.82" y2="34.6" gradientUnits="userSpaceOnUse"><stop offset="0.39" stop-color="#d0d2d3" stop-opacity="0"/><stop offset="1" stop-color="#d0d2d3"/></linearGradient><linearGradient id="linear-gradient-2" x1="54.94" y1="43.48" x2="54.94" y2="25.07" xlink:href="#linear-gradient"/><linearGradient id="linear-gradient-3" x1="22.17" y1="60.2" x2="64.7" y2="60.2" gradientUnits="userSpaceOnUse"><stop offset="0" stop-color="#e7e6e5"/><stop offset="1" stop-color="#fff"/></linearGradient><linearGradient id="linear-gradient-4" x1="20.22" y1="29.58" x2="66.38" y2="29.58" xlink:href="#linear-gradient-3"/></defs><title>css</title><g id="Layer_2" data-name="Layer 2"><g id="Layer_1-2" data-name="Layer 1"><path class="cls-1" d="M0,30.49v35A13,13,0,0,0,6.5,76.74l30.31,17.5a13,13,0,0,0,13,0l30.31-17.5a13,13,0,0,0,6.5-11.25v-35a13,13,0,0,0-6.5-11.25L49.8,1.74a13,13,0,0,0-13,0L6.5,19.24A13,13,0,0,0,0,30.49Z"/><polygon class="cls-2" points="43.5 34.6 22.14 43.5 22.85 52.31 43.5 43.48 65.47 34.08 66.39 25.07 43.5 34.6"/><polygon class="cls-3" points="22.14 43.5 22.85 52.31 43.5 43.48 43.5 34.6 22.14 43.5"/><polygon class="cls-4" points="66.39 25.07 43.5 34.6 43.5 43.48 65.47 34.08 66.39 25.07"/><polygon class="cls-5" points="22.17 43.5 22.88 52.31 54.57 52.41 53.87 64.15 43.44 67.09 33.41 64.56 32.8 57.27 23.49 57.27 24.7 71.34 43.54 76.91 62.27 71.44 64.7 43.5 22.17 43.5"/><g class="cls-6"><polygon class="cls-7" points="43.5 43.5 22.14 43.5 22.85 52.31 43.5 52.37 43.5 43.5"/><polygon class="cls-7" points="43.5 67.06 43.4 67.09 33.38 64.56 32.77 57.27 23.46 57.27 24.67 71.34 43.5 76.91 43.5 67.06"/></g><polygon class="cls-8" points="20.22 25.07 66.39 25.07 65.47 34.08 21.33 34.08 20.22 25.07"/><polygon class="cls-9" points="43.5 25.07 20.22 25.07 21.33 34.08 43.5 34.08 43.5 25.07"/></g></g></svg>