<svg xmlns="http://www.w3.org/2000/svg" viewBox="0 0 86.6 95.98"><defs><style>.cls-1{fill:#377096;}.cls-2{fill:#366e90;}.cls-3{fill:#f2f2f2;}.cls-4{fill:#0868a6;}.cls-5{fill:#74c3d2;}.cls-6{fill:#fff;}.cls-7{fill:#231f20;}.cls-8{fill:#ecc897;}.cls-9{fill:#005969;}</style></defs><title>go</title><g id="Layer_2" data-name="Layer 2"><g id="Layer_1-2" data-name="Layer 1"><path class="cls-1" d="M24.73,53.92a2.64,2.64,0,0,1-.07-.87C24.77,53.33,24.65,53.63,24.73,53.92Z"/><path class="cls-1" d="M24.71,59.77a.39.39,0,0,1-.06.26l0,0V60c0-1,0-2.05,0-3.08a1.66,1.66,0,0,1,.11-.77C24.63,57.35,24.74,58.56,24.71,59.77Z"/><path class="cls-2" d="M24.71,89a.43.43,0,0,1-.06.29l0,0s0,0,0-.06,0-.3,0-.46q0-14.17,0-28.34c0-.13,0-.26,0-.39V60l0,0a1.38,1.38,0,0,1,.06.73Q24.71,74.87,24.71,89Z"/><path class="cls-3" d="M24.76,54l0-.07h0a2.64,2.64,0,0,1-.07-.87C24.88,53.35,24.74,53.68,24.76,54Z"/><path class="cls-4" d="M86.6,30.49v35a13,13,0,0,1-6.5,11.25L65.79,85l-16,9.24a13,13,0,0,1-13,0L20.8,85,6.49,76.74A13,13,0,0,1,0,65.49v-35A13,13,0,0,1,6.49,19.24L36.8,1.74a13,13,0,0,1,13,0L80.1,19.24A13,13,0,0,1,86.6,30.49Z"/><path class="cls-5" d="M65.79,44.69V85l-16,9.24a13,13,0,0,1-13,0L20.8,85V44.69a22.49,22.49,0,0,1,45,0Z"/><rect class="cls-5" x="15.16" y="55.97" width="56.28" height="4.65" rx="2.32" ry="2.32"/><rect class="cls-5" x="21.56" y="23.53" width="9.97" height="12.25" rx="4.3" ry="4.3" transform="translate(-13.19 27.46) rotate(-45)"/><rect class="cls-5" x="55" y="23.53" width="9.97" height="12.25" rx="4.3" ry="4.3" transform="translate(81.44 93.04) rotate(-135)"/><circle class="cls-6" cx="32.66" cy="41.59" r="8.93"/><circle class="cls-7" cx="27.34" cy="41.59" r="2.67"/><circle class="cls-6" cx="53.93" cy="41.59" r="8.93"/><circle class="cls-7" cx="48.61" cy="41.59" r="2.67"/><path class="cls-6" d="M39.79,57.15H43.3a0,0,0,0,1,0,0v6a1.53,1.53,0,0,1-1.53,1.53h-.45a1.53,1.53,0,0,1-1.53-1.53v-6A0,0,0,0,1,39.79,57.15Z"/><path class="cls-6" d="M43.3,57.15h3.51a0,0,0,0,1,0,0v6a1.53,1.53,0,0,1-1.53,1.53h-.45a1.53,1.53,0,0,1-1.53-1.53v-6A0,0,0,0,1,43.3,57.15Z"/><path class="cls-8" d="M47.77,54a6.45,6.45,0,0,0-4.48-.28,6.45,6.45,0,0,0-4.48.28c-2.61,1-4.23,3.11-3.63,4.64s3.21,1.94,5.82.91a7.82,7.82,0,0,0,2.29-1.38,7.82,7.82,0,0,0,2.29,1.38c2.61,1,5.21.62,5.82-.91S50.38,55,47.77,54Z"/><ellipse class="cls-9" cx="43.3" cy="54.01" rx="3.28" ry="2.14"/></g></g></svg>