<svg xmlns="http://www.w3.org/2000/svg" viewBox="0 0 86.6 95.98"><defs><style>.cls-1{fill:#dd4c50;}.cls-2{fill:#f3f3f3;}</style></defs><title>gulp</title><g id="Layer_2" data-name="Layer 2"><g id="Layer_1-2" data-name="Layer 1"><path class="cls-1" d="M0,30.49v35A13,13,0,0,0,6.5,76.74l30.31,17.5a13,13,0,0,0,13,0l30.31-17.5a13,13,0,0,0,6.5-11.25v-35a13,13,0,0,0-6.5-11.25L49.8,1.74a13,13,0,0,0-13,0L6.5,19.24A13,13,0,0,0,0,30.49Z"/><path class="cls-2" d="M57.34,56a41.3,41.3,0,0,1-3.69,2.48,7.16,7.16,0,0,1-2.49.87c-1.87.21-2.66-.27-3.51-2.08-.86.5-1.71,1-2.58,1.48a5.13,5.13,0,0,1-.84.36c-2.44.84-3.8-.16-3.74-2.75,0-.36,0-.71,0-1.23a18.29,18.29,0,0,1-2.12,2.27,7.79,7.79,0,0,1-5.55,2,2.94,2.94,0,0,1-3-2.89A11.32,11.32,0,0,1,30.67,52a61.09,61.09,0,0,1,3.44-8.37c.69-1.41,1.66-1.94,2.82-1.58a1.44,1.44,0,0,1,1,2.06c-.37.93-.85,1.82-1.3,2.72a22.51,22.51,0,0,0-2.48,6.47c-.26,1.61.29,2.07,1.82,1.5a7.12,7.12,0,0,0,3-2.44,24.18,24.18,0,0,0,3.86-7.14A10,10,0,0,1,44,42.78a1.59,1.59,0,0,1,2-.79A1.82,1.82,0,0,1,47,43.92a8.41,8.41,0,0,1-.75,2.35,51.18,51.18,0,0,0-2.36,6,15,15,0,0,0-.38,2c-.12,1,.22,1.26,1.14,1.05a7.62,7.62,0,0,0,3-1.66,1.21,1.21,0,0,0,.32-.54c2.74-7.8,6-15.4,9-23.1a2.54,2.54,0,0,1,1.2-1.44,1.9,1.9,0,0,1,2.16.11,1.72,1.72,0,0,1,.52,2,8.34,8.34,0,0,1-.37,1C57.62,38.4,54.9,45.17,52.22,52a9.07,9.07,0,0,0-.66,2.28c-.09.81.18,1,.94.76a11.81,11.81,0,0,0,3.18-2c.39-.3.75-.62,1.13-.93,2-1.61,3.82-3.29,4.32-6a6.85,6.85,0,0,1,1.21-2.55,1.56,1.56,0,0,1,2-.69c.78.28.87.95.82,1.66,0,.35-.07.69-.12,1.13.93-.77,1.75-1.53,2.66-2.18,1.49-1.06,3.07-1.9,5-1.38A3,3,0,0,1,75,46a15.6,15.6,0,0,1-3.22,5.38c-.88,1.1-1.82,2.15-2.71,3.23-.18.22-.49.46-.25.79s.6.23.92.08a12.29,12.29,0,0,0,2.85-2c2.12-1.8,4.22-3.63,6.33-5.44.51-.44,1.06-1,1.77-.57s.6,1.28.47,2A2.61,2.61,0,0,1,80.33,51C78.09,53,76,55.13,73.6,57c-1.87,1.44-3.87,2.54-6.37,2.39s-3.51-1.93-2.41-4.08A36.07,36.07,0,0,1,69,49.63c.58-.74,1.14-1.51,1.67-2.3.22-.32.47-.73.18-1.1s-.67-.22-1-.15a5.85,5.85,0,0,0-2.91,1.64,22.19,22.19,0,0,0-5,7c-1.94,4-3.56,8.23-5.09,12.45a13.81,13.81,0,0,1-.76,1.76,2.66,2.66,0,0,1-1.38,1.29,2.05,2.05,0,0,1-2-.14,1.71,1.71,0,0,1-.56-1.82,14.86,14.86,0,0,1,1.32-3.79c1.15-2.53,2.33-5,3.49-7.57C57.09,56.57,57.21,56.27,57.34,56Z"/><path class="cls-2" d="M21.86,54c-.85.81-1.54,1.49-2.25,2.13A17.9,17.9,0,0,1,15.32,59c-3.27,1.57-6.26.29-7.47-3.13a12.5,12.5,0,0,1-.15-6.7,37.65,37.65,0,0,1,10-19.63,15.56,15.56,0,0,1,3.8-2.85c3.92-2.11,7.58-1.26,10.25,2.31a4.16,4.16,0,0,1,.93,3.15A1.92,1.92,0,0,1,31.29,34a1.63,1.63,0,0,1-1.84-.89c-.38-.55-.72-1.14-1.06-1.71-1.24-2.05-2.9-2.47-5-1.22a14.19,14.19,0,0,0-4,3.77,37.23,37.23,0,0,0-7.08,15.52A12,12,0,0,0,12.29,53c.24,2.1,1.57,2.78,3.43,1.77a22.67,22.67,0,0,0,5-4.24,19.08,19.08,0,0,0,4.55-8.64,7.14,7.14,0,0,1,.61-1.52,2,2,0,0,1,2.26-1c.77.21,1.18.89,1.14,2a12.06,12.06,0,0,1-.82,4c-2,5.19-3.52,10.53-5,15.87a6.75,6.75,0,0,1-1.29,2.7,1.49,1.49,0,0,1-1.68.64c-.71-.24-.8-.86-.87-1.48A7.79,7.79,0,0,1,20,60C20.63,58.06,21.22,56.11,21.86,54Z"/></g></g></svg>