<svg xmlns="http://www.w3.org/2000/svg" viewBox="0 0 86.6 95.98"><defs><style>.cls-1{fill:#e44d26;}.cls-2{fill:#ebebeb;}.cls-3{fill:#fff;}</style></defs><title>html</title><g id="Layer_2" data-name="Layer 2"><g id="Layer_1-2" data-name="Layer 1"><path class="cls-1" d="M0,30.49v35A13,13,0,0,0,6.5,76.74l30.31,17.5a13,13,0,0,0,13,0l30.31-17.5a13,13,0,0,0,6.5-11.25v-35a13,13,0,0,0-6.5-11.25L49.8,1.74a13,13,0,0,0-13,0L6.5,19.24A13,13,0,0,0,0,30.49Z"/><polygon class="cls-2" points="43.33 44.48 31.02 44.48 30.17 34.96 43.33 34.96 43.33 25.66 43.3 25.66 20.01 25.66 20.23 28.15 22.52 53.78 43.33 53.78 43.33 44.48"/><polygon class="cls-2" points="43.33 68.64 43.29 68.65 32.93 65.85 32.27 58.43 27.23 58.43 22.93 58.43 24.23 73.04 43.29 78.32 43.33 78.31 43.33 68.64"/><polygon class="cls-3" points="43.3 44.48 43.3 53.78 54.75 53.78 53.67 65.84 43.3 68.64 43.3 78.32 62.36 73.04 62.5 71.46 64.69 46.98 64.92 44.48 62.41 44.48 43.3 44.48"/><polygon class="cls-3" points="43.3 25.66 43.3 31.43 43.3 34.93 43.3 34.96 65.73 34.96 65.73 34.96 65.76 34.96 65.95 32.87 66.37 28.15 66.59 25.66 43.3 25.66"/></g></g></svg>