<svg xmlns="http://www.w3.org/2000/svg" viewBox="0 0 86.6 95.98"><defs><style>.cls-1{fill:#0d89c6;}.cls-2{fill:#eb2025;}.cls-3{fill:#fff;}</style></defs><title>java</title><g id="Layer_2" data-name="Layer 2"><g id="Layer_1-2" data-name="Layer 1"><path class="cls-1" d="M0,30.49v35A13,13,0,0,0,6.5,76.74l30.31,17.5a13,13,0,0,0,13,0l30.31-17.5a13,13,0,0,0,6.5-11.25v-35a13,13,0,0,0-6.5-11.25L49.8,1.74a13,13,0,0,0-13,0L6.5,19.24A13,13,0,0,0,0,30.49Z"/><path class="cls-2" d="M51.08,15a.09.09,0,0,0,0,.09c-.05.1,0,.22-.05.32a0,0,0,0,0,0,0c-.06.1,0,.22-.05.31v0c0,.08,0,.18-.06.26h0c-.06.07,0,.17-.05.24a0,0,0,0,0,0,0c0,.06,0,.14-.05.19a0,0,0,0,0,0,0c0,.06,0,.14-.06.2h0c0,.05,0,.13-.06.18h0c-.05,0,0,.13-.06.18h0v0a.42.42,0,0,1-.05.15h0c-.06,0,0,.13-.06.18h0c-.05,0,0,.14-.07.18h0s0,.09-.05.13h0c-.06,0,0,.14-.07.17h0s0,.1-.06.13h0s0,.09-.06.12h0s0,.09-.06.12h0s0,.08-.06.12h0c-.06,0,0,.14-.08.17h0a.68.68,0,0,1-.1.19h0s0,.08-.06.12h0s0,.09-.06.12h0s0,.09-.07.12h0s0,.1-.07.12h0s0,.05,0,.08h0s0,.09-.07.11h0s0,.1-.07.12h0s0,.05-.05.07h0s0,.09-.07.11h0a.14.14,0,0,1-.05.07h0s0,.09-.07.11h0a.16.16,0,0,1-.05.07h0s0,.09-.08.11h0a.11.11,0,0,1-.05.07h0a.67.67,0,0,1-.13.18h0a.17.17,0,0,1-.05.07h0c0,.06-.07.13-.13.17h0a.17.17,0,0,1-.06.07h0c0,.06-.06.13-.13.17h0a.1.1,0,0,1-.06.07h0a.2.2,0,0,1-.06.07h0a.94.94,0,0,1-.19.23h0a.08.08,0,0,1-.06.07h0a.11.11,0,0,1-.06.07h0a.14.14,0,0,1-.06.07h0a.19.19,0,0,1-.06.06h0l-.06.06h0l-.06.06h0l-.06.06h0l-.06.06h0l-.06.06h0l-.06.06h0a.83.83,0,0,1-.24.24h0l-.06.06h0l-.06.06h0l-.06.06h0l-.06.06h0l-.06.06h0l-.06.06h0a.19.19,0,0,1-.06.06h0a.15.15,0,0,1-.06.06h0a.12.12,0,0,1-.07.06h0a.1.1,0,0,1-.07.06h0a.09.09,0,0,1-.07.06h0a.08.08,0,0,1-.07.06h0a.07.07,0,0,1-.07.06h0a5.63,5.63,0,0,1-.52.49h0l-.06.06h0l-.06.06h0l-.06.06h0l-.06.06h0a.17.17,0,0,1-.06.06h0a.14.14,0,0,1-.06.06h0a.12.12,0,0,1-.07.06h0a.11.11,0,0,1-.07.06h0a.1.1,0,0,1-.07.06h0a.09.09,0,0,1-.07.06h0a.08.08,0,0,1-.07.06h0a.07.07,0,0,1-.07.06h0a.07.07,0,0,1-.07.06h0a6.75,6.75,0,0,1-.58.55h0l-.06.06h0l-.06.06h0l-.06.06h0l-.06.06h0a.19.19,0,0,1-.06.06h0a.16.16,0,0,1-.06.06h0a.13.13,0,0,1-.07.06h0a.12.12,0,0,1-.07.06h0a.1.1,0,0,1-.07.06h0a.09.09,0,0,1-.07.06h0a.08.08,0,0,1-.07.06h0a.07.07,0,0,1-.07.06h0a.07.07,0,0,1-.07.06h0a6.62,6.62,0,0,1-.58.55h0l-.06.06h0l-.06.06h0l-.06.06h0l-.06.06h0l-.06.06h0a.18.18,0,0,1-.06.06h0a.17.17,0,0,1-.06.06h0a.17.17,0,0,1-.06.06h0a.15.15,0,0,1-.06.06h0a.14.14,0,0,1-.06.06h0a.14.14,0,0,1-.06.06h0a.13.13,0,0,1-.06.06h0a.13.13,0,0,1-.06.06h0a.12.12,0,0,1-.07.06h0a.11.11,0,0,1-.06.06h0a.11.11,0,0,1-.07.06h0a.11.11,0,0,1-.06.06h0a.1.1,0,0,1-.07.06h0a.1.1,0,0,1-.07.06h0a.09.09,0,0,1-.07.06h0a.09.09,0,0,1-.07.06h0a.09.09,0,0,1-.07.07h0a.08.08,0,0,1-.07.06h0a.08.08,0,0,1-.07.07h0a.08.08,0,0,1-.07.07h0a.08.08,0,0,1-.07.06h0a.08.08,0,0,1-.07.07h0a.08.08,0,0,1-.07.07h0a.08.08,0,0,1-.06.07h0a.09.09,0,0,1-.06.07h0a.09.09,0,0,1-.06.07h0a.09.09,0,0,1-.07.07h0a.1.1,0,0,1-.06.07h0a.11.11,0,0,1-.06.07h0a.12.12,0,0,1-.06.07h0a.13.13,0,0,1-.06.06h0a.14.14,0,0,1-.06.06h0a.15.15,0,0,1-.06.06h0a.17.17,0,0,1-.06.06h0a.21.21,0,0,1-.06.06h0l-.06.06h0l-.06.06h0a3.06,3.06,0,0,1-.37.4h0a.07.07,0,0,1-.06.07h0a.08.08,0,0,1-.06.07h0a.1.1,0,0,1-.06.07h0a.13.13,0,0,1-.06.07h0a.21.21,0,0,1-.06.06h0l-.06.06h0a1.93,1.93,0,0,1-.25.29h0a.08.08,0,0,1-.06.07h0a.11.11,0,0,1-.06.07h0a.17.17,0,0,1-.06.07h0a1,1,0,0,1-.19.23h0a.1.1,0,0,1-.06.07h0a.18.18,0,0,1-.06.07h0a1,1,0,0,1-.19.23h0a.1.1,0,0,1-.06.07h0a.2.2,0,0,1-.06.07h0c0,.06-.07.13-.13.17h0a.11.11,0,0,1-.06.07h0l-.05.07h0s0,.09-.08.11h0a.09.09,0,0,1-.06.07h0a.49.49,0,0,1-.13.18h0a.12.12,0,0,1-.05.07h0a1,1,0,0,1-.12.18h0a.62.62,0,0,1-.12.18h0s0,0-.05.07h0s0,.09-.07.11h0a.76.76,0,0,1-.12.18h0s0,.1-.07.12h0s0,.05,0,.07h0s0,.09-.06.12h0s0,.09-.07.12h0s0,.1-.07.12h0s0,.05,0,.08h0s0,.08-.06.12h0s0,.09-.06.12h0s0,.09-.06.12h0s0,.08-.06.12h0s0,.08-.06.12h0v0s0,.11-.06.14h0s0,.09-.05.13h0c-.05,0,0,.14-.07.18h0s0,.09,0,.13a0,0,0,0,0,0,0,.56.56,0,0,1,0,.14,0,0,0,0,0,0,0c0,.06,0,.14-.06.2h0c0,.05,0,.13-.05.18a0,0,0,0,0,0,.05c-.06.09,0,.21-.05.3a.1.1,0,0,0,0,.1,2.76,2.76,0,0,0,0,.81.11.11,0,0,0,0,.1c.06.1,0,.22,0,.32a.09.09,0,0,0,0,.09c.06.07,0,.17.05.24h0c.07.07,0,.17.06.25a0,0,0,0,0,0,0c0,.05,0,.13.05.18h0c.06.06,0,.14.06.2a0,0,0,0,0,0,0c0,.05,0,.13.05.18h0c.06,0,0,.13.06.18h0c.07,0,0,.13.06.18h0c.06,0,0,.13.06.18h0c.06,0,0,.13.06.18h0c.06,0,0,.13.06.17h0s0,.09.05.13h0c.07,0,0,.13.07.18h0s0,.09.05.14a0,0,0,0,0,0,0s0,.09.05.12h0s0,.09.06.12h0s0,.09.06.13h0s0,.08.06.13h0c.08,0,0,.13.08.17h0s0,.09.06.12h0s0,.09.06.12h0s0,.09.06.12h0s0,.09.06.12h0s0,.09.06.12h0s0,.09.06.12h0s0,.09.06.12h0s0,.09.06.12h0s0,.09.06.12h0s0,.09.06.12h0s0,.09.06.12h0a.65.65,0,0,1,.11.19h0c.06,0,0,.08.07.12h0c.05,0,0,.08.07.12h0s0,.08.07.12h0s0,.09.06.12h0a.78.78,0,0,1,.11.19h0c.05,0,0,.08.07.12h0s0,.08.07.12h0a.81.81,0,0,1,.11.19h0s0,.08.07.12h0s0,.09.07.11h0s0,0,0,.07h0c.05,0,0,.08.07.12h0s0,.09.07.12h0s0,0,0,.07h0c.06,0,0,.08.07.12h0a.62.62,0,0,1,.12.18h0s0,.08.07.11h0s0,0,0,.07h0c.06,0,0,.08.07.12h0a.59.59,0,0,1,.12.19h0s0,.08.07.11h0a.15.15,0,0,1,.05.07h0c.05,0,0,.08.07.11h0s0,0,.05.07h0c.06,0,0,.08.07.11h0a.92.92,0,0,1,.12.18h0a.65.65,0,0,1,.12.18h0a.53.53,0,0,1,.12.18h0s0,.08.07.11h0a.22.22,0,0,1,.05.07h0s0,.08.07.11h0a.19.19,0,0,1,.05.07h0s0,.08.07.11h0a.16.16,0,0,1,.05.07h0c.05,0,0,.08.07.11h0a.21.21,0,0,1,.05.07h0a.76.76,0,0,1,.13.18h0a.11.11,0,0,1,.05.07h0c.07,0,.09.12.13.17h0a.13.13,0,0,1,.06.07h0a.6.6,0,0,1,.13.18h0a.1.1,0,0,1,.05.07h0c.05,0,0,.06,0,.1a.1.1,0,0,1-.07.09.09.09,0,0,1-.07,0h0l-.06-.06h0l-.06-.06h0l-.06-.06h0l-.06-.06h0l-.06-.06h0a3.87,3.87,0,0,1-.59-.59h0L41,44.47h0L41,44.4h0l-.06-.06h0a.18.18,0,0,1-.06-.06h0a.14.14,0,0,1-.06-.07h0a.11.11,0,0,1-.06-.07h0a.09.09,0,0,1-.06-.07h0a.08.08,0,0,1-.06-.07h0a.07.07,0,0,1-.06-.07h0a3.17,3.17,0,0,1-.37-.4h0l-.06-.06h0l-.06-.06h0L40,43.4h0a.16.16,0,0,1-.06-.06h0a.12.12,0,0,1-.06-.07h0a.1.1,0,0,1-.06-.07h0a.09.09,0,0,1-.06-.07h0a.08.08,0,0,1-.06-.07h0a2.19,2.19,0,0,1-.26-.28h0l-.06-.06h0l-.06-.06h0a.21.21,0,0,1-.06-.06h0a.14.14,0,0,1-.06-.07h0a.11.11,0,0,1-.06-.07h0a.08.08,0,0,1-.06-.07h0a2.55,2.55,0,0,1-.31-.35h0L38.8,42h0a.14.14,0,0,1-.06-.07h0a.1.1,0,0,1-.06-.07h0a.07.07,0,0,1-.06-.07h0a.92.92,0,0,1-.2-.23h0l-.06-.06h0a.15.15,0,0,1-.06-.07h0a.1.1,0,0,1-.06-.07h0a.08.08,0,0,1-.06-.07h0a.86.86,0,0,1-.19-.23h0a.19.19,0,0,1-.06-.07h0a.1.1,0,0,1-.06-.07h0a1.24,1.24,0,0,1-.19-.23h0a.25.25,0,0,1-.06-.07h0a.12.12,0,0,1-.06-.07h0a.08.08,0,0,1-.06-.07h0c-.07,0-.08-.12-.14-.17h0l-.06-.07h0a.12.12,0,0,1-.06-.07h0c-.06,0-.08-.12-.13-.17h0l-.05-.07h0a.13.13,0,0,1-.06-.07h0a1.13,1.13,0,0,1-.19-.23h0a.13.13,0,0,1-.06-.07h0c-.06,0-.08-.12-.13-.17h0l-.05-.07h0a.11.11,0,0,1-.06-.07h0c-.07,0-.09-.12-.13-.17h0a.13.13,0,0,1-.06-.07h0c-.06,0-.08-.12-.13-.17h0a.18.18,0,0,1-.06-.07h0c-.06,0-.08-.12-.13-.17h0a.25.25,0,0,1-.05-.07h0a.09.09,0,0,1-.06-.07h0c-.06,0,0-.08-.08-.11h0a.17.17,0,0,1-.05-.07h0a.63.63,0,0,1-.13-.18h0a.1.1,0,0,1-.05-.07h0c-.06,0,0-.08-.08-.11h0a.21.21,0,0,1-.05-.07h0a.73.73,0,0,1-.13-.18h0a.11.11,0,0,1-.05-.07h0c-.05,0,0-.08-.08-.11h0a.18.18,0,0,1-.05-.07h0s0-.08-.07-.11h0a.18.18,0,0,1-.05-.07h0s0-.08-.07-.11h0a.19.19,0,0,1-.05-.07h0s0-.08-.07-.11h0a.2.2,0,0,1-.05-.07h0s0-.08-.07-.12h0s0,0,0-.08h0c-.06,0,0-.08-.07-.12h0s0-.08-.07-.12h0s0,0,0-.08h0c-.06,0,0-.08-.07-.12h0s0-.08-.07-.12h0s0-.09-.06-.11h0s0,0,0-.08h0c-.06,0,0-.08-.07-.12h0c-.05,0,0-.08-.07-.12h0s0-.08-.07-.12h0s0-.08-.06-.12h0s0-.09-.06-.12h0s0-.09-.06-.12h0s0-.09-.06-.12h0s0-.08-.06-.13h0c-.08,0,0-.13-.07-.17h0s0-.09-.06-.12h0c-.06,0,0-.13-.06-.18h0a.4.4,0,0,1-.05-.14,0,0,0,0,0,0,0c0-.05,0-.13-.05-.18h0c-.05-.06,0-.14-.06-.2v-.09c0-.08,0-.18,0-.26a.22.22,0,0,0,0-.15,1.9,1.9,0,0,1,0-.71.09.09,0,0,0,0-.09c.05-.1,0-.22.05-.32v0c0-.06,0-.14,0-.2a0,0,0,0,0,0,0c0-.06,0-.14.06-.19h0c.05,0,0-.13.06-.18h0v0a.33.33,0,0,1,.05-.14h0c.05,0,0-.14.07-.18h0s0-.09.06-.13h0s0-.09.05-.12h0c.06,0,0-.14.08-.17h0s0-.1.06-.12h0s0-.1.06-.12h0s0-.05,0-.08h0s0-.08.06-.11h0s0-.09.06-.12h0s0-.1.07-.12h0s0-.05,0-.07h0s0-.09.07-.11h0a.8.8,0,0,1,.12-.18h0a.81.81,0,0,1,.12-.18h0a.46.46,0,0,1,.13-.18h0a.11.11,0,0,1,.06-.07h0a.6.6,0,0,1,.13-.18h0a.14.14,0,0,1,.05-.07h0c0-.06.07-.13.13-.17h0a.11.11,0,0,1,.06-.07h0a.26.26,0,0,1,.06-.07h0c0-.05.07-.13.13-.17h0a.1.1,0,0,1,.06-.07h0a.18.18,0,0,1,.06-.07h0l.06-.06h0c.05,0,.06-.13.14-.16h0a.07.07,0,0,1,.06-.07h0a.1.1,0,0,1,.06-.07h0a.16.16,0,0,1,.06-.07h0l.06-.06h0a2.09,2.09,0,0,1,.31-.34h0a.07.07,0,0,1,.06-.07h0a.08.08,0,0,1,.07-.07h0a.08.08,0,0,1,.06-.07h0a.09.09,0,0,1,.06-.07h0a.09.09,0,0,1,.06-.07h0a.1.1,0,0,1,.06-.07h0a.11.11,0,0,1,.06-.07h0a.12.12,0,0,1,.06-.06h0a.12.12,0,0,1,.06-.06h0a.11.11,0,0,1,.07-.06h0a.1.1,0,0,1,.07-.06h0a.1.1,0,0,1,.07-.06h0a.1.1,0,0,1,.07-.07l.71-.66c2-1.82,4.06-3.51,6.14-5.21a24.09,24.09,0,0,0,2.66-2.38,6.22,6.22,0,0,0,.57-.67c0-.05.06-.13.13-.17h0a.11.11,0,0,1,.06-.07h0c0-.06.06-.13.13-.17h0a.1.1,0,0,1,.06-.07h0a.37.37,0,0,1,.05-.07h0s0-.09.08-.11h0a.09.09,0,0,1,.05-.07h0a.74.74,0,0,1,.12-.18h0a.7.7,0,0,1,.12-.18h0a.66.66,0,0,1,.12-.18h0a.88.88,0,0,1,.12-.18h0s0-.09.07-.12h0s0-.1.07-.12h0s0-.05,0-.08h0s0-.09.07-.12h0s0-.1.07-.12h0a1.06,1.06,0,0,1,.11-.19h0s0-.08.06-.12h0s0-.08.06-.12h0s0-.08.06-.12h0c.06,0,0-.14.08-.17h0s0-.1.06-.13h0s0-.1.06-.13h0s0-.09.05-.12h0c.06,0,0-.14.07-.17h0s0-.09.05-.13h0c.05,0,0-.14.07-.18h0s0-.09.05-.13h0c.06,0,0-.13.06-.18h0c.05,0,0-.13.06-.18h0c0-.05,0-.13.06-.18h0c0-.05,0-.13.06-.18h0c.05,0,0-.13.05-.18a0,0,0,0,0,0,0c0-.06,0-.14.05-.19a0,0,0,0,0,0,0c0-.06,0-.14.05-.2a0,0,0,0,0,0,0c0-.08,0-.18.06-.26h0c.06-.07,0-.17.05-.24a.1.1,0,0,0,0-.09c0-.08,0-.18,0-.26v-.1c.06-.12,0-.26.05-.38a.1.1,0,0,0,0-.1c.07-.2,0-.41,0-.61a4.4,4.4,0,0,0,0-.95c-.07-.22,0-.45-.05-.67v-.1c-.06-.12,0-.25-.05-.37v-.1c0-.08,0-.18,0-.26V9a.53.53,0,0,1,0-.41h0s.07,0,.11,0h0a.2.2,0,0,1,.07.06h0A.17.17,0,0,1,50,8.7h0a.57.57,0,0,1,.12.18h0a.81.81,0,0,1,.12.18h0s0,.09.06.12h0s0,.09.06.11h0s0,.09.06.12h0s0,.09.05.12h0s0,.09.05.13h0c.07,0,0,.14.06.2a0,0,0,0,0,0,0c0,.05,0,.13.05.18h0c.07.07,0,.17.06.24h0c.07.07,0,.17.06.24h0c.07.07,0,.18.06.25a0,0,0,0,0,0,0c.05.08,0,.18.05.25a0,0,0,0,0,0,0c.06.08,0,.18.05.26a0,0,0,0,0,0,0c.07.11,0,.25.06.37a0,0,0,0,0,0,0c.06.1,0,.22.05.32a.2.2,0,0,0,0,.15c.06.16,0,.34,0,.5a.41.41,0,0,0,0,.21,6.85,6.85,0,0,1,0,1.3.24.24,0,0,0,0,.16C51.06,14.64,51.15,14.83,51.08,15Z"/><path class="cls-3" d="M23.74,70.62a0,0,0,0,0,0,0c.06,0,.14,0,.2.05a0,0,0,0,0,0,0c.06,0,.14,0,.2,0a0,0,0,0,0,0,0c.07.06.17,0,.25.05a0,0,0,0,0,0,0c.08.05.17,0,.25.05a0,0,0,0,0,0,0c.09.06.21,0,.31.06a0,0,0,0,0,0,0c.08,0,.18,0,.26,0a0,0,0,0,0,0,0c.09.06.21,0,.31.05h.09c.1.05.22,0,.32.05a0,0,0,0,0,0,0c.1.06.21,0,.31,0h.1c.12.06.26,0,.38.05a0,0,0,0,0,0,0c.12.06.25,0,.37.05h.1c.12.06.25,0,.37,0H28c.14.07.29,0,.43.05h.1c.14.06.29,0,.43.05h.1c.14.06.3,0,.44.05h.1c.18.07.37,0,.55.05h.1c.16.07.33,0,.49,0a.25.25,0,0,0,.16,0c.2.07.41,0,.61.05a.22.22,0,0,0,.15,0c.2.07.41,0,.61.05a.22.22,0,0,0,.16,0c.22.07.45,0,.67.05a.37.37,0,0,0,.21,0c.22.07.45,0,.67,0a.4.4,0,0,0,.22,0c.34.07.68,0,1,0s1,0,1.47,0c.79,0,1.58,0,2.37,0s1.32,0,2,0a1.23,1.23,0,0,0,.41,0,2.93,2.93,0,0,0,.63,0,9.89,9.89,0,0,1,1.07,0,.84.84,0,0,0,.31,0,1.53,1.53,0,0,0,.45,0c.4-.07.8,0,1.2,0a.88.88,0,0,0,.34,0c.36-.07.72,0,1.08,0a.63.63,0,0,0,.28,0c.3-.07.6,0,.9,0a.65.65,0,0,0,.28,0c.28-.07.56,0,.84,0a.25.25,0,0,0,.16,0c.24-.07.49,0,.73-.05a.38.38,0,0,0,.21,0c.24-.07.49,0,.73-.05a.24.24,0,0,0,.16,0c.2-.07.41,0,.61-.05a.25.25,0,0,0,.16,0c.18-.07.37,0,.55,0a.23.23,0,0,0,.16,0c.18-.07.37,0,.56-.05a.22.22,0,0,0,.15,0c.16-.07.33,0,.49-.05a.24.24,0,0,0,.16,0c.16-.06.33,0,.49,0h.1c.16-.07.33,0,.49-.05h.1c.14-.06.29,0,.43,0h.1c.14-.07.29,0,.43-.05h.1c.12-.06.26,0,.38,0h.09c.12-.07.26,0,.37-.05h.1c.1-.05.22,0,.32,0h.09c.1-.06.22,0,.32-.05h.1c.1-.06.21,0,.31-.05h.1c.08,0,.18,0,.26,0h.1c.08,0,.17,0,.25,0a0,0,0,0,0,0,0c.09-.07.21,0,.31-.05a0,0,0,0,0,0,0c.08-.06.18,0,.25-.05a0,0,0,0,0,0,0c.08-.06.18,0,.25-.05a0,0,0,0,0,0,0c.08-.06.18,0,.25-.05a0,0,0,0,0,0,0c.07-.06.17,0,.25-.05a0,0,0,0,0,0,0c.06,0,.14,0,.2,0a0,0,0,0,0,0,0c.07-.07.17,0,.25-.06a0,0,0,0,0,0,0c.06,0,.13,0,.19,0a0,0,0,0,0,0,0c.06,0,.13,0,.19-.05a0,0,0,0,0,0,0c.05,0,.13,0,.18-.05h0c.05-.06.14,0,.19-.06a0,0,0,0,0,0,0,.54.54,0,0,1,.14,0,0,0,0,0,0,0,0c.05-.05.13,0,.18-.06h0c0-.06.13,0,.18-.06h0c0-.06.13,0,.18-.06h0s.09,0,.13-.05h0c0-.07.13,0,.18-.07h0s.09,0,.13-.06h0s.08,0,.13-.06h0c0-.08.13,0,.17-.08h0s.09,0,.12-.06h0s0,0,.07,0h0c0-.05.08,0,.12-.07h0s.08,0,.12-.07h0a1.65,1.65,0,0,1,.18-.12h0a.14.14,0,0,1,.07-.06h0c.11-.09.2-.2.31-.3h0a.1.1,0,0,1,.06-.07h0s0-.09.07-.12h0s0-.09,0-.13a.1.1,0,0,0,0-.1.24.24,0,0,0,0-.21,0,0,0,0,0,0,0c0-.06,0-.14-.05-.2a0,0,0,0,0,0,0s0-.09-.05-.13h0c-.07,0,0-.13-.07-.17h0c0-.1.05-.1.12-.06h0s.09,0,.11.07h0a.13.13,0,0,1,.07.06h0a1.3,1.3,0,0,1,.36.35h0a.28.28,0,0,1,.06.07h0a.58.58,0,0,1,.12.18h0c.05,0,0,.09.06.14a0,0,0,0,0,0,0,.69.69,0,0,1,0,.41,0,0,0,0,0,0,0s0,.1-.06.14h0s0,0,0,.07h0s0,.09-.07.11h0a.11.11,0,0,1-.06.07h0a.16.16,0,0,1-.06.07h0l-.06.06h0l-.06.06h0l-.06.06h0l-.06.06h0l-.06.06h0a.13.13,0,0,1-.07.06h0a.09.09,0,0,1-.07.06h0c0,.05-.08,0-.1.08h0l-.06.05h0a.14.14,0,0,1-.07.06h0c0,.05-.08,0-.11.07h0l-.07.05h0s-.08,0-.11.07h0s0,0-.07.05h0s-.08,0-.12.07h0s0,0-.07,0h0c0,.06-.08,0-.12.07h0s-.08,0-.12.07h0s-.09,0-.12.06h0s-.09,0-.11.06h0s0,0-.07,0h0c0,.06-.09,0-.14.07h0v0s0,0-.07,0h0c0,.05-.08,0-.12.06h0c0,.05-.09,0-.13.07h0l0,0s-.09,0-.11.05h0s-.09,0-.12.06h0s-.09,0-.12.06h0s-.09,0-.13.06h0c0,.07-.13,0-.17.07h0s-.09,0-.13.05h0c0,.07-.13,0-.17.07h0s-.09,0-.13.05h0c0,.07-.13,0-.18.07h0c0,.06-.13,0-.18.06h0s-.09,0-.14.05h0s-.09,0-.13,0h0s-.09,0-.14,0h0a.72.72,0,0,1-.14,0h0s-.09,0-.14,0h0c-.05,0-.13,0-.18.05h0c-.05.05-.13,0-.18.06h0c-.05.06-.14,0-.2.06h0c-.05,0-.13,0-.19.05h0a.7.7,0,0,1-.14,0h0c-.06.05-.14,0-.19.05h0c-.06,0-.13,0-.19.05h0c-.06,0-.13,0-.19,0h0c-.06,0-.13,0-.19.05h0c-.06,0-.13,0-.19,0h0c-.06,0-.14,0-.2,0h0c-.07.06-.17,0-.24.06h0c-.07.07-.18,0-.25.06h0c-.08.06-.17,0-.25.05h0c-.07.06-.17,0-.25.05h0c-.07.05-.17,0-.25.05h0c-.08.05-.18,0-.25.05h0c-.08.06-.18,0-.26.05h-.09c-.08,0-.18,0-.25,0h0c-.1.07-.22,0-.32.05h0c-.1.07-.22,0-.32.05h-.1c-.1.06-.21,0-.31,0h-.1c-.1.06-.21,0-.31,0h0c-.12.07-.26,0-.38.05h-.1c-.12.06-.25,0-.37.05h-.1c-.12.06-.26,0-.37,0h-.1c-.14.07-.29,0-.43.05h-.1c-.16.07-.33,0-.49.05h-.1c-.16.07-.33,0-.49,0a.24.24,0,0,0-.16,0c-.18.07-.37,0-.55.05a.26.26,0,0,0-.16,0c-.2.07-.41,0-.61.05a.25.25,0,0,0-.16,0c-.2.07-.41,0-.61.05a.43.43,0,0,0-.22,0c-.24.07-.49,0-.73,0a.39.39,0,0,0-.22,0c-.26.07-.53,0-.79,0a.85.85,0,0,0-.33,0c-.32.07-.64,0-1,0a.63.63,0,0,0-.28,0c-.4.07-.8,0-1.2,0a1.51,1.51,0,0,0-.45,0,10.85,10.85,0,0,1-1.12,0,.85.85,0,0,0-.32,0,3.6,3.6,0,0,0-.69,0c-.59.05-1.18,0-1.76,0s-1.12,0-1.68,0a1.35,1.35,0,0,0-.44,0,7.4,7.4,0,0,0-1,0c-.76,0-1.53,0-2.3,0a3.55,3.55,0,0,0-.69,0,9.84,9.84,0,0,0-1.06,0,.82.82,0,0,1-.32,0,1.24,1.24,0,0,0-.4,0c-.32-.07-.64,0-1-.05a.63.63,0,0,0-.28,0c-.28-.07-.57,0-.84-.05a.39.39,0,0,0-.21,0c-.24-.07-.49,0-.73-.05a.37.37,0,0,0-.21,0c-.2-.07-.41,0-.61-.05a.21.21,0,0,0-.15,0c-.18-.06-.37,0-.55,0a.25.25,0,0,0-.16,0c-.2-.07-.41,0-.61-.05h-.1c-.16-.07-.33,0-.49-.05a.23.23,0,0,0-.16,0c-.14-.06-.29,0-.43,0h-.1c-.14-.06-.29,0-.43,0H24.4c-.11-.06-.25,0-.36-.05h-.11c-.12-.06-.25,0-.37,0h-.1c-.1-.06-.21,0-.31,0h-.1c-.1-.05-.22,0-.31,0h-.1c-.08,0-.18,0-.26,0h-.1c-.08,0-.18,0-.26,0H22c-.09-.07-.21,0-.3-.05h0c-.08-.05-.17,0-.25-.05h0c-.07-.05-.17,0-.25-.05h0c-.08-.05-.18,0-.25-.05h0c-.08-.05-.18,0-.25-.06h0c-.07-.06-.17,0-.24-.06h0c-.06,0-.14,0-.2,0h0c-.06,0-.14,0-.2-.05h0c-.06,0-.15,0-.2-.06h0c-.05,0-.13,0-.18-.06h0c0-.05-.13,0-.18-.06h0c0-.05-.13,0-.18-.06h0c0-.05-.13,0-.18-.06h0c0-.05-.14,0-.18-.07h0s-.09,0-.13-.06h0s-.09,0-.12-.05h0a.16.16,0,0,1-.08,0v0h0s-.11,0-.14-.07h0s-.1,0-.12-.06h0s-.05,0-.07,0h0s-.09,0-.11-.07h0l-.07-.05h0s-.09,0-.11-.07h0a.14.14,0,0,1-.07-.06h0l-.06-.06h0l-.06-.06h0l-.06-.06h0a.19.19,0,0,1-.06-.07h0s0-.08-.07-.11h0s0-.09-.06-.12h0c0-.06,0-.14-.05-.2a.37.37,0,0,0,0-.19c.05-.08,0-.18.06-.25h0c.05,0,0-.13.06-.18h0s0-.09.06-.12h0s0-.09.07-.12h0s0,0,0-.07h0s0-.09.07-.11h0a.16.16,0,0,1,.06-.07h0l.06-.06h0a.61.61,0,0,1,.18-.18h0l.06-.06h0l.06-.06h0a.2.2,0,0,1,.07-.06h0a.09.09,0,0,1,.07-.06h0c0-.06.08,0,.11-.08h0l.07-.05h0a.1.1,0,0,1,.07-.05h0c0-.06.08,0,.11-.07h0a.11.11,0,0,1,.07-.05h0c0-.06.08,0,.12-.07h0s.09,0,.11-.07h0s0,0,.07,0h0c0-.06.08,0,.12-.07h0s.08,0,.12-.07h0s.09,0,.12-.06h0s.09,0,.12-.06h0s.09,0,.12-.06h0c0-.07.13,0,.17-.07h0s.09,0,.12-.05h0s.09,0,.13-.06h0c0-.07.13,0,.18-.07h0a.4.4,0,0,1,.14-.05,0,0,0,0,0,0,0s.09,0,.13-.05a0,0,0,0,0,0,0s.09,0,.12,0h0c0-.06.13,0,.18-.06h0c0-.06.13,0,.18-.06h0c0-.06.13,0,.18-.06h0c.05-.07.14,0,.2-.06a0,0,0,0,0,0,0c.05,0,.13,0,.18-.05h0c.05-.06.14,0,.2-.06a0,0,0,0,0,0,0c.05,0,.13,0,.18-.05h0c.07-.07.17,0,.24-.06h0c.07-.07.17,0,.24-.06h0c.07-.07.17,0,.24-.06a.05.05,0,0,0,.05,0c.06,0,.13,0,.19,0a0,0,0,0,0,0,0c.06,0,.14,0,.2,0a0,0,0,0,0,0,0c.08-.06.18,0,.26-.05a0,0,0,0,0,0,0c.08-.06.18,0,.26-.05a0,0,0,0,0,0,0c.09-.07.21,0,.31-.06a0,0,0,0,0,0,0c.09-.06.21,0,.31-.05a0,0,0,0,0,0,0c.1-.06.22,0,.31-.05h.1c.1-.06.21,0,.31,0h.1c.12-.06.26,0,.38,0h.09c.16-.07.33,0,.49-.05a.23.23,0,0,0,.16,0,12,12,0,0,1,1.23,0,.26.26,0,0,1,.2.13c-.07.1-.19,0-.26.07h0c-.08.05-.18,0-.26,0H27c-.08.05-.17,0-.25,0h0c-.08.05-.18,0-.26.05h-.1c-.07.05-.17,0-.24.05h0c-.08.07-.18,0-.26.06h0c-.07.06-.18,0-.25.06h0c-.07.06-.17,0-.25.05h-.05c-.06,0-.13,0-.19,0h0c-.06,0-.13,0-.19,0h0c-.05,0-.13,0-.18.05h0c-.07.07-.17,0-.24.06h0c-.05.05-.13,0-.19.06h0a.71.71,0,0,1-.14,0h0s-.09,0-.14.05h0s-.09,0-.13,0h0c0,.07-.13,0-.18.06h0c0,.07-.13,0-.18.07h0s-.09,0-.13.05h0c0,.07-.13,0-.17.07h0s-.09,0-.12.06h0s-.09,0-.12.06h0s-.09,0-.13.06h0s-.08,0-.12.06h0s-.08,0-.12.06h0s-.08,0-.12.07h0a.13.13,0,0,1-.09.05,0,0,0,0,0,0,0l-.06,0h0a.13.13,0,0,1-.07.06h0a4.63,4.63,0,0,0-.36.36h0a.16.16,0,0,1-.05.07h0s0,.09-.06.12h0s0,.09-.05.12a0,0,0,0,0,0,0,.19.19,0,0,0,0,.2h0s0,.09.05.13h0c.05,0,0,.08.07.11h0l.06.06h0l.06.06h0c.05,0,.12.07.17.12h0s.09,0,.12.07h0s0,0,.07,0h0s.08,0,.11.06h0s.08,0,.11.06a0,0,0,0,0,0,0s.1,0,.14.06h0s.09,0,.12.05a0,0,0,0,0,0,0,.62.62,0,0,1,.14,0,0,0,0,0,0,0,0c.06,0,.14,0,.19.06h0c.05,0,.13,0,.18.06a0,0,0,0,0,0,0c.06,0,.14,0,.2.05h0C23.57,70.63,23.67,70.56,23.74,70.62Z"/><path class="cls-2" d="M43.05,36.24a0,0,0,0,0,0,0c0-.06,0-.14-.05-.2v0h0c-.07-.09,0-.21-.06-.3a0,0,0,0,0,0-.05c0-.08,0-.18,0-.26a.09.09,0,0,0,0-.09c-.07-.2,0-.41-.05-.61a1.82,1.82,0,0,0,0-.49c.07-.18,0-.37,0-.55v-.1c.06-.1,0-.22.05-.32a0,0,0,0,0,0,0c.05-.08,0-.18.06-.25h0c.06-.07,0-.17.06-.24h0c0-.05,0-.13.05-.18a0,0,0,0,0,0,0,.53.53,0,0,1,0-.14,0,0,0,0,0,0,0,.49.49,0,0,1,0-.14,0,0,0,0,0,0,0s0-.1.06-.14h0s0-.09.05-.13h0c.06,0,0-.13.07-.17h0s0-.09.06-.13h0s0-.09.06-.12h0s0-.09.06-.12h0s0-.09.06-.12h0s0-.09.06-.12h0s0-.09.07-.12h0a.8.8,0,0,1,.11-.19h0s0-.09.07-.12h0s0-.1.07-.12h0s0-.06.05-.07h0a.91.91,0,0,1,.12-.18h0a.73.73,0,0,1,.12-.18h0a.26.26,0,0,1,.05-.07h0s0-.09.08-.11h0a.08.08,0,0,1,.06-.07h0a.2.2,0,0,1,.05-.07h0c0-.05.07-.13.13-.17h0a.11.11,0,0,1,.06-.07h0a.21.21,0,0,1,.06-.07h0A.91.91,0,0,1,45,29.3h0a.08.08,0,0,1,.06-.07h0a.09.09,0,0,1,.06-.07h0a.11.11,0,0,1,.06-.07h0a.14.14,0,0,1,.06-.07h0a.18.18,0,0,1,.06-.06h0l.06-.06h0l.06-.06h0l.06-.06h0l.06-.06h0l.06-.06h0l.06-.06h0l.06-.06h0l.06-.06h0a.16.16,0,0,1,.06-.06h0a.12.12,0,0,1,.07-.06h0a.09.09,0,0,1,.07-.06h0A.07.07,0,0,1,46,28.3h0a1.4,1.4,0,0,1,.29-.25h0A.19.19,0,0,1,46.3,28h0a.1.1,0,0,1,.07-.06h0a1.17,1.17,0,0,1,.23-.19h0a.19.19,0,0,1,.07-.06h0a.09.09,0,0,1,.07-.06h0c0-.07.11-.09.17-.13h0a.13.13,0,0,1,.07-.06h0c0-.06.12-.08.17-.13h0a.22.22,0,0,1,.07-.05h0a1,1,0,0,1,.18-.13h0a.14.14,0,0,1,.07-.05h0A.53.53,0,0,1,47.6,27h0a.1.1,0,0,1,.07-.06h0c0-.06.08,0,.11-.08h0a.15.15,0,0,1,.07-.05h0c0-.05.08,0,.11-.07h0A.15.15,0,0,1,48,26.7h0c0-.05.08,0,.11-.07h0a.16.16,0,0,1,.07-.05h0c0-.05.08,0,.11-.07h0a.15.15,0,0,1,.07-.05h0c0-.05.08,0,.11-.07h0s0,0,.08,0h0c0-.06.08,0,.12-.07h0s.08,0,.11-.07h0s0,0,.07,0h0c0-.05.08,0,.12-.07h0a.63.63,0,0,1,.19-.11h0c0-.05.08,0,.12-.07h0s.09,0,.12-.07h0s0,0,.08,0h0c0-.06.08,0,.12-.07h0s.08,0,.12-.07h0s.09,0,.12-.06h0a.73.73,0,0,1,.19-.11h0c0-.06.08,0,.12-.07h0s.08,0,.12-.07h0s.09,0,.12-.06h0s.09,0,.12-.06h0s.09,0,.12-.06h0s.09,0,.12-.06h0s.09,0,.12-.06h0s.09,0,.12-.06h0S51,25,51,25h0s.09,0,.12-.06h0s.09,0,.12-.06h0s.09,0,.12-.06h0s.09,0,.12-.06h0s.09,0,.12-.06h0s.09,0,.12-.06h0s.08,0,.13-.06h0c0-.08.13,0,.17-.08h0s.09,0,.12-.06h0s.09,0,.12-.06h0s.09,0,.13-.06h0s.08,0,.13-.06h0c0-.08.13,0,.17-.07h0s.09,0,.13-.06h0s.09,0,.13-.06h0c0-.08.13,0,.17-.07h0s.09,0,.13-.05h0c0-.07.13,0,.17-.07h0s.09,0,.12-.05h0s.09,0,.14-.06a0,0,0,0,0,0,0s.09,0,.12-.05h0s.09,0,.14-.06a0,0,0,0,0,0,0s.09,0,.12-.05h0c0-.06.13,0,.18-.07h0s.09,0,.13-.05h0c0-.07.13,0,.18-.07h0c0-.06.13,0,.18-.06h0a.46.46,0,0,1,.14-.05,0,0,0,0,0,0,0s.09,0,.13,0h0c0-.07.13,0,.18-.06h0c0-.06.13,0,.18-.06h0c0-.05.13,0,.18-.06h0c0-.05.13,0,.18-.06h0a.44.44,0,0,1,.15-.05h0a.46.46,0,0,1,.14,0,0,0,0,0,0,0,0c0-.05.13,0,.18-.06h0c0-.05.13,0,.18-.06h0c0-.05.13,0,.18-.06h0c0-.06.13,0,.18-.06h0c.05-.06.14,0,.2-.06a0,0,0,0,0,0,0c.05,0,.13,0,.18-.06h0c.05-.05.13,0,.18-.06h0c.07-.07.17,0,.24-.06h0s.08,0,.11,0h0s0,.07,0,.11h0a.59.59,0,0,1-.18.12h0s-.08,0-.11.07h0s0,0-.07,0h0c0,.06-.08,0-.12.07h0a.69.69,0,0,1-.18.12h0S57,23,57,23h0s0,0-.07.05h0c0,.05-.08,0-.11.07h0a1.1,1.1,0,0,1-.18.12h0a.62.62,0,0,1-.18.12h0s-.08,0-.11.07h0a.15.15,0,0,1-.07.05h0c0,.05-.08,0-.11.07h0s0,0-.07.05h0c0,.06-.08,0-.12.07h0s-.09,0-.11.07h0s0,0-.07,0h0s-.08,0-.11.07h0a.17.17,0,0,1-.07.05h0c0,.05-.08,0-.11.07h0s0,0-.07.05h0c0,.06-.08,0-.11.07h0s0,.05-.07.05h0c0,.06-.08,0-.11.07h0s0,.05-.07.05h0c0,.06-.08,0-.11.07h0a.88.88,0,0,1-.18.12h0s-.09,0-.11.07h0l-.07,0h0a.93.93,0,0,1-.18.12h0s0,.05-.07.05h0c0,.06-.08,0-.11.08h0a.11.11,0,0,1-.07.05h0c0,.06-.08,0-.11.08h0A.12.12,0,0,1,54,25h0c0,.05-.08,0-.11.07h0a.16.16,0,0,1-.07.05h0a.49.49,0,0,1-.18.13h0a.8.8,0,0,1-.18.12h0a.11.11,0,0,1-.07.05h0c0,.06-.08,0-.11.08h0a.17.17,0,0,1-.07.05h0a.55.55,0,0,1-.18.13h0a.09.09,0,0,1-.07.05h0c0,.06-.08,0-.11.08h0a.21.21,0,0,1-.07.05h0a.86.86,0,0,1-.18.13h0a.14.14,0,0,1-.07.05h0a.6.6,0,0,1-.18.13h0a.11.11,0,0,1-.07.05h0c0,.07-.11.09-.17.13h0a.12.12,0,0,1-.07.06h0c0,.07-.12.09-.17.13h0a.15.15,0,0,1-.07.06h0c0,.06-.12.08-.17.13h0a.21.21,0,0,1-.07.05h0a.08.08,0,0,1-.07.06h0c0,.07-.11.09-.17.13h0a.15.15,0,0,1-.07.06h0a.08.08,0,0,1-.07.06h0c0,.07-.11.09-.17.13h0a.17.17,0,0,1-.07.06h0a.09.09,0,0,1-.07.06h0c0,.07-.12.09-.17.13h0a.21.21,0,0,1-.07.06h0a.11.11,0,0,1-.07.06h0a.08.08,0,0,1-.07.06h0c0,.07-.12.08-.16.14h0l-.06.06h0a.19.19,0,0,1-.07.06h0a.11.11,0,0,1-.07.06h0a.07.07,0,0,1-.07.06h0a1,1,0,0,1-.22.2h0l-.06.06h0l-.06.06h0a.19.19,0,0,1-.06.06h0a.13.13,0,0,1-.07.06h0a.1.1,0,0,1-.07.06h0a.09.09,0,0,1-.07.06h0a.07.07,0,0,1-.07.06h0l-.78.77h0a.07.07,0,0,1-.06.07h0a.08.08,0,0,1-.06.07h0a.11.11,0,0,1-.06.07h0a.14.14,0,0,1-.06.07h0a.21.21,0,0,1-.06.06h0l-.06.06h0c-.05,0-.06.13-.14.16h0a.07.07,0,0,1-.06.07h0a.11.11,0,0,1-.06.07h0a.21.21,0,0,1-.06.07h0c0,.05-.07.13-.13.17h0a.12.12,0,0,1-.06.07h0c0,.06-.06.14-.13.17h0s0,.06-.05.07h0a.66.66,0,0,1-.12.18h0a.55.55,0,0,1-.12.18h0s0,0-.05.07h0s0,.09-.07.11h0s0,.1-.07.12h0s0,.05,0,.08h0s0,.09-.06.12h0s0,.09-.06.12h0s0,.09-.06.12h0s0,.09-.06.12h0s0,.09-.06.12h0c-.06,0,0,.14-.07.17h0s0,.09,0,.13h0c-.05,0,0,.13-.06.18h0c0,.05,0,.13-.05.18a0,0,0,0,0,0,0c0,.06,0,.14,0,.2a.09.09,0,0,0,0,.09c-.06.14,0,.3,0,.44a.28.28,0,0,0,0,.18c.07.16,0,.33.05.48a0,0,0,0,0,0,0c.06.07,0,.17.06.24h0c.05.06,0,.14.05.2a0,0,0,0,0,0,0s0,.09,0,.13h0c.07,0,0,.13.07.18h0s0,.09.06.12h0s0,.09.06.13h0c.05,0,0,.09.06.14a0,0,0,0,0,0,0s0,0,0,.07h0c.05,0,0,.08.07.12h0c.05,0,0,.08.07.12h0s0,.08.06.12h0s0,.09.07.12h0a.83.83,0,0,1,.11.19h0s0,.08.07.12h0a.8.8,0,0,1,.12.18h0s0,.08.07.11h0s0,0,0,.07h0c.05,0,0,.08.07.11h0s0,0,.05.07h0c.05,0,0,.08.07.11h0s.05,0,.05.07h0c.06,0,0,.08.07.11h0a.93.93,0,0,1,.12.18h0s0,.09.07.11h0s0,0,0,.07h0a.66.66,0,0,1,.12.18h0a.6.6,0,0,1,.12.18h0s0,.08.07.11h0s0,0,0,.07h0s0,.08.07.11h0s0,0,0,.07h0c.06,0,0,.08.07.12h0a.74.74,0,0,1,.12.18h0s0,.08.07.11h0s0,0,0,.07h0c.06,0,0,.08.07.12h0s0,.08.07.12h0s0,.09.06.11h0s0,0,0,.07h0c.05,0,0,.08.07.12h0s0,.08.07.12h0s0,.09.06.12h0s0,.09.06.12h0s0,.09.06.12h0s0,.09.06.12h0s0,.09.06.12h0s0,.09.06.13h0c.05,0,0,.09.06.14v0h0s0,.09.05.12h0s0,.09.05.14a0,0,0,0,0,0,0s0,.09,0,.13h0c.07,0,0,.13.07.18h0c.06,0,0,.13.06.18h0c.06,0,0,.13.06.18h0c.08.06,0,.17.06.24h0c.07.07,0,.18.06.25a0,0,0,0,0,0,0c.06.1,0,.22.05.31v.1a2,2,0,0,1,0,.71v.1c-.06.1,0,.22-.05.32h0v0c0,.06,0,.14-.05.21h0v0a.5.5,0,0,1,0,.14,0,0,0,0,0,0,0,.49.49,0,0,1,0,.14h0v0s0,.11-.06.14h0s0,.09-.06.13h0s0,.09-.06.12h0s0,.09-.06.12h0S50,44,50,44h0s0,.09-.06.12h0s0,.1-.07.12h0a.55.55,0,0,1-.11.19h0s0,.1-.07.11h0s0,.06-.05.07h0s0,.1-.08.11h0a.09.09,0,0,1-.05.07h0a.45.45,0,0,1-.05.07h0s0,.09-.08.11h0a.1.1,0,0,1-.06.07h0a.36.36,0,0,1-.05.07h0c-.05.05-.07.13-.13.17h0a.09.09,0,0,1-.06.07h0a.16.16,0,0,1-.06.07h0a2.64,2.64,0,0,1-.37.41h0a.07.07,0,0,1-.06.07h0a.08.08,0,0,1-.06.07h0a.08.08,0,0,1-.06.07h0a.09.09,0,0,1-.07.07h0a.08.08,0,0,1-.07.06h0a.08.08,0,0,1-.07.06h0a.07.07,0,0,1-.07.06h0a.07.07,0,0,1-.07.06h0a1.51,1.51,0,0,1-.29.25h0l-.06.06h0a.17.17,0,0,1-.07.06h0a.12.12,0,0,1-.07.06h0a.09.09,0,0,1-.07.06h0a1.08,1.08,0,0,1-.23.19h0a.2.2,0,0,1-.07.06h0a.09.09,0,0,1-.07.06h0c0,.07-.12.09-.17.13h0a.22.22,0,0,1-.07.06h0a.1.1,0,0,1-.07.06h0c0,.07-.12.09-.17.13h0a.13.13,0,0,1-.07.05h0a.49.49,0,0,1-.18.13h0a.09.09,0,0,1-.07.06h0c0,.06-.08,0-.11.08h0a.17.17,0,0,1-.07.05h0a.63.63,0,0,1-.18.13h0a.91.91,0,0,1-.18.12h0a.81.81,0,0,1-.18.12h0a.74.74,0,0,1-.18.12h0a.64.64,0,0,1-.18.12h0s-.08,0-.12.07h0c-.07,0-.12,0-.12-.06h0s0-.09.07-.12h0s0,0,.05-.07h0s0-.09.08-.11h0a.11.11,0,0,1,.05-.07h0a.77.77,0,0,1,.13-.18h0a.21.21,0,0,1,.05-.07h0s0-.09.08-.11h0a.1.1,0,0,1,.05-.07h0a.68.68,0,0,1,.12-.18h0s0,0,.05-.07h0s0-.09.07-.11h0a.62.62,0,0,1,.12-.18h0a.85.85,0,0,1,.12-.18h0s0-.09.07-.12h0a.66.66,0,0,1,.11-.19h0s0-.09.07-.12h0s0-.1.07-.12h0s0-.05,0-.08h0s0-.08.06-.12h0s0-.08.06-.12h0s0-.09.06-.12h0s0-.09.06-.12h0s0-.09.06-.12h0c.06,0,0-.13.07-.17h0s0-.09,0-.13a0,0,0,0,0,0,0,.56.56,0,0,1,0-.14,0,0,0,0,0,0,0c0-.06,0-.13,0-.19a0,0,0,0,0,0-.05c.07-.13,0-.29.05-.42a.83.83,0,0,0,0-.36c-.06-.12,0-.26,0-.37a0,0,0,0,0,0,0c-.06-.07,0-.17-.06-.24h0c-.06,0,0-.13-.06-.18h0c-.06,0,0-.13-.06-.18h0s0-.09-.05-.13h0c-.08,0,0-.13-.08-.17h0s0-.09-.06-.12h0a.65.65,0,0,1-.1-.19h0c-.06,0,0-.08-.07-.12h0c-.05,0,0-.08-.07-.12h0s0-.09-.07-.12h0s0,0,0-.08h0c-.06,0,0-.08-.07-.12h0a.65.65,0,0,1-.12-.18h0s0-.08-.07-.11h0s0,0-.05-.07h0a.56.56,0,0,1-.12-.18h0a.83.83,0,0,1-.12-.18h0a.11.11,0,0,1-.05-.07h0c-.05,0,0-.08-.08-.11h0a.18.18,0,0,1-.05-.07h0a.59.59,0,0,1-.13-.18h0a.09.09,0,0,1-.05-.07h0c-.06,0,0-.08-.08-.11h0a.15.15,0,0,1-.05-.07h0a.51.51,0,0,1-.13-.18h0a1,1,0,0,1-.12-.18h0a.12.12,0,0,1-.05-.07h0c-.05,0,0-.08-.08-.11h0A.22.22,0,0,1,45,40h0s0-.08-.07-.11h0l-.05-.07h0a.1.1,0,0,1-.05-.07h0c-.06,0,0-.08-.08-.11h0a.17.17,0,0,1-.05-.07h0a.57.57,0,0,1-.13-.18h0s-.05,0-.05-.07h0c-.06,0,0-.08-.08-.11h0a.11.11,0,0,1-.05-.07h0c-.06,0,0-.08-.07-.11h0A.11.11,0,0,1,44.3,39h0c-.06,0,0-.08-.07-.11h0s0,0-.05-.07h0c-.06,0,0-.08-.07-.12h0s0-.08-.07-.12h0s0,0,0-.08h0c-.06,0,0-.08-.07-.12h0s0-.08-.07-.12h0s0-.09-.06-.12h0s0-.09-.06-.12h0s0-.09-.06-.12h0s0-.09-.06-.12h0s0-.09-.06-.12h0s0-.09-.06-.13h0s0-.08-.06-.13h0c-.08,0,0-.13-.07-.18h0s0-.09-.06-.14a0,0,0,0,0,0,0s0-.09-.05-.12h0c-.06,0,0-.13-.06-.18h0c-.06,0,0-.13-.06-.18h0c-.07-.05,0-.14-.06-.2a0,0,0,0,0,0,0C43.06,36.38,43.09,36.3,43.05,36.24Z"/><path class="cls-3" d="M43.09,67.13a1.23,1.23,0,0,0-.4,0,18.51,18.51,0,0,1-2.12,0,1.21,1.21,0,0,0-.39,0c-.28-.07-.57,0-.85-.05a.38.38,0,0,0-.22,0c-.22-.07-.45,0-.67-.05a.22.22,0,0,0-.16,0c-.18-.06-.37,0-.55,0a.24.24,0,0,0-.16,0c-.14-.06-.3,0-.44-.05H37c-.12-.06-.26,0-.38,0h-.11c-.12-.06-.25,0-.37-.05h-.1c-.1-.05-.22,0-.32-.05h0c-.1-.06-.21,0-.31-.05h0c-.08-.05-.17,0-.25,0h-.05c-.09-.07-.21,0-.3-.06h0c-.06,0-.14,0-.2,0h0c-.07-.06-.17,0-.25-.06h0c-.06,0-.14,0-.2,0h0c-.06,0-.13,0-.19-.05h0c-.06,0-.14,0-.19-.05h0c-.06,0-.14,0-.2-.06h0c-.05,0-.13,0-.18-.06h0c0-.05-.13,0-.18-.06h0a.45.45,0,0,1-.15-.05h0c0-.06-.13,0-.18-.06h0c0-.05-.13,0-.18-.06h0s-.09,0-.12-.05h0s-.11,0-.14-.06h0s-.09,0-.12-.05h0s-.08,0-.12-.06h0c0-.06-.14,0-.17-.08h0s-.1,0-.12-.06h0s-.05,0-.07,0h0s-.09,0-.12-.07h0s-.1,0-.12-.07h0a.17.17,0,0,1-.07-.05h0s-.09,0-.11-.07h0a.15.15,0,0,1-.07-.06h0c-.06,0-.13-.07-.17-.13h0a.1.1,0,0,1-.07-.06h0a.14.14,0,0,1-.07-.06h0a.18.18,0,0,1-.06-.06h0a.16.16,0,0,1-.06-.06h0a.12.12,0,0,1-.06-.07h0a.68.68,0,0,1-.13-.18h0s0-.09-.07-.11h0s0-.09-.06-.12h0s0-.09-.05-.14a0,0,0,0,0,0,0,1.4,1.4,0,0,1,0-.59,0,0,0,0,0,0,0s0-.1.05-.13a0,0,0,0,0,0,0,.17.17,0,0,1,0-.09h0s0-.08.06-.11h0s0-.1.08-.11h0A.09.09,0,0,1,30.6,63h0a.15.15,0,0,1,.06-.07h0l.06-.06h0l.06-.06h0l.06-.06h0a.14.14,0,0,1,.07-.06h0a.09.09,0,0,1,.07-.06h0c0-.06.08,0,.11-.08a.21.21,0,0,1,.07-.05h0s.08,0,.11-.07h0a.17.17,0,0,1,.07-.05h0c0-.05.08,0,.12-.07h0s.09,0,.12-.06h0s.09,0,.11-.06h0s.09,0,.12-.06h0s.09,0,.12-.06h0s.09,0,.12-.06h0s.09,0,.12-.06h0s.09,0,.14-.06a0,0,0,0,0,0,0s.09,0,.14,0a0,0,0,0,0,0,0,.61.61,0,0,1,.14,0,0,0,0,0,0,0,0c.06,0,.13,0,.19-.05a0,0,0,0,0,0,0c.23,0,.24,0,.23.12h0s0,.1-.07.12h0a.16.16,0,0,1-.05.07h0s0,.09-.06.12h0s0,.09,0,.12a0,0,0,0,0,0,.05.47.47,0,0,0,0,.33,0,0,0,0,0,0,0s0,.09.05.12h0c.05.05.07.12.13.17h0c0,.06.13.07.17.13h0a.14.14,0,0,1,.07.05h0s.09,0,.12.07h0s.1,0,.12.06h0s.09,0,.13.06h0s.09,0,.12.05a0,0,0,0,0,0,0s.09,0,.13,0a0,0,0,0,0,0,0c.06,0,.13,0,.19.05a0,0,0,0,0,0,0c.06,0,.14,0,.19.05a0,0,0,0,0,0,0c.07.05.17,0,.25.05a0,0,0,0,0,0,0c.11.07.25,0,.36.05h.1c.24.07.49,0,.73.05a.84.84,0,0,0,.33,0c.32.07.65,0,1,0a2.26,2.26,0,0,0,.57,0,.88.88,0,0,0,.35,0h3.39a.75.75,0,0,0,.32,0,.88.88,0,0,0,.34,0c.32-.07.64,0,1-.05a.42.42,0,0,0,.22,0c.24-.07.49,0,.73,0a.4.4,0,0,0,.22,0c.2-.07.41,0,.61,0a.22.22,0,0,0,.16,0c.16-.07.33,0,.49-.05a.25.25,0,0,0,.16,0c.14-.06.3,0,.44,0h.09c.14-.07.29,0,.43-.05h.1c.1-.06.21,0,.31,0h.1c.1-.06.21,0,.31,0a0,0,0,0,0,0,0c.1-.06.22,0,.32-.05H48c.08-.05.17,0,.25,0a0,0,0,0,0,0,0c.07-.06.17,0,.25-.05a0,0,0,0,0,0,0c.07-.06.17,0,.24-.05h0c.07-.07.17,0,.24-.06h0c.07-.07.17,0,.24-.06h0a.82.82,0,0,1,.47,0,0,0,0,0,0,0,0s.11,0,.14.07h0s0,0,.07,0h0s.09,0,.11.07h0s.1,0,.12.07h0a.18.18,0,0,1,.07,0h0s.09,0,.11.07h0s.1,0,.12.07h0a.15.15,0,0,1,.07.05h0s.09,0,.12.07h0s.1,0,.12.07h0s.05,0,.07,0h0s.09,0,.11.06h0s.09,0,.12.07h0s.1,0,.12.07h0s0,0,.07,0h0s.08,0,.11.06h0s.09,0,.12.06h0s.09,0,.12.07h0s.1,0,.12.06h0s.1,0,.12.07h0s.1,0,.12.06h0s0,0,.07,0a0,0,0,0,0,0,0s.11,0,.14.07h0s.1,0,.13.06h0s.1,0,.12.06h0s.09,0,.13.06h0s.09,0,.12.06h0s.09,0,.12.05a0,0,0,0,0,0,0s.11,0,.14.06h0s.09,0,.13.05h0c0,.06.14,0,.18.07h0s.1,0,.12.07h0s0,0,0,0h0c0,.06-.08,0-.12.07h0c0,.07-.13,0-.18.07h0s-.09,0-.14.06h0s-.09,0-.14.05h0s-.09,0-.14,0h0a.51.51,0,0,1-.14,0h0c-.05.05-.13,0-.18.06h0c-.05.06-.14,0-.19.06h0c-.05,0-.13,0-.18.05h0c-.05.05-.13,0-.18.06h0c-.05.06-.14,0-.2.06h0c-.05,0-.13,0-.18.05h0c-.05.06-.14,0-.19.06h0c-.05,0-.13,0-.18.05h0c-.06.06-.14,0-.2.06h0c-.05,0-.13,0-.19.05h0c-.05,0-.13,0-.18.05h0C50.12,66,50,66,50,66h0c-.06,0-.14,0-.2.05h0c-.06,0-.14,0-.2.05h0c-.06,0-.14,0-.2.05h0c-.06,0-.14,0-.2.05h0c-.07.06-.17,0-.25.06h-.05c-.06,0-.13,0-.19,0h0c-.07.06-.17,0-.24.05h0c-.08.07-.18,0-.26.06h0c-.08.06-.18,0-.25.05h0c-.08.06-.18,0-.26.05h0c-.08.06-.18,0-.26.05H47c-.08,0-.17,0-.25,0h0c-.1.07-.21,0-.31.05h0c-.1.06-.22,0-.31.05h-.1c-.1.05-.22,0-.31,0h-.1c-.1.06-.22,0-.32,0h-.1c-.14.07-.29,0-.43.05h-.1c-.18.07-.37,0-.55.05a.25.25,0,0,0-.16,0C43.61,67.15,43.35,67.06,43.09,67.13Z"/><path class="cls-3" d="M53.25,57.92h0a.65.65,0,0,1-.14,0h0c-.05.05-.13,0-.19.05h0c-.05,0-.13,0-.18.05h0c-.06.05-.14,0-.2.06h0c-.06,0-.14,0-.19.05h0c-.05,0-.13,0-.18.05h0c-.07.07-.17,0-.24.06h0c-.07.07-.17,0-.24.06h0c-.07.07-.17,0-.24.06h0c-.07.07-.17,0-.24.06h0c-.07.07-.17,0-.25.06h0c-.06,0-.14,0-.2,0h0c-.07.06-.17,0-.25.06h0c-.06,0-.14,0-.2,0h0c-.08.06-.18,0-.25.05h0c-.08.06-.18,0-.26.05h0c-.08.06-.18,0-.26.05h0c-.08.06-.18,0-.26.05h-.09c-.08.05-.18,0-.26,0h0c-.1.07-.22,0-.31.06h0c-.1.06-.22,0-.31.05h-.1c-.1.06-.21,0-.31,0h0c-.11.07-.25,0-.37.06h0c-.14.07-.29,0-.43.05h-.1c-.12.06-.25,0-.37,0h-.1c-.16.07-.34,0-.5.05a.22.22,0,0,0-.15,0c-.18.07-.37,0-.55,0a.61.61,0,0,0-.27,0c-.22.06-.45,0-.67,0a1.26,1.26,0,0,0-.39,0,13.14,13.14,0,0,1-1.46,0,15,15,0,0,1-1.55,0,1.55,1.55,0,0,0-.45,0c-.4-.07-.8,0-1.2,0a1.66,1.66,0,0,0-.46,0c-.34-.07-.68,0-1,0a.65.65,0,0,0-.28,0c-.2-.07-.41,0-.61-.05a.25.25,0,0,0-.16,0c-.2-.07-.41,0-.61,0a.24.24,0,0,0-.16,0c-.16-.06-.33,0-.49-.05h-.1c-.14-.06-.29,0-.43,0h-.11c-.14-.07-.29,0-.43-.05h0c-.12-.06-.25,0-.36,0h-.1c-.1-.06-.21,0-.31-.05h-.09c-.1-.05-.22,0-.32-.05h0c-.08,0-.18,0-.25,0h-.05c-.09-.07-.21,0-.3-.06h0c-.08-.05-.18,0-.25-.05h0c-.08,0-.18,0-.26-.05h0c-.06,0-.14,0-.2,0h0c-.06,0-.13,0-.19,0h0c-.06,0-.13,0-.19-.05h0c-.06,0-.14,0-.19-.06h0c-.05,0-.13,0-.18-.06h0a.38.38,0,0,1-.14-.05h0c0-.05-.13,0-.18-.07h0s-.09,0-.12-.05h0s-.1,0-.14-.06h0s-.09,0-.12-.05h0s-.08,0-.11-.05l0,0h0s-.11,0-.14-.06h0s-.1,0-.12-.06h0s0,0-.07,0h0s-.09,0-.11-.07h0a.78.78,0,0,1-.18-.13h0a.15.15,0,0,1-.07-.06h0l-.06-.06h0l-.06-.06h0a.2.2,0,0,1-.06-.06h0a.1.1,0,0,1-.06-.07h0c-.06,0,0-.08-.07-.12h0s0-.09-.06-.12h0c-.06-.05,0-.14-.06-.2v-.09a.26.26,0,0,1,0-.23v-.1c0-.06,0-.14.05-.2a0,0,0,0,0,0,0s0-.1.06-.14h0s0-.09.06-.12h0s0-.09.06-.12h0s0-.09.07-.12h0s0,0,.05-.07h0s0-.09.07-.11h0a.13.13,0,0,1,.06-.07h0l.06-.07h0l.06-.06h0l.06-.06h0l.06-.06h0a.2.2,0,0,1,.07-.06h0a.12.12,0,0,1,.07-.06h0a.08.08,0,0,1,.07-.06h0c0-.06.08,0,.11-.08h0a.16.16,0,0,1,.07-.05h0s.08,0,.11-.07h0a.19.19,0,0,1,.07-.05h0c0-.05.08,0,.12-.07h0s.09,0,.12-.07h0s.09,0,.11-.06h0a1.93,1.93,0,0,1,.23-.12h0s.09,0,.12-.05h0s.09,0,.13-.06h0c0-.07.13,0,.18-.07h0c0-.06.13,0,.18-.06h0c0-.05.13,0,.18-.06h0c.06-.06.14,0,.2-.06a0,0,0,0,0,0,0c.07-.06.17,0,.24-.06h0c.08-.06.18,0,.26-.06a0,0,0,0,0,0,0c.09,0,.08,0,.05.06a1.91,1.91,0,0,1-.24.28h0a.11.11,0,0,1-.06.07h0a.21.21,0,0,1-.06.07h0a.92.92,0,0,1-.13.18h0s0,.1-.07.12h0s0,0,0,.07a0,0,0,0,0,0,0,.4.4,0,0,1-.05.14h0a.66.66,0,0,0,0,.42h0s0,.09.05.13h0s0,.08.07.12h0a.19.19,0,0,1,.06.07h0a.13.13,0,0,1,.06.06h0a.15.15,0,0,1,.07.06h0l.07.06h0s.09,0,.11.07h0a.18.18,0,0,1,.07.05h0s.09,0,.12.06h0s.09,0,.12.06h0s.09,0,.12.06h0c0,.06.13,0,.17.07h0c.05,0,.14,0,.18.06h0c.05,0,.13,0,.18.06h0c.06,0,.14,0,.2.05a0,0,0,0,0,0,0c.08,0,.18,0,.26.05h0c.07.06.17,0,.24.05h.1c.1.06.22,0,.31.05a0,0,0,0,0,0,0c.13.07.29,0,.42.05h.09c.16.06.34,0,.5,0a.24.24,0,0,0,.16,0c.26.07.53,0,.79.05a.57.57,0,0,0,.28,0,.46.46,0,0,0,.23,0h3.83a.46.46,0,0,0,.23,0,.6.6,0,0,0,.28,0c.34-.07.68,0,1-.05a.91.91,0,0,0,.34,0c.26-.07.53,0,.78,0a.42.42,0,0,0,.22,0c.22-.07.45,0,.67,0a.39.39,0,0,0,.21,0c.2-.07.41,0,.61,0a.23.23,0,0,0,.16,0c.18-.07.37,0,.55-.05a.26.26,0,0,0,.16,0c.16-.06.33,0,.49,0a.25.25,0,0,0,.16,0c.14-.06.29,0,.43,0a.25.25,0,0,0,.16,0c.14-.06.29,0,.43,0h.11c.12-.06.25,0,.37,0h.1c.14-.07.29,0,.43-.05a0,0,0,0,0,0,0c.12-.07.26,0,.38-.05h.1c.12-.07.25,0,.37-.05a0,0,0,0,0,0,0c.12-.07.25,0,.37-.05a0,0,0,0,0,0,0c.11-.07.25,0,.37-.06a0,0,0,0,0,0,0c.1-.06.22,0,.32-.05H50c.09-.06.21,0,.31-.05a0,0,0,0,0,0,0c.09-.06.21,0,.3-.05a0,0,0,0,0,.05,0c.08-.05.18,0,.26,0h.09c.08,0,.18,0,.26,0a.25.25,0,0,0,.15,0,.09.09,0,0,1,.12,0,0,0,0,0,0,0,0c.05,0,.14,0,.19.06h0s.09,0,.12.07h0A.17.17,0,0,1,52,56h0l.06.05h0s.09,0,.1.08h0a.09.09,0,0,1,.07.06h0a.18.18,0,0,1,.07.06h0l.06.05h0s.09,0,.1.08h0a.09.09,0,0,1,.07.06h0a.17.17,0,0,1,.07.06h0a.91.91,0,0,1,.18.13h0a.27.27,0,0,1,.07.05h0s.09,0,.11.07h0a.21.21,0,0,1,.07.05h0s.09,0,.11.07h0s0,0,.07,0h0s.08,0,.11.06h0s.09,0,.12.07h0s.09,0,.12.06h0s.09,0,.12.06h0s.09,0,.12.06h0s.09,0,.12.05a0,0,0,0,0,0,0s.1,0,.14.06h0c.05,0,.13,0,.18.06h0c0,.05.14,0,.18.07h0c.05.12-.09.06-.11.11h0s-.09,0-.13.05h0c0,.07-.13,0-.18.07h0c0,.06-.13,0-.18.06h0c0,.06-.13,0-.18.06h0c-.05.06-.14,0-.2.06h0C53.38,57.92,53.3,57.88,53.25,57.92Z"/><path class="cls-3" d="M28.46,51.73h-.11c-.16-.07-.33,0-.48-.05h-.1c-.12-.06-.26,0-.37-.05h-.1c-.12-.06-.26,0-.38-.05h0c-.13-.07-.29,0-.42-.06h0c-.1-.06-.21,0-.31-.05H26c-.08,0-.18,0-.26,0h-.09c-.08,0-.18,0-.26-.05h0c-.08,0-.18,0-.26-.05h0c-.06,0-.14,0-.2,0h0c-.06,0-.13,0-.19,0h0c-.06,0-.13,0-.19-.05h0c-.06,0-.14,0-.19-.06h0C24.11,51,24,51,24,51h0a.51.51,0,0,1-.14,0h0s-.1,0-.14,0h0s-.1,0-.14-.06h0s-.09,0-.12-.06h0s-.09,0-.12-.06h0s-.09,0-.12-.07h0s0,0-.07-.05h0s-.09,0-.11-.08h0a.08.08,0,0,1-.07-.06h0a.09.09,0,0,1-.06-.07h0c-.05,0,0-.08-.07-.11h0c-.05-.06,0-.14-.05-.2h0c0-.06,0-.14.06-.2h0s0-.1.07-.12h0a.11.11,0,0,1,.06-.07h0a.22.22,0,0,1,.06-.06h0l.06-.06h0l.06-.06h0l.06-.06h0a.14.14,0,0,1,.07-.06h0c0-.06.12-.08.17-.13h0a.15.15,0,0,1,.07-.05h0c0-.05.08,0,.12-.07h0a.13.13,0,0,1,.09-.05,0,0,0,0,0,0,0l.07,0h0s.08,0,.12-.07h0s.09,0,.12-.06h0s.09,0,.12-.06h0s0,0,.07,0h0c0-.06.08,0,.12-.07h0c0-.06.09,0,.14-.07a0,0,0,0,0,0,0s0,0,.07,0h0c0-.06.09,0,.14-.07a0,0,0,0,0,0,0s.09,0,.12-.05h0s.09,0,.12-.06h0s.09,0,.12-.06h0s.09,0,.14-.06a0,0,0,0,0,0,0s.09,0,.12-.05h0s.09,0,.13-.06h0c0-.07.13,0,.18-.07h0s.09,0,.14-.06a0,0,0,0,0,0,0s.09,0,.12-.05h0c0-.06.13,0,.18-.07h0s.09,0,.14-.05a0,0,0,0,0,0,0s.09,0,.13,0h0c0-.07.13,0,.18-.06h0c0-.06.13,0,.18-.06h0c0-.06.13,0,.18-.06h0c0-.06.13,0,.18-.06h0c0-.06.13,0,.18-.06h0c0-.06.13,0,.18-.06h0c.05-.07.14,0,.2-.06a0,0,0,0,0,0,0s.13,0,.18-.06h0c.05-.05.13,0,.18-.05h0c.06-.06.14,0,.2-.06a0,0,0,0,0,0,0c.05-.05.13,0,.18-.05h0c.06-.06.14,0,.2-.06a0,0,0,0,0,0,0c.06-.05.14,0,.2-.05a0,0,0,0,0,0,0c.06,0,.14,0,.19-.05a0,0,0,0,0,0,0c.06,0,.13,0,.19-.05a0,0,0,0,0,0,0c.06,0,.14,0,.2,0a0,0,0,0,0,0,0c.06,0,.14,0,.2-.05h0c.07-.07.17,0,.25-.06a0,0,0,0,0,0,0c.07-.05.17,0,.24-.05h0c.08-.06.18,0,.26-.06h0c.08-.06.18,0,.26-.06H31c.08,0,.17,0,.25,0a0,0,0,0,0,0,0c.09-.07.21,0,.31-.06a0,0,0,0,0,0,0c.1-.06.22,0,.31-.05h.1c.1-.06.21,0,.31,0a0,0,0,0,0,0,0c.14-.07.29,0,.43-.05H33c.12-.06.26,0,.38,0a.41.41,0,0,0,.21,0,.76.76,0,0,1,.41,0h.1c.06.12-.08.06-.1.11h0c-.05.05-.14,0-.19.06h0c-.05,0-.13,0-.18.05h0c-.05.05-.14,0-.19.06h0c-.05,0-.13,0-.18.05h0c-.05.06-.14,0-.2.06h0c-.05,0-.13,0-.18.05h0c-.06.06-.14,0-.2.06h0c-.05.05-.13,0-.18.06h0c0,.06-.13,0-.18.06h0c-.05.06-.14,0-.2.06h0s-.13,0-.18.06h0c0,.05-.13,0-.18.06h0c0,.06-.13,0-.18.06h0c0,.06-.13,0-.18.06h0c0,.06-.13,0-.18.06h0c0,.06-.13,0-.18.06h0c0,.06-.13,0-.18.06h0s-.09,0-.13.05h0c0,.07-.13,0-.18.07h0c0,.06-.13,0-.18.07h0s-.09,0-.13.05h0c0,.07-.13,0-.18.07h0s-.09,0-.13.05h0s-.09,0-.14.06h0s-.09,0-.12.05h0s-.09,0-.12.06h0s-.09,0-.12.06h0s-.08,0-.12.06h0s-.08,0-.12.06h0s-.08,0-.12.06h0s-.08,0-.12.07h0s-.09,0-.12.06h0s0,0-.07.05h0c0,.06-.08,0-.12.07h0a1.1,1.1,0,0,1-.18.12h0a.16.16,0,0,1-.07.06h0a.09.09,0,0,1-.07.06h0l-.24.24h0a.12.12,0,0,1-.06.07h0s0,.09-.07.12h0s0,.09,0,.13a.13.13,0,0,0,0,.12s0,.09,0,.13h0a1.94,1.94,0,0,0,.25.23h0s.09,0,.12.06h0s.09,0,.12.06h0c0,.05.13,0,.18.07h0c.05,0,.14,0,.18.06h0c.05,0,.13,0,.18.05a0,0,0,0,0,0,0c.06,0,.14,0,.2,0a0,0,0,0,0,0,0c.07.05.17,0,.25.05a0,0,0,0,0,.05,0c.11.07.25,0,.36.06a0,0,0,0,0,0,0c.12.06.25,0,.37,0h.1c.12.06.25,0,.37,0h.11c.16.07.33,0,.49.05a.24.24,0,0,0,.16,0c.18.07.37,0,.55.05a.26.26,0,0,0,.16,0c.24.07.49,0,.72.05a.59.59,0,0,0,.27,0c.32.07.65,0,1,0a1.2,1.2,0,0,0,.4,0c.47.06.94,0,1.41,0a1.39,1.39,0,0,1,.44,0c1.1,0,2.21,0,3.31,0,.42-.07.84,0,1.26,0a.89.89,0,0,0,.33,0c.26-.07.53,0,.79,0a.39.39,0,0,0,.22,0c.24-.07.49,0,.72-.05a.25.25,0,0,0,.16,0c.22-.07.45,0,.67-.05a.41.41,0,0,0,.22,0c.2-.07.41,0,.61,0a.25.25,0,0,0,.16,0c.2-.07.41,0,.61-.05a.25.25,0,0,0,.16,0c.18-.07.37,0,.55,0a.24.24,0,0,0,.16,0c.18-.07.37,0,.55-.05h.1c.16-.07.33,0,.49-.05a.25.25,0,0,0,.16,0c.14-.06.29,0,.43,0a.23.23,0,0,0,.16,0c.14-.06.3,0,.44,0a.22.22,0,0,0,.15,0c.16-.07.33,0,.49-.05h.11c.14-.07.29,0,.43-.05h.1c.14-.07.29,0,.43-.05h.1c.14-.07.29,0,.43-.05a0,0,0,0,0,0,0c.14-.07.29,0,.43-.05h.1c.12-.06.25,0,.37,0h.1c.12-.06.25,0,.37,0h.1c.11-.06.25,0,.36-.05a0,0,0,0,0,0,0c.12-.07.25,0,.37-.05h.1c.12-.06.25,0,.36-.05a0,0,0,0,0,0,0c.11-.07.25,0,.37-.05a0,0,0,0,0,0,0c.11-.07.25,0,.36-.05a0,0,0,0,0,0,0c.1-.06.22,0,.32-.05h.09c.1-.06.22,0,.31-.05a0,0,0,0,0,0,0c.11-.08.25,0,.36-.06a0,0,0,0,0,.05,0c.1-.06.21,0,.31-.05a0,0,0,0,0,0,0c.1-.06.22,0,.32-.05h.1c.09-.06.21,0,.3-.05a0,0,0,0,0,0,0,.45.45,0,0,1,.35,0h0s0,0,0,0l0,0h0a.12.12,0,0,1-.07.06h0c0,.05-.08,0-.12.07h0a.73.73,0,0,1-.18.12h0s-.08,0-.12.07h0a.13.13,0,0,1-.07.05h0c0,.06-.08,0-.12.07h0s-.09,0-.11.07h0a.19.19,0,0,1-.07.05h0c0,.05-.08,0-.12.07h0a.77.77,0,0,1-.18.12h0s-.08,0-.12.07h0s0,0-.07.05h0c0,.06-.08,0-.12.07h0s-.09,0-.11.07h0a.19.19,0,0,1-.07.05h0c0,.05-.08,0-.12.07h0s-.09,0-.11.07h0s0,0-.07,0h0s-.08,0-.12.07h0a.12.12,0,0,1-.07.05h0c0,.06-.08,0-.12.07h0s-.09,0-.11.07h0a.19.19,0,0,1-.07,0h0c0,.05-.08,0-.12.07h0s-.09,0-.11.07h0s0,0-.07,0h0c0,.07-.13,0-.17.07h0c-.08.06-.18,0-.26.05h-.1c-.1.06-.21,0-.31,0h0c-.11.07-.25,0-.37.06h0c-.1.06-.22,0-.32.05h-.09c-.1.06-.22,0-.32.05h-.1c-.1.06-.21,0-.31,0h-.1c-.1.05-.21,0-.31,0h-.1c-.1.05-.22,0-.32,0h-.09c-.12.07-.25,0-.37.05h-.1c-.1.05-.22,0-.31,0h-.1c-.11.06-.25,0-.36.05h0c-.14.07-.29,0-.43.05h-.11c-.12.06-.25,0-.37,0h-.1c-.12.06-.25,0-.37,0h-.1c-.12.06-.26,0-.38.05h-.09c-.14.07-.29,0-.43.05h-.1c-.14.07-.29,0-.43.05h-.1c-.14.07-.3,0-.43.05h-.1c-.14.07-.3,0-.43.05h-.1c-.16.07-.33,0-.49.05h-.1c-.16.07-.33,0-.49.05a.25.25,0,0,0-.16,0c-.16.06-.33,0-.49,0a.24.24,0,0,0-.16,0c-.18.07-.37,0-.55.05a.27.27,0,0,0-.16,0c-.18.06-.37,0-.55,0a.38.38,0,0,0-.21,0c-.2.07-.41,0-.61,0a.43.43,0,0,0-.22,0c-.26.07-.53,0-.79,0a.4.4,0,0,0-.22,0c-.3.07-.61,0-.91.05a.85.85,0,0,0-.33,0,9.76,9.76,0,0,1-1.06,0,.84.84,0,0,0-.32,0H36.16a9.79,9.79,0,0,0-1.06,0,.84.84,0,0,1-.32,0,1.51,1.51,0,0,0-.45,0c-.34-.07-.69,0-1,0a.62.62,0,0,0-.28,0c-.28-.07-.57,0-.84,0a.61.61,0,0,0-.27,0c-.24-.07-.49,0-.73-.05A.25.25,0,0,0,31,52c-.2-.07-.41,0-.61,0a.39.39,0,0,0-.21,0c-.18-.07-.37,0-.55-.05h-.1c-.16-.06-.33,0-.49,0a.27.27,0,0,0-.16,0C28.76,51.72,28.6,51.8,28.46,51.73Z"/><path class="cls-3" d="M50.15,75.82a.24.24,0,0,0,.16,0c.2-.07.41,0,.61-.05a.24.24,0,0,0,.16,0c.18-.07.37,0,.55-.05a.28.28,0,0,0,.16,0c.14-.06.29,0,.43,0a.23.23,0,0,0,.16,0c.14-.06.3,0,.44,0h.09c.14-.07.3,0,.44-.05a.23.23,0,0,0,.15,0c.12-.06.26,0,.38,0H54c.12-.06.26,0,.38-.05h.1c.12-.06.25,0,.37-.05h.1c.1-.06.22,0,.32,0h.1c.1-.06.22,0,.32,0h.1c.1-.06.22,0,.31,0a0,0,0,0,0,0,0c.1-.07.22,0,.32-.05h.1c.08,0,.18,0,.26,0h.1c.08,0,.18,0,.26,0a0,0,0,0,0,0,0c.09-.07.21,0,.31-.06a0,0,0,0,0,0,0c.08-.05.18,0,.25,0a0,0,0,0,0,0,0c.09-.07.21,0,.3-.06h0c.08-.06.18,0,.26-.05a0,0,0,0,0,0,0c.08-.06.18,0,.25-.05a0,0,0,0,0,0,0c.07-.06.17,0,.25-.05a0,0,0,0,0,0,0c.06,0,.14,0,.2,0a0,0,0,0,0,0,0c.07-.06.17,0,.24-.06h0c.07-.07.17,0,.25-.06a0,0,0,0,0,0,0c.06,0,.13,0,.19,0a0,0,0,0,0,0,0c.06,0,.14,0,.2,0a0,0,0,0,0,0,0c.05,0,.13,0,.18-.05h0c.07-.07.17,0,.24-.06h0c.06-.05.14,0,.2-.06a0,0,0,0,0,0,0c.06-.05.14,0,.2-.05a0,0,0,0,0,0,0c.05,0,.13,0,.18-.05h0c.05-.06.14,0,.19-.06a0,0,0,0,0,0,0c.05,0,.13,0,.18-.05h0c.05-.05.13,0,.19-.06a0,0,0,0,0,0,0s.09,0,.13,0a0,0,0,0,0,0,0s.09,0,.13,0h0c.05-.07.14,0,.19-.06a0,0,0,0,0,0,0,.62.62,0,0,1,.14,0,0,0,0,0,0,0,0s.09,0,.13,0h0c0-.07.13,0,.18-.07h0c0-.06.13,0,.18-.06h0c0-.06.13,0,.18-.06h0a.37.37,0,0,1,.14-.05,0,0,0,0,0,0,0s.09,0,.12-.05h0s.09,0,.14-.06a0,0,0,0,0,0,0s.09,0,.12-.05h0s.09,0,.14-.06a0,0,0,0,0,0,0s.09,0,.12-.05h0s.09,0,.13-.06h0c0-.07.13,0,.17-.07h0s.09,0,.12-.06h0s.09,0,.12-.06h0s.09,0,.14-.06a0,0,0,0,0,0,0s0,0,.07,0h0c0-.05.08,0,.12-.06h0c0-.05.08,0,.12-.06h0c0-.05.08,0,.12-.06h0c0-.06.08,0,.12-.06h0c0-.08.13,0,.16-.08h0s0,0,.07,0h0c0-.05.08,0,.12-.07h0s.08,0,.12-.07h0s.09,0,.12-.06h0s.09,0,.11-.06h0s0,0,.07,0h0c0-.05.08,0,.12-.07h0s.09,0,.11-.07h0a.19.19,0,0,1,.07-.05h0c0-.05.08,0,.12-.07h0a.83.83,0,0,1,.18-.12h0s.08,0,.12-.07h0a.16.16,0,0,1,.07-.05h0c0-.05.08,0,.11-.07h0a.18.18,0,0,1,.07-.05h0s.08,0,.11-.07h0a.3.3,0,0,1,.07-.05h0a.85.85,0,0,1,.18-.12h0a.13.13,0,0,1,.07-.06h0c0-.05.08,0,.11-.07h0l.07-.05h0A.09.09,0,0,1,67.8,71h0c0-.06.08,0,.11-.08h0a.11.11,0,0,1,.07,0A.09.09,0,0,1,68,71a.15.15,0,0,1,0,.12h0c-.06,0,0,.13-.07.18h0s0,.09-.06.12h0s0,.09-.06.12h0s0,.1-.07.12h0a.11.11,0,0,1-.05.07h0a.85.85,0,0,1-.12.18h0a.2.2,0,0,1-.06.07h0a1,1,0,0,1-.19.23h0a.08.08,0,0,1-.06.07h0a.09.09,0,0,1-.06.07h0a.1.1,0,0,1-.06.07h0a.11.11,0,0,1-.06.07h0a.11.11,0,0,1-.06.06h0a.1.1,0,0,1-.07.06h0a.08.08,0,0,1-.07.06h0a1.48,1.48,0,0,1-.23.19h0l-.06.05h0a.17.17,0,0,1-.07.06h0a.09.09,0,0,1-.07.06h0c0,.07-.11.09-.17.13h0a.12.12,0,0,1-.07.06h0c0,.05-.08,0-.11.08h0l-.07.05h0a.7.7,0,0,1-.18.12h0s-.08,0-.11.07h0s0,0-.07,0h0s-.08,0-.12.07h0a.14.14,0,0,1-.07.05h0c0,.05-.08,0-.12.07h0s-.09,0-.12.07h0a.7.7,0,0,1-.19.11h0c0,.05-.08,0-.12.07h0s-.08,0-.12.07h0s-.09,0-.12.06h0s-.09,0-.12.06h0s-.09,0-.12.06h0s-.09,0-.12.06h0s-.09,0-.12.06h0s-.09,0-.12.06h0s-.08,0-.12.06h0s-.08,0-.13.06h0c0,.08-.13,0-.17.07h0s-.09,0-.12.06h0s-.09,0-.13.06h0c0,.07-.13,0-.17.07h0s-.09,0-.13.05h0c0,.06-.13,0-.18.07h0s-.09,0-.13.05h0c0,.07-.13,0-.18.07h0s-.09,0-.14.05h0a.5.5,0,0,1-.14,0h0s-.09,0-.14,0h0s-.09,0-.13,0h0c0,.07-.13,0-.18.06h0c-.05.07-.14,0-.2.06h0c0,.05-.13,0-.18.06h0c-.05.05-.13,0-.19.06h0a.85.85,0,0,1-.14,0h0c-.06,0-.13,0-.19.05h0c-.05,0-.13,0-.18.05H60.7c-.05,0-.13,0-.18.05h0c-.07.06-.17,0-.24.06h-.05c-.06,0-.13,0-.19,0h0c-.06,0-.13,0-.19,0h0c-.07.06-.17,0-.25.05h0c-.07.05-.17,0-.24.05h-.05c-.07.05-.17,0-.24.05h-.05c-.08.05-.17,0-.25,0h0c-.08.06-.18,0-.26.05h0c-.09.07-.21,0-.31.06h0c-.09.06-.21,0-.3.05h-.05c-.08.05-.18,0-.26,0h-.1c-.08,0-.18,0-.26,0h-.1c-.1.06-.21,0-.31.05h0c-.1.06-.22,0-.32.05h-.1c-.1.06-.21,0-.31,0h-.1c-.1.05-.22,0-.31,0h-.1c-.1.05-.22,0-.32,0h-.09c-.12.06-.26,0-.38.05h-.1c-.12.06-.25,0-.37.05h-.1c-.14.07-.29,0-.43.05h-.1c-.14.06-.29,0-.43.05h-.11c-.14.06-.3,0-.44,0a.22.22,0,0,0-.15,0c-.16.07-.33,0-.49.05h-.1c-.18.07-.37,0-.55.05A.26.26,0,0,0,51,77c-.18.07-.37,0-.55,0a.24.24,0,0,0-.16,0c-.2.07-.41,0-.61.05a.24.24,0,0,0-.16,0c-.22.07-.45,0-.67.05a.37.37,0,0,0-.21,0c-.26.07-.53,0-.79.05a.4.4,0,0,0-.22,0c-.32.07-.65,0-1,.05a.86.86,0,0,0-.33,0,9.57,9.57,0,0,1-1.07,0,.85.85,0,0,0-.31,0,7.64,7.64,0,0,0-1,0,11.17,11.17,0,0,1-1.65,0,7.53,7.53,0,0,0-1,0,10.13,10.13,0,0,0-1.09,0,.92.92,0,0,1-.35,0,.87.87,0,0,0-.34,0c-.3-.07-.61,0-.9,0a.6.6,0,0,0-.27,0c-.22-.06-.45,0-.67,0a.41.41,0,0,0-.22,0c-.2-.07-.41,0-.61,0a.26.26,0,0,0-.16,0c-.18-.07-.37,0-.55-.05H36c-.16-.07-.33,0-.49,0a.22.22,0,0,0-.15,0c-.14-.06-.3,0-.44-.05h-.1c-.14-.06-.3,0-.43-.05h0c-.13-.07-.29,0-.42-.06h0c-.12-.06-.25,0-.37-.05h-.1c-.1-.06-.21,0-.31,0H33c-.1-.05-.22,0-.32-.05h0c-.12-.07-.25,0-.37-.06h0c-.08,0-.18,0-.25,0h-.09c-.08,0-.18,0-.26,0h0c-.1-.06-.21,0-.31-.06h0c-.08,0-.18,0-.25,0h0c-.07-.06-.17,0-.25-.05h0c-.08-.05-.18,0-.25-.05h0c-.08-.05-.18,0-.26-.05h0c-.08,0-.18,0-.26-.05h0c-.07-.06-.17,0-.24-.06h0c-.06,0-.14,0-.2-.05h0c-.06,0-.14,0-.2-.05h0c-.06,0-.14,0-.19,0h0c-.06,0-.13,0-.19,0h0c-.06,0-.13,0-.19-.05h0c-.06,0-.14,0-.19-.05h0c-.06,0-.14,0-.2-.06h0c-.05,0-.13,0-.18-.05h0c-.06,0-.14,0-.2-.06h0c-.05,0-.13,0-.18-.05h0c-.06,0-.14,0-.2-.06h0s-.09,0-.12-.05h0c0-.14.16,0,.24-.07a1.23,1.23,0,0,1,.39,0h.1c.16.07.33,0,.49,0a.27.27,0,0,0,.16,0c.18.07.37,0,.55.05a.22.22,0,0,0,.15,0c.16.06.33,0,.5,0a.25.25,0,0,0,.16,0c.16.06.33,0,.49,0a.27.27,0,0,0,.16,0c.18.07.37,0,.54.05a.25.25,0,0,0,.16,0c.18.07.37,0,.55.05a.23.23,0,0,0,.16,0c.18.06.37,0,.55,0a.4.4,0,0,0,.22,0c.22.07.45,0,.67,0a.42.42,0,0,0,.22,0c.26.07.53,0,.78,0a.42.42,0,0,0,.22,0c.28.07.56,0,.84,0a.65.65,0,0,0,.28,0c.32.07.64,0,1,.05a.87.87,0,0,0,.34,0c.38.07.76,0,1.14,0a1.52,1.52,0,0,0,.45,0c.42.06.84,0,1.27,0A.94.94,0,0,1,40,76a3.85,3.85,0,0,0,.75,0,4.2,4.2,0,0,0,.85,0c.91,0,1.82,0,2.74,0a6.1,6.1,0,0,0,.92,0,10.9,10.9,0,0,1,1.12,0,.85.85,0,0,0,.32,0,1.49,1.49,0,0,0,.45,0c.3-.07.61,0,.91,0a.85.85,0,0,0,.33,0c.28-.07.57,0,.84,0a.43.43,0,0,0,.22,0C49.7,75.81,49.93,75.89,50.15,75.82Z"/><path class="cls-3" d="M65.07,51.61a0,0,0,0,0,0,0,.47.47,0,0,1,0-.14,0,0,0,0,0,0,0c0-.06,0-.14.05-.2a0,0,0,0,0,0,0c0-.08,0-.18.05-.26a0,0,0,0,0,0,0c.06-.14,0-.3,0-.43a1.09,1.09,0,0,0,0-.41c-.06-.12,0-.26,0-.38v-.1c-.05-.07,0-.17-.05-.24h0c-.07-.07,0-.17-.06-.24h0c-.05,0,0-.13-.06-.18h0c-.06,0,0-.13-.06-.18h0s0-.09-.05-.13h0s0-.09-.06-.13h0s0-.08-.06-.12h0s0-.08-.07-.12h0s0-.09-.07-.12h0a.14.14,0,0,1-.05-.07h0c-.05,0,0-.08-.07-.11h0a.22.22,0,0,1-.05-.07h0a2.77,2.77,0,0,1-.19-.23h0l-.06-.06h0l-.06-.06h0l-.06-.06h0l-.06-.05h0s-.09,0-.1-.08h0a.09.09,0,0,1-.07-.06h0a.16.16,0,0,1-.07-.06h0s-.1,0-.11-.07h0a.11.11,0,0,1-.07-.05h0s-.09,0-.12-.07h0s-.1,0-.12-.07h0s-.05,0-.07,0h0c0-.06-.14,0-.17-.08h0s-.1,0-.13-.06h0s-.09,0-.13-.05h0c0-.06-.13,0-.18-.06h0c-.05-.05-.13,0-.18-.06h0c-.06,0-.14,0-.2-.05h0c-.06,0-.14,0-.2,0h-.09c-.08,0-.18,0-.26,0h-.1c-.16-.07-.33,0-.49-.05a.54.54,0,0,0-.28,0,.37.37,0,0,0-.28,0,1.34,1.34,0,0,0-.45,0c-.16.07-.33,0-.48.05h0c-.11.07-.25,0-.36.06h-.05s-.1,0-.12,0,.06-.12.12-.17h0a.22.22,0,0,1,.07-.05h0s.08,0,.11-.07h0s0,0,.07-.05h0s.08,0,.12-.07h0s.09,0,.12-.06h0s.09,0,.12-.06h0s.09,0,.12-.06h0s.09,0,.14-.06a0,0,0,0,0,0,0,.46.46,0,0,1,.14,0,0,0,0,0,0,0,0c.05-.05.13,0,.19-.05a0,0,0,0,0,.05,0c.06,0,.13,0,.19,0a0,0,0,0,0,.05,0c.06,0,.14,0,.2,0h.09c.08,0,.18,0,.25,0h.1c.14-.06.29,0,.43-.05a.48.48,0,0,0,.22,0,2.07,2.07,0,0,1,.71,0,.29.29,0,0,0,.16,0c.14.07.29,0,.43.06a0,0,0,0,0,0,0c.08.05.17,0,.25,0a0,0,0,0,0,0,0c.07.06.18,0,.25.06h0c.05,0,.13,0,.18.05a0,0,0,0,0,0,0s.09,0,.13,0a0,0,0,0,0,0,0c.06,0,.14,0,.19.07h0s.09,0,.13.05h0s.08,0,.12.05a0,0,0,0,0,0,0s.1,0,.14.06h0s.09,0,.12.06h0s.09,0,.12.06h0s.09,0,.12.07h0s.1,0,.12.07h0s0,0,.07,0h0s.09,0,.11.07h0s.1,0,.12.07h0a.13.13,0,0,1,.07.05h0s.09,0,.11.07h0a.11.11,0,0,1,.07.06h0l.07.05h0s.09,0,.11.07h0a.16.16,0,0,1,.07.06h0c.06,0,.13.06.17.13h0a.09.09,0,0,1,.07.06h0a.12.12,0,0,1,.07.06h0a.2.2,0,0,1,.06.06h0l.06.06h0l.06.06h0l.06.06h0l.06.06h0l.06.06h0l.06.06h0l.06.06h0a.13.13,0,0,1,.06.07h0a.09.09,0,0,1,.06.07h0c.05,0,0,.08.08.1h0l.05.07h0a.12.12,0,0,1,.06.07h0c.05,0,0,.08.07.11h0a.18.18,0,0,1,.05.07h0c.05,0,0,.08.07.12h0a.66.66,0,0,1,.11.19h0c.05,0,0,.08.07.12h0s0,.08.06.13h0c.08,0,0,.13.07.17h0s0,.09.05.13h0c.07,0,0,.13.06.18h0c.06.05,0,.14.06.2a0,0,0,0,0,0,0c0,.06,0,.14.05.2v.09c.06.1,0,.21,0,.31V50a3.13,3.13,0,0,1,0,.88.21.21,0,0,0,0,.15c0,.08,0,.18-.05.26a0,0,0,0,0,0,0c-.06.07,0,.18-.06.25h0c0,.05,0,.13-.05.18a0,0,0,0,0,0,0,.49.49,0,0,1-.05.14h0c-.06,0,0,.13-.06.18h0s0,.09-.05.12h0c-.06,0,0,.14-.07.17h0s0,.1-.06.13h0s0,.1-.07.12h0a.82.82,0,0,1-.11.19h0s0,.09-.07.12h0s0,.1-.07.12h0a.13.13,0,0,1-.05.07h0s0,.09-.07.11h0a.18.18,0,0,1-.05.07h0s0,.09-.07.11h0a.11.11,0,0,1-.06.07h0c0,.06-.06.13-.13.18h0a.11.11,0,0,1-.06.07h0a.35.35,0,0,1-.06.07h0c0,.05-.07.13-.13.17h0a.14.14,0,0,1-.06.07h0l-.06.06h0a1.87,1.87,0,0,1-.25.29h0a.09.09,0,0,1-.06.07h0a.1.1,0,0,1-.06.07h0a.11.11,0,0,1-.06.07h0a.12.12,0,0,1-.06.06h0a.12.12,0,0,1-.06.06h0a.13.13,0,0,1-.06.06h0a.13.13,0,0,1-.06.06h0a.12.12,0,0,1-.07.06h0a.1.1,0,0,1-.07.06h0a.08.08,0,0,1-.07.06h0a1.63,1.63,0,0,1-.22.2h0l-.06.05h0l-.07.06h0a.13.13,0,0,1-.07.06h0a.09.09,0,0,1-.07.06h0c0,.07-.12.09-.17.14h0a.24.24,0,0,1-.07.06h0a.1.1,0,0,1-.07.06h0c0,.05-.08,0-.11.08h0l-.07.05h0a.11.11,0,0,1-.07.06h0a.46.46,0,0,1-.18.13h0a.87.87,0,0,1-.18.12h0a.11.11,0,0,1-.07.05h0c0,.05-.08,0-.11.07h0a.15.15,0,0,1-.07.05h0c0,.05-.08,0-.11.07h0a.13.13,0,0,1-.07.05h0c0,.05-.08,0-.12.07h0a1,1,0,0,1-.18.12h0s-.09,0-.12.07h0s0,0-.07,0h0c0,.06-.08,0-.12.07h0s-.08,0-.12.07h0a.13.13,0,0,1-.09.05h0v0l-.07,0h0s-.08,0-.12.07h0s-.09,0-.12.06h0s-.09,0-.12.06h0s0,0-.07,0h0c0,.06-.08,0-.12.07h0c0,.05-.08,0-.12.07h0s-.08,0-.12.07h0s-.08,0-.12.06h0s-.08,0-.12.06h0s-.08,0-.12.06h0c0,.05-.08,0-.12.06h0c0,.05-.08,0-.12.06h0c0,.06-.09,0-.14.07h0s-.09,0-.12.05h0s-.09,0-.12.06h0s-.09,0-.14.06h0l0,0s-.09,0-.12.05h0s-.09,0-.12.06h0s-.09,0-.13.06h0c0,.07-.13,0-.18.07h0s-.09,0-.14.06h0s-.09,0-.12.05h0s-.09,0-.14.06h0s-.09,0-.13.05h0c0,.07-.13,0-.18.06h0c0,.06-.13,0-.18.06h0c0,.06-.13,0-.18.06h0a.47.47,0,0,1-.14.05h0a.53.53,0,0,1-.14,0h0a.49.49,0,0,1-.14,0h0c0,.05-.13,0-.18.06h0c0,.05-.13,0-.18.06h0c0,.05-.13,0-.18.06h0c-.05.06-.14,0-.19.06h0c-.05,0-.13,0-.18.05h0c-.05.05-.13,0-.19.06h0c-.08,0-.18.09-.21-.06h0c0-.05.08,0,.12-.07h0a.11.11,0,0,1,.07-.05h0c0-.06.08,0,.12-.07h0a.65.65,0,0,1,.18-.12h0s.08,0,.12-.07h0s0,0,.07-.05h0c0-.06.08,0,.12-.07h0s.09,0,.11-.07h0a.21.21,0,0,1,.07-.05h0c0-.05.08,0,.12-.07h0a.11.11,0,0,1,.07-.05h0c0-.06.08,0,.12-.07h0a.82.82,0,0,1,.18-.12h0a.65.65,0,0,1,.18-.12h0s.08,0,.11-.07h0s0,0,.07-.05h0s.08,0,.11-.07h0a.32.32,0,0,1,.07-.05h0a.73.73,0,0,1,.18-.12h0a.1.1,0,0,1,.07-.06h0c0-.06.08,0,.11-.07h0a.13.13,0,0,1,.07-.05h0c0-.05.08,0,.11-.07h0a.21.21,0,0,1,.07-.05h0a.85.85,0,0,1,.18-.13h0a.15.15,0,0,1,.07-.06h0a.68.68,0,0,1,.18-.13h0a.13.13,0,0,1,.07-.06h0a.57.57,0,0,1,.18-.13h0a.13.13,0,0,1,.07-.06h0c0-.06.12-.08.17-.13h0l.07-.06h0a.12.12,0,0,1,.07-.06h0c0-.06.12-.08.17-.13h0l.07-.06h0a.13.13,0,0,1,.07-.06h0c0-.06.12-.08.16-.13h0l.06-.05h0l.06-.06h0l.07-.06h0a.13.13,0,0,1,.07-.06h0a.09.09,0,0,1,.07-.06h0a1.18,1.18,0,0,1,.23-.19h0l.06-.06h0l.06-.06h0l.06-.06h0a.19.19,0,0,1,.06-.06h0a.15.15,0,0,1,.06-.06h0a.13.13,0,0,1,.07-.06h0a.11.11,0,0,1,.07-.06h0a.1.1,0,0,1,.07-.06h0a.08.08,0,0,1,.07-.06h0a.08.08,0,0,1,.07-.06h0a.07.07,0,0,1,.07-.07h0a.08.08,0,0,1,.06-.07h0a.09.09,0,0,1,.06-.07h0a.09.09,0,0,1,.06-.07h0A.1.1,0,0,1,63,54.8h0a.11.11,0,0,1,.06-.07h0a.13.13,0,0,1,.06-.07h0a.14.14,0,0,1,.06-.06h0a.16.16,0,0,1,.06-.06h0a.19.19,0,0,1,.06-.06h0l.06-.06h0l.06-.06h0a1.27,1.27,0,0,1,.19-.23h0a.09.09,0,0,1,.06-.07h0a.14.14,0,0,1,.06-.07h0l.06-.06h0l.05-.06h0s0-.09.08-.1h0a.12.12,0,0,1,.06-.07h0c0-.06.06-.13.13-.17h0a.11.11,0,0,1,.06-.07h0a.72.72,0,0,1,.13-.18h0s0,0,.05-.07h0s0-.09.07-.11h0a.77.77,0,0,1,.12-.18h0s0-.09.07-.12h0a.84.84,0,0,1,.11-.19h0s0-.09.06-.12h0s0-.09.06-.12h0s0-.09.06-.12h0s0-.09.06-.12h0s0-.09.06-.12a0,0,0,0,0,0,0s0-.11.06-.14h0s0-.09.05-.12a0,0,0,0,0,0,0A.43.43,0,0,1,65.07,51.61Z"/></g></g></svg>