<svg xmlns="http://www.w3.org/2000/svg" viewBox="0 0 86.6 95.98"><defs><style>.cls-1{fill:#efd33d;}.cls-2{fill:#2e2e2c;}</style></defs><title>js</title><g id="Layer_2" data-name="Layer 2"><g id="Layer_1-2" data-name="Layer 1"><path class="cls-1" d="M0,30.49v35A13,13,0,0,0,6.5,76.74l30.31,17.5a13,13,0,0,0,13,0l30.31-17.5a13,13,0,0,0,6.5-11.25v-35a13,13,0,0,0-6.5-11.25L49.8,1.74a13,13,0,0,0-13,0L6.5,19.24A13,13,0,0,0,0,30.49Z"/><path class="cls-2" d="M61.21,28.06a13.83,13.83,0,0,1,3,1.28,12.88,12.88,0,0,1,4.32,4.57c.1.17.1.27-.09.39q-3,1.88-5.89,3.79c-.25.16-.36.06-.48-.15a6.69,6.69,0,0,0-1.95-2.29,5.23,5.23,0,0,0-3.85-.86,3.58,3.58,0,0,0-2.52,1.38,3.74,3.74,0,0,0,.7,5.09,17.54,17.54,0,0,0,4.09,2.17,44,44,0,0,1,7,3.5,11.77,11.77,0,0,1,4.46,4.9,7.53,7.53,0,0,1,.67,2.09c.12.12.06.29.1.43l.06.1A21.2,21.2,0,0,1,71,58.24c-.09.21,0,.44-.08.65a13.19,13.19,0,0,1-.85,2.88,7.28,7.28,0,0,1-.86,1.5,3.48,3.48,0,0,0-.7.91,11.19,11.19,0,0,1-5.21,3.39,19.69,19.69,0,0,1-8.7.72l-.54,0L54,68.19c-.15,0-.33,0-.47-.1H53.2c-.11-.06-.24,0-.34-.08a21.25,21.25,0,0,1-3.63-1.26,13.57,13.57,0,0,1-1.72-1,14.46,14.46,0,0,1-4.8-5.27c-.15-.28-.22-.41.17-.61,1-.5,1.9-1.09,2.85-1.64s2.15-1.22,3.21-1.85c.29-.17.36,0,.47.19a10.45,10.45,0,0,0,3.45,3.54,6.27,6.27,0,0,0,2.27.86c.11.06.24,0,.34.07a1.45,1.45,0,0,0,.66.09l.1,0a3.19,3.19,0,0,0,.61,0c.36,0,.73,0,1.09,0a.53.53,0,0,1,.18,0c.11,0,.22.06.33,0s.37,0,.52-.12.28,0,.4-.09a4.35,4.35,0,0,0,3.26-2.45,1.1,1.1,0,0,0,.14-.52l.06-.12a12.42,12.42,0,0,0,0-1.5l-.06-.12A3.34,3.34,0,0,0,61.31,54a18.21,18.21,0,0,0-3.66-2c-1.3-.58-2.61-1.13-3.9-1.72a22.53,22.53,0,0,1-3.8-2.12,10.94,10.94,0,0,1-4.73-7.08.25.25,0,0,0,0-.07c-.11-.15,0-.34-.08-.49a2.21,2.21,0,0,0-.08-.71,19.58,19.58,0,0,1-.05-2.2c0-.17,0-.35,0-.51l.25-1.43c.06-.09,0-.22.08-.3a19,19,0,0,1,.93-2.29c0-.23.18-.36.3-.52a13.88,13.88,0,0,1,2-2.27,12.4,12.4,0,0,1,7.13-2.72l.95-.07a1.17,1.17,0,0,1,.75,0l2.68.25.09,0c.13,0,.28,0,.39.11h.29C61,28.06,61.12,28,61.21,28.06Z"/><path class="cls-2" d="M27.6,68.41a24.17,24.17,0,0,1-3.86-.06,14.32,14.32,0,0,1-3.8-1,12,12,0,0,1-5.53-4.72c-.3-.47-.54-1-.81-1.44-.12-.22,0-.32.16-.44,1.79-1.08,3.61-2.12,5.37-3.25.26-.17.55-.3.81-.47s.27,0,.37.12a19,19,0,0,0,1.27,2c1.5,2,3.68,2.35,5.92,1.66A2.69,2.69,0,0,0,29,59.7a.73.73,0,0,1,.15-.27,4.91,4.91,0,0,0,.68-2.63l.06-.12a3.14,3.14,0,0,0,0-.54q0-13.66,0-27.31a3.35,3.35,0,0,1,0-.62c.07-.16.22-.15.36-.15h7.43a.41.41,0,0,1,.28.06.82.82,0,0,1,.07.49Q38,43,38,57.4a.8.8,0,0,1-.08.48,16.44,16.44,0,0,1-.18,1.67c-.07.11,0,.25-.08.35A15.74,15.74,0,0,1,36.54,63a9.72,9.72,0,0,1-5.38,4.63l-.38.16c-.14.15-.34.11-.52.16a.51.51,0,0,0-.33.09c-.08.07-.18,0-.27.07h-.35c-.11.09-.25.07-.38.1l-.09,0a1.59,1.59,0,0,0-.6.1C28,68.44,27.81,68.32,27.6,68.41Z"/></g></g></svg>