<svg xmlns="http://www.w3.org/2000/svg" viewBox="0 0 86.6 95.98"><defs><style>.cls-1{fill:#80c529;}.cls-2{fill:#404137;}.cls-3{fill:#fff;}</style></defs><title>node</title><g id="Layer_2" data-name="Layer 2"><g id="Layer_1-2" data-name="Layer 1"><path class="cls-1" d="M0,30.49v35A13,13,0,0,0,6.5,76.74l30.31,17.5a13,13,0,0,0,13,0l30.31-17.5a13,13,0,0,0,6.5-11.25v-35a13,13,0,0,0-6.5-11.25L49.8,1.74a13,13,0,0,0-13,0L6.5,19.24A13,13,0,0,0,0,30.49Z"/><path class="cls-2" d="M61.48,42.8c0-3.13,0-6.26,0-9.39a1,1,0,0,0-.59-1c-1.19-.65-2.38-1.32-3.56-2-.59-.33-.84-.18-.84.5q0,3,0,5.92c0,1.29,0,2.57,0,3.86,0,.46-.16.55-.56.32l-1.42-.82a.92.92,0,0,0-1,0L47,43.91a.92.92,0,0,0-.5.87q0,3.72,0,7.44a.94.94,0,0,0,.52.9l6.4,3.69a1,1,0,0,0,1.1,0c2.07-1.21,4.15-2.41,6.24-3.59A1.21,1.21,0,0,0,61.49,52C61.47,49,61.48,45.88,61.48,42.8Zm-5.24,7.29-2,1.16a.43.43,0,0,1-.49,0c-.66-.39-1.31-.77-2-1.14a.47.47,0,0,1-.27-.49c0-.37,0-.74,0-1.11s0-.76,0-1.14a.42.42,0,0,1,.25-.43l2-1.19a.38.38,0,0,1,.43,0c.68.4,1.36.8,2,1.18a.39.39,0,0,1,.23.39c0,.79,0,1.58,0,2.36A.4.4,0,0,1,56.24,50.09Z"/><path class="cls-3" d="M41.51,48.41c0,1.22,0,2.44,0,3.67A1,1,0,0,1,41,53q-3.16,1.81-6.3,3.64a1.1,1.1,0,0,1-1.24,0Q30.29,54.8,27.13,53a1,1,0,0,1-.55-1q0-3.67,0-7.33a1,1,0,0,1,.57-1q3.15-1.8,6.27-3.62a1.1,1.1,0,0,1,1.24,0Q37.8,41.94,41,43.74a1,1,0,0,1,.54,1C41.5,45.94,41.51,47.17,41.51,48.41Z"/><path class="cls-2" d="M21.51,49.6q0,2.48,0,5,0,.91-.78.46c-1.21-.69-2.42-1.39-3.64-2.08a1,1,0,0,1-.55-1c0-1.5,0-3,0-4.5a.93.93,0,0,0-.51-.9l-1.49-.85a.88.88,0,0,0-1,0l-1.52.87a1,1,0,0,0-.51.91c0,1.5,0,3,0,4.5A1,1,0,0,1,11,53c-1.22.68-2.42,1.38-3.64,2.08-.5.29-.77.13-.77-.46q0-5,0-10a1,1,0,0,1,.54-.93Q10.3,41.87,13.46,40a1.07,1.07,0,0,1,1.18,0q3.14,1.83,6.3,3.63a1.08,1.08,0,0,1,.59,1.05c0,1.63,0,3.26,0,4.89Z"/><path class="cls-2" d="M66.46,48.41c0-1.25,0-2.49,0-3.74a.87.87,0,0,1,.48-.84l6.5-3.75a.9.9,0,0,1,1,0l6.46,3.75a.9.9,0,0,1,.49.84c0,.55,0,1.09,0,1.64a.92.92,0,0,1-.51.87l-3.76,2.18c-.46.26-.74.1-.75-.42s0-1.07,0-1.6a.55.55,0,0,0-.31-.56q-.95-.53-1.88-1.09a.53.53,0,0,0-.6,0l-1.88,1.09a.57.57,0,0,0-.32.56q0,1,0,2.1a.59.59,0,0,0,.34.58l6.18,3.54c.12.07.25.13.36.21.34.24.34.54,0,.75l-3.93,2.19a.8.8,0,0,1-.83,0L66.89,53a.82.82,0,0,1-.43-.79C66.47,50.93,66.46,49.67,66.46,48.41Z"/><path class="cls-2" d="M75.3,48.38c.24.68-.19.93-.68,1.25a1.44,1.44,0,0,1-2.17-1.25,1.26,1.26,0,0,1,.75-1.3c.52-.28.92-.38,1.38,0l0,0C75.19,47.35,75.51,47.72,75.3,48.38Z"/></g></g></svg>