<svg xmlns="http://www.w3.org/2000/svg" viewBox="0 0 86.6 95.98"><defs><style>.cls-1{fill:#00cef5;}.cls-2{fill:#fff;}</style></defs><title>react</title><g id="Layer_2" data-name="Layer 2"><g id="Layer_1-2" data-name="Layer 1"><path class="cls-1" d="M0,30.49v35A13,13,0,0,0,6.5,76.74l30.31,17.5a13,13,0,0,0,13,0l30.31-17.5a13,13,0,0,0,6.5-11.25v-35a13,13,0,0,0-6.5-11.25L49.8,1.74a13,13,0,0,0-13,0L6.5,19.24A13,13,0,0,0,0,30.49Z"/><path class="cls-2" d="M43.31,43a5.38,5.38,0,1,0,5.36,5.39A5.37,5.37,0,0,0,43.31,43Zm0,0a5.38,5.38,0,1,0,5.36,5.39A5.37,5.37,0,0,0,43.31,43Zm0,0a5.38,5.38,0,1,0,5.36,5.39A5.37,5.37,0,0,0,43.31,43Zm0,0a5.38,5.38,0,1,0,5.36,5.39A5.37,5.37,0,0,0,43.31,43Zm0,0a5.38,5.38,0,1,0,5.36,5.39A5.37,5.37,0,0,0,43.31,43Zm0,0a5.38,5.38,0,1,0,5.36,5.39A5.37,5.37,0,0,0,43.31,43Zm0,0a5.38,5.38,0,1,0,5.36,5.39A5.37,5.37,0,0,0,43.31,43Zm0,0a5.38,5.38,0,1,0,5.36,5.39A5.37,5.37,0,0,0,43.31,43Zm0,0a5.38,5.38,0,1,0,5.36,5.39A5.37,5.37,0,0,0,43.31,43Zm0,0a5.38,5.38,0,1,0,5.36,5.39A5.37,5.37,0,0,0,43.31,43Zm0,0a5.38,5.38,0,1,0,5.36,5.39A5.37,5.37,0,0,0,43.31,43Zm0,0a5.38,5.38,0,1,0,5.36,5.39A5.37,5.37,0,0,0,43.31,43Zm29.22,2.52a11.59,11.59,0,0,0-3.78-3.66,29.31,29.31,0,0,0-7.63-3.37c-.35-.1-.35-.1-.26-.46a31.33,31.33,0,0,0,.88-6.87,21.58,21.58,0,0,0-.15-2.64,10.82,10.82,0,0,0-1.23-4,5.43,5.43,0,0,0-2.16-2.29,6.18,6.18,0,0,0-3.84-.52A12.9,12.9,0,0,0,50,23.31,29.61,29.61,0,0,0,43.6,28c-.27.26-.26.25-.53,0a28.73,28.73,0,0,0-7-5,10.72,10.72,0,0,0-5.88-1.27,4.62,4.62,0,0,0-2.74,1.16,7.52,7.52,0,0,0-2.09,3.67A19.48,19.48,0,0,0,25,34a31.06,31.06,0,0,0,.77,4.13c0,.15,0,.23-.16.28-.4.1-.79.23-1.18.35a26.84,26.84,0,0,0-7.13,3.38,10.6,10.6,0,0,0-3.47,3.69,5.06,5.06,0,0,0-.68,3,6.55,6.55,0,0,0,1.17,2.92,12.42,12.42,0,0,0,3.56,3.36,28,28,0,0,0,7.55,3.41c.28.08.32.17.26.44A26.73,26.73,0,0,0,25,68.39a10.22,10.22,0,0,0,1.29,4.07A5,5,0,0,0,29,74.88,7.74,7.74,0,0,0,33.2,75a16.27,16.27,0,0,0,4.94-2.13,29.38,29.38,0,0,0,5.1-4c.13-.13.2-.13.34,0,.37.36.76.71,1.15,1.05A26.3,26.3,0,0,0,50.82,74,11.19,11.19,0,0,0,55,75.21a6.13,6.13,0,0,0,3-.47,5.59,5.59,0,0,0,2.56-2.68,13,13,0,0,0,1.29-5.91A29,29,0,0,0,61,58.89c-.09-.37-.08-.36.28-.47a28.82,28.82,0,0,0,7.78-3.61,11.72,11.72,0,0,0,3.29-3.22,6,6,0,0,0,1.08-3A5.34,5.34,0,0,0,72.53,45.54ZM45.33,29.95a26.58,26.58,0,0,1,6.29-4.59,11.1,11.1,0,0,1,3.3-1.12,3,3,0,0,1,3.45,1.93,10.49,10.49,0,0,1,.7,2.93,15.12,15.12,0,0,1,.11,2A28.47,28.47,0,0,1,58.46,37c-.05.24,0,.57-.2.7s-.47-.06-.71-.11a57.51,57.51,0,0,0-6.74-1,1.18,1.18,0,0,1-1-.58,56.1,56.1,0,0,0-4.54-5.65C45.17,30.18,45.16,30.1,45.33,29.95ZM31,51.53c1.1,2.1,2.27,4.13,3.58,6.17l-1.69-.21c-1.22-.17-2.43-.38-3.63-.63-.13,0-.24,0-.18-.23q.81-2.56,1.86-5ZM29.3,41l-.21-.63c0-.12,0-.17.12-.2q2.08-.45,4.19-.75l1.11-.15c-1.28,2-2.45,4-3.55,6.15C30.33,43.93,29.78,42.49,29.3,41Zm3.14,7.7a.51.51,0,0,1,0-.5,76.11,76.11,0,0,1,5.24-9.08.4.4,0,0,1,.34-.19c1.42-.1,2.83-.15,4.25-.17,2.12,0,4.23,0,6.34.18a.36.36,0,0,1,.3.21,81.54,81.54,0,0,1,4.4,7.38c.3.57.59,1.14.89,1.71a.36.36,0,0,1,0,.37A83.64,83.64,0,0,1,49,57.77a.38.38,0,0,1-.33.22c-1.8.1-3.6.18-5.21.16-1.92,0-3.64,0-5.36-.15a.4.4,0,0,1-.34-.2A75.3,75.3,0,0,1,32.44,48.71ZM55.69,51.4c.46,1.05.88,2.05,1.25,3.07.24.66.46,1.33.7,2,.07.19,0,.26-.16.3-1.68.36-3.37.66-5.08.86l-.3,0C53.37,55.62,54.56,53.56,55.69,51.4Zm0-6.13-.08.16c-1.1-2.08-2.27-4.1-3.56-6.13.56.07,1,.13,1.54.21,1.22.19,2.44.42,3.65.68.25.05.29.12.22.36C57,42.14,56.4,43.71,55.74,45.26ZM43.18,32.14c.11-.12.17-.16.3,0q1.74,1.93,3.31,4l.08.13c-2.38-.12-4.71-.12-7.05,0a.8.8,0,0,1,.22-.34Q41.51,34,43.18,32.14Zm-15.11-5.7a3.19,3.19,0,0,1,1.46-1.85,3.49,3.49,0,0,1,2.37-.26,14.37,14.37,0,0,1,4.88,2.06A30.62,30.62,0,0,1,41.37,30c.12.11.14.19,0,.32a58.8,58.8,0,0,0-4.9,6.06.46.46,0,0,1-.4.16c-1.06.1-2.11.23-3.16.38q-2.19.31-4.34.79c-.16,0-.25,0-.3-.16a30,30,0,0,1-.89-7.07A12.25,12.25,0,0,1,28.06,26.44ZM26.57,56c0,.12,0,.22-.22.16A24.83,24.83,0,0,1,19,52.73a10.2,10.2,0,0,1-2.62-2.54,3,3,0,0,1,.17-3.79,12,12,0,0,1,3.35-2.8A27.26,27.26,0,0,1,26.07,41c.47-.14.47-.14.62.32a60.06,60.06,0,0,0,2.65,6.82.7.7,0,0,1,0,.65A61.12,61.12,0,0,0,26.57,56ZM41.49,67a24.69,24.69,0,0,1-6.83,4.79,10.56,10.56,0,0,1-3,.9l-.53,0a3,3,0,0,1-3-2.1,11.62,11.62,0,0,1-.72-3.9,26.79,26.79,0,0,1,.86-7.2c0-.17.09-.2.25-.16,1.48.33,3,.57,4.48.77,1.07.14,2.14.25,3.22.35a.42.42,0,0,1,.35.19,62.06,62.06,0,0,0,4.92,6.07C41.56,66.8,41.61,66.86,41.49,67Zm2.06-2.13c-.11.12-.17.16-.31,0-1.19-1.3-2.31-2.65-3.38-4.05l-.08-.13c2.39.09,4.73.08,7.15,0l-.8,1.06Q44.91,63.33,43.56,64.84Zm15,5.46A3.38,3.38,0,0,1,56.7,72.5a3.93,3.93,0,0,1-2.42,0,15.42,15.42,0,0,1-5.18-2.47A31.71,31.71,0,0,1,45.35,67c-.11-.11-.14-.17,0-.3a59.93,59.93,0,0,0,4.78-6.08.45.45,0,0,1,.37-.22,56.24,56.24,0,0,0,7.66-1.17c.21,0,.28,0,.33.21a28.44,28.44,0,0,1,.8,6.23A14.15,14.15,0,0,1,58.58,70.29ZM69.92,50.64a14.39,14.39,0,0,1-4.34,3.27A30,30,0,0,1,60.46,56c-.18.06-.26,0-.33-.17a58.18,58.18,0,0,0-2.84-7.12.6.6,0,0,1,0-.57,58.79,58.79,0,0,0,2.73-7c.06-.2.13-.23.33-.17A27.22,27.22,0,0,1,67,43.82a11.28,11.28,0,0,1,3.2,2.77,3.05,3.05,0,0,1,.65,1.87A3.48,3.48,0,0,1,69.92,50.64ZM43.28,53.78a5.38,5.38,0,1,0-5.36-5.4A5.38,5.38,0,0,0,43.28,53.78Zm0-10.76a5.38,5.38,0,1,0,5.36,5.39A5.37,5.37,0,0,0,43.31,43Zm0,0a5.38,5.38,0,1,0,5.36,5.39A5.37,5.37,0,0,0,43.31,43Zm0,0a5.38,5.38,0,1,0,5.36,5.39A5.37,5.37,0,0,0,43.31,43Zm0,0a5.38,5.38,0,1,0,5.36,5.39A5.37,5.37,0,0,0,43.31,43Zm0,0a5.38,5.38,0,1,0,5.36,5.39A5.37,5.37,0,0,0,43.31,43Zm0,0a5.38,5.38,0,1,0,5.36,5.39A5.37,5.37,0,0,0,43.31,43Zm0,0a5.38,5.38,0,1,0,5.36,5.39A5.37,5.37,0,0,0,43.31,43Zm0,0a5.38,5.38,0,1,0,5.36,5.39A5.37,5.37,0,0,0,43.31,43Zm0,0a5.38,5.38,0,1,0,5.36,5.39A5.37,5.37,0,0,0,43.31,43Zm0,0a5.38,5.38,0,1,0,5.36,5.39A5.37,5.37,0,0,0,43.31,43Z"/><path class="cls-2" d="M48.67,48.42A5.37,5.37,0,1,1,43.31,43,5.38,5.38,0,0,1,48.67,48.42Z"/><path class="cls-2" d="M48.67,48.42A5.37,5.37,0,1,1,43.31,43,5.38,5.38,0,0,1,48.67,48.42Z"/></g></g></svg>