<svg xmlns="http://www.w3.org/2000/svg" viewBox="0 0 86.6 95.98"><defs><style>.cls-1{fill:#f13e43;}.cls-2{fill:#fff;}</style></defs><title>ruby</title><g id="Layer_2" data-name="Layer 2"><g id="Layer_1-2" data-name="Layer 1"><path class="cls-1" d="M0,30.49v35A13,13,0,0,0,6.5,76.74l30.31,17.5a13,13,0,0,0,13,0l30.31-17.5a13,13,0,0,0,6.5-11.25v-35a13,13,0,0,0-6.5-11.25L49.8,1.74a13,13,0,0,0-13,0L6.5,19.24A13,13,0,0,0,0,30.49Z"/><path class="cls-2" d="M63.84,42q0-4.83,0-9.66a11.89,11.89,0,0,0-.61-3.88,8.69,8.69,0,0,0-2.44-3.71,9.88,9.88,0,0,0-4.09-2.14A6.59,6.59,0,0,0,55,22.27H44.69a3.68,3.68,0,0,0-1.32.24L33,26.34a.77.77,0,0,0-.25.14l-9.25,8.08a.73.73,0,0,0-.14.18L17.22,44.9a.77.77,0,0,0-.11.42q0,5.95,0,11.9c0,.79,0,1.57.08,2.35A13,13,0,0,0,18,63.13a8.75,8.75,0,0,0,2.81,3.79A10.34,10.34,0,0,0,26,68.87,24,24,0,0,0,29,69H63.61c.19,0,.23,0,.23-.23q0-9.33,0-18.65Q63.84,46,63.84,42ZM52.61,26.16c.58,0,1.17,0,1.75,0,2.77.15,4.89,1.73,5.39,4.36a10.4,10.4,0,0,1,.14,2.75c0,.42-.08.84-.16,1.29l-10-8.4ZM47.55,37.69q1-3.23,2-6.46l0-.09,8,6.7H47.67C47.56,37.84,47.5,37.85,47.55,37.69Zm9.76,4.05a45.43,45.43,0,0,1-6.55,9.56l-3.58-9.56ZM21.39,45.52l4.18-7a5,5,0,0,0,.28-.47,5.67,5.67,0,0,1,1.6-1.84q3.65-3.16,7.28-6.35a.78.78,0,0,1,.25-.14l8.86-3.27a.22.22,0,0,1,.26,0l2.15,1.8a.22.22,0,0,1,.09.28q-1.46,4.62-2.9,9.24a.58.58,0,0,1-.15.24L33.8,47.6a.46.46,0,0,1-.27.14l-5.5.92-4.51.75h-.1c-.08,0-.11,0-.14-.09l-1.94-3.54C21.29,45.66,21.34,45.6,21.39,45.52ZM46.88,52l-8.74-3.28,5.48-5.4Zm-23.36,12a4.85,4.85,0,0,1-2-2.59A9.88,9.88,0,0,1,21,58.23c0-1.61,0-3.22,0-4.83,0,0,0,0,0-.13l6.44,11.8A7.85,7.85,0,0,1,23.52,64.07ZM30,61.56,25.32,53l6.78-1.13ZM36,52.13l10.14,3.8a37.63,37.63,0,0,1-12.76,8Zm4.26,13s0,0,0,0a50.15,50.15,0,0,0,8.81-6.53l.68-.62c.07-.07.11-.09.2,0L57.13,65l0,.05ZM59.94,62.3l-.05,0a.71.71,0,0,0-.09-.14l-7-7c-.11-.11-.11-.17,0-.29a61.12,61.12,0,0,0,5.08-6.41q1-1.5,1.92-3.08l.16-.28Z"/></g></g></svg>