<svg xmlns="http://www.w3.org/2000/svg" viewBox="0 0 86.6 95.98"><defs><style>.cls-1{fill:#c1668e;}.cls-2{fill:#f3f3f3;}</style></defs><title>sass</title><g id="Layer_2" data-name="Layer 2"><g id="Layer_1-2" data-name="Layer 1"><path class="cls-1" d="M0,30.49v35A13,13,0,0,0,6.5,76.74l30.31,17.5a13,13,0,0,0,13,0l30.31-17.5a13,13,0,0,0,6.5-11.25v-35a13,13,0,0,0-6.5-11.25L49.8,1.74a13,13,0,0,0-13,0L6.5,19.24A13,13,0,0,0,0,30.49Z"/><path class="cls-2" d="M62,21.82a17.12,17.12,0,0,0-7-1.71,31.53,31.53,0,0,0-14,2.71c-5.83,2.43-11.29,5.43-15.8,9.93A20.9,20.9,0,0,0,21.23,38c-2.21,4.3-1.86,7.21,1.28,10.9a39.09,39.09,0,0,0,7.68,6.41,35.59,35.59,0,0,1,4,3l-.76.44a38.24,38.24,0,0,0-8.25,5.65,8.45,8.45,0,0,0-2.93,7.31,4.41,4.41,0,0,0,2.92,3.92,10.28,10.28,0,0,0,6.45-.46,12.43,12.43,0,0,0,7.41-15c-.24-.93.08-1.14.84-1.27a14.75,14.75,0,0,1,5.16.06c2.27.43,4.38,1.19,5.8,3.19A3.92,3.92,0,0,1,49.94,68c-.28.21-.86.36-.58.82s.7.13,1.05,0a5,5,0,0,0,2.93-5.47A8.2,8.2,0,0,0,47.67,57c-3.1-1.16-6.27-.9-9.43-.27-.52.11-1,.3-1.46-.22a34.43,34.43,0,0,0-4.3-3.65,32.54,32.54,0,0,1-5-4.41,7.4,7.4,0,0,1-1.35-8.16,13.59,13.59,0,0,1,3-4.34,38.38,38.38,0,0,1,10-7C44,26.39,49.14,24.55,54.8,24.62a11.83,11.83,0,0,1,5.67,1.31,4,4,0,0,1,2.21,3.88,9,9,0,0,1-2,5.18c-3.44,4.58-8.2,7-13.72,7.94-3.29.58-6.54.59-9.15-2.06a.48.48,0,0,0-.63-.12.57.57,0,0,0-.16.63,3.67,3.67,0,0,0,1,1.77,7.81,7.81,0,0,0,4.64,2.37A23.64,23.64,0,0,0,58.6,42.15a17,17,0,0,0,7.82-10.3A8.18,8.18,0,0,0,62,21.82ZM36.08,61.06c.09.64.16,1.29.2,1.61a9.58,9.58,0,0,1-6.47,9.2,5.16,5.16,0,0,1-1.23.25,1.64,1.64,0,0,1-1.93-1.86,6.8,6.8,0,0,1,1.57-4A20.71,20.71,0,0,1,35.3,60.7C35.79,60.44,36,60.55,36.08,61.06Z"/></g></g></svg>