<svg xmlns="http://www.w3.org/2000/svg" viewBox="0 0 86.6 95.98"><defs><style>.cls-1{fill:#e95138;}.cls-2{fill:#f7f7f7;}</style></defs><title>swift</title><g id="Layer_2" data-name="Layer 2"><g id="Layer_1-2" data-name="Layer 1"><path class="cls-1" d="M0,30.49v35A13,13,0,0,0,6.5,76.74l30.31,17.5a13,13,0,0,0,13,0l30.31-17.5a13,13,0,0,0,6.5-11.25v-35a13,13,0,0,0-6.5-11.25L49.8,1.74a13,13,0,0,0-13,0L6.5,19.24A13,13,0,0,0,0,30.49Z"/><path class="cls-2" d="M12.93,53.16c.8.53,1.59,1.09,2.41,1.58a32.73,32.73,0,0,0,17.13,5,21.82,21.82,0,0,0,11-2.85c.35-.2.49-.31.08-.63A112.15,112.15,0,0,1,27.79,41.1c-2.28-2.62-4.45-5.33-6.62-8a26.08,26.08,0,0,1-3-4.1A187.94,187.94,0,0,0,39.6,45,182.36,182.36,0,0,1,24.91,26.29C29,30.22,33.2,34,37.6,37.61a133.28,133.28,0,0,0,13.8,10,19.25,19.25,0,0,0,1.3-5c.88-7.26-1.31-13.73-5.14-19.77-.29-.46-.61-.91-.92-1.37.17-.13.28,0,.4.08,7.63,5,13.18,11.58,15.85,20.4a23.41,23.41,0,0,1,.25,13.45.87.87,0,0,0,.2.86,20.15,20.15,0,0,1,4.18,9.66,10.3,10.3,0,0,1-.06,3.91,2.35,2.35,0,0,1-.16.48c-.15.3-.32.3-.49,0l-.28-.5a7.59,7.59,0,0,0-8.36-3.9,21.11,21.11,0,0,0-5.64,2A22.74,22.74,0,0,1,40.88,70.1c-10.4-.72-18.69-5.52-25.42-13.28A18.68,18.68,0,0,1,12.93,53.16Z"/></g></g></svg>