<svg xmlns="http://www.w3.org/2000/svg" viewBox="0 0 86.6 95.98"><defs><style>.cls-1{fill:#007acc;}.cls-2{fill:#fff;}</style></defs><title>typescript </title><g id="Layer_2" data-name="Layer 2"><g id="Layer_1-2" data-name="Layer 1"><path class="cls-1" d="M0,30.49v35A13,13,0,0,0,6.5,76.74l30.31,17.5a13,13,0,0,0,13,0l30.31-17.5a13,13,0,0,0,6.5-11.25v-35a13,13,0,0,0-6.5-11.25L49.8,1.74a13,13,0,0,0-13,0L6.5,19.24A13,13,0,0,0,0,30.49Z"/><path class="cls-2" d="M60.36,68a18.08,18.08,0,0,1-7.76-1.53,14.28,14.28,0,0,1-6.74-6.15c-.31-.54-.32-.55.21-.86l5.8-3.37a.31.31,0,0,1,.5.12,13.55,13.55,0,0,0,2.25,2.64,7.36,7.36,0,0,0,4.05,1.86,8.22,8.22,0,0,0,3.8-.28,4.45,4.45,0,0,0,2.38-1.64A3.63,3.63,0,0,0,64,53.94a19.5,19.5,0,0,0-2.63-1.52c-1.74-.84-3.52-1.59-5.27-2.42a16.38,16.38,0,0,1-5.25-3.62,10.07,10.07,0,0,1-2.55-4.77,14.93,14.93,0,0,1-.22-4,9.62,9.62,0,0,1,3-6.41,11.11,11.11,0,0,1,5.7-2.9,14.18,14.18,0,0,1,4.33-.16,20.93,20.93,0,0,1,3,.43A10.62,10.62,0,0,1,70,32.6c.33.43.64.88,1,1.32.21.28.18.48-.13.68-1.68,1.11-3.36,2.24-5,3.37l-.15.1c-.65.42-.66.42-1.13-.22a7.5,7.5,0,0,0-1.78-1.94,4.6,4.6,0,0,0-2.38-.77,5.56,5.56,0,0,0-2.15.22,3.17,3.17,0,0,0-2.14,2.9,3.63,3.63,0,0,0,2.13,3.62c1.35.72,2.76,1.35,4.15,2a38.56,38.56,0,0,1,6.72,3.63,10.41,10.41,0,0,1,4.38,7.42,12.33,12.33,0,0,1-.57,6,10,10,0,0,1-5.24,5.56,15.23,15.23,0,0,1-4.87,1.44C62,67.95,61.16,67.94,60.36,68Z"/><path class="cls-2" d="M24.22,36.12c0-.49,0-.49-.5-.49H13.55c-.52,0-.52,0-.52-.51,0-1.92,0-3.85,0-5.77,0-.88,0-.88.87-.88,5.71,0,25.11,0,29.1,0,.35,0,.43.12.43.44,0,2.08,0,4.16.06,6.24,0,.48,0,.49-.48.49H32.78c-.52,0-.52,0-.52.51q0,15.39,0,30.78c0,.58,0,.58-.6.58H24.81c-.59,0-.59,0-.59-.6C24.22,61.78,24.22,41.26,24.22,36.12Z"/></g></g></svg>