<?xml version="1.0" encoding="UTF-8" standalone="no"?>
<svg width="400px" height="256px" viewBox="0 0 400 256" version="1.1" xmlns="http://www.w3.org/2000/svg" xmlns:xlink="http://www.w3.org/1999/xlink">
    <!-- Generator: Sketch 39 (31667) - http://www.bohemiancoding.com/sketch -->
    <title>Slice</title>
    <desc>Created with Sketch.</desc>
    <defs/>
    <g id="Page-1" stroke="none" stroke-width="1" fill="none" fill-rule="evenodd">
        <g id="yandex_logo_en" transform="translate(0.000000, 58.000000)">
            <g id="Page-1">
                <g id="yandex_logo_en">
                    <g id="Group">
                        <path d="M96.2032137,111.992336 C93.9275532,115.568374 89.5387793,118.494223 85.1500054,118.494223 C78.6481182,118.494223 75.5597218,112.317431 75.5597218,102.889694 C75.5597218,92.3241274 78.9732126,85.3345987 94.7402891,85.3345987 L96.2032137,85.3345987 L96.2032137,111.992336 L96.2032137,111.992336 Z M108.719347,71.0304468 C108.719347,51.1996909 100.754535,45.022898 86.2878357,45.022898 C77.9979295,45.022898 70.5207592,48.4363888 66.7821741,51.5247852 L69.2203818,62.7405407 C73.4466085,59.0019555 78.9732126,55.5884647 85.4750998,55.5884647 C92.6271757,55.5884647 96.2032137,60.1397858 96.2032137,70.8678997 L96.2032137,75.7443151 L94.4151947,75.7443151 C71.4960423,75.7443151 62.5559474,86.7975233 62.5559474,104.352619 C62.5559474,120.44479 70.5207592,129.222337 82.2241562,129.222337 C89.3762321,129.222337 93.9275532,126.133941 97.5035911,121.58262 L98.316327,121.58262 C98.4788742,123.695733 98.9271289,126.196358 99.4147705,127.984377 L110.142884,127.984377 C109.492696,124.083245 108.719347,117.356393 108.719347,109.554129 L108.719347,71.0304468 L108.719347,71.0304468 Z M136.993773,64.5232496 C139.919623,60.4595701 144.470944,56.3958906 149.835001,56.3958906 C154.711416,56.3958906 157.474718,58.5090039 157.474718,64.6857968 L157.474719,127.99927 L170.315947,127.99927 L170.315945,63.5479665 C170.315945,51.0318336 164.626794,45.017588 153.89868,45.017588 C146.258963,45.017588 140.08217,50.0565506 137.806509,53.144947 L136.993773,53.144947 L136.993773,45.992871 L124.315093,45.992871 L124.315095,127.99927 L136.993775,127.99927 L136.993773,64.5232496 L136.993773,64.5232496 Z M222.66492,121.58262 L223.477656,121.58262 L224.452937,127.986389 L233.880674,127.986389 L233.880674,12.0148926 L221.201994,12.0148926 L221.201995,48.1112944 C218.763787,46.3232755 214.700108,45.022898 210.798976,45.022898 C194.38171,45.022898 183.003408,59.8146914 183.003408,90.2110141 C183.003408,115.568374 191.780956,129.222337 207.873126,129.222337 C214.537561,129.222337 219.088882,126.133941 222.66492,121.58262 L222.66492,121.58262 Z M221.201995,112.154883 C219.088882,115.405827 215.675391,118.494223 209.336051,118.494223 C200.070862,118.494223 196.494824,106.790826 196.494824,87.6102592 C196.494824,70.8678997 201.371239,55.4259176 211.611712,55.4259176 C215.837938,55.4259176 218.60124,56.726295 221.201995,59.3270499 L221.201995,112.154883 L221.201995,112.154883 Z M293.53549,122.557903 L290.609641,112.805072 C287.358697,115.080733 282.157188,118.331676 275.005112,118.331676 C264.927187,118.331676 259.725677,108.578845 259.725677,90.0484669 L293.860585,90.0484669 L293.860585,83.0589382 C293.860585,55.2633704 284.92049,45.022898 271.266527,45.022898 C253.873978,45.022898 246.559355,64.2034653 246.559355,90.5361084 C246.559355,115.730921 256.962375,129.222337 273.867281,129.222337 C281.99464,129.222337 288.333981,126.621582 293.53549,122.557903 L293.53549,122.557903 L293.53549,122.557903 Z M271.266527,55.4259176 C278.58115,55.4259176 280.85681,65.6663899 280.85681,79.6454474 L259.888224,79.6454474 C260.70096,65.0162012 263.464262,55.4259176 271.266527,55.4259176 L271.266527,55.4259176 L271.266527,55.4259176 Z M336.610493,46.1607283 L325.394738,75.9068622 L314.829171,46.1607283 L301.662849,46.1607283 L317.104831,85.659693 L300.035339,127.963562 L312.551472,127.963562 L324.907096,94.2746936 L337.583738,127.963562 L350.75006,127.963562 L333.684644,84.5218628 L348.964079,46.1607283 L336.610493,46.1607283 L336.610493,46.1607283 Z" id="Yandex" fill="#000000"/>
                        <polygon id="Path" fill="#FF0000" points="40.8274332 127.985354 40.8274332 86.9467025 70.9967066 0.00836052994 58.1554794 0.00836052994 34.6506403 69.3916071 14.1931382 11.9851065 0.214080757 11.9851065 27.9862059 86.459061 27.986206 127.985354"/>
                    </g>
                </g>
            </g>
        </g>
    </g>
</svg>